<svg xmlns="http://www.w3.org/2000/svg" xmlns:xlink="http://www.w3.org/1999/xlink" viewBox="0 0 336 288"><title>mentor</title><g style="isolation:isolate"><g id="Layer_2" data-name="Layer 2"><g id="Layer_1-2" data-name="Layer 1"><path d="M263.45,245.59c-27.94,3.36-133.08,10.07-116.3,2.24,16.06-1.47,35.22-1.12,51-2.86,2.76-40.47-3.9-84.43-31.93-113.75-7.26-7.6-16-14.09-26-17.21l-2.76-11.65c21.69-1.77,43.46,5.35,61.92,16.89s46.69,37.58,60.73,54.21" fill="#86cfef"/><path d="M263.45,244.75c-21.13,2.52-42.47,3.74-63.71,4.81-11.35.57-22.71,1-34.06,1.08-4.13,0-8.27,0-12.39-.28-1.91-.13-5.17.08-6.85-1-.27-.18-.28-.17.69-.55,2.14-.84,5.44-.53,7.69-.67,2.66-.16,5.32-.28,8-.39,11.8-.49,23.61-.67,35.36-1.9A.87.87,0,0,0,199,245c1.94-29.74-.74-60.92-14-88-6.39-13.07-15.4-25.32-27-34.28a60.82,60.82,0,0,0-9.76-6.25c-2-1-6.59-2-7.47-3.48-1.65-2.76-1.8-7.64-2.55-10.8l-.81,1.06c26.75-1.88,51.91,8.82,72.88,24.75a314,314,0,0,1,49.18,46.11c.7.83,1.88-.37,1.18-1.18a312.68,312.68,0,0,0-50.61-47.21c-20.91-15.66-46.13-26-72.63-24.14a.85.85,0,0,0-.81,1.06c.81,3.43,1.07,7.89,2.61,11,.71,1.45.25.94,2.31,1.73a59.75,59.75,0,0,1,13,6.79c13.65,9.59,23.89,24,30.64,39.09s10.38,31.51,11.88,48a215.2,215.2,0,0,1,.82,23.41c-.05,2.6.85,9.48-.89,11.28-1,1-4.05.76-5.52.87-2.62.2-5.25.35-7.88.48-9.29.46-18.59.62-27.87,1.15-2.59.15-8.82-.87-10.67,1.82s2.31,3.19,4.08,3.45c6.56,1,13.38.72,20,.65,10.22-.12,20.43-.54,30.64-1,21.24-1.08,42.58-2.29,63.71-4.81,1.06-.12,1.08-1.8,0-1.68Z" fill="#6abad3"/><g opacity="0.35" style="mix-blend-mode:darken"><image width="199" height="222" transform="translate(101 65)" xlink:href="mentor1.png"/></g><path d="M111.14,114.6c2.37-2.25,5.52-3.47,8.58-4.63l11.41-4.35.46-.48a8.9,8.9,0,0,1-.78-3.49,3,3,0,0,1,1.92-2.77c1.94-.55,3.5,1.6,4.33,3.44a92.17,92.17,0,0,1,4.61,12.6,6.32,6.32,0,0,1,.26,3.69c-.4,1.19-1.81,2.12-2.93,1.55s-1.22-1.92-1.26-3.09l-1-.24A426.81,426.81,0,0,0,101,145.55" fill="#c64444"/><path d="M112,115.51c3.91-3.28,9-4.69,13.72-6.48,2.15-.82,5.11-1.28,6.73-3a1.25,1.25,0,0,0,.33-1.24l2.56-3a19.77,19.77,0,0,1,1.18,2.51q1,2.24,1.8,4.52c.39,1,.75,2.11,1.1,3.18.26.79.51,1.6.74,2.4.54,1.06.15,1.93-1.18,2.62a1.32,1.32,0,0,0-.94-1.23c-2.68-.63-4.34,1.59-6.43,3.13q-4.93,3.65-9.75,7.42-11.2,8.76-21.8,18.25c-1.23,1.1.58,2.9,1.81,1.81,5.25-4.68,10.59-9.26,16-13.68q4.52-3.66,9.11-7.18c2.64-2,5.74-5.37,8.83-6.58,1.88-.74-.23-1,1.32,1.15a3,3,0,0,0,2.95,1.39c3.2-.38,3.41-3.94,2.88-6.36-.66-3-5.77-22.78-12.22-16.61a4.58,4.58,0,0,0-1.19,4c.22,1.32.7,1.5.17,2.2s-2.91,1.13-3.91,1.51c-5.4,2.06-11.17,3.68-15.66,7.45-1.27,1.06.55,2.86,1.8,1.81Z" fill="#992323"/><path d="M114.33,97.53c9.68-10.19,13.52-26.65,6.41-38.77-6.08-10.36-18.15-15.35-29.46-19.39-5.18-1.85-10.56-3.67-16-3.33-6,.37-11.5,3.28-16.49,6.58-9.1,6-17.49,14.13-20.49,24.61S39.32,90.72,49.32,95l2.2-3.77a45.73,45.73,0,0,1-7.31-12.52,10.82,10.82,0,0,1-1-4.7,11.94,11.94,0,0,1,2.33-5.31C52.93,57.62,62.82,46.34,76.08,45c6.58-.66,13.16,1.27,19.2,4,7.09,3.14,14,7.56,18,14.2s4.43,15.88-.61,21.77" fill="#c64444"/><path d="M115.24,98.44c7.76-8.53,12.23-20.5,9.78-32-2.66-12.59-13.41-20.09-24.57-24.86C88,36.23,75.72,31.83,63,38.56c-11,5.84-22,15.36-25.76,27.59-3.47,11.13.46,24.77,11.42,30a1.31,1.31,0,0,0,1.75-.46l2.19-3.77a1.33,1.33,0,0,0-.2-1.55c-3.29-4.16-7.57-10-7.58-15.44,0-4.9,4.88-10.16,7.89-13.79C58.66,54,66.46,47.27,76.08,46.28c10.09-1,21.33,3.81,29.16,9.95,8.44,6.63,13.59,18.59,6.29,28.05-1,1.3,1.22,2.57,2.21,1.29,7.57-9.81,3-22.85-5.6-30.29-9.39-8.1-24.33-14.08-36.7-10.71-11.77,3.2-20.66,13.61-27,23.53-3.25,5.12-2.64,8.89-.1,14.27a46.85,46.85,0,0,0,2.73,5c.64,1,2.21,2.46,2.5,3.58.25,1,.67-.88-.06,1.2a14.65,14.65,0,0,1-1.33,2.29L50,93.94c-13.21-6.31-13.74-23.3-6.83-34.47,7.51-12.14,24.14-24.7,39-21.56,12.69,2.69,29.25,9,36.7,20.23,8.07,12.17,3.86,28.31-5.41,38.49-1.11,1.21.7,3,1.81,1.81Z" fill="#992323"/><path d="M36.75,103.26A367.83,367.83,0,0,1,82.51,65.6,7.25,7.25,0,0,1,86.32,64a7.3,7.3,0,0,1,3.74,1.37l13.16,7.75c4.27,2.52,8.77,5.27,11,9.68s1.83,9.83,1.14,14.8A243.73,243.73,0,0,1,104.2,144a8.21,8.21,0,0,1-2.21,3.84,6.86,6.86,0,0,1-4.06,1.26c-7.7.39-14.79-4-21.22-8.3Q62,131,47.72,120.56c-5.63-4.11-11.87-9.92-10.43-16.68" fill="#c64444"/><path d="M37.66,104.17Q48.34,93.87,59.77,84.41q5.59-4.6,11.38-9c3.8-2.88,7.77-6.52,12-8.72,3.43-1.77,4.76-1.09,7.91.69,2.22,1.25,4.39,2.59,6.58,3.88a112.07,112.07,0,0,1,10,6.13c10,7.36,6.81,19.3,4.9,29.82A242.42,242.42,0,0,1,105.82,135c-1.55,5.06-2.71,12.73-9.53,12.92-5.19.14-10.43-2.81-14.71-5.41-7.77-4.73-15.2-10.14-22.63-15.4-7.07-5-21.85-12.38-20.43-22.84.22-1.61-2.24-2.3-2.46-.68-.93,6.84,3.29,11.91,8.33,16.06,7.31,6,15.41,11.24,23.2,16.59s31.62,24.29,37.84,8.18a192.88,192.88,0,0,0,8-28.34c1.85-8.5,4.38-18.13,3.78-26.9-.5-7.23-4.87-11.9-10.75-15.61C102.36,71,98.14,68.6,94,66.15c-2.61-1.53-5.5-3.91-8.7-3.3-4.16.78-8.41,5.14-11.73,7.59q-6.09,4.5-12,9.24Q48.18,90.42,35.85,102.36c-1.19,1.14.62,3,1.81,1.81Z" fill="#992323"/><g opacity="0.36" style="mix-blend-mode:darken"><image width="179" height="186" xlink:href="mentor2.png"/></g><path d="M229.54,242.65c3.11-10.64,10.59-20.09,20.62-24.8s22.51-4.26,31.76,1.84c8.14,5.37,13.13,14.29,17.58,23,.48,1,.95,2.14.34,3a3,3,0,0,1-1.69.93,136.67,136.67,0,0,1-54.5,4.17c-5.8-.74-12.45-2.53-14.72-7.92Z" fill="#af9471"/><path d="M263.34,219.85c2-14.22-3.47-28.53-2.71-42.86" fill="#86b276"/><path d="M265,219.85c1.66-14.42-3.21-28.46-2.71-42.86.07-2.16-3.28-2.16-3.36,0-.5,14.4,4.37,28.45,2.71,42.86-.25,2.14,3.11,2.13,3.36,0Z" fill="#73a364"/><path d="M260.77,177c-1.11-3.8,1.66-7.66,4.78-10.09a14.46,14.46,0,0,1,8.12-3.45,13,13,0,0,1,8.44,3.24,38.35,38.35,0,0,1,6.1,6.92c.28.37.56.84.37,1.25a1.27,1.27,0,0,1-.48.47,19.8,19.8,0,0,1-13.66,2.51A41.75,41.75,0,0,1,261.19,173" fill="#86b276"/><path d="M262.39,176.55c-1-5.67,6.05-11.2,11.28-11.41,4.92-.19,8.67,3.7,11.48,7.21,2.23,2.78,1.11,2.45-1.76,3.32a19.37,19.37,0,0,1-7.38.68c-5-.43-9.6-2.54-14-4.82-1.91-1-3.61,1.9-1.69,2.9,7.11,3.7,15.09,6.74,23.18,4.67,2-.5,6-1.5,6.68-3.78s-2-4.5-3.16-5.94c-4.52-5.47-11-9.49-18.11-6.46-5.79,2.45-10.89,8-9.78,14.53.36,2.12,3.59,1.22,3.24-.9Z" fill="#73a364"/><path d="M260,175c-3.87,4.44-11,4.57-16.26,1.86-2.9-1.51-5.76-3.82-9-3.38,2.78-4,6.33-8.48,11.22-8.48,3,0,5.63,1.71,8.1,3.36l6.73,4.5" fill="#86b276"/><path d="M258.83,173.77c-8.17,8.16-15.55-2-24.07-2l1.45,2.52c3.24-4.59,7.18-9.3,13.34-6.66,3.71,1.6,7.07,4.41,10.42,6.65,1.8,1.2,3.48-1.71,1.69-2.9-4.69-3.13-10.33-8.45-16.39-8-5.45.38-9.06,5.12-12,9.24a1.69,1.69,0,0,0,1.45,2.52c5.5,0,9.84,4.92,15.59,5.17a14,14,0,0,0,10.85-4.13,1.68,1.68,0,0,0-2.37-2.37Z" fill="#73a364"/><g opacity="0.35" style="mix-blend-mode:darken"><image width="144" height="110" transform="translate(192 178)" xlink:href="mentor3.png"/></g><path d="M283.2,160.35a12.48,12.48,0,0,0,4.85-8.42c1.08,3.7,2.28,7.59,5.13,10.18a14,14,0,0,0-6.65,10.5c-.18-1.81.42-3.62.33-5.44a7.4,7.4,0,0,0-4-6.13" fill="#efdb7b"/><path d="M283.62,160.78a13.88,13.88,0,0,0,5-8.69h-1.17a37,37,0,0,0,2.23,6.23c.53,1.06,2.31,3,2.08,4-.14.59-2.14,1.91-2.55,2.4a15.34,15.34,0,0,0-1.43,2.05,15.51,15.51,0,0,0-1.85,5.67l1.19.16c-.05-5.11,1-9-3.93-12.09a.6.6,0,0,0-.61,1c4.55,2.8,3.29,6.69,3.33,11.05,0,.65,1.09.86,1.19.16a14,14,0,0,1,6.36-10.14.61.61,0,0,0,.13-.95c-2.74-2.79-3.89-6.25-5-9.91-.16-.53-1.06-.62-1.17,0a13.15,13.15,0,0,1-4.7,8.16c-.6.49.26,1.34.85.85Z" fill="#f7db34"/><path d="M294.7,189a6.52,6.52,0,0,1-3.36-3.22,13.46,13.46,0,0,1-1.19,4.91c1.51.78,2.25,2.48,2.88,4.05a9.85,9.85,0,0,1,2-5.9" fill="#efdb7b"/><path d="M294.87,188.71a6.64,6.64,0,0,1-3.25-3.09c-.16-.31-.59-.14-.61.16a14.68,14.68,0,0,1-1.14,4.75.34.34,0,0,0,.12.45,7.16,7.16,0,0,1,2.72,3.85.33.33,0,0,0,.65-.09,10.13,10.13,0,0,1,2-5.73c.25-.35-.32-.67-.56-.33a10.66,10.66,0,0,0-2.07,6.06l.65-.09a16,16,0,0,0-1-2.18c-.39-.65-1.17-1.14-1.52-1.75s.16-1.16.32-1.73a14.55,14.55,0,0,0,.53-3.21l-.61.17a7.24,7.24,0,0,0,3.49,3.33c.38.18.71-.39.33-.57Z" fill="#f7db34"/><path d="M268.2,177.61a7,7,0,0,0,2.78-6.09,15.48,15.48,0,0,0,3.64,6.44,3.75,3.75,0,0,0-2.56,2.33,11.25,11.25,0,0,0-.65,3.52,12.43,12.43,0,0,0-3.18-6.5" fill="#efdb7b"/><path d="M268.62,178a7.94,7.94,0,0,0,3-6.51l-1.17.16a17.65,17.65,0,0,0,3.79,6.7l.26-1c-2.88,1-3.41,3.67-3.64,6.42l1.16-.16a14,14,0,0,0-3.33-6.75c-.51-.58-1.34.26-.84.83a13,13,0,0,1,3,6.24c.13.69,1.11.46,1.16-.16.18-2.09.37-4.47,2.77-5.28a.6.6,0,0,0,.27-1,16.1,16.1,0,0,1-3.48-6.17.6.6,0,0,0-1.17.15,6.81,6.81,0,0,1-2.61,5.67c-.59.49.25,1.33.84.84Z" fill="#f7db34"/></g></g></g></svg>