<svg xmlns="http://www.w3.org/2000/svg" xmlns:xlink="http://www.w3.org/1999/xlink" viewBox="0 0 405 263"><title>winner</title><g style="isolation:isolate"><g id="Layer_2" data-name="Layer 2"><g id="Layer_1-2" data-name="Layer 1"><path d="M306.59,49.49V64.76A60.33,60.33,0,0,1,256,124.2a107.46,107.46,0,0,1-15,17.39v8a3.12,3.12,0,0,1-3.13,3.13h-3.13v6.57a15.71,15.71,0,0,1,12.2,12.2h12.83a3.14,3.14,0,0,1,3.13,3.13v31.28h6.25a3.14,3.14,0,0,1,3.13,3.13v12.52a3.11,3.11,0,0,1-3.13,3.12H169a3.11,3.11,0,0,1-3.13-3.12V209a3.13,3.13,0,0,1,3.13-3.13h6.25V174.63a3.14,3.14,0,0,1,3.13-3.13h12.83a15.75,15.75,0,0,1,12.2-12.2v-6.57h-3.13a3.12,3.12,0,0,1-3.13-3.13v-8a108.77,108.77,0,0,1-15-17.39A60.35,60.35,0,0,1,131.4,64.76V49.49a3.13,3.13,0,0,1,3.13-3.12h28.16V40.11A3.14,3.14,0,0,1,165.82,37H272.18a3.14,3.14,0,0,1,3.13,3.13v6.26h28.16A3.12,3.12,0,0,1,306.59,49.49Zm-6.25,15.27V52.62h-25v9.83a108.46,108.46,0,0,1-14.67,54.34A54.06,54.06,0,0,0,300.34,64.76Zm-31.29-2.31V43.24H169V62.45a102.15,102.15,0,0,0,33.38,75.45,3.17,3.17,0,0,1,1,2.32v6.25h31.28v-6.25a3.17,3.17,0,0,1,1-2.32A102.15,102.15,0,0,0,269.05,62.45Zm-3.12,156v-6.26H172.07v6.26Zm-9.39-12.52V177.76H181.46v28.15ZM197.63,171.5h42.74a9.49,9.49,0,0,0-8.86-6.26h-25A9.52,9.52,0,0,0,197.63,171.5ZM228.38,159v-6.26H209.61V159Zm-51-42.2a108.49,108.49,0,0,1-14.7-54.34V52.62h-25V64.76A54.08,54.08,0,0,0,177.39,116.79Z" fill="#dbc35e"/><path d="M300.34,52.62V64.76a54.06,54.06,0,0,1-39.7,52,108.46,108.46,0,0,0,14.67-54.34V52.62Z" fill="#ffeb8b"/><path d="M269.05,43.24V62.45a102.15,102.15,0,0,1-33.38,75.45,3.17,3.17,0,0,0-1,2.32v6.25H203.36v-6.25a3.17,3.17,0,0,0-1-2.32A102.15,102.15,0,0,1,169,62.45V43.24Z" fill="#ffeb8b"/><rect x="172.07" y="212.17" width="93.85" height="6.26" fill="#ffeb8b"/><path d="M256.54,177.76v28.15H181.46V177.76h75.08Zm-6.26,21.9V184a3.12,3.12,0,0,0-3.12-3.12H190.84a3.12,3.12,0,0,0-3.12,3.12v15.65a3.11,3.11,0,0,0,3.12,3.13h56.32A3.11,3.11,0,0,0,250.28,199.66Z" fill="#ffeb8b"/><path d="M250.28,184v15.65a3.11,3.11,0,0,1-3.12,3.13H190.84a3.11,3.11,0,0,1-3.12-3.13V184a3.12,3.12,0,0,1,3.12-3.12h56.32A3.12,3.12,0,0,1,250.28,184ZM244,196.53v-9.39H194v9.39Z" fill="#dbc35e"/><rect x="193.97" y="187.14" width="50.05" height="9.39" fill="#ffeb8b"/><path d="M240.37,171.5H197.63a9.52,9.52,0,0,1,8.86-6.26h25A9.49,9.49,0,0,1,240.37,171.5Z" fill="#ffeb8b"/><rect x="209.61" y="152.73" width="18.77" height="6.26" fill="#ffeb8b"/><path d="M162.69,62.45a108.49,108.49,0,0,0,14.7,54.34,54.08,54.08,0,0,1-39.73-52V52.62h25Z" fill="#ffeb8b"/><path d="M140.62,122.87V132a35.86,35.86,0,0,1-30.1,35.32,64.9,64.9,0,0,1-9,10.34v4.76a1.85,1.85,0,0,1-1.86,1.86H97.85v3.9a9.36,9.36,0,0,1,7.26,7.26h7.62a1.86,1.86,0,0,1,1.86,1.86v18.59h3.72a1.87,1.87,0,0,1,1.86,1.86v7.44a1.85,1.85,0,0,1-1.86,1.85H58.81A1.85,1.85,0,0,1,57,225.14V217.7a1.87,1.87,0,0,1,1.86-1.86h3.72V197.25a1.86,1.86,0,0,1,1.86-1.86H72a9.35,9.35,0,0,1,7.25-7.26v-3.9H77.4a1.86,1.86,0,0,1-1.86-1.86v-4.76a63.84,63.84,0,0,1-8.94-10.34A35.84,35.84,0,0,1,36.5,132v-9.08A1.86,1.86,0,0,1,38.36,121H55.09v-3.72A1.86,1.86,0,0,1,57,115.44h63.22a1.86,1.86,0,0,1,1.86,1.85V121h16.73A1.87,1.87,0,0,1,140.62,122.87ZM136.9,132v-7.22H122v5.84a64.76,64.76,0,0,1-8.72,32.3A32.18,32.18,0,0,0,136.9,132Zm-18.59-1.38V119.15H58.81v11.42a60.73,60.73,0,0,0,19.84,44.85,1.84,1.84,0,0,1,.61,1.37v3.72H97.85v-3.72a1.85,1.85,0,0,1,.62-1.37A60.76,60.76,0,0,0,118.31,130.57Zm-1.86,92.71v-3.72H60.67v3.72Zm-5.58-7.44V199.1H66.25v16.74Zm-35-20.45h25.4A5.61,5.61,0,0,0,96,191.67H81.12A5.61,5.61,0,0,0,75.86,195.39ZM94.14,188v-3.72H83V188ZM63.81,162.87a64.66,64.66,0,0,1-8.72-32.3v-5.84H40.22V132A32.15,32.15,0,0,0,63.81,162.87Z" fill="#dbc35e"/><path d="M136.9,124.73V132a32.18,32.18,0,0,1-23.59,30.92,64.76,64.76,0,0,0,8.72-32.3v-5.84Z" fill="#ffeb8b"/><path d="M118.31,119.15v11.42a60.76,60.76,0,0,1-19.84,44.85,1.85,1.85,0,0,0-.62,1.37v3.72H79.26v-3.72a1.84,1.84,0,0,0-.61-1.37,60.73,60.73,0,0,1-19.84-44.85V119.15Z" fill="#ffeb8b"/><rect x="60.67" y="219.56" width="55.78" height="3.72" fill="#ffeb8b"/><path d="M110.87,199.1v16.74H66.25V199.1h44.62Zm-3.72,13v-9.3a1.87,1.87,0,0,0-1.86-1.86H71.82A1.87,1.87,0,0,0,70,202.82v9.3A1.86,1.86,0,0,0,71.82,214h33.47A1.86,1.86,0,0,0,107.15,212.12Z" fill="#ffeb8b"/><path d="M107.15,202.82v9.3a1.86,1.86,0,0,1-1.86,1.86H71.82A1.86,1.86,0,0,1,70,212.12v-9.3A1.87,1.87,0,0,1,71.82,201h33.47A1.87,1.87,0,0,1,107.15,202.82Zm-3.72,7.44v-5.58H73.68v5.58Z" fill="#dbc35e"/><rect x="73.68" y="204.68" width="29.75" height="5.58" fill="#ffeb8b"/><path d="M101.26,195.39H75.86a5.61,5.61,0,0,1,5.26-3.72H96A5.61,5.61,0,0,1,101.26,195.39Z" fill="#ffeb8b"/><rect x="82.98" y="184.23" width="11.16" height="3.72" fill="#ffeb8b"/><path d="M55.09,130.57a64.66,64.66,0,0,0,8.72,32.3A32.15,32.15,0,0,1,40.22,132v-7.22H55.09Z" fill="#ffeb8b"/><path d="M368.7,151.08v6.17a24.42,24.42,0,0,1-20.49,24,44.16,44.16,0,0,1-6.07,7v3.24a1.27,1.27,0,0,1-1.27,1.26h-1.26v2.66a6.38,6.38,0,0,1,4.93,4.93h5.18a1.27,1.27,0,0,1,1.27,1.26v12.65h2.53a1.27,1.27,0,0,1,1.26,1.27v5.06a1.27,1.27,0,0,1-1.26,1.26H313a1.27,1.27,0,0,1-1.26-1.26v-5.06a1.27,1.27,0,0,1,1.26-1.27h2.53V201.67a1.27,1.27,0,0,1,1.27-1.26H322a6.36,6.36,0,0,1,4.94-4.93v-2.66h-1.27a1.27,1.27,0,0,1-1.26-1.26v-3.24a43.78,43.78,0,0,1-6.09-7,24.4,24.4,0,0,1-20.47-24v-6.17a1.26,1.26,0,0,1,1.26-1.26h11.38v-2.53a1.27,1.27,0,0,1,1.27-1.27h43a1.27,1.27,0,0,1,1.27,1.27v2.53h11.38A1.27,1.27,0,0,1,368.7,151.08Zm-2.53,6.17v-4.9H356.05v4a43.77,43.77,0,0,1-5.95,22A21.88,21.88,0,0,0,366.17,157.25Zm-12.65-.93v-7.77H313v7.77a41.35,41.35,0,0,0,13.5,30.51,1.25,1.25,0,0,1,.42.93v2.53h12.65v-2.53a1.27,1.27,0,0,1,.41-.93A41.32,41.32,0,0,0,353.52,156.32Zm-1.27,63.06v-2.53H314.31v2.53Zm-3.79-5.06V202.94H318.1v11.38Zm-23.82-13.91h17.28a3.79,3.79,0,0,0-3.58-2.53H328.22A3.81,3.81,0,0,0,324.64,200.41Zm12.44-5.06v-2.53h-7.59v2.53Zm-20.63-17.06a43.86,43.86,0,0,1-5.94-22v-4H300.4v4.9A21.87,21.87,0,0,0,316.45,178.29Z" fill="#dbc35e"/><path d="M366.17,152.35v4.9a21.88,21.88,0,0,1-16.07,21,43.77,43.77,0,0,0,5.95-22v-4Z" fill="#ffeb8b"/><path d="M353.52,148.55v7.77A41.32,41.32,0,0,1,340,186.83a1.27,1.27,0,0,0-.41.93v2.53H327v-2.53a1.25,1.25,0,0,0-.42-.93A41.35,41.35,0,0,1,313,156.32v-7.77Z" fill="#ffeb8b"/><rect x="314.31" y="216.85" width="37.95" height="2.53" fill="#ffeb8b"/><path d="M348.46,202.94v11.38H318.1V202.94h30.36Zm-2.53,8.85v-6.32a1.27,1.27,0,0,0-1.27-1.27H321.9a1.27,1.27,0,0,0-1.27,1.27v6.32a1.27,1.27,0,0,0,1.27,1.27h22.76A1.27,1.27,0,0,0,345.93,211.79Z" fill="#ffeb8b"/><path d="M345.93,205.47v6.32a1.27,1.27,0,0,1-1.27,1.27H321.9a1.27,1.27,0,0,1-1.27-1.27v-6.32a1.27,1.27,0,0,1,1.27-1.27h22.76A1.27,1.27,0,0,1,345.93,205.47Zm-2.53,5.06v-3.8H323.16v3.8Z" fill="#dbc35e"/><rect x="323.16" y="206.73" width="20.24" height="3.79" fill="#ffeb8b"/><path d="M341.92,200.41H324.64a3.81,3.81,0,0,1,3.58-2.53h10.12A3.79,3.79,0,0,1,341.92,200.41Z" fill="#ffeb8b"/><rect x="329.49" y="192.82" width="7.59" height="2.53" fill="#ffeb8b"/><path d="M310.51,156.32a43.86,43.86,0,0,0,5.94,22,21.87,21.87,0,0,1-16.05-21v-4.9h10.11Z" fill="#ffeb8b"/><g opacity="0.25" style="mix-blend-mode:multiply"><image width="248" height="261" transform="translate(96)" xlink:href="winner1.png"/></g><g opacity="0.25" style="mix-blend-mode:multiply"><image width="177" height="184" transform="translate(0 79)" xlink:href="winner2.png"/></g><g opacity="0.25" style="mix-blend-mode:multiply"><image width="144" height="148" transform="translate(261 110)" xlink:href="winner3.png"/></g></g></g></g></svg>