<?xml version="1.0" encoding="utf-8"?>
<!-- Generator: Adobe Illustrator 22.1.0, SVG Export Plug-In . SVG Version: 6.00 Build 0)  -->
<svg version="1.1" id="Layer_1" xmlns="http://www.w3.org/2000/svg" xmlns:xlink="http://www.w3.org/1999/xlink" x="0px" y="0px"
	 viewBox="0 0 608.5 133" style="enable-background:new 0 0 608.5 133;" xml:space="preserve">
<style type="text/css">
	.st0{fill:#FFFFFF;}
</style>
<title>Microsoft Logo</title>
<path class="st0" d="M215,74.9l-3.6,10.2h-0.3c-0.6-2.3-1.7-5.8-3.5-10l-19.3-48.5h-18.9v77.3h12.5V56.2c0-3,0-6.4-0.1-10.6
	c-0.1-2.1-0.3-3.7-0.4-4.9h0.3c0.6,3,1.3,5.2,1.8,6.6l23.2,56.4h8.8l23-56.9c0.5-1.3,1-3.9,1.5-6.1h0.3c-0.3,5.7-0.5,10.8-0.6,13.9
	v49H253V26.4h-18.2L215,74.9z M265.6,48.2h13v55.4h-13V48.2z M272.2,24.8c-2.2,0-4,0.8-5.5,2.2s-2.3,3.2-2.3,5.4
	c0,2.1,0.8,3.9,2.3,5.3s3.3,2.1,5.5,2.1s4.1-0.8,5.5-2.1c1.5-1.4,2.3-3.2,2.3-5.3s-0.8-3.9-2.3-5.4
	C276.4,25.6,274.5,24.8,272.2,24.8 M324.7,47.7c-2.4-0.5-4.9-0.8-7.3-0.8c-5.9,0-11.3,1.3-15.8,3.9s-8.1,6.2-10.4,10.7
	c-2.4,4.6-3.6,9.9-3.6,16c0,5.3,1.2,10,3.5,14.3c2.3,4.2,5.5,7.6,9.8,9.9c4.1,2.3,8.9,3.5,14.3,3.5c6.2,0,11.5-1.3,15.7-3.7l0.1-0.1
	v-12l-0.5,0.4c-1.9,1.4-4.1,2.6-6.3,3.3c-2.3,0.8-4.4,1.2-6.2,1.2c-5.2,0-9.3-1.5-12.2-4.8c-3-3.2-4.5-7.6-4.5-13.1
	c0-5.7,1.5-10.2,4.6-13.5c3.1-3.3,7.2-5,12.2-5c4.2,0,8.5,1.4,12.4,4.2l0.5,0.4V49.8l-0.1-0.1C329.2,49,327.3,48.2,324.7,47.7
	 M367.6,47.3c-3.2,0-6.2,1-8.8,3.1c-2.2,1.8-3.7,4.4-5,7.5h-0.1v-9.7h-13v55.4h13V75.3c0-4.8,1-8.8,3.2-11.7c2.2-3,5-4.5,8.4-4.5
	c1.2,0,2.4,0.3,3.9,0.5c1.4,0.4,2.4,0.8,3.1,1.3l0.5,0.4v-13l-0.3-0.1C371.6,47.6,369.8,47.3,367.6,47.3 M459.5,71.2
	c-4.1-1.7-6.7-3-7.9-4.1c-1-1-1.5-2.4-1.5-4.2c0-1.5,0.6-3,2.1-4s3.2-1.5,5.7-1.5c2.2,0,4.5,0.4,6.7,1s4.2,1.5,5.8,2.7l0.5,0.4V49.3
	l-0.3-0.1c-1.5-0.6-3.5-1.2-5.9-1.7c-2.4-0.4-4.6-0.6-6.4-0.6c-6.2,0-11.3,1.5-15.3,4.8c-4,3.1-5.9,7.3-5.9,12.2
	c0,2.6,0.4,4.9,1.3,6.8s2.2,3.7,4,5.2c1.8,1.4,4.4,3,8,4.5c3,1.3,5.3,2.3,6.7,3.1s2.3,1.7,3,2.4c0.5,0.8,0.8,1.8,0.8,3.1
	c0,3.7-2.8,5.5-8.5,5.5c-2.2,0-4.5-0.4-7.2-1.3s-5.2-2.2-7.3-3.7l-0.5-0.4v12.7l0.3,0.1c1.9,0.9,4.2,1.5,7,2.2
	c2.8,0.5,5.3,0.9,7.5,0.9c6.7,0,12.2-1.5,16.1-4.8c4-3.2,6.1-7.3,6.1-12.6c0-3.7-1-7-3.2-9.5C468.3,75.7,464.7,73.2,459.5,71.2
	 M579.5,87.4c0,11.7,5.5,17.6,16.5,17.6c1.8,0,3.7-0.3,5.5-0.6c1.9-0.4,3.3-0.9,4.1-1.3l0.1-0.1V92.3l-0.5,0.4
	c-0.8,0.5-1.5,0.9-2.7,1.2c-1,0.3-1.9,0.4-2.6,0.4c-2.6,0-4.4-0.6-5.7-2.1c-1.2-1.4-1.8-3.7-1.8-7.1V55.6h0.2V31.8l-0.4,0.1
	l-12.4,3.7l-0.3,0.1L579.5,87.4z M559.9,41.2c0-3.2,0.8-5.7,2.2-7.3s3.5-2.4,6.1-2.4c1.8,0,3.7,0.4,5.8,1.3l0.5,0.3V21.8l-0.3-0.1
	c-1.8-0.6-4.2-1-7.3-1c-3.9,0-7.3,0.9-10.4,2.4c-3.1,1.7-5.4,4-7.1,7.1c-1.7,3-2.6,6.4-2.6,10.3v63.1h13.1V41.2z M551.8,58.9h53.9
	V48.2h-68v10.6L551.8,58.9L551.8,58.9z"/>
<path id="o" class="st0" d="M403,47c-9.1,0-16.4,2.7-21.5,8c-5.2,5.3-7.7,12.6-7.7,21.8c0,8.6,2.6,15.6,7.6,20.7
	c5,5,11.8,7.6,20.3,7.6c8.9,0,16-2.7,21.1-8.1c5.2-5.4,7.7-12.6,7.7-21.5c0-8.8-2.4-15.8-7.3-20.9C418.5,49.5,411.6,47,403,47
	 M413.4,89.6c-2.4,3.1-6.2,4.6-10.9,4.6s-8.5-1.5-11.2-4.8c-2.7-3.1-4-7.6-4-13.3c0-5.9,1.4-10.4,4-13.6c2.7-3.2,6.4-4.8,11.1-4.8
	c4.6,0,8.2,1.5,10.8,4.6c2.6,3.1,4,7.6,4,13.5C417,81.8,415.9,86.5,413.4,89.6"/>
<g transform="translate(105.7)">
	<path id="o_1_" class="st0" d="M402.7,47c-9.1,0-16.4,2.7-21.5,8c-5.2,5.3-7.7,12.6-7.7,21.8c0,8.6,2.6,15.6,7.6,20.7
		c5,5,11.8,7.6,20.3,7.6c8.9,0,16-2.7,21.1-8.1c5.2-5.4,7.7-12.6,7.7-21.5c0-8.8-2.4-15.8-7.3-20.9C418.2,49.5,411.3,47,402.7,47
		 M413.1,89.6c-2.4,3.1-6.2,4.6-10.9,4.6s-8.5-1.5-11.2-4.8c-2.7-3.1-4-7.6-4-13.3c0-5.9,1.4-10.4,4-13.6c2.7-3.2,6.4-4.8,11.1-4.8
		c4.6,0,8.2,1.5,10.8,4.6c2.6,3.1,4,7.6,4,13.5C416.7,81.8,415.6,86.5,413.1,89.6"/>
</g>
<path class="st0" d="M1.8,0.6h61.3v61.3H1.8V0.6z"/>
<path class="st0" d="M69.5,0.6h61.3v61.3H69.5V0.6z"/>
<path class="st0" d="M1.8,68.3h61.3v61.3H1.8V68.3z"/>
<path class="st0" d="M69.5,68.3h61.3v61.3H69.5V68.3z"/>
</svg>
