<?xml version="1.0" encoding="utf-8"?>
<!-- Generator: Adobe Illustrator 22.1.0, SVG Export Plug-In . SVG Version: 6.00 Build 0)  -->
<svg version="1.1" id="Layer_1" xmlns="http://www.w3.org/2000/svg" xmlns:xlink="http://www.w3.org/1999/xlink" x="0px" y="0px"
	 viewBox="0 0 175.7 30.5" style="enable-background:new 0 0 175.7 30.5;" xml:space="preserve">
<style type="text/css">
	.st0{fill:#FFFFFF;}
	.st1{fill:none;stroke:#FFFFFF;stroke-width:0.273;stroke-miterlimit:2.6131;}
</style>
<g>
	<polygon class="st0" points="11.6,0.2 9.7,4.3 7,0.3 7.1,0.2 3.8,0.2 0,8.4 3.3,8.4 5.2,4.2 8,8.4 11,8.4 14.8,0.2 	"/>
	<polygon class="st0" points="0,8.4 3.8,0.1 7,0.1 9.7,4.3 11.6,0.1 14.8,0.1 11,8.4 8,8.4 5.2,4.2 3.3,8.4 	"/>
	<polygon class="st0" points="158.7,8.4 162.5,0.1 165.6,0.1 168.4,4.3 170.2,0.1 173.5,0.1 169.7,8.4 166.6,8.4 163.9,4.2 
		161.9,8.4 	"/>
	<path class="st0" d="M100,8.1c-0.7,0.1-1,0.2-1.7,0.3c-0.8,0.1-1.3,0.1-2,0.1s-1.2-0.1-1.7-0.1c-0.5-0.1-0.9-0.3-1.3-0.5
		c-0.7-0.4-1-0.9-1.2-1.5C92,5.7,92.1,5,92.4,4.2c0.3-0.6,0.7-1.2,1.2-1.7C94,2,94.6,1.6,95.3,1.2c0.7-0.4,1.5-0.7,2.2-0.9
		C98.3,0.1,99.1,0,100,0c0.7,0,1.2,0.1,1.8,0.1c0.5,0.1,1.1,0.3,1.6,0.5l-0.9,2c-0.4-0.2-0.9-0.4-1.3-0.5C100.8,2,100.4,2,99.8,2
		c-0.9,0-1.7,0.2-2.4,0.6c-0.7,0.4-1.2,1-1.5,1.7s-0.3,1.2,0,1.6c0.4,0.4,0.9,0.7,1.6,0.7c0.1,0,0.3,0,0.4-0.1c0.1,0,0.1,0,0.3-0.1
		l0.5-0.9h-1.3l0.9-1.7h3.7L100,8.1L100,8.1z"/>
	<path class="st0" d="M81.1,1.7h0.7c0.5,0,0.9,0.1,1.1,0.3c0.1,0.1,0.1,0.4-0.1,0.8c-0.1,0.4-0.4,0.7-0.8,0.9
		c-0.3,0.2-0.8,0.3-1.4,0.3H80L81.1,1.7L81.1,1.7z M78,8.4l1.4-3h1.1c1.4,0,2.6-0.2,3.5-0.7c0.9-0.5,1.7-1.2,2-2
		c0.4-0.9,0.4-1.5-0.1-2c-0.6-0.4-1.5-0.7-3-0.7h-4.5l-3.8,8.3L78,8.4L78,8.4z"/>
	<polygon class="st0" points="42,8.4 46,0.1 49.5,0.1 48,3.2 51.7,3.2 53.1,0.1 56.7,0.1 52.7,8.4 49.1,8.4 50.6,5.4 47,5.4 
		45.5,8.4 	"/>
	<polygon class="st0" points="35.2,8.4 38.2,2.3 35.2,2.3 36.2,0.1 45.6,0.1 44.5,2.3 41.5,2.3 38.5,8.4 	"/>
	<path class="st0" d="M18.2,2.9c0.5-0.3,1.1-0.5,1.7-0.5s0.9,0.2,1.2,0.5c0.2,0.4,0.2,0.8,0,1.4c-0.2,0.5-0.7,0.9-1.2,1.3
		c-0.5,0.4-1.1,0.5-1.7,0.5S17.3,6,17,5.6c-0.2-0.4-0.2-0.8,0-1.3C17.2,3.7,17.7,3.3,18.2,2.9L18.2,2.9z M13.3,6
		c0,0.5,0.2,0.9,0.6,1.4s0.8,0.7,1.4,0.9c0.5,0.1,1.2,0.3,2,0.3c0.7,0,1.5-0.1,2.2-0.3c0.7-0.2,1.4-0.5,2.1-0.9
		c0.7-0.4,1.3-0.9,1.7-1.4c0.5-0.5,0.9-1.1,1.2-1.7c0.2-0.7,0.4-1.2,0.3-1.7c0-0.5-0.2-0.9-0.6-1.4c-0.3-0.4-0.8-0.7-1.3-0.9
		c-0.6-0.2-1.2-0.3-2-0.3c-0.7,0-1.5,0.1-2.2,0.3c-0.7,0.2-1.4,0.5-2.1,0.9c-0.7,0.4-1.3,0.9-1.8,1.4c-0.4,0.5-0.8,1.1-1.1,1.7
		C13.4,4.9,13.2,5.4,13.3,6L13.3,6z"/>
	<path class="st0" d="M69.8,2.9c0.5-0.3,1.1-0.5,1.7-0.5s0.9,0.2,1.2,0.5c0.3,0.4,0.3,0.8,0.1,1.4c-0.3,0.5-0.7,0.9-1.2,1.3
		C71,6,70.4,6.1,69.8,6.1c-0.6,0-1-0.1-1.2-0.5s-0.2-0.8,0-1.3C68.8,3.7,69.2,3.3,69.8,2.9L69.8,2.9z M64.9,6c0,0.5,0.2,0.9,0.6,1.4
		c0.3,0.4,0.8,0.7,1.3,0.9c0.6,0.1,1.2,0.3,2,0.3c0.7,0,1.4-0.1,2.2-0.3c0.7-0.2,1.4-0.5,2.1-0.9c0.7-0.4,1.3-0.9,1.7-1.4
		c0.5-0.5,0.9-1.1,1.2-1.7c0.2-0.7,0.4-1.2,0.3-1.7c0-0.5-0.2-0.9-0.6-1.4c-0.4-0.4-0.8-0.7-1.4-0.9c-0.5-0.2-1.2-0.3-2-0.3
		c-0.8,0-1.5,0.1-2.2,0.3c-0.7,0.2-1.4,0.5-2.1,0.9c-0.7,0.4-1.3,0.9-1.8,1.4c-0.4,0.5-0.8,1.1-1.1,1.7C64.9,4.9,64.8,5.4,64.9,6
		L64.9,6z"/>
	<path class="st0" d="M114.7,0.1h3.4l-2,4.4c-0.3,0.6-0.4,1-0.1,1.3c0.1,0.3,0.5,0.4,1.2,0.4c0.6,0,1.1-0.1,1.5-0.4
		c0.4-0.3,0.8-0.7,1-1.3l2-4.4h3.4l-2,4.5c-0.6,1.3-1.5,2.3-2.7,2.9c-1.2,0.7-2.6,1-4.3,1c-1.7,0-2.8-0.4-3.4-1s-0.6-1.6,0-2.9
		L114.7,0.1L114.7,0.1z"/>
	<path class="st0" d="M155.3,2.3l-0.1,3.1h-2.8L155.3,2.3L155.3,2.3z M149.7,8.4L151,7h4.3v1.5h3.3l-0.4-8.3h-3.5l-8.2,8.3H149.7
		L149.7,8.4z"/>
	<path class="st0" d="M34.7,0.7c-0.6-0.4-1.6-0.6-3.1-0.6H27l-3.8,8.3h3.4l1.7-3.5h0.9C30,5,30.3,6,30.3,7.7c0,0.1,0,0.4,0,0.7h3.3
		l-0.1-2.6c0-0.3-0.1-0.7-0.2-0.9c-0.1-0.1-0.3-0.3-0.4-0.4c0.6-0.2,0.9-0.4,1.3-0.8c0.4-0.3,0.7-0.7,0.9-1.2
		C35.3,1.7,35.2,1.2,34.7,0.7L34.7,0.7z M31.8,2.7C31.7,3,31.3,3.3,31,3.4c-0.3,0.1-1,0.3-1.7,0.3h-0.7l1.1-2.3h0.7
		c0.6,0,1,0.1,1.2,0.3C31.8,1.9,31.9,2.3,31.8,2.7L31.8,2.7z"/>
	<path class="st0" d="M65.3,0.7c-0.6-0.4-1.6-0.6-3.1-0.6h-4.6l-3.9,8.3h3.4l1.7-3.5h0.9C60.6,5,61,6,61,7.7c0,0.1-0.1,0.4-0.1,0.7
		h3.3l-0.1-2.6C64,5.5,64,5.1,63.8,4.9c-0.1-0.1-0.2-0.3-0.4-0.4c0.6-0.2,0.9-0.4,1.3-0.8C65,3.4,65.3,3,65.6,2.5
		C65.9,1.7,65.8,1.2,65.3,0.7L65.3,0.7z M62.4,2.7c-0.1,0.3-0.4,0.6-0.8,0.7c-0.3,0.1-1,0.3-1.6,0.3h-0.7l1.1-2.3H61
		c0.6,0,1.1,0.1,1.2,0.3C62.4,1.9,62.5,2.3,62.4,2.7L62.4,2.7z"/>
	<path class="st0" d="M112.5,0.7c-0.5-0.4-1.5-0.6-3.1-0.6h-4.6l-3.9,8.3h3.5l1.7-3.5h0.9c0.9,0.1,1.2,1.1,1.2,2.8
		c0,0.1,0,0.4,0,0.7h3.3l-0.1-2.6c0-0.3-0.1-0.7-0.2-0.9c-0.1-0.1-0.3-0.3-0.4-0.4c0.6-0.2,0.9-0.4,1.2-0.8c0.4-0.3,0.7-0.7,0.9-1.2
		C113.2,1.7,113.1,1.2,112.5,0.7L112.5,0.7z M109.6,2.7c-0.1,0.3-0.5,0.6-0.8,0.7c-0.3,0.1-1,0.3-1.7,0.3h-0.7l1.1-2.3h0.7
		c0.6,0,1,0.1,1.2,0.3C109.6,1.9,109.8,2.3,109.6,2.7L109.6,2.7z"/>
	<polygon class="st0" points="122.1,8.4 125.9,0.1 129.1,0.1 130.2,3.4 134.1,0.1 137.3,0.1 133.5,8.4 130.2,8.4 132.4,3.7 128.4,7 
		127.3,3.8 125.2,8.4 	"/>
	<polygon class="st0" points="134.4,8.4 138.3,0.1 141.5,0.1 142.5,3.4 146.5,0.1 149.8,0.1 145.9,8.4 142.6,8.4 144.9,3.7 140.8,7 
		139.8,3.8 137.6,8.4 	"/>
	<path class="st1" d="M17.7,30.4C49.3,8,144.5,11.3,175.7,11.1"/>
</g>
</svg>
