<svg xmlns="http://www.w3.org/2000/svg" viewBox="0 0 126.17 175.75"><title>hacker moose</title><g id="Layer_2" data-name="Layer 2"><g id="Layer_1-2" data-name="Layer 1"><path d="M80.71,54.76l2.69-2.41c.84-.75,1.21-1.49,2.21-1.09,1.57.62,2.62,1.52,4.43,1.64A8.52,8.52,0,0,0,98,49c.78-1.36,1.16-2.94,2.13-4.17s2.9-2,4.1-1c2,1.68-.54,5.08.39,7.53A10.77,10.77,0,0,0,109,44.54a11.79,11.79,0,0,1,.81-3.61c.58-1.1,2-1.88,3.08-1.22.89.56,1,1.79,1,2.84l.16,6.09c0,1.21.34,2.75,1.53,3a2.31,2.31,0,0,0,2-1.11c3.11-4,2-10.4,5.56-14,2,1.89,2.1,5,1.9,7.8A96,96,0,0,1,123.69,55a8.7,8.7,0,0,1-1.16,3.4c-1.11,1.59-3.08,2.3-5,2.79a45.4,45.4,0,0,1-36.74-6.51" fill="#e2d1bf"/><path d="M81.38,55.44c2.19-2,3-2.86,5.88-2.36.88.16,1.6.62,2.53.74a9.63,9.63,0,0,0,5.27-1C97.69,51.57,97.7,50,99.5,48q.66-3.37,4.3-.38l-.23,1.2c.17.52,0,2.11.13,2.77a1,1,0,0,0,1.59.42,13,13,0,0,0,3.32-3.79c.8-1.45.7-3.4,1.44-4.71l.21-1.22,2.68.22c.33.38.07,2.51.08,3.05,0,1.58-.21,3.62.49,5.1,2.82,5.89,6.74-3.31,7.31-5.73.21-.92.39-1.85.62-2.77.39-1.5,0-2.19,1.65-1.37,2,1,.92,5,.7,7-.43,3.93-.41,7.17-3.16,10S115,61,111.27,61.36a45.35,45.35,0,0,1-30-7.52c-1-.68-2,1-1,1.64,10.76,7.15,24.85,10.22,37.47,6.6,5.67-1.62,6.56-4.9,7.38-10.39.77-5.19,2.26-11.48-1.36-15.86a1,1,0,0,0-1.34,0c-2.65,3.18-2.79,6.87-4,10.69-.6,1.84-2.23,4.11-3.49,1.36-.36-.79-.07-3-.1-3.8,0-1.2.17-3-.55-4.09a2.88,2.88,0,0,0-4.31-.76,4.93,4.93,0,0,0-1.69,3.21c-.87,3.47-1.33,5.79-4.39,8.27l1.59.42c-.44-2.39,1.63-6-.63-8-1.53-1.33-3.67-.64-5,.55S98.22,47,97.18,48.5a8.12,8.12,0,0,1-4.74,3.28c-2.3.46-3.73-.56-5.8-1.09-3.17-.82-4.2,1.26-6.61,3.4-.91.82.44,2.16,1.35,1.35Z" fill="#d1bdaa"/><path d="M34.81,130.41a9.42,9.42,0,0,1-4.41,3.64,3.21,3.21,0,0,1-1.64.28,2.64,2.64,0,0,1-2-2.52,7.52,7.52,0,0,1,.81-3.36,122.65,122.65,0,0,1,8.55-16.64" fill="#af9471"/><path d="M34,129.93a8.37,8.37,0,0,1-3,2.8q-4.59-1.9-2-5.23c.72-1.68,1.49-3.32,2.29-5,1.72-3.5,3.62-6.91,5.64-10.25.64-1-1-2-1.64-1a131,131,0,0,0-6.65,12.35c-1.08,2.33-3.23,5.65-2.81,8.37,1,6.25,7.74,1.64,9.8-1.17.73-1-.92-1.93-1.64-1Z" fill="#9b7f61"/><path d="M44.56,48.2a36.51,36.51,0,0,1-23.89-2.05,9,9,0,0,1-3.11-2,14.77,14.77,0,0,1-2.28-3.82C12,33.28,8.72,25,10.18,16.77c.29-1.61,1-3.42,2.18-3.44s2,2.09,2.42,3.84c.88,3.72,1.9,7.38,3,11,.29.9.85,2,1.5,1.63.39-.2.57-.79.72-1.33l2.69-9.86c1.6,1.28,2.25,4.08,2.39,6.67S25,30.47,25.47,33c.17,1,.52,2,1.2,2.23,1.43.47,1.9-2.8,3.17-3.87s2.88.53,3.39,2.46.3,4.06.47,6.11c.1,1.23.41,2.59,1.2,3.14a2.25,2.25,0,0,0,1.28.31,30.34,30.34,0,0,0,7.87-.8m.86,5.05A13.17,13.17,0,0,0,44,42.7" fill="#e2d1bf"/><path d="M44.26,47.11c-8.21,1.9-22.25,2.17-27.33-6A45.77,45.77,0,0,1,12,28.69c-.28-1.07-2.75-15.19,1.29-12.56.78.51,1,4,1.29,5a43.77,43.77,0,0,0,2.13,7.25c.46,1,.76,2.15,2,2.38s1.55-.35,2.15-1.29c1.74-2.71,2.11-7.53,3-10.65l-1.89.5c4.13,4.56-.06,11.15,3,15.71,1.49,2.18,2.25,1,3.83.17s-.59-3.58,2.28-.07c1.59,1.94,1.19,2.56,1.47,4.76a6.42,6.42,0,0,0,.89,3.15c2.27,2.84,7.88,1.22,10.89.59,1.43-.29.82-2.47-.6-2.18-1.66.35-3.51,1-5.2.73-2.74-.37-3.62-.94-3.79-3.84a18.63,18.63,0,0,0-.5-5c-.7-2-2.4-4.22-4.72-3.11-.76.36-.93,1.19-1.5,1.66-.84.69-.55,3.55-1.63-.46a14,14,0,0,1-.1-3.11c-.07-3.84-.06-7.61-2.77-10.6a1.14,1.14,0,0,0-1.89.5l-2,7.39c-1.12,4.13-1.05,1.19-1.82-1.43S16.62,14.78,14,12.88C8.38,8.74,8.69,22.64,9,24.67a48.58,48.58,0,0,0,3.88,13c1.36,3.15,2.62,6.71,5.65,8.62,7.53,4.75,18,4.93,26.37,3,1.42-.32.82-2.5-.6-2.18Z" fill="#d1bdaa"/><path d="M46,47.63a14.8,14.8,0,0,0-.94-5.23c-.51-1.35-2.7-.76-2.18.6a12.84,12.84,0,0,1,.86,4.63,1.13,1.13,0,0,0,2.26,0Z" fill="#d1bdaa"/><path d="M110.23,143.44a10.19,10.19,0,0,0-1.66,6.39c1.84-.56,3-2.29,4.06-3.91a16.65,16.65,0,0,0,2.49,7.71,7.56,7.56,0,0,0,0-4.75c-.39-1.15-.88-2.75.2-3.29.61-.3,1.33,0,2,.07s1.54-.55,1.2-1.15a1.09,1.09,0,0,0-.48-.39,12.26,12.26,0,0,0-6.83-1.4" fill="#af9471"/><path d="M109.41,143a11.84,11.84,0,0,0-1.79,6.86,1,1,0,0,0,1.2.92c2.15-.84,3.4-2.46,4.63-4.35l-1.77-.48a19.12,19.12,0,0,0,2.62,8.19,1,1,0,0,0,1.73-.22,9.41,9.41,0,0,0,.41-3c0-.95-.57-1.9-.58-2.8s-.24-1.09,1.33-1.52c.28-.07.61,0,.9-.09a2.16,2.16,0,0,0,1.3-1.07c1.36-3.24-6.48-3.76-8.18-3.66-1.21.06-1.22,2,0,1.89a12.81,12.81,0,0,1,3.27.18c.37.08,2.41.79,2.4.8-.23.11-.89-.12-1.18-.09a2.14,2.14,0,0,0-1.43.67,2.75,2.75,0,0,0-.5,2.31c.28,2.12,1.06,3.63.43,5.85l1.74-.23a16.88,16.88,0,0,1-2.36-7.23,1,1,0,0,0-1.77-.48c-.92,1.41-1.85,2.84-3.49,3.47l1.2.92a10,10,0,0,1,1.53-5.91c.64-1-1-2-1.64-.95Z" fill="#9b7f61"/><path d="M36.26,110.14c-3.79,17.54,1.41,35.62,6.57,52.8.89,3,1.87,6.08,4.12,8.21s6.2,2.8,8.35.57a64.22,64.22,0,0,1-.5-12.7,6.74,6.74,0,0,1,.81-3.29c.92-1.41,2.69-2,4.32-2.33a50.12,50.12,0,0,1,16.74-.87l1.78,22.24a27.61,27.61,0,0,0,8.14-.93l.33-1c.64-7,3.38-13.58,5.07-20.39a98.38,98.38,0,0,0,2.27-14,180.42,180.42,0,0,0-10.4-80.7l-.75-.18a18,18,0,0,0-10-24.14,37.73,37.73,0,0,1,.6,16.41,2.5,2.5,0,0,1-.92,1.8,2.53,2.53,0,0,1-1.76.11,150.48,150.48,0,0,1-19.16-4.72,3.18,3.18,0,0,1-1.63-.91,3.29,3.29,0,0,1-.52-1.91L48.82,28.1A24.93,24.93,0,0,0,38.27,43.82l.2.77c-.33,6.15-6.88,9.69-12.34,12.53-5.28,2.74-10.41,6-14.2,10.58S5.8,78.34,6.78,84.2c1.08,6.44,5.87,11.64,11.12,15.51,9.09,6.71,21.1,10.63,31.85,7.12C60.11,103.45,67.24,94,72.54,84.5" fill="#af9471"/><path d="M35.35,109.89c-2.34,11.8-1.12,23.64,1.58,35.27,1.42,6.07,3.13,12.09,5,18,1.17,3.74,2.49,8,6.22,9.91,2,1.06,6.18,1.69,7.75-.64.78-1.16.08-3,0-4.36-.21-2.45-.93-6.68-.1-9.08,1.81-5.21,6.9-5.42,11.58-5.75,2.2-.16,7.23-1,8.54,1.12.53.84.37,4.55.45,5.55l.37,4.64.81,10.19a1,1,0,0,0,1,.95c1.66,0,7.15.32,8.62-1.06,1.16-1.09,1-3.86,1.24-5,1.33-7.51,4.35-14.6,5.69-22.12,2.76-15.48,2.72-31.69,1-47.27a182.88,182.88,0,0,0-3.81-21.79q-1.48-6.21-3.4-12.31c-.93-2.94-2.52-6.08-3.21-9,0-.2-.79-.29-.79-.33a1.64,1.64,0,0,0,1.33-2l.31-1.59A18.82,18.82,0,0,0,73.61,32.66a1,1,0,0,0-1.39,1.07,40.54,40.54,0,0,1,1.19,8.84c0,1.39.12,6.25-.59,7.07-2.25,2.58-11.07-.75-13.78-1.47a29.75,29.75,0,0,1-5.18-1.47c-3.15-1.52-3.18-2.66-3.37-6L49.77,28.1c0-.66-.8-1.27-1.43-.82-5,3.57-9.2,8.7-10.65,14.83-.87,3.7-.93,6.54-4.14,9.31-2.76,2.4-6.16,3.9-9.34,5.64C12.82,63.31.68,75.61,7.59,89.6c5.91,12,22.09,20.09,35.12,19.45,14.54-.72,24-12.33,30.65-24.08a1,1,0,0,0-1.64-1c-6.57,11.62-16,23.24-30.6,23.16-12.95-.06-32.5-10-33.57-24.58C7,74.52,12.28,67.56,18.41,63c4.79-3.58,10.5-5.63,15.24-9.22,3.13-2.36,5.32-5.21,5.77-9.16.75-6.48,4.53-11.88,9.88-15.68l-1.43-.81.67,11.67c.11,1.95-.29,4.63.7,6.43.85,1.57,2.48,1.81,4.12,2.33,3.41,1.08,6.91,2,10.4,2.76,2.73.62,8.52,3.25,10.51.1,1.06-1.68.94-5.1,1-7a41.77,41.77,0,0,0-1.23-11.19l-1.4,1.08c9.27,4,13.26,13.64,9.55,23.07a.94.94,0,0,0,.66,1.16c1.17.29,2.13,5.29,2.49,6.41,1,2.89,1.82,5.81,2.61,8.74a181.1,181.1,0,0,1,3.87,17.81A179.61,179.61,0,0,1,94,129.41a132.42,132.42,0,0,1-2.14,19.36c-1.09,5.48-3,10.73-4.4,16.12-.53,2-.45,5.4-1.45,7.23-.75,1.37-2.33,1.69-4.26,1.62-2.16-.07-2,.09-2.56-1.75-.81-2.66-.52-6.49-.74-9.27l-.82-10.19a1,1,0,0,0-1-.95c-5.47-.53-16.33-1.55-20.89,2.57-1.94,1.76-1.92,4.25-2,6.69s.5,5,.18,7.26q1,2.79-2.13,4.05a5.75,5.75,0,0,1-5.06-2.78c-3-3.39-3.9-9.57-5.13-13.84-1.29-4.5-2.5-9-3.47-13.62-2.23-10.44-3.07-21-1-31.51.24-1.2-1.59-1.71-1.83-.51Z" fill="#9b7f61"/><path d="M96.6,123.73c9.14-3,14.1,12.7,13.51,19.09-.11,1.22,1.79,1.21,1.9,0,.72-7.86-5.43-24.33-15.91-20.92-1.16.37-.67,2.21.5,1.83Z" fill="#9b7f61"/><path d="M58.77,74.48c2.83,0,2.83-4.4,0-4.4s-2.83,4.4,0,4.4Z"/><path d="M29.33,65.29c2.83,0,2.83-4.39,0-4.39s-2.83,4.39,0,4.39Z"/><path d="M27.62,83.43a.88.88,0,0,0,0-1.76.88.88,0,0,0,0,1.76Z"/><path d="M31.37,84.22a.88.88,0,0,0,0-1.76.88.88,0,0,0,0,1.76Z"/><rect x="29.47" y="55.07" width="7.12" height="2.85" rx="1.42" ry="1.42" transform="translate(25.96 -8.56) rotate(24.11)" fill="#6d563d"/><rect x="58.89" y="64.04" width="7.12" height="2.85" rx="1.42" ry="1.42" transform="translate(124.91 130.94) rotate(-180)" fill="#6d563d"/><path d="M77.13,109.46l-3,7.81a10,10,0,0,0-.88,3.81,3.33,3.33,0,0,0,2,3.1,33.21,33.21,0,0,0,7.38-9.24" fill="#af9471"/><path d="M76.22,109.2c-1.28,3.39-3.28,7.06-3.8,10.65A4.7,4.7,0,0,0,74.84,125a1,1,0,0,0,1.15-.14,36.78,36.78,0,0,0,7.53-9.44c.59-1.07-1-2-1.64-1a35.16,35.16,0,0,1-7.23,9.05l1.15-.14c-3.77-2,1.18-10.85,2.25-13.66.43-1.15-1.41-1.64-1.83-.51Z" fill="#9b7f61"/><path d="M27.47,98.75H49.23a.87.87,0,0,0,0-1.73H27.47a.87.87,0,0,0,0,1.73Z"/><path d="M64.79,130.36a19.36,19.36,0,0,0,12.14-7.58,102.38,102.38,0,0,0-12.86-.87" fill="#7c7c7c"/><path d="M65.1,131.48a21.16,21.16,0,0,0,12.83-8.12c.6-.78-.25-1.63-1-1.73a110.51,110.51,0,0,0-12.86-.87,1.15,1.15,0,0,0,0,2.3,108.37,108.37,0,0,1,12.86.88l-1-1.74a18.76,18.76,0,0,1-11.46,7c-1.45.29-.83,2.51.62,2.23Z" fill="#7c7c7c"/><path d="M74.62,4.31C71.31,1.55,64.52-1,60.93,2.87,57.09,7,63.45,8.54,66.29,9.49c1.78.59,4.51,1,6.06,2.14,1.34.92,2.46,4.49,1.87,6.24-1,2.91-5.89,1.26-7.72.35-.82-.41-3.1-1.74-3.26-2.24l1-2.46c.12-2.44,1.39-3.37,3.84-2.77a17,17,0,0,0,4.65-.6c3.81-1.43,5.16-5.73,1.65-8.36C71.59-.28,63.19-1.32,62.27,3c-.48,2.26.43,4.51,1.35,6.53.7,1.56,4.73,7.92,1.12,8.89-2.74.74-9.17-2.78-9.66-5.93l4-3.61,2.06,1.54c.67.6,1.27,1.32,1.89,2a27.86,27.86,0,0,0,3,3,9,9,0,0,0,6.41,2.21c4.4-.46,6.82-6.14,4.9-10-2.43-4.87-7.47-2.11-7.91,2.32-.14,1.42.47,3.1.21,4.46s-2.44,3.83-3.57,4.57c-.4.27-1.14,0-1.55.38-2.11,1.71-2.39,3.51-2.23,6.23.07,1.22,2,1.23,1.9,0-.28-4.75,3.45-3.87,5.71-5.78,1.53-1.3,1.67-3.57,1.64-5.4,0-1-.9-4.57-.12-5.16l2.29.72c2.25-.12,2.87.67,1.86,2.35-.14,2.38-1.9,3.22-4,3.25-4.68,0-6.82-4.89-10.17-7.35-2.54-1.86-7.32-3-8.85.9s4.1,9,7.12,10.47c2.74,1.35,7.91,1.55,8.67-2.34.47-2.39-1.57-5.38-2.5-7.35-1.21-2.57-3.1-6.34,1.32-7.51a7.16,7.16,0,0,1,2.4,0C71.77,6.83,71.5,9,68.83,8.82l-1.58.07c-3.2.27-7.88,2-6.78,6.17,1.05,3.94,7.65,6.75,11.36,6.09,4.27-.76,7.22-5.62,4.15-9.22C74.15,9.78,70.92,9,68.36,8.18,66.25,7.47,62.89,7.34,63,5c.17-4.4,8.29-1,10.29.68.93.77,2.28-.56,1.35-1.35Z" fill="#fff"/><path d="M5.89,138.91,1.21,108.45a2.12,2.12,0,0,1,.23-1.7,2,2,0,0,1,1.28-.54,375.7,375.7,0,0,1,50.64-5.16,5.71,5.71,0,0,1,3.41.6,5.61,5.61,0,0,1,1.88,3.14,144.64,144.64,0,0,1,5.85,26.4,162.25,162.25,0,0,1-58.25,8.17" fill="#a0a0a0"/><path d="M7,138.6,3.78,117.66C3.29,114.43,1.27,109,5,107c2.73-1.51,8.39-1.31,11.47-1.72q10.61-1.41,21.28-2.23,5.37-.4,10.76-.65c1.44-.07,3.47-.55,4.89-.2,2.56.63,3.64,2.2,4.72,4.62,2.47,5.52,3.38,12.5,4.39,18.43.21,1.29,1,4.25-.07,5.41-.58.66-4.52,1.37-5.37,1.61q-4.45,1.26-9,2.26a165,165,0,0,1-41.81,3.68c-1.49-.06-1.48,2.25,0,2.3a170.22,170.22,0,0,0,58.55-8.2,1.16,1.16,0,0,0,.85-1.12,157.79,157.79,0,0,0-3-16.28c-.94-3.88-1.58-10.07-4.25-13.22-2.37-2.79-6.81-1.75-10-1.6q-9.8.47-19.54,1.43-8.44.84-16.84,2c-2.83.41-10.16.09-11.76,2.88-.68,1.18-.12,3,.06,4.21l1.47,9.52,2.92,19c.22,1.46,2.44.84,2.22-.62Z" fill="#8c8c8c"/><path d="M29.08,118.22a4.62,4.62,0,0,0-5,2.52,3.72,3.72,0,0,0,1.5,4.66c3.09,1.94,8.55-.33,8-4.43-.49-3.73-7.36-3.74-8.35-.3-1.06,3.68,5.9,4.91,6.27.71a1.16,1.16,0,0,0-1.15-1.15,6.18,6.18,0,0,0-3.46,1l1.73,1a20,20,0,0,0-.75-6.61,1.15,1.15,0,0,0-2.22.61,18.16,18.16,0,0,1,.67,6,1.16,1.16,0,0,0,1.73,1,4,4,0,0,1,2.3-.72l-1.15-1.15c-.06.67-3,.45-.84-.77a2.73,2.73,0,0,1,1.85,0c1.65.6.91,2.1-.25,2.81a3,3,0,0,1-3.24,0,1.56,1.56,0,0,1,.31-2.68,3.36,3.36,0,0,1,2-.21c1.47.18,1.46-2.12,0-2.3Z" fill="#fff"/><path d="M29.09,118.76a5.79,5.79,0,0,1,2.49-2.62L30,115.73l.08.17L30,115c-.06.38-.92,1-1.22,1.34l-1.44,1.5c-1,1.07.61,2.7,1.63,1.63l2.2-2.3c.76-.79,1.37-1.5.86-2.62a1.18,1.18,0,0,0-1.58-.41,8,8,0,0,0-3.31,3.45c-.65,1.32,1.33,2.49,2,1.16Z" fill="#fff"/><line x1="35.63" y1="65.05" x2="52.91" y2="70.23" fill="none" stroke="#000" stroke-miterlimit="10" stroke-width="0.58"/><rect x="52.43" y="67.26" width="18.55" height="12.1" transform="translate(24.5 -15) rotate(17.24)" fill="none" stroke="#000" stroke-miterlimit="10" stroke-width="0.52"/><rect x="17.18" y="55.86" width="18.93" height="12.1" transform="translate(19.55 -5.12) rotate(17.24)" fill="none" stroke="#000" stroke-miterlimit="10" stroke-width="0.52"/><g opacity="0.52"><g opacity="0.6"><path d="M19.89,96.37a.58.58,0,0,0,0-1.15.58.58,0,0,0,0,1.15Z" fill="#7c5942"/></g><g opacity="0.6"><path d="M20.59,98a.58.58,0,0,0,0-1.15.58.58,0,0,0,0,1.15Z" fill="#7c5942"/></g><g opacity="0.6"><path d="M17.31,97.31a.58.58,0,0,0,0-1.15.58.58,0,0,0,0,1.15Z" fill="#7c5942"/></g><g opacity="0.6"><path d="M22.91,92.6a.58.58,0,0,0,0-1.15.58.58,0,0,0,0,1.15Z" fill="#7c5942"/></g><g opacity="0.6"><path d="M22.91,93.57a.58.58,0,0,0,0-1.16.58.58,0,0,0,0,1.16Z" fill="#7c5942"/></g><g opacity="0.6"><path d="M21.25,93.57a.58.58,0,0,0,0-1.16.58.58,0,0,0,0,1.16Z" fill="#7c5942"/></g><g opacity="0.6"><path d="M26.91,93.57a.58.58,0,0,0,0-1.16.58.58,0,0,0,0,1.16Z" fill="#7c5942"/></g><g opacity="0.6"><path d="M26.91,91.63a.58.58,0,0,0,0-1.15.58.58,0,0,0,0,1.15Z" fill="#7c5942"/></g><g opacity="0.6"><path d="M29,92.32a.58.58,0,0,0,0-1.15.58.58,0,0,0,0,1.15Z" fill="#7c5942"/></g><g opacity="0.6"><path d="M28,94.26a.58.58,0,0,0,0-1.16.58.58,0,0,0,0,1.16Z" fill="#7c5942"/></g><g opacity="0.6"><path d="M30.5,94.81a.58.58,0,0,0,0-1.15.58.58,0,0,0,0,1.15Z" fill="#7c5942"/></g><g opacity="0.6"><path d="M34,92.88a.58.58,0,0,0,0-1.16.58.58,0,0,0,0,1.16Z" fill="#7c5942"/></g><g opacity="0.6"><path d="M34,93.71a.58.58,0,0,0,0-1.16.58.58,0,0,0,0,1.16Z" fill="#7c5942"/></g><g opacity="0.6"><path d="M33.12,93.71a.58.58,0,0,0,0-1.16.58.58,0,0,0,0,1.16Z" fill="#7c5942"/></g><g opacity="0.6"><path d="M34.78,95a.58.58,0,0,0,0-1.15.58.58,0,0,0,0,1.15Z" fill="#7c5942"/></g><g opacity="0.6"><path d="M36,93.29a.58.58,0,0,0,0-1.15.58.58,0,0,0,0,1.15Z" fill="#7c5942"/></g><g opacity="0.6"><path d="M37,94.4a.58.58,0,0,0,0-1.16.58.58,0,0,0,0,1.16Z" fill="#7c5942"/></g><g opacity="0.6"><path d="M40.85,93.29a.58.58,0,0,0,0-1.15.58.58,0,0,0,0,1.15Z" fill="#7c5942"/></g><g opacity="0.6"><path d="M46.93,93.29a.58.58,0,0,0,0-1.15.58.58,0,0,0,0,1.15Z" fill="#7c5942"/></g><g opacity="0.6"><path d="M43.61,94.26a.58.58,0,0,0,0-1.16.58.58,0,0,0,0,1.16Z" fill="#7c5942"/></g><g opacity="0.6"><path d="M50.1,94.26a.58.58,0,0,0,0-1.16.58.58,0,0,0,0,1.16Z" fill="#7c5942"/></g><g opacity="0.6"><path d="M53.69,92.32a.58.58,0,0,0,0-1.15.58.58,0,0,0,0,1.15Z" fill="#7c5942"/></g><g opacity="0.6"><path d="M52.72,94a.58.58,0,0,0,0-1.15.58.58,0,0,0,0,1.15Z" fill="#7c5942"/></g><g opacity="0.6"><path d="M56.45,94a.58.58,0,0,0,0-1.15.58.58,0,0,0,0,1.15Z" fill="#7c5942"/></g><g opacity="0.6"><path d="M59.49,94a.58.58,0,0,0,0-1.15.58.58,0,0,0,0,1.15Z" fill="#7c5942"/></g><g opacity="0.6"><path d="M55.21,95a.58.58,0,0,0,0-1.15.58.58,0,0,0,0,1.15Z" fill="#7c5942"/></g><g opacity="0.6"><path d="M55.21,95.64a.58.58,0,0,0,0-1.15.58.58,0,0,0,0,1.15Z" fill="#7c5942"/></g><g opacity="0.6"><path d="M56.17,96.88a.58.58,0,0,0,0-1.15.58.58,0,0,0,0,1.15Z" fill="#7c5942"/></g><g opacity="0.6"><path d="M59.21,95.36a.58.58,0,0,0,0-1.15.58.58,0,0,0,0,1.15Z" fill="#7c5942"/></g><g opacity="0.6"><path d="M59.21,97.16a.58.58,0,0,0,0-1.16.58.58,0,0,0,0,1.16Z" fill="#7c5942"/></g><g opacity="0.6"><path d="M54.79,98.26a.58.58,0,0,0,0-1.15.58.58,0,0,0,0,1.15Z" fill="#7c5942"/></g><g opacity="0.6"><path d="M53,98.12A.58.58,0,0,0,53,97a.58.58,0,0,0,0,1.15Z" fill="#7c5942"/></g><g opacity="0.6"><path d="M52.17,95.78a.58.58,0,0,0,0-1.16.58.58,0,0,0,0,1.16Z" fill="#7c5942"/></g><g opacity="0.6"><path d="M47.2,95.64a.58.58,0,0,0,0-1.15.58.58,0,0,0,0,1.15Z" fill="#7c5942"/></g><g opacity="0.6"><path d="M41,95.64a.58.58,0,0,0,0-1.15.58.58,0,0,0,0,1.15Z" fill="#7c5942"/></g><g opacity="0.6"><path d="M39.61,96.47a.58.58,0,0,0,0-1.16.58.58,0,0,0,0,1.16Z" fill="#7c5942"/></g><g opacity="0.6"><path d="M36.16,96.47a.58.58,0,0,0,0-1.16.58.58,0,0,0,0,1.16Z" fill="#7c5942"/></g><g opacity="0.6"><path d="M26.5,97.29a.58.58,0,0,0,0-1.15.58.58,0,0,0,0,1.15Z" fill="#7c5942"/></g><g opacity="0.6"><path d="M24.43,95.5a.58.58,0,0,0,0-1.15.58.58,0,0,0,0,1.15Z" fill="#7c5942"/></g><g opacity="0.6"><path d="M23.6,96.6a.58.58,0,0,0,0-1.15.58.58,0,0,0,0,1.15Z" fill="#7c5942"/></g><g opacity="0.6"><path d="M27.05,99.64a.58.58,0,0,0,0-1.15.58.58,0,0,0,0,1.15Z" fill="#7c5942"/></g><g opacity="0.6"><path d="M23.88,99.5a.58.58,0,0,0,0-1.15.58.58,0,0,0,0,1.15Z" fill="#7c5942"/></g><g opacity="0.6"><path d="M26.5,97.71a.58.58,0,0,0,0-1.15.58.58,0,0,0,0,1.15Z" fill="#7c5942"/></g><g opacity="0.6"><path d="M21.94,98.67a.58.58,0,0,0,0-1.15.58.58,0,0,0,0,1.15Z" fill="#7c5942"/></g><g opacity="0.6"><path d="M22.63,100.74a.58.58,0,0,0,0-1.15.58.58,0,0,0,0,1.15Z" fill="#7c5942"/></g><g opacity="0.6"><path d="M30.09,100.74a.58.58,0,0,0,0-1.15.58.58,0,0,0,0,1.15Z" fill="#7c5942"/></g><g opacity="0.6"><path d="M36.16,100.88a.58.58,0,0,0,0-1.15.58.58,0,0,0,0,1.15Z" fill="#7c5942"/></g><g opacity="0.6"><path d="M31.88,100.33a.58.58,0,0,0,0-1.15.58.58,0,0,0,0,1.15Z" fill="#7c5942"/></g><g opacity="0.6"><path d="M34.37,100.33a.58.58,0,0,0,0-1.15.58.58,0,0,0,0,1.15Z" fill="#7c5942"/></g><g opacity="0.6"><path d="M38,100.33a.58.58,0,0,0,0-1.15.58.58,0,0,0,0,1.15Z" fill="#7c5942"/></g><g opacity="0.6"><path d="M39.47,100.74a.58.58,0,0,0,0-1.15.58.58,0,0,0,0,1.15Z" fill="#7c5942"/></g><g opacity="0.6"><path d="M42.51,100.74a.58.58,0,0,0,0-1.15.58.58,0,0,0,0,1.15Z" fill="#7c5942"/></g><g opacity="0.6"><path d="M49.55,99.23a.58.58,0,0,0,0-1.16.58.58,0,0,0,0,1.16Z" fill="#7c5942"/></g><g opacity="0.6"><path d="M56.73,99a.58.58,0,0,0,0-1.15.58.58,0,0,0,0,1.15Z" fill="#7c5942"/></g><g opacity="0.6"><path d="M58.24,99.64a.58.58,0,0,0,0-1.15.58.58,0,0,0,0,1.15Z" fill="#7c5942"/></g><g opacity="0.6"><path d="M61.14,96.6a.58.58,0,0,0,0-1.15.58.58,0,0,0,0,1.15Z" fill="#7c5942"/></g><g opacity="0.6"><path d="M61.56,97.57a.58.58,0,0,0,0-1.15.58.58,0,0,0,0,1.15Z" fill="#7c5942"/></g><g opacity="0.6"><path d="M60.31,98.67a.58.58,0,0,0,0-1.15.58.58,0,0,0,0,1.15Z" fill="#7c5942"/></g><g opacity="0.6"><path d="M63.49,94a.58.58,0,0,0,0-1.15.58.58,0,0,0,0,1.15Z" fill="#7c5942"/></g><g opacity="0.6"><path d="M63.49,94a.58.58,0,0,0,0-1.15.58.58,0,0,0,0,1.15Z" fill="#7c5942"/></g><g opacity="0.6"><path d="M66.53,93.29a.58.58,0,0,0,0-1.15.58.58,0,0,0,0,1.15Z" fill="#7c5942"/></g><g opacity="0.6"><path d="M67.22,90.39a.58.58,0,0,0,0-1.15.58.58,0,0,0,0,1.15Z" fill="#7c5942"/></g><g opacity="0.6"><path d="M66.8,91.91a.58.58,0,0,0,0-1.15.58.58,0,0,0,0,1.15Z" fill="#7c5942"/></g><g opacity="0.6"><path d="M64.73,95.64a.58.58,0,0,0,0-1.15.58.58,0,0,0,0,1.15Z" fill="#7c5942"/></g><g opacity="0.6"><path d="M62.8,95.5a.58.58,0,0,0,0-1.15.58.58,0,0,0,0,1.15Z" fill="#7c5942"/></g><g opacity="0.6"><path d="M62.8,95.36a.58.58,0,0,0,0-1.15.58.58,0,0,0,0,1.15Z" fill="#7c5942"/></g><g opacity="0.6"><path d="M59.49,94.53a.58.58,0,0,0,0-1.15.58.58,0,0,0,0,1.15Z" fill="#7c5942"/></g><g opacity="0.6"><path d="M59.49,94.53a.58.58,0,0,0,0-1.15.58.58,0,0,0,0,1.15Z" fill="#7c5942"/></g><g opacity="0.6"><path d="M59.49,95.09a.58.58,0,0,0,0-1.16.58.58,0,0,0,0,1.16Z" fill="#7c5942"/></g><g opacity="0.6"><path d="M59.35,95.09a.58.58,0,0,0,0-1.16.58.58,0,0,0,0,1.16Z" fill="#7c5942"/></g><g opacity="0.6"><path d="M25.53,99.78a.58.58,0,0,0,0-1.15.58.58,0,0,0,0,1.15Z" fill="#7c5942"/></g><g opacity="0.6"><path d="M25.53,99.78a.58.58,0,0,0,0-1.15.58.58,0,0,0,0,1.15Z" fill="#7c5942"/></g><g opacity="0.6"><path d="M25.53,100.61a.58.58,0,0,0,0-1.16.58.58,0,0,0,0,1.16Z" fill="#7c5942"/></g><g opacity="0.6"><path d="M17.25,99.23a.58.58,0,0,0,0-1.16.58.58,0,0,0,0,1.16Z" fill="#7c5942"/></g><g opacity="0.6"><path d="M17,99.23a.58.58,0,0,0,0-1.16.58.58,0,0,0,0,1.16Z" fill="#7c5942"/></g><g opacity="0.6"><path d="M16.84,97.85a.58.58,0,0,0,0-1.16.58.58,0,0,0,0,1.16Z" fill="#7c5942"/></g><g opacity="0.6"><path d="M13.8,96.05a.58.58,0,0,0,0-1.15.58.58,0,0,0,0,1.15Z" fill="#7c5942"/></g><g opacity="0.6"><path d="M24,94a.58.58,0,0,0,0-1.15A.58.58,0,0,0,24,94Z" fill="#7c5942"/></g><g opacity="0.6"><path d="M31.36,94a.58.58,0,0,0,0-1.15.58.58,0,0,0,0,1.15Z" fill="#7c5942"/></g><g opacity="0.6"><path d="M27,95a.58.58,0,0,0,0-1.15A.58.58,0,0,0,27,95Z" fill="#7c5942"/></g><g opacity="0.6"><path d="M11.05,93.24a.58.58,0,0,0,0-1.15.58.58,0,0,0,0,1.15Z" fill="#7c5942"/></g><g opacity="0.6"><path d="M15.21,95.2a.58.58,0,0,0,0-1.15.58.58,0,0,0,0,1.15Z" fill="#7c5942"/></g><g opacity="0.6"><path d="M15.46,95.45a.58.58,0,0,0,0-1.16.58.58,0,0,0,0,1.16Z" fill="#7c5942"/></g><g opacity="0.6"><path d="M18.15,95.45a.58.58,0,0,0,0-1.16.58.58,0,0,0,0,1.16Z" fill="#7c5942"/></g><g opacity="0.6"><path d="M18.39,95.45a.58.58,0,0,0,0-1.16.58.58,0,0,0,0,1.16Z" fill="#7c5942"/></g><g opacity="0.6"><path d="M19.37,95.45a.58.58,0,0,0,0-1.16.58.58,0,0,0,0,1.16Z" fill="#7c5942"/></g><g opacity="0.6"><path d="M19.62,95.45a.58.58,0,0,0,0-1.16.58.58,0,0,0,0,1.16Z" fill="#7c5942"/></g></g></g></g></svg>