<svg xmlns="http://www.w3.org/2000/svg" xmlns:xlink="http://www.w3.org/1999/xlink" viewBox="0 0 189 240"><title>hip moose</title><g id="Layer_2" data-name="Layer 2"><g id="Layer_1-2" data-name="Layer 1"><path d="M113.61,88.27,115.08,85c.45-1,.48-1.85,1.56-1.91,1.69-.08,3,.31,4.71-.32A8.5,8.5,0,0,0,127,75.88c.15-1.56-.15-3.16.23-4.68s1.83-3,3.34-2.56c2.52.71,1.6,4.85,3.45,6.7a10.72,10.72,0,0,0,1.14-8,11.81,11.81,0,0,1-.75-3.62c.08-1.24,1.08-2.55,2.31-2.38,1,.15,1.66,1.21,2.12,2.16L141.48,69c.53,1.09,1.44,2.37,2.61,2.06a2.31,2.31,0,0,0,1.39-1.85c1.18-4.94-2.49-10.28-.69-15,2.63.89,4,3.73,4.94,6.33a97.12,97.12,0,0,1,3.15,10.3,8.72,8.72,0,0,1,.33,3.58c-.35,1.9-1.86,3.36-3.37,4.58a45.41,45.41,0,0,1-36.16,9.19" fill="#e2d1bf"/><path d="M114.43,88.75c1-2.35,1.09-3.88,3.8-4.73,1-.33,2.24,0,3.37-.38a9.75,9.75,0,0,0,4.71-3.51c1.45-2,1.1-3.65,1.67-5.82-.52-2.17.7-3,3.64-2.5l.23,1c.58,1,.65,2,1.34,3a1,1,0,0,0,1.64,0,13.54,13.54,0,0,0,1.57-5.2c.12-2.14-1.24-4.34.46-5.71s1.61,0,2.47,1.79c.44.9.81,1.89,1.33,2.74s1.1,2,2.1,2.34c1.92.66,3.05-.7,3.63-2.36,1.69-4.81-2-10.06-.68-15l-1.4.57c4.38,2.15,6.43,9.75,7.21,14.32,1.28,7.61-3.74,10.63-9.53,13.62a45.11,45.11,0,0,1-28.06,4.31c-1.2-.2-1.71,1.63-.51,1.83a46.82,46.82,0,0,0,35.73-8.38c5.08-3.83,5.63-6.68,4-12.75-1.38-5-2.7-12.06-7.84-14.59a1,1,0,0,0-1.39.57c-1.17,4.34.67,8,.86,12.28.13,3.13-1.05,3.53-2.77,1.63a17,17,0,0,1-1.66-3.43c-.51-1-1.07-2.7-2.12-3.38a2.83,2.83,0,0,0-4.17.93,4.59,4.59,0,0,0-.48,3c.29,3.67,1.44,6.25-.35,9.94h1.64c-1.45-2-1-5.57-3.4-6.83-1.73-.91-3.58,0-4.56,1.59a7.93,7.93,0,0,0-.79,3.9c-.38,5.34-2.56,7.88-7.85,8.6-4,.56-3.59,1.49-5.44,5.67-.49,1.11,1.15,2.08,1.64,1Z" fill="#d1bdaa"/><path d="M65.48,159.06a9.38,9.38,0,0,1-4.41,3.63,3.25,3.25,0,0,1-1.64.29,2.67,2.67,0,0,1-2-2.53,7.42,7.42,0,0,1,.81-3.36,122.54,122.54,0,0,1,8.55-16.63" fill="#af9471"/><path d="M64.66,158.58a8.62,8.62,0,0,1-3,2.8q-4.59-1.9-2-5.24c.72-1.67,1.5-3.32,2.3-4.95,1.72-3.51,3.61-6.91,5.64-10.25A1,1,0,0,0,66,140a128.85,128.85,0,0,0-6.65,12.36c-1.09,2.32-3.24,5.64-2.81,8.37,1,6.25,7.73,1.63,9.8-1.18.72-1-.93-1.93-1.64-.95Z" fill="#9b7f61"/><path d="M68.32,73.56A50.75,50.75,0,0,1,47.56,61.65,9.78,9.78,0,0,1,45.4,59a10.6,10.6,0,0,1-.85-3.43c-.78-5.93-1.08-12.61,2.8-17.15.76-.89,2-1.71,3-1.21s1.14,2.22,1,3.5A76.6,76.6,0,0,0,50.66,49c0,.7.14,1.61.83,1.7a1.46,1.46,0,0,0,1.06-.53l5.5-5c1,1.52.73,3.57.05,5.27A33.25,33.25,0,0,0,56,55.47a1.93,1.93,0,0,0,.37,2c1.14.93,2.58-.93,4-1s2.42,1.61,2.27,3.06-1,2.7-1.49,4.06A2.72,2.72,0,0,0,61.27,66a3.18,3.18,0,0,0,1,.76,43.23,43.23,0,0,0,7.3,3m-.81,3.57a6.91,6.91,0,0,0,.74-3.51" fill="#e2d1bf"/><path d="M68.57,72.64c-6.78-2.08-14.06-5.46-19.16-10.57-3.49-3.5-4.25-7.13-4.37-11.8C45,47.33,45,40.12,48.89,39.9c2.42-.13,1.5.5,1.3,2.47-.17,1.65-.39,3.31-.42,5,0,1.28-.43,3.3,1,4,2.57,1.26,6.48-4.26,7.9-5.56l-1.49-.19C59.1,49.88,53.87,53,55,56.79c.76,2.6,2,.88,3.51,1.41a12.71,12.71,0,0,1,2.43,3.48c.07.49-.67,1.07-.67,1.57,0,1.37-.64,1.82.15,3.14,1.38,2.34,6.57,3.53,9,4.31,1.17.37,1.67-1.46.51-1.83-1.82-.6-6-1.37-7.08-2.9-1.38-1.93.65-4.34.78-6.28.1-1.47-.38-3.25-1.83-3.95-.89-.43-1.46.1-2.15-.11-1.49-.44.2,2.06-1.31-1-.76-1.52-.24-1.73.35-3.12,1-2.46,1.3-4.43.23-6.86a1,1,0,0,0-1.49-.19c-.45.41-5.36,5.14-5.5,5-1-.76.09-6,.21-7.13.19-1.83.91-4.59-1-5.82-4.13-2.6-7,5.58-7.55,8.21-1.27,6.64-.57,14,4.57,18.65a52.84,52.84,0,0,0,20,11.06c1.17.36,1.67-1.47.5-1.83Z" fill="#d1bdaa"/><path d="M69.63,73.82a8.21,8.21,0,0,0,.87-4c0-1.22-2-1.23-1.9,0a6.22,6.22,0,0,1-.61,3c-.53,1.09,1.1,2,1.64.95Z" fill="#d1bdaa"/><path d="M140.12,146.5a10.13,10.13,0,0,1-1.66-6.39c1.83.56,3,2.29,4.06,3.91a16.75,16.75,0,0,1,2.48-7.71,7.56,7.56,0,0,1,0,4.75c-.39,1.15-.89,2.75.19,3.29.61.3,1.33,0,2-.07s1.55.55,1.21,1.15a1.09,1.09,0,0,1-.48.39,12.37,12.37,0,0,1-6.83,1.41" fill="#af9471"/><path d="M140.94,146a10,10,0,0,1-1.54-5.91l-1.2.92c1.63.63,2.59,2.06,3.5,3.47a1,1,0,0,0,1.77-.48,16.86,16.86,0,0,1,2.35-7.23l-1.73-.23c.62,2.22-.16,3.73-.43,5.85a2.78,2.78,0,0,0,.49,2.31,2.16,2.16,0,0,0,1.43.67c.37,0,.91-.22,1.19-.09,0,0-2,.72-2.41.8a12.71,12.71,0,0,1-3.26.18c-1.22-.07-1.22,1.83,0,1.89,1.71.1,9.53-.43,8.18-3.66-.68-1.61-3.33-.7-3.61-2.41-.12-.72.56-1.92.62-2.73a9.11,9.11,0,0,0-.37-3.32,1,1,0,0,0-1.74-.22,19.1,19.1,0,0,0-2.61,8.19l1.77-.48c-1.23-1.88-2.48-3.51-4.63-4.35a1,1,0,0,0-1.2.92A11.69,11.69,0,0,0,139.3,147c.64,1,2.28.09,1.64-.95Z" fill="#9b7f61"/><path d="M66.93,138.79c-3.79,17.53,1.41,35.62,6.57,52.79.89,3,1.86,6.08,4.11,8.22s6.21,2.79,8.36.56a63.44,63.44,0,0,1-.5-12.7,6.74,6.74,0,0,1,.81-3.29c.92-1.4,2.68-2,4.32-2.32a49.84,49.84,0,0,1,16.74-.87l1.77,22.23a27.24,27.24,0,0,0,8.14-.93l.33-1c.65-7,3.39-13.58,5.08-20.38a98.51,98.51,0,0,0,2.27-14,180.36,180.36,0,0,0-10.4-80.69l-.75-.19a18,18,0,0,0-10-24.14,37.92,37.92,0,0,1,.6,16.42,2.51,2.51,0,0,1-.92,1.79,2.58,2.58,0,0,1-1.76.12,151.8,151.8,0,0,1-19.16-4.73,2.46,2.46,0,0,1-2.15-2.82l-.93-16.16A25,25,0,0,0,68.93,72.46l.21.77c-.33,6.16-6.88,9.69-12.35,12.53-5.27,2.75-10.4,6-14.2,10.59s-6.12,10.64-5.14,16.5c1.07,6.43,5.87,11.63,11.11,15.5,9.1,6.72,21.11,10.63,31.85,7.13,10.36-3.39,17.5-12.82,22.8-22.34" fill="#af9471"/><path d="M66,138.54c-2.34,11.79-1.11,23.64,1.59,35.26,1.41,6.07,3.12,12.09,5,18,1.17,3.73,2.49,8,6.21,9.9,2,1.06,6.18,1.7,7.75-.63.79-1.17.08-3,0-4.36-.2-2.46-.92-6.69-.09-9.09,1.81-5.21,6.9-5.42,11.58-5.75,2.2-.15,7.23-1,8.54,1.12.52.84.36,4.56.44,5.56l.37,4.63.82,10.19a1,1,0,0,0,.94,1c1.66,0,7.15.32,8.62-1.06,1.16-1.09,1-3.85,1.25-5,1.33-7.51,4.35-14.6,5.69-22.12,2.76-15.47,2.72-31.69,1-47.26a184.72,184.72,0,0,0-3.81-21.8q-1.49-6.21-3.4-12.3c-.93-2.95-2.53-6.08-3.21-9,0-.2-.8-.29-.79-.33a1.63,1.63,0,0,0,1.33-2l.31-1.6A18.83,18.83,0,0,0,104.28,61.3a1,1,0,0,0-1.4,1.07,40.11,40.11,0,0,1,1.19,8.85c0,1.38.12,6.25-.59,7.06-2.25,2.58-11.06-.74-13.78-1.46a30.57,30.57,0,0,1-5.17-1.48c-3.16-1.52-3.19-2.66-3.38-6l-.72-12.57c0-.66-.8-1.27-1.43-.82-5,3.57-9.19,8.71-10.64,14.83-.88,3.71-.93,6.54-4.14,9.32-2.77,2.39-6.17,3.89-9.34,5.64C43.49,92,31.35,104.25,38.25,118.25c5.92,12,22.09,20.08,35.12,19.44,14.54-.72,24-12.33,30.66-24.07a1,1,0,0,0-1.64-1c-6.58,11.62-16,23.24-30.6,23.17-13-.07-32.51-10-33.58-24.59-.59-8.08,4.73-15,10.87-19.62C53.86,88,59.57,86,64.32,82.39c3.12-2.36,5.31-5.2,5.77-9.16.75-6.47,4.53-11.88,9.87-15.67l-1.43-.82.67,11.67c.11,2-.28,4.63.7,6.43.86,1.58,2.49,1.81,4.12,2.33,3.42,1.08,6.91,2,10.41,2.77,2.72.61,8.52,3.24,10.5.1,1.07-1.69.95-5.1,1-7a41.73,41.73,0,0,0-1.24-11.19l-1.39,1.07c9.27,4,13.26,13.64,9.54,23.07a1,1,0,0,0,.66,1.17c1.17.28,2.13,5.28,2.5,6.4.94,2.89,1.81,5.81,2.61,8.74a180.66,180.66,0,0,1,3.87,17.82,179.56,179.56,0,0,1,2.16,37.91,132.57,132.57,0,0,1-2.15,19.37c-1.09,5.48-3,10.72-4.39,16.12-.53,2-.45,5.39-1.45,7.22-.75,1.37-2.34,1.69-4.27,1.62-2.15-.07-2,.09-2.56-1.75-.81-2.66-.52-6.48-.74-9.26l-.81-10.19a1,1,0,0,0-1-1c-5.47-.54-16.33-1.56-20.9,2.57-1.94,1.75-1.92,4.25-2,6.68s.5,5,.18,7.27q1,2.77-2.14,4.05A5.79,5.79,0,0,1,77.42,198c-3-3.39-3.9-9.56-5.12-13.83-1.29-4.51-2.5-9-3.48-13.62-2.22-10.44-3.07-21-1-31.52.24-1.19-1.59-1.7-1.83-.5Z" fill="#9b7f61"/><path d="M126,168c10.49,3.41,16.63-13.08,15.92-20.92-.11-1.21-2-1.22-1.9,0,.58,6.39-4.37,22.06-13.51,19.09-1.17-.38-1.67,1.46-.51,1.83Z" fill="#9b7f61"/><path d="M89.43,103.12c2.83,0,2.84-4.4,0-4.4s-2.83,4.4,0,4.4Z"/><path d="M60,93.93c2.83,0,2.83-4.39,0-4.39s-2.83,4.39,0,4.39Z"/><path d="M58.29,112.08a.88.88,0,0,0,0-1.76.88.88,0,0,0,0,1.76Z"/><path d="M62,112.87a.88.88,0,0,0,0-1.76.88.88,0,0,0,0,1.76Z"/><rect x="60.14" y="83.71" width="7.12" height="2.85" rx="1.42" ry="1.42" transform="translate(36.85 -17.75) rotate(22.18)" fill="#6d563d"/><rect x="89.56" y="92.69" width="7.12" height="2.85" rx="1.42" ry="1.42" transform="matrix(-0.99, -0.17, 0.17, -0.99, 168.66, 202.84)" fill="#6d563d"/><path d="M103.61,145.34l-10.2,4a2.18,2.18,0,0,0-1.27.91,2.16,2.16,0,0,0,0,1.52L96.92,169a2.47,2.47,0,0,0,.85,1.51,2.34,2.34,0,0,0,1.59.19c12.26-1.39,23.59-7,34.63-12.45a3.44,3.44,0,0,0,1.82-1.52,3.4,3.4,0,0,0-.12-2.22,109.88,109.88,0,0,0-8-20,138.07,138.07,0,0,1-15.47,6.78" fill="#a0a0a0"/><path d="M103.31,144.23c-2.84,1.1-5.68,2.19-8.51,3.3-1.1.43-2.76.78-3.48,1.86-1.69,2.56,1.17,7.81,1.86,10.31.78,2.87,1.51,5.77,2.37,8.62.31,1.06.52,2.39,1.52,3.07,2.37,1.63,8-.45,10.35-1a92.5,92.5,0,0,0,14.37-5.07c2.71-1.17,5.38-2.43,8-3.72,1.85-.9,4.55-1.67,6.05-3.14,2.58-2.54.28-6.58-.69-9.4a117.51,117.51,0,0,0-6.47-15.15,1.18,1.18,0,0,0-1.58-.42,149.64,149.64,0,0,1-15.19,6.66c-1.37.52-.78,2.75.61,2.23a158.46,158.46,0,0,0,15.75-6.9l-1.58-.41a114.9,114.9,0,0,1,5,11.22c1.09,2.88,4.12,8.35,1.67,11-1.77,1.9-6.34,3.13-8.75,4.25a120.36,120.36,0,0,1-11.14,4.62,70.94,70.94,0,0,1-9.27,2.63c-1.88.38-4.68,1.51-6.22-.06-.69-.71-1.31-4.78-1.58-5.75l-1.58-5.75c-.35-1.26-2-4.74-1.58-5.75,1-2.47,8.45-4.12,10.63-5,1.37-.53.77-2.76-.61-2.22Z" fill="#8c8c8c"/><path d="M113.89,154a3.1,3.1,0,0,1-2-.21,1.58,1.58,0,0,1-.31-2.67,3,3,0,0,1,3.25,0c1.18.73,1.81,2.15.24,2.81a2.46,2.46,0,0,1-1.85-.05c-1.6-1,.76-1.67.84-.77l1.15-1.15a4,4,0,0,1-2.29-.72,1.17,1.17,0,0,0-1.74,1,17.82,17.82,0,0,1-.67,6,1.15,1.15,0,0,0,2.22.62,20,20,0,0,0,.76-6.61l-1.74,1a6.18,6.18,0,0,0,3.46,1,1.16,1.16,0,0,0,1.15-1.15c-.35-4-7-3.18-6.35.46s7.94,3.71,8.43-.06c.52-3.95-4.7-6.32-7.8-4.54a3.74,3.74,0,0,0-1.77,4.64,4.59,4.59,0,0,0,5,2.66c1.46-.18,1.48-2.49,0-2.31Z" fill="#fff"/><path d="M111.92,156.89a8,8,0,0,0,3.31,3.45,1.16,1.16,0,0,0,1.57-.42c.51-1.12-.09-1.82-.85-2.61l-2.2-2.3c-1-1.07-2.66.56-1.63,1.63l1.43,1.5c.3.31,1.16,1,1.22,1.34l.12-.89-.08.17,1.58-.41a5.87,5.87,0,0,1-2.48-2.62c-.66-1.33-2.65-.17-2,1.16Z" fill="#fff"/><path d="M101,141l5.32,6.44a10,10,0,0,0,2.87,2.66,3.35,3.35,0,0,0,3.7-.23,33.56,33.56,0,0,0-4.37-11" fill="#af9471"/><path d="M100.28,141.71c2.27,2.76,4.44,6.18,7.22,8.44,1.72,1.39,3.92,1.89,5.82.58a1,1,0,0,0,.44-1.07,36.62,36.62,0,0,0-4.47-11.22c-.64-1-2.28-.09-1.64,1a34.93,34.93,0,0,1,4.28,10.76l.43-1.07c-2.63,1.81-4.85-1.59-6.31-3.36l-4.43-5.36c-.78-.94-2.12.4-1.34,1.34Z" fill="#9b7f61"/><path d="M62.52,125.09a34.52,34.52,0,0,0,6.86-1.67c1.25-.42,2.49-.87,3.77-1.23,2-.55,2.78-.54,3.24,1.61a11.42,11.42,0,0,1-.39,4.85c-1,1.94-3.62,1.17-5.14.65-2.84-1-5.24-3-7.51-4.87-.63-.53-1.55.39-.91.92,2.85,2.38,13.54,10.33,15,2.8.33-1.74,1.4-7.26-1-7.91-1.53-.4-4,.82-5.46,1.29a42.81,42.81,0,0,1-8.39,2.26c-.81.09-.82,1.39,0,1.3Z"/><path d="M68.22,90.76a8.31,8.31,0,1,1-8.31-8.3A8.26,8.26,0,0,1,68.22,90.76Z" fill="none" stroke="#000" stroke-miterlimit="10" stroke-width="1.33"/><circle cx="89.95" cy="101.22" r="8.31" fill="none" stroke="#000" stroke-miterlimit="10" stroke-width="1.33"/><line x1="67.73" y1="93.98" x2="81.56" y2="98.01" fill="none" stroke="#000" stroke-miterlimit="10" stroke-width="0.91"/><rect x="46.26" y="138.98" width="11.89" height="39.96" transform="translate(-59.63 34.51) rotate(-23.76)" fill="#fff" stroke="#fff" stroke-miterlimit="10" stroke-width="0.24"/><rect x="41.75" y="142.13" width="9.04" height="6.66" transform="translate(-54.69 30.97) rotate(-23.76)" fill="aqua" stroke="#fff" stroke-miterlimit="10" stroke-width="0.24" opacity="0.6"/><rect x="45.01" y="149.53" width="9.04" height="6.66" transform="translate(-57.4 32.92) rotate(-23.76)" fill="#f0f" stroke="#fff" stroke-miterlimit="10" stroke-width="0.24" opacity="0.6"/><rect x="48.26" y="156.94" width="9.04" height="6.66" transform="translate(-60.1 34.86) rotate(-23.76)" fill="#ff0" stroke="#fff" stroke-miterlimit="10" stroke-width="0.24" opacity="0.6"/><rect x="51.52" y="164.34" width="9.04" height="6.66" transform="translate(-62.81 36.8) rotate(-23.76)" stroke="#fff" stroke-miterlimit="10" stroke-width="0.24" opacity="0.6"/><g opacity="0.6"><path d="M76.93,15l6.88,0a3.55,3.55,0,0,1,1.77.3c1.28.71,1.21,2.55.85,4-.25,1-.5,2.22.22,3a2.39,2.39,0,0,0,.9.52c2.28.83,4.79.2,7.21.26s5.26,1.35,5.44,3.76-2.3,4-4.54,4.85A28.48,28.48,0,0,1,77,31.88c-1-.35-2.23-1-2.37-2.05s1-2.08,2.1-2.57,2.34-1,2.78-2.05c.73-1.79-1.33-3.52-3.23-3.89s-4-.19-5.55-1.4a2,2,0,0,1-.81-1.36c0-1,.94-1.62,1.82-2a15.45,15.45,0,0,1,4.44-1.14" fill="aqua"/></g><g opacity="0.6"><path d="M104,19.41a26.13,26.13,0,0,1-5.08,0,8.45,8.45,0,0,0-4.91,1,3.75,3.75,0,0,0-1.69,4.37c.68,1.59,2.57,2.2,4.23,2.7s3.53,1.32,3.94,3c.35,1.48-.5,3.4.68,4.36a2.87,2.87,0,0,0,1.37.49,19.71,19.71,0,0,0,9-.77c1.85-.62,3.78-1.69,4.39-3.55s-.34-4-1.61-5.51a14.77,14.77,0,0,0-10.05-5.29" fill="#f0f"/></g><g opacity="0.6"><path d="M104.18,27.46c-5.52-.36-11.65-.53-15.85,3.05a4.83,4.83,0,0,0-2,3.72c.1,1.66,1.51,2.94,3,3.7a19.3,19.3,0,0,0,7,1.79,53.83,53.83,0,0,0,17.35-1c2.75-.62,5.74-1.7,7-4.22a1.76,1.76,0,0,0,.24-1.07,1.89,1.89,0,0,0-.62-1c-2.83-2.75-7-3.4-11-3.92l-5.85-.77" fill="#ff0"/></g><g opacity="0.2"><image width="189" height="240" xlink:href="hip moose1.png"/></g></g></g></svg>