<svg xmlns="http://www.w3.org/2000/svg" viewBox="0 0 63.39 90.83"><title>landing moose</title><g id="Layer_2" data-name="Layer 2"><g id="Layer_1-2" data-name="Layer 1"><path d="M21.93,28.34l-.79-1.8c-.25-.56-.27-1-.85-1a7.66,7.66,0,0,1-2.56-.18,4.61,4.61,0,0,1-3.06-3.72,17.93,17.93,0,0,0-.12-2.54c-.21-.82-1-1.61-1.81-1.38-1.37.38-.87,2.63-1.88,3.63A5.85,5.85,0,0,1,10.24,17a6.48,6.48,0,0,0,.41-2c0-.67-.59-1.38-1.25-1.29s-.9.66-1.15,1.18l-1.44,3C6.52,18.45,6,19.14,5.39,19a1.26,1.26,0,0,1-.75-1C4,15.29,6,12.39,5,9.82c-1.42.48-2.16,2-2.68,3.43A54.59,54.59,0,0,0,.62,18.84a4.76,4.76,0,0,0-.18,1.94,4.48,4.48,0,0,0,1.83,2.49,24.67,24.67,0,0,0,19.63,5" fill="#e2d1bf"/><path d="M22.38,28.08c-.66-1.49-.86-2.17-1.95-3.07a15.07,15.07,0,0,1-4-1.11,10.52,10.52,0,0,1-1.33-4.83c-.21-.39.06-.44-.45-1a2,2,0,0,0-2-.85c-1.15.31-1,2.22-1.54,2.39-.27.09.29-5.1-.36-5.77a1.71,1.71,0,0,0-1.56-.54c-1.68.35-2.8,6.45-4.11,3.54-.74-1.62,1-5,.48-7.13a.52.52,0,0,0-.76-.31C2,11,1.28,14.4.5,17.29c-.68,2.5-.93,4.11,1,6,5.26,5.1,13.55,6.54,20.52,5.48.66-.1.38-1.1-.27-1A25,25,0,0,1,11,27.2c-2.68-.78-7.51-2.53-9.17-5-1.09-1.62-.52-8.77,1.86-8.94,1.68-.12.51,1,.4,2.31a6,6,0,0,0,0,2.47c.51,1.29,1.1,1.77,2.47,1,.56-.31,1.19-2.2,1.37-2.44l.72-1.48a2.26,2.26,0,0,1,.89,2.79,13.82,13.82,0,0,0,.84,3.64.52.52,0,0,0,.89,0c-.21.34,1.27-2,.75-1.73,1.65-.87,1.81,1.1,2.1,1.76a8,8,0,0,0,1.17,2.63,5.68,5.68,0,0,0,2.91,1.69c2.12.71,2.3.53,3.25,2.67.27.6,1.15.08.89-.52Z" fill="#d1bdaa"/><path d="M47.87,66.66a5,5,0,0,0,2.3,2.08,1.72,1.72,0,0,0,.88.2,1.43,1.43,0,0,0,1.15-1.32,4,4,0,0,0-.35-1.84,66.26,66.26,0,0,0-4.22-9.23" fill="#af9471"/><path d="M47.42,66.92c1.08,1.57,4.63,4.19,5.28.84.3-1.51-.82-3.38-1.36-4.7a70.2,70.2,0,0,0-3.26-6.77c-.32-.59-1.21-.07-.89.52,1,1.76,1.85,3.54,2.66,5.38.48,1.08.93,2.18,1.34,3.3.13.34.26.68.37,1q-2.2,2.27-3.25-.12c-.37-.54-1.26,0-.89.52Z" fill="#9b7f61"/><path d="M46.51,20.35a27.51,27.51,0,0,0,11.27-6.46A5.36,5.36,0,0,0,59,12.46a5.71,5.71,0,0,0,.46-1.86c.42-3.22.58-6.84-1.52-9.31C57.48.81,56.82.36,56.25.64s-.62,1.2-.53,1.9A42,42,0,0,1,56.1,7c0,.38-.08.87-.46.92a.8.8,0,0,1-.57-.29l-3-2.73a3.1,3.1,0,0,0,0,2.86,19.28,19.28,0,0,1,1.15,2.75A1.07,1.07,0,0,1,53,11.6c-.62.5-1.4-.51-2.2-.57s-1.31.88-1.23,1.66a9.65,9.65,0,0,0,.81,2.21,1.47,1.47,0,0,1,0,1.37,1.66,1.66,0,0,1-.57.41,22.81,22.81,0,0,1-4,1.62m.44,1.94a3.94,3.94,0,0,1-.4-1.91" fill="#e2d1bf"/><path d="M46.65,20.85c4.16-1.31,8.45-3.38,11.49-6.59C60.39,11.88,60.54,8,60,4.93c-.24-1.4-1.62-5.84-4-4.76-2.82,1.3,1.78,9.33-3.6,4.4a.52.52,0,0,0-.86.23C51,6.39,51.5,7,51.82,8.51c.76,3.63-.24,1.34-1.83,2.25a2.07,2.07,0,0,0-.91,1.79c0,.5.29.91.34,1.4.3,3.2-1.07,2.95-3.75,3.86-.63.21-.36,1.2.27,1,1.75-.59,4-1.13,5-2.73.31-.49-.18-.89-.07-1.37a5.07,5.07,0,0,1,1.62-2.52c.78-.68,1.28-.15,1.24-1.64,0-1.15-.9-2-.9-3.22,0-2,.39-.51,1.39.25.78.6.3.39,1.17.82A.54.54,0,0,0,56,8.31c.85-.76.6-1.67.53-2.78-.09-1.48-1-2.72.64-3,2.17-.37,2,3.61,2,5,0,3.94-1.49,6.19-4.66,8.43a28.71,28.71,0,0,1-8.11,3.92c-.63.2-.36,1.19.28,1Z" fill="#d1bdaa"/><path d="M46.69,20a3.46,3.46,0,0,1-.33-1.65c0-.66-1-.66-1,0a4.53,4.53,0,0,0,.47,2.17c.29.6,1.18.07.89-.52Z" fill="#d1bdaa"/><path d="M7.55,59.94a5.53,5.53,0,0,0,.9-3.47,4.5,4.5,0,0,0-2.21,2.12A9,9,0,0,0,4.9,54.41,4.07,4.07,0,0,0,4.9,57c.21.62.48,1.49-.11,1.78-.33.17-.72,0-1.09,0s-.83.3-.65.63a.54.54,0,0,0,.26.21A6.72,6.72,0,0,0,7,60.33" fill="#af9471"/><path d="M8,60.2a6.39,6.39,0,0,0,1-3.73.52.52,0,0,0-.65-.5A5.46,5.46,0,0,0,5.8,58.33l1,.26a10.27,10.27,0,0,0-1.42-4.44.52.52,0,0,0-.94.12,5.2,5.2,0,0,0-.22,1.62c0,.51.31,1,.31,1.51s.13.59-.72.83c-.15,0-.33,0-.49.05a1.12,1.12,0,0,0-.7.58c-.74,1.76,3.51,2,4.44,2,.65,0,.66-1.07,0-1a7.08,7.08,0,0,1-1.78-.1c-.2,0-1.31-.43-1.3-.43s.49.06.64.05A1.21,1.21,0,0,0,5.36,59a1.57,1.57,0,0,0,.27-1.26c-.16-1.15-.58-2-.24-3.18l-.94.13a9.26,9.26,0,0,1,1.28,3.92.52.52,0,0,0,1,.26A4.26,4.26,0,0,1,8.59,57l-.66-.5a5.41,5.41,0,0,1-.83,3.21c-.34.56.55,1.08.89.52Z" fill="#9b7f61"/><path d="M47.27,55.75c2,9.52-.77,19.33-3.57,28.66a9.73,9.73,0,0,1-2.23,4.45c-1.22,1.16-3.37,1.52-4.53.31a35.27,35.27,0,0,0,.26-6.89,3.55,3.55,0,0,0-.44-1.79,3.57,3.57,0,0,0-2.34-1.26,26.92,26.92,0,0,0-9.08-.47l-1,12.06a14.59,14.59,0,0,1-4.41-.5l-.18-.53C19.43,86,17.94,82.42,17,78.73a54.07,54.07,0,0,1-1.23-7.59,97.88,97.88,0,0,1,5.64-43.79l.41-.1a9.74,9.74,0,0,1,5.42-13.1,20.61,20.61,0,0,0-.33,8.91,1.36,1.36,0,0,0,.5,1,1.37,1.37,0,0,0,1,.06,80.79,80.79,0,0,0,10.39-2.56,1.77,1.77,0,0,0,.89-.49A1.79,1.79,0,0,0,40,20l.5-8.77a13.54,13.54,0,0,1,5.73,8.53l-.11.42c.18,3.34,3.73,5.25,6.7,6.8a24.41,24.41,0,0,1,7.7,5.74,11.4,11.4,0,0,1,2.79,9c-.58,3.49-3.18,6.31-6,8.41C52.3,53.73,45.78,55.86,40,54c-5.62-1.84-9.5-7-12.37-12.13" fill="#af9471"/><path d="M14.94,70.64c-5,1.61-7.64-6.9-7.33-10.37.06-.66-1-.65-1,0-.39,4.27,2.95,13.21,8.64,11.36.63-.2.36-1.2-.28-1Z" fill="#9b7f61"/><path d="M35.05,36.4a1.2,1.2,0,0,0,0-2.39,1.2,1.2,0,0,0,0,2.39Z"/><path d="M51,31.41A1.19,1.19,0,0,0,51,29a1.19,1.19,0,0,0,0,2.38Z"/><path d="M52,41.26a.48.48,0,0,0,0-1,.48.48,0,0,0,0,1Z"/><path d="M49.92,41.69a.48.48,0,0,0,0-1,.48.48,0,0,0,0,1Z"/><path d="M51.66,47.78a3.74,3.74,0,0,1-6.52-.41c-.19-.37-.75,0-.56.32a4.4,4.4,0,0,0,7.64.41c.23-.34-.32-.67-.56-.32Z"/><rect x="47.09" y="25.87" width="3.86" height="1.55" rx="0.28" ry="0.28" transform="translate(102.8 41.49) rotate(166.92)" fill="#6d563d"/><rect x="31.12" y="30.74" width="3.86" height="1.55" rx="0.28" ry="0.28" transform="translate(-3.79 4.53) rotate(-7.41)" fill="#6d563d"/><path d="M20,56.77l-2.3,3.9a5.26,5.26,0,0,1-1.31,1.67,1.83,1.83,0,0,1-2,.2,18,18,0,0,1,1.41-6.27" fill="#af9471"/><path d="M19.54,56.51,17.7,59.63c-.59,1-1.54,3.19-3.08,2.46l.26.45a18.73,18.73,0,0,1,1.39-6.13c.25-.61-.75-.88-1-.27a19.5,19.5,0,0,0-1.42,6.4.5.5,0,0,0,.25.44,2.67,2.67,0,0,0,3.37-1,47.71,47.71,0,0,0,3-4.91.52.52,0,0,0-.89-.52Z" fill="#9b7f61"/><path d="M45.87,54.39A18.23,18.23,0,0,1,36,51.63a31.21,31.21,0,0,1-5.3-4.44,12.09,12.09,0,0,1-1.5-1.7c-.43-.61-.51-1-1.16-1.37a25.69,25.69,0,0,1-3.52-2.44,24,24,0,0,1-3-3c-.46-.54-.9-1.11-1.31-1.69-.18-.26-1.1-1.31-1-1.61l-.19.89c-.56,5.83,3.2,11.13,7.07,15.52s8.24,8.86,9.32,14.62a8.66,8.66,0,0,1,1.35-1L38,64.23c.91-.75,1.81-1.52,2.69-2.3,1.76-1.58,3.46-3.23,5.08-4.94l.78-.83a7.15,7.15,0,0,0,.67-.68C47.84,54.57,46.38,54.38,45.87,54.39Z" fill="#00bf8c"/><path d="M45.87,53.88c-7.79-.17-11.66-4.48-16.8-9.47-3.06-3-7.74-4.92-9.47-9.19-.17-.43-.87-.55-1,0C16,47.73,32.14,55.5,34.81,66.52a.52.52,0,0,0,.86.23c2.52-2.43,5.49-4.42,8-6.88,1.34-1.3,4.07-3,4.09-5.08a.47.47,0,0,0-.25-.44,3.41,3.41,0,0,0-1.66-.47c-.66-.07-.66,1,0,1,1.47.15-2.74,4.07-2.91,4.23-1.7,1.65-3.45,3.24-5.29,4.73-3.14,2.55-1.45,1.64-2.24.84s-1.41-3.45-2-4.41c-4.9-8.38-12.89-13.08-14-23.42-.14-1.31-.95-1.2-.12-.12.59.76,1.13,1.54,1.76,2.27,2.28,2.67,5.27,4.34,7.7,6.82,5,5.11,9.64,8.89,17.08,9.06A.52.52,0,0,0,45.87,53.88Z" fill="#0a9970"/><path d="M18.61,38a5.29,5.29,0,0,0-4.17-4.32c-1-.18-2.25.17-2.37,1.15a2,2,0,0,0,1,1.66,7.43,7.43,0,0,0,4.41,1.37c-2.62,0-5.91.44-6.69,2.94a1,1,0,0,0,0,.81c.3.43,1,.24,1.42,0l6.31-3.2" fill="#00bf8c"/><path d="M19.1,37.82c-.48-2.57-3.89-6.23-6.74-4.32a1.78,1.78,0,0,0-.25,2.75c1.25,1.49,3.55,2,5.4,2.08v-1c-2.32,0-7.17.45-7.26,3.73,0,1.16.95,1.46,1.92,1.13a52.76,52.76,0,0,0,6.68-3.35c.59-.3.07-1.19-.52-.89l-3.68,1.86-1.84.94c-.68.34-1.7.79-1.24-.4.76-1.94,4.29-2,5.94-2a.52.52,0,0,0,0-1,7.5,7.5,0,0,1-3.26-.76c-.85-.44-1.15-.49-1-1.55s.43-1,1.44-.77a4.86,4.86,0,0,1,3.39,3.87c.12.65,1.12.38,1-.27Z" fill="#0a9970"/></g></g></svg>