<svg xmlns="http://www.w3.org/2000/svg" xmlns:xlink="http://www.w3.org/1999/xlink" viewBox="0 0 313.69 313.69"><defs><linearGradient id="linear-gradient" x1="45.94" y1="45.94" x2="267.75" y2="267.75" gradientUnits="userSpaceOnUse"><stop offset="0" stop-color="#2ab689"/><stop offset="1" stop-color="#465faa"/></linearGradient></defs><title>community</title><g style="isolation:isolate"><g id="Layer_2" data-name="Layer 2"><g id="Layer_1-2" data-name="Layer 1"><circle cx="156.85" cy="156.85" r="153.32" fill="#fff" stroke-linecap="round" stroke-miterlimit="10" stroke-width="7.05" stroke="url(#linear-gradient)"/><path d="M101.94,123.24l0-.15a28.71,28.71,0,0,1-4.88-2,2,2,0,0,1-.7-.52,1.81,1.81,0,0,1-.07-1.68,12.05,12.05,0,0,0,1-2.72c.1-1-.55-2.12-1.52-2.05s-1.94,1.32-2.7.7a1.28,1.28,0,0,1-.25-1.3,21.72,21.72,0,0,1,1.42-3.39,3.83,3.83,0,0,0,0-3.52L90.58,110a1,1,0,0,1-.71.35c-.46,0-.58-.67-.56-1.13a51.51,51.51,0,0,1,.46-5.54c.12-.86.14-2-.65-2.34s-1.51.21-2,.81c-2.59,3-2.4,7.51-1.88,11.47a7.2,7.2,0,0,0,.57,2.29,6.63,6.63,0,0,0,1.44,1.77,34,34,0,0,0,13.89,8l.77-2.22,0-.27A.41.41,0,0,1,101.94,123.24Z" fill="#7f664b"/><path d="M102.76,123.47l0-.15a.86.86,0,0,0-.59-1c-2.94-1-5.09-.73-4.52-4.4a9.55,9.55,0,0,0,.47-1.82,2.71,2.71,0,0,0-1.28-2.46c-1.71-.88-3.06,1.23-2.39-1.91.46-2.12,1.43-3,.57-5.3a.86.86,0,0,0-1.42-.37c-6.34,5.8-.52-3.62-4.1-5.43-3.06-1.55-4.93,4.13-5.26,6-.62,3.57-.58,8.45,1.95,11.29,3.75,4.22,9.36,6.92,14.66,8.59a.87.87,0,0,0,1-.59,22.65,22.65,0,0,0,.82-2.49l-1.66-.23v.11a.85.85,0,0,0,1.69,0v-.11a.85.85,0,0,0-1.66-.22c-.1.48-.36,1.9-.71,2.14.19-.13-4.11-2.15-4.87-2.54-3.92-2-8.45-4.7-9.49-9.19a16.92,16.92,0,0,1,0-7l.93-2.51q3-1.11,1.72,1.74c.49,1.89-1.09,3.94.57,5.43a.86.86,0,0,0,1,.13c1.74-.85,3.15-2.55,4.56-3.84l-1.42-.38c1,2.66-2.47,5.57-1.34,7.82.62,1.26,1.33.36,2.07,1.1,2.38,2.37.47,2.86,1.43,5,.38.88,5.11,3.43,5.54,2.2C100.77,124.05,102.41,124.49,102.76,123.47Z" fill="#7f664b"/><path d="M63.13,169.28a5.59,5.59,0,0,0-2.72,2.61,11.11,11.11,0,0,0-1.66-5.15,5,5,0,0,0,0,3.18c.25.76.59,1.83-.14,2.19-.4.21-.89,0-1.34,0s-1,.37-.81.77a.82.82,0,0,0,.32.26,8.33,8.33,0,0,0,4.57.94l.66-.49A6.79,6.79,0,0,0,63.13,169.28Z" fill="#7f664b"/><path d="M62.9,168.46a6.81,6.81,0,0,0-3.22,3l1.58.42a13,13,0,0,0-1.78-5.58.86.86,0,0,0-1.55.2,6.5,6.5,0,0,0-.12,3.19c.14.59.54,1,0,1.35s-.68.12-1.13.25a1.41,1.41,0,0,0-1.07,1.54c.12.8.92,1.11,1.59,1.39,1.39.57,3.7,1.21,5,.22,1.47-1.11,1.83-3.44,1.76-5.17,0-1.09-1.74-1.09-1.7,0s-.05,3.63-1.28,4a5.84,5.84,0,0,1-2.22-.29c-.38-.09-1.07-.64-1.2-.2s.28.29.61.28a1.69,1.69,0,0,0,1.7-1.6,4.57,4.57,0,0,0-.26-1.59,4.86,4.86,0,0,1-.06-2.9l-1.55.21a11,11,0,0,1,1.54,4.72.86.86,0,0,0,1.58.43,5,5,0,0,1,2.22-2.22C64.36,169.71,63.92,168.07,62.9,168.46Z" fill="#7f664b"/><path d="M64.61,184.27A9.26,9.26,0,0,0,67.46,187a4.32,4.32,0,0,0,3.84.32L61.46,174C61,177.61,62.44,181.3,64.61,184.27Z" fill="#7f664b"/><path d="M63.88,184.7c1.9,2.5,4.35,4.54,7.65,3.47a.85.85,0,0,0,.5-1.25l-9.84-13.38a.86.86,0,0,0-1.58.43,16,16,0,0,0,3.27,10.73c.62.89,2.08,0,1.46-.86-2.08-3-3.37-6.18-3-9.87l-1.58.42,9.84,13.39.51-1.25c-2.5.81-4.34-.85-5.74-2.69C64.69,183,63.21,183.83,63.88,184.7Z" fill="#7f664b"/><path d="M256.41,173.77c-.45,0-.93.24-1.34,0-.72-.36-.39-1.43-.13-2.2a5.08,5.08,0,0,0,0-3.18,11.27,11.27,0,0,0-1.66,5.16,5.55,5.55,0,0,0-2.72-2.61,6.81,6.81,0,0,0,1.11,4.27l.66.48a8.16,8.16,0,0,0,4.57-.94.74.74,0,0,0,.32-.26C257.44,174.14,256.87,173.73,256.41,173.77Z" fill="#7f664b"/><path d="M256.19,173c-1.13.17-.25-1.79-.2-2.24a6.4,6.4,0,0,0-.23-2.5.86.86,0,0,0-1.55-.21,13,13,0,0,0-1.78,5.59l1.58-.43a6.83,6.83,0,0,0-3.22-3c-.54-.21-1,.32-1.08.82a7.13,7.13,0,0,0,1.3,4.78,2.91,2.91,0,0,0,2.74.82c1.16-.1,3.29-.44,4.07-1.45s-.14-2-1.18-2.18-1.53,1.48-.45,1.63l-.14-.31-.68.26a7.1,7.1,0,0,1-1.27.3,2.79,2.79,0,0,1-1.57,0c-1.08-.63-1.17-2.75-1.12-3.85l-1.07.81a5.12,5.12,0,0,1,2.21,2.23.86.86,0,0,0,1.58-.43,11.05,11.05,0,0,1,1.54-4.73l-1.55-.2a5.35,5.35,0,0,1-.11,3.07,3.48,3.48,0,0,0-.17,1.69c.31,1.41,1.63,1.34,2.8,1.16S257.26,172.78,256.19,173Z" fill="#7f664b"/><path d="M260.21,124.6a66.74,66.74,0,0,0-2.11-6.89c-.64-1.73-1.54-3.63-3.3-4.23-1.2,3.18,1.25,6.75.46,10-.13.53-.41,1.11-.93,1.24-.78.21-1.39-.65-1.75-1.37l-1.77-3.67c-.31-.63-.72-1.35-1.42-1.44s-1.49.76-1.54,1.58a8.29,8.29,0,0,0,.5,2.43,7.17,7.17,0,0,1-.76,5.36c-1.24-1.24-.62-4-2.31-4.48-1-.28-2,.7-2.23,1.71a20.39,20.39,0,0,0-.16,3.13,5.67,5.67,0,0,1-3.77,4.58,9.34,9.34,0,0,1-3.15.22c-.72,0-.74.59-1,1.28l-.44,1-.43-.1a12,12,0,0,0-6.68-16.15,25.13,25.13,0,0,1,.4,11,1.64,1.64,0,0,1-.61,1.2,1.7,1.7,0,0,1-1.18.08c-.9-.16-1.79-.34-2.68-.53.62-.42,1.23-.86,1.82-1.34a5.5,5.5,0,0,0,2.25-3.06,5.72,5.72,0,0,0-.22-2.39,65.27,65.27,0,0,0-2.11-6.89c-.64-1.74-1.54-3.64-3.3-4.23-1.2,3.17,1.25,6.74.46,10a1.57,1.57,0,0,1-.93,1.24c-.78.2-1.39-.66-1.74-1.38-.6-1.22-1.19-2.45-1.78-3.67-.31-.63-.72-1.34-1.42-1.44s-1.49.76-1.54,1.59a8.29,8.29,0,0,0,.5,2.42,7.17,7.17,0,0,1-.76,5.36c-1.24-1.24-.62-4-2.31-4.48a1.38,1.38,0,0,0-.7,0c-.14-2.38-.27-4.75-.41-7.12a16.76,16.76,0,0,0-6.64,8.91v0l-.06.16-.1.49c-.09.33-.18.66-.25,1l0,.09-.1.51c0-.12.1-.23.14-.35l.08.27a6.76,6.76,0,0,1-2.26,4.49,12.39,12.39,0,0,0-.38-5c.69.25,1.38.48,2.09.69l.76-2.22.06-.27v.11l.05-.15a28,28,0,0,1-4.88-2l-.09,0c-.26-.33-.53-.64-.82-1a2.37,2.37,0,0,1,.14-1.2,11.88,11.88,0,0,0,1-2.72c.1-1-.55-2.11-1.52-2s-2,1.32-2.71.69a1.3,1.3,0,0,1-.25-1.3,23.07,23.07,0,0,1,1.42-3.38,3.82,3.82,0,0,0,0-3.53l-3.68,3.37a1,1,0,0,1-.71.35c-.46-.06-.57-.67-.56-1.13a51.31,51.31,0,0,1,.47-5.54c.11-.86.13-2-.65-2.34s-1.51.21-2,.81c-2.38,2.78-2.41,6.75-2,10.44-.6,3,1.4,6.23.67,9.27a1.55,1.55,0,0,1-.93,1.24c-.78.2-1.39-.66-1.74-1.38l-1.78-3.67c-.3-.63-.72-1.34-1.41-1.44s-1.49.76-1.55,1.59a8.29,8.29,0,0,0,.5,2.42,7.17,7.17,0,0,1-.76,5.36c-1.18-1.18-.67-3.76-2.11-4.4q-.22-4-.46-8a16.76,16.76,0,0,0-6.64,8.91v0l-.05.16-.11.49c-.09.33-.18.66-.25,1l0,.08-.1.51.15-.35.07.28a7.29,7.29,0,0,1-3.09,5.21,12.1,12.1,0,0,0-.81-6l-.1-.2a35.25,35.25,0,0,0,3.45,1.21l.77-2.22.05-.27v.11l0-.15a28.71,28.71,0,0,1-4.88-2,1.92,1.92,0,0,1-.7-.52,1.78,1.78,0,0,1-.07-1.68,12.05,12.05,0,0,0,1-2.72c.1-1-.55-2.12-1.52-2.05s-1.95,1.32-2.71.7a1.33,1.33,0,0,1-.25-1.3,22.73,22.73,0,0,1,1.42-3.39,3.8,3.8,0,0,0,0-3.52L160.06,110a.94.94,0,0,1-.71.35c-.46,0-.57-.67-.55-1.13a51.51,51.51,0,0,1,.46-5.54c.12-.86.14-2-.65-2.34s-1.51.21-2,.81c-2.6,3-2.4,7.51-1.88,11.47a7.2,7.2,0,0,0,.57,2.29,6.63,6.63,0,0,0,1.44,1.77,34.29,34.29,0,0,0,4.32,3.46,25.08,25.08,0,0,1-.2,7.83,1.29,1.29,0,0,1-1.79,1.28c-1.26-.23-2.51-.48-3.76-.75l.35-.27a5.5,5.5,0,0,0,2.25-3.06,5.72,5.72,0,0,0-.22-2.39,63,63,0,0,0-2.11-6.89c-.64-1.74-1.54-3.64-3.3-4.23-1.2,3.17,1.25,6.74.46,10a1.57,1.57,0,0,1-.93,1.24c-.78.2-1.39-.66-1.74-1.38l-1.78-3.67c-.31-.63-.72-1.34-1.41-1.44s-1.49.76-1.55,1.59a8.29,8.29,0,0,0,.5,2.42,7.14,7.14,0,0,1-.61,5.07l-.06-.06a2.16,2.16,0,0,1-.34-1.28q-.31-5.4-.62-10.81a16.72,16.72,0,0,0-6.65,8.91v0l-.05.16-.11.49c-.08.33-.18.66-.25,1l0,.08-.11.51a3.68,3.68,0,0,0,.15-.35l.07.28c-.16,2.92-2.42,5-5,6.57a12.22,12.22,0,0,0-.56-7.37,11.68,11.68,0,0,0-.57-1.18,33.28,33.28,0,0,0,5.61,2.19l.77-2.22.06-.27s0,.07,0,.11l.05-.15a28.71,28.71,0,0,1-4.88-2,2,2,0,0,1-.7-.52,1.78,1.78,0,0,1-.06-1.68,12.52,12.52,0,0,0,1-2.72c.1-1-.55-2.12-1.52-2.05s-1.94,1.32-2.7.7a1.31,1.31,0,0,1-.25-1.3,21.72,21.72,0,0,1,1.42-3.39,3.83,3.83,0,0,0,0-3.52L126.21,110a14.66,14.66,0,0,0-.83-6.47c.1-.83.06-1.81-.66-2.16a1.06,1.06,0,0,0-.7-.07c-.51-.58-1.3-1.11-2-.77s-.76,1.47-.65,2.33c.06.39.09.78.13,1.16a12.38,12.38,0,0,0-1,5.09l-3.6-3.29a3.82,3.82,0,0,0,0,3.53,22.19,22.19,0,0,1,1.42,3.38A1.31,1.31,0,0,1,118,114c-.76.62-1.73-.62-2.71-.7s-1.62,1.09-1.52,2a12.05,12.05,0,0,0,1,2.72,1.83,1.83,0,0,1-.06,1.69,2.15,2.15,0,0,1-.71.51,29.25,29.25,0,0,1-4.88,2l0,.14v-.11l.06.27.76,2.22a33.89,33.89,0,0,0,12.87-7c.74.71,1.53,1.36,2.33,2a25.34,25.34,0,0,1,0,9.23,1.29,1.29,0,0,1-1.8,1.28,101.05,101.05,0,0,1-12.81-3.16,4.81,4.81,0,0,1-.53-.2,5.63,5.63,0,0,1-.62-2.31l.07-.27a2.52,2.52,0,0,0,.15.34l-.11-.5,0-.09c-.06-.34-.16-.67-.25-1l-.1-.49-.06-.16v0l-.19-.54c-.15-2.51-.29-5-.43-7.52a15.36,15.36,0,0,0-2.62,2.2,16.11,16.11,0,0,0-3.4-3c-.18,3.17-.37,6.35-.55,9.52a2.09,2.09,0,0,1-.08.23v0l0,.16-.11.49c-.08.33-.18.66-.25,1l0,.08-.11.51a3.68,3.68,0,0,0,.15-.35l.07.28s0,.08,0,.12a.56.56,0,0,1,0,.08,2.18,2.18,0,0,1-1.1.61,100.63,100.63,0,0,1-12.81,3.16,1.76,1.76,0,0,1-1.18-.07,1.66,1.66,0,0,1-.61-1.21,25.13,25.13,0,0,1,.4-11,12,12,0,0,0-6.68,16.15l-.43.11-.43-1c-.31-.69-.33-1.24-1-1.28a9.08,9.08,0,0,1-3.15-.21,5.67,5.67,0,0,1-3.77-4.59,21.53,21.53,0,0,0-.15-3.12c-.26-1-1.23-2-2.24-1.71-1.69.47-1.07,3.24-2.31,4.48a7.2,7.2,0,0,1-.76-5.37,7.86,7.86,0,0,0,.5-2.42c0-.83-.72-1.7-1.54-1.59s-1.11.81-1.42,1.45l-1.77,3.66c-.35.73-1,1.58-1.75,1.38a1.54,1.54,0,0,1-.92-1.24c-.79-3.3,1.66-6.88.45-10-1.75.59-2.66,2.49-3.3,4.23a63.63,63.63,0,0,0-2.1,6.89,5.73,5.73,0,0,0-.23,2.39,5.52,5.52,0,0,0,2.25,3.06,30.34,30.34,0,0,0,23.16,6.31q-1.89,5.28-3.29,10.72a6.54,6.54,0,0,0-4.87-4.26c-1.19-.21-2.77.22-2.92,1.42a2.44,2.44,0,0,0,1.27,2,9.27,9.27,0,0,0,5.44,1.69c-3.23,0-7.29.53-8.25,3.62a1.16,1.16,0,0,0,0,1c.37.52,1.18.29,1.75,0l7.05-3.57a120.83,120.83,0,0,0-3.21,22.94,22.11,22.11,0,0,0-1.27,6.48,1.91,1.91,0,0,0,1.17.26q.07,5.17.58,10.34a67,67,0,0,0,1.52,9.35c1.13,4.55,3,9,3.4,13.64l.22.64a18.17,18.17,0,0,0,5.44.62q.6-7.43,1.19-14.87a33.4,33.4,0,0,1,11.19.59A4.38,4.38,0,0,1,98,198.88a4.49,4.49,0,0,1,.55,2.2,42.3,42.3,0,0,1-.34,8.49c1.44,1.5,4.09,1.05,5.59-.37a7.62,7.62,0,0,0,1.57-2.24,8.45,8.45,0,0,0,1.94,3.08c1.51,1.43,4.15,1.87,5.59.38a43,43,0,0,1-.33-8.49,3.43,3.43,0,0,1,3.43-3.76,33.46,33.46,0,0,1,11.2-.58q.59,7.44,1.18,14.87a18.23,18.23,0,0,0,5.45-.62l.22-.65c.43-4.67,2.26-9.08,3.39-13.63.11-.46.21-.93.31-1.39.75,2.82,1.57,5.62,2.4,8.38.6,2,1.25,4.07,2.76,5.49s4.15,1.87,5.58.38a43,43,0,0,1-.33-8.49,4.59,4.59,0,0,1,.54-2.2,4.48,4.48,0,0,1,2.89-1.56,33.46,33.46,0,0,1,11.2-.58q.58,7.44,1.18,14.87a18.19,18.19,0,0,0,5.45-.62l.22-.65c.37-4,1.79-7.88,2.9-11.79.49,1.73,1,3.45,1.51,5.15.59,2,1.25,4.07,2.75,5.49s4.15,1.87,5.59.38a42.3,42.3,0,0,1-.33-8.49,4.38,4.38,0,0,1,.54-2.2,4.44,4.44,0,0,1,2.89-1.56,33.4,33.4,0,0,1,11.19-.58q.6,7.44,1.19,14.87a18.17,18.17,0,0,0,5.44-.62l.22-.65a51.74,51.74,0,0,1,2.35-9.91c.4,1.38.81,2.75,1.22,4.12.59,2,1.25,4.07,2.75,5.49s4.15,1.87,5.59.38a42.3,42.3,0,0,1-.33-8.49,4.35,4.35,0,0,1,.54-2.2,4.44,4.44,0,0,1,2.89-1.56,33.4,33.4,0,0,1,11.19-.58q.6,7.44,1.19,14.87a18.49,18.49,0,0,0,5.44-.62l.22-.65c.43-4.67,2.27-9.08,3.4-13.63a67.22,67.22,0,0,0,1.52-9.35c.34-3.44.54-6.9.58-10.35a1.77,1.77,0,0,0,1.17-.26A22,22,0,0,0,242,172,120.83,120.83,0,0,0,238.79,149l7.05,3.57c.57.29,1.38.53,1.75,0a1.19,1.19,0,0,0,0-1c-1-3.08-5-3.63-8.24-3.61a9.25,9.25,0,0,0,5.43-1.7,2.42,2.42,0,0,0,1.27-2c-.14-1.21-1.72-1.64-2.92-1.42a6.51,6.51,0,0,0-4.87,4.26q-1.4-5.43-3.29-10.72a30.42,30.42,0,0,0,23.16-6.31,5.5,5.5,0,0,0,2.25-3.06A5.77,5.77,0,0,0,260.21,124.6Zm-65.13-2a25,25,0,0,1-.35,6.34,1.64,1.64,0,0,1-.61,1.2,1.7,1.7,0,0,1-1.18.08l-2.42-.47c.24-.18.48-.36.71-.55a5.5,5.5,0,0,0,2.25-3.06,5.72,5.72,0,0,0-.22-2.39c-.25-1-.52-2-.81-3C193.3,121.43,194.18,122,195.08,122.61Z" fill="#7f664b"/><path d="M261,124.38c-1-4-1.86-9.38-5.79-11.63a.86.86,0,0,0-1.25.51,9.59,9.59,0,0,0-.3,3.25c.07,1.2,1.47,4.53.89,5.59-1.45,2.63-2.83-3.55-4.32-4.29a2,2,0,0,0-2.58.4,3.21,3.21,0,0,0-.67,1.66c-.51,3.21,2.05,2.61-.14,7.36h1.46c-1.07-1.74-1.14-5.88-4.34-4.73-1.06.38-1.28,1.3-1.75,2.17-1.36,2.49,2.27,2.21-1.6,6,5.42-5.34-4.55.8-5.09,1.4-.06.07-2.69,2.95-.57,1.84,1.3-.68,1-4.47.86-5.56a13.17,13.17,0,0,0-8-10.28.85.85,0,0,0-1.24,1,28.75,28.75,0,0,1,.77,7.09c-.09,3.08-.43,4.29-3.81,3.61l.21,1.54c2.72-1.92,4.87-3.6,4.35-7.15-.59-4.08-2.07-10-5.91-12.23a.86.86,0,0,0-1.25.51,9.37,9.37,0,0,0-.29,3.26c.06,1.2,1.46,4.53.88,5.59-1.45,2.63-2.83-3.56-4.32-4.29a2,2,0,0,0-2.58.39A3.21,3.21,0,0,0,214,119c-.5,3.21,2.05,2.61-.14,7.36h1.46c-.84-1.37-1.43-3.18-2.23-4.52-.38-.66-.49-.18-.79-.85-.59-1.3-.2-4.33-.28-5.8,0-.58-.72-1.14-1.27-.73a19.15,19.15,0,0,0-7,9.41l1.67.23v0a.86.86,0,0,0-1.67-.23,17.45,17.45,0,0,0-.49,2.24c-.19.88,1.15,1.59,1.55.65l.15-.34-1.55-.2a5.21,5.21,0,0,1-2,3.93l1.44.6a18,18,0,0,0-.41-5.18l-1,1c.69.25,1.39.48,2.09.69a.87.87,0,0,0,1-.6,21.33,21.33,0,0,0,.82-2.49l-1.67-.22v.11a.85.85,0,0,0,1.67.22l0-.14a.86.86,0,0,0-.59-1c-2.94-1-5.09-.74-4.52-4.4a10.35,10.35,0,0,0,.47-1.82,2.71,2.71,0,0,0-1.28-2.46c-1.71-.88-3.06,1.23-2.39-1.91.45-2.12,1.43-3,.56-5.3a.86.86,0,0,0-1.41-.38c-6.55,6-.24-4.46-4.53-5.54-4.66-1.17-5,7.94-5,10.51,0,1.55.09,3.09.21,4.64,0,.67,1.62,6.75-.49,5.65-1.7-.89-1.07-4.85-3.5-5.41a2.28,2.28,0,0,0-2.21.74,3.11,3.11,0,0,0-.6,1.58c-.51,3.21,2,2.61-.15,7.36h1.46c-2.21-3.52-2.22-8-2.45-12,0-.58-.72-1.14-1.27-.73a19.15,19.15,0,0,0-7,9.41l1.67.23v0a.86.86,0,0,0-1.67-.23,17.45,17.45,0,0,0-.49,2.24c-.19.88,1.15,1.59,1.55.66l.15-.35-1.55-.2c.4,1.52-1.81,3.77-2.8,4.66l1.45.6a13.35,13.35,0,0,0-1-6.64l-.95,1.24a31.92,31.92,0,0,0,3.44,1.22.88.88,0,0,0,1.05-.59,22.65,22.65,0,0,0,.82-2.49l-1.67-.23v.11a.86.86,0,0,0,1.67.23l.05-.15a.86.86,0,0,0-.59-1c-2.94-1-5.09-.73-4.52-4.4a9.55,9.55,0,0,0,.47-1.82,2.71,2.71,0,0,0-1.28-2.46c-1.71-.88-3.06,1.23-2.39-1.91.45-2.12,1.43-3,.57-5.3a.86.86,0,0,0-1.42-.37c-1.08,1-2.22,3.07-3.41,1.33-.58-.86.64-3.49.43-4.59-.16-.85-.19-1.62-1-2.1-2.3-1.33-4.23,2.21-4.82,3.76-1.23,3.22-1.37,8.76.24,11.9,1,2,3.14,2.9,4.56,4.45s1.37,3.09,1.26,5.06l-.35,2.9a7,7,0,0,1-4.5-.07l.2,1.55c2.52-1.93,3.29-3.6,2.76-6.68-.67-4-2-9.49-5.79-11.63a.85.85,0,0,0-1.24.51,9.38,9.38,0,0,0-.3,3.26c0,.78,1.8,7.59-.37,6.45-1.7-.89-1.08-4.84-3.5-5.41a2.34,2.34,0,0,0-2.22.74c-.93,1-.37,1.66-.44,2.8-.13,2,.64,3.93-.23,6l1.41-.38c-1.31-1.25-.67-9.7-.78-11.55,0-.58-.71-1.14-1.27-.73a19.07,19.07,0,0,0-7,9.41l1.66.23v0a.85.85,0,0,0-1.66-.23,19.76,19.76,0,0,0-.5,2.24c-.18.88,1.15,1.59,1.55.66l.15-.35-1.55-.2c.61,2.32-3.18,5-4.57,5.89l1.25,1a14.49,14.49,0,0,0-1.22-9.21l-1.16,1.16a44.73,44.73,0,0,0,5.82,2.28.86.86,0,0,0,1-.59,22.65,22.65,0,0,0,.82-2.49l-1.66-.23v.11a.85.85,0,0,0,1.66.23l.05-.15a.86.86,0,0,0-.59-1c-2.94-1-5.09-.73-4.52-4.4a9.55,9.55,0,0,0,.47-1.82,2.7,2.7,0,0,0-1.27-2.46c-1.72-.88-3.06,1.23-2.39-1.91.45-2.12,1.42-3,.56-5.3a.86.86,0,0,0-1.42-.37l-3.63,3.33,1.44.6c.08-3,.5-9.6-3.73-10.25-1.23-.19-1.89-.15-2.56.93-.45.72-.13,1.43-.22,2.18-.26,2.13-.75,4.12-.89,6.25l1.45-.6-3.6-3.29a.85.85,0,0,0-1.41.37c-.75,2-.17,2.85.3,4.74,1,4.14-.11,1.38-2.13,2.47A2.67,2.67,0,0,0,113,115.1c0,.66.34,1.19.41,1.83.42,3.74-1.31,3.43-4.47,4.5a.86.86,0,0,0-.6,1l0,.15a.86.86,0,0,0,1.67-.23v-.11l-1.67.23a20.19,20.19,0,0,0,.83,2.49.85.85,0,0,0,1,.59,38.23,38.23,0,0,0,7.73-3.31c2.55-1.47,4.8-4.88,6.13-.91.41,1.23,1.59,6.23.31,7.36s-4.92-.14-6.29-.47c-1.68-.39-8.49-1-7.77-3.75l-1.54.2.14.35c.4.92,1.74.23,1.55-.65a16.76,16.76,0,0,0-.49-2.24.85.85,0,0,0-1.67.22v0l1.67-.22c-.8-2.24-.46-5.47-.6-7.84,0-.57-.72-1.14-1.27-.73-2.42,1.82-2.92.81-5.16-.85-.56-.41-1.25.16-1.28.74-.16,2.73.34,6.92-.59,9.52l1.66.23v0a.85.85,0,0,0-1.66-.23,19.76,19.76,0,0,0-.5,2.24c-.18.88,1.15,1.59,1.55.66l.15-.35-1.55-.2c0,.06-9.67,2.58-10.53,2.66-3.28.34-3.75.4-3.9-3.58a27.73,27.73,0,0,1,.77-7.09.86.86,0,0,0-1.24-1A13.14,13.14,0,0,0,78,125.88c-.24,1.21-.81,5,.25,6.09,1.57,1.64.54-.94-.11-1.58l-.2-.08A19.05,19.05,0,0,1,73.06,129c-1.19-1.66-.77-4.24-1.58-5.91-.43-.87-.64-1.8-1.67-2.23-3.23-1.37-3.39,3-4.44,4.69h1.47c-2.19-4.75.36-4.15-.15-7.36a3.21,3.21,0,0,0-.6-1.58,2,2,0,0,0-2.65-.48c-2,1-1.85,5.18-3.69,4.72-.77-.19.36-7.48,0-9.28a.86.86,0,0,0-1.25-.5c-3.46,2-4.36,6.26-5.34,9.88-.84,3.13-1.15,5.24,1.3,7.59,6.24,6,15.94,8,24.25,7l-.81-1.07q-1.86,5.3-3.3,10.72l1.55-.2c-1.15-2.47-5.87-7.08-8.69-3.8-3.18,3.69,4.66,5.82,6.88,6v-1.7c-3.53.07-9.27.78-9,5.47a.89.89,0,0,0,.63.82c2.83,1.07,7.06-2.45,9.45-3.66l-1.25-1a134.5,134.5,0,0,0-2.55,14.5c-.58,5-1.55,10.09-2,15.15a.83.83,0,0,0,.62.81c1.19.27,1.38,12.08,1.59,13.56A78.57,78.57,0,0,0,74.33,202c.66,2.23.88,6.47,1.91,8.33.13.23.05.66.25.87,1.4,1.42,4.36,1.21,6.26,1.24a.86.86,0,0,0,.85-.85l.67-8.36c.26-3.3-.32-5.45,3.41-5.88,3.42-.4,8.38.24,10,3.71.92,1.94-.08,6.38-.33,8.49a.84.84,0,0,0,.42.74c3.36,2.28,6.52.2,8.31-2.92h-1.46c1.59,3.5,4.94,6.31,8.69,3.76a.84.84,0,0,0,.42-.73c-.28-2.31-1-5.36-.37-7.64,1.09-4.12,6.21-5,10.07-4.57,3.33.42,3.09,1.83,3.34,5s.5,6.19.74,9.29a.88.88,0,0,0,.85.85c2.16,0,5.31.34,6.43-1.73,1-1.84.9-4.93,1.49-7,.76-2.73,1.65-5.4,2.27-8.17H137c1.2,4.42,3.92,20.24,12,14.76a.82.82,0,0,0,.42-.73c-.28-2.31-1-5.36-.37-7.64,1.1-4.12,6.21-5,10.07-4.57,3.34.42,3.09,1.83,3.34,5l.75,9.29a.87.87,0,0,0,.84.85c1.84,0,5.18.28,6.32-1.41.81-1.2.6-3.36.91-4.74.57-2.55,1.42-5,2.15-7.53h-1.63c1.25,4.34,3.95,16.37,11.1,11.52a.84.84,0,0,0,.42-.73c-.28-2.31-1-5.36-.37-7.64,1.09-4.12,6.21-5,10.07-4.57,3.33.42,3.09,1.83,3.34,5s.5,6.19.74,9.29a.88.88,0,0,0,.85.85c1.9,0,4.86.18,6.26-1.25.42-.43,1.16-6,.75-4,.46-2.23,1.16-4.4,1.82-6.57h-1.63c1.27,4.37,4,15.11,10.8,10.5a.87.87,0,0,0,.42-.73c-.28-2.32-1-5.36-.37-7.64,1.09-4.12,6.21-5,10.07-4.57,3.33.41,3.09,1.83,3.34,5s.49,6.19.74,9.29a.88.88,0,0,0,.85.85c1.91,0,4.85.18,6.26-1.25.2-.2.12-.64.25-.87,1-1.86,1.25-6.09,1.91-8.33a77.9,77.9,0,0,0,2.55-10.89c.21-1.47.4-13.29,1.59-13.55a.86.86,0,0,0,.62-.82c-.41-5-1.38-10.09-2-15.14a134.07,134.07,0,0,0-2.55-14.5l-1.24.95c2.5,1.27,6.53,4.76,9.44,3.66a.89.89,0,0,0,.63-.81c.22-4.69-5.52-5.41-9-5.47v1.69c2.11-.14,10.15-2.28,6.88-6-2.88-3.23-7.52,1.26-8.7,3.79l1.55.2c-1-3.62-2.06-7.18-3.3-10.72l-.81,1.08a32.08,32.08,0,0,0,18.41-3.09c4.08-2.07,8.61-4.65,7.59-9.75-.21-1.07-1.85-.62-1.63.45,1.06,5.32-7.86,8.6-11.63,9.73a31.16,31.16,0,0,1-12.74,1,.85.85,0,0,0-.82,1.07c1.24,3.54,2.33,7.1,3.29,10.72a.86.86,0,0,0,1.55.21c.11-1.27.71-1.61,1.78-1q3.1.39-1.42.62a.85.85,0,0,0,0,1.69c.95,0,6.35.07,5.37,1.57-.69,1.07-4.36-1.5-5.55-2.1a.86.86,0,0,0-1.24,1,126.74,126.74,0,0,1,2.69,16c.08.81,1.52,12.59,1.21,12.66a.87.87,0,0,0-.63.82,103.09,103.09,0,0,1-4,26.24c-.47,1.7-.9,3.39-1.21,5.12-.44,2.44-2.47,3.84-4.37,1.38-.71-.92-.36-4.5-.45-5.58l-.59-7.43a.88.88,0,0,0-.85-.85c-3.63-.32-12.28-1.2-14.81,2.56-1.1,1.63-.77,4.2-.73,6,0,1.14.09,2.27.2,3.4l-6-2.91c-1-1.16-1.27-4.16-1.69-5.62a.85.85,0,0,0-1.63,0c-.66,2.18-1.34,4.35-1.82,6.57-.4,1.84.08,5.7-3.55,4-2.63-1.25-1.95-11.24-2.17-14a.88.88,0,0,0-.85-.85c-3.63-.32-12.28-1.2-14.81,2.56-1.1,1.63-.77,4.2-.73,6,0,1.14.09,2.27.2,3.4l-6-2.91c-1.15-1.33-1.5-4.95-2-6.64a.85.85,0,0,0-1.63,0c-.65,2.22-1.38,4.43-2,6.68-.29,1.12-.52,2.25-.73,3.39-.4,2.2.31,1.88-1.78,2.19-3.39.49-2.76-3-3-5.48q-.33-4.19-.67-8.37a.87.87,0,0,0-.84-.85c-3.66-.32-12.53-1.23-14.9,2.76-1.14,1.91.47,8.64-.45,9.23l-6-2.91c-.34-1-.66-2.1-1-3.16-.66-2.23-1.3-4.47-1.9-6.72a.86.86,0,0,0-1.64,0c-.55,2.48-1.3,4.89-2,7.32-.58,2-.67,5.3-1.64,7.11a2.39,2.39,0,0,1-3.62.73c-1.11-.88-.76-2.86-.87-4.22q-.36-4.63-.74-9.29a.88.88,0,0,0-.84-.85c-3.77-.33-11.3-1.1-14.3,2a5,5,0,0,0-1.18,3.18c-.23,1.63.38,3.55,0,5.1l.13,1.7c-3.16.83-5.08.09-5.75-2.2a.85.85,0,0,0-1.46,0q-6,4.22-5.31.51c.08-.85.12-1.7.13-2.55a21.15,21.15,0,0,0-.13-4,4.29,4.29,0,0,0-1.51-3c-3.12-2.63-10.27-2-13.9-1.62a.87.87,0,0,0-.85.84l-.59,7.44c-.08,1,.08,4.74-.45,5.57q-1.48,2-4,.69c-.13-.64-.24-1.29-.32-1.95-.69-1.34-.81-3.74-1.23-5.23a103.15,103.15,0,0,1-4-26.24.87.87,0,0,0-.62-.82c-.32-.07,1.12-11.85,1.2-12.67a126.77,126.77,0,0,1,2.7-16,.87.87,0,0,0-1.25-1c-1.19.61-4.86,3.17-5.55,2.11-1-1.51,4.42-1.55,5.38-1.57a.85.85,0,0,0,0-1.7c-3-.15-3.5-.35-1.43-.61,1.07-.61,1.67-.28,1.78,1a.86.86,0,0,0,1.55-.2q1.44-5.43,3.29-10.72a.84.84,0,0,0-.82-1.07A30.63,30.63,0,0,1,61.12,131c-2.78-1.41-5.59-2.89-6.4-6-.89-3.35,1.6-10.78,4.6-12.49L58.07,112c.38,1.68-2.77,12.81,2,11.72,1.67-.39,3-5.35,3.5-5.27s1.25,6.81,1.76,7.93a.86.86,0,0,0,1.47,0c-.53.86,1.12-1.9.79-1.64,2.13-1.72,1.78.4,2.32,1.57s.39,1.9,1.1,2.92c1.93,2.74,6.23,1.89,7.42,4.56a.84.84,0,0,0,1,.39l.44-.1a.84.84,0,0,0,.59-1c-2.34-6.38.15-12.42,6.28-15.19l-1.24-1c-.76,3.41-3.06,13.28,2.44,13.3,2.1,0,15.35-2,14.48-5.29-.17-.65-1.25-.9-1.54-.2l-.15.34,1.55.65a17.06,17.06,0,0,1,.49-2.23l-1.66-.23v0a.85.85,0,0,0,1.66.22c1-2.77.49-7.08.66-10l-1.28.73a15.69,15.69,0,0,1,3.23,2.91.86.86,0,0,0,1.19,0L109,115.1l-1.27-.73c.15,2.6-.22,5.84.65,8.29a.86.86,0,0,0,1.67-.23v0l-1.67.23a17.24,17.24,0,0,1,.5,2.24l1.55-.66-.15-.34c-.3-.69-1.38-.45-1.55.2a3.8,3.8,0,0,0,1.14,3.62c1.58,1.33,5.86,1.75,7.81,2.22,1.76.42,4.54,1.56,6.35,1.14,2-.47,2.06-1.61,2.31-3.81a24.77,24.77,0,0,0,0-5.9c-.31-2.44-.94-2.52-2.82-4.2a.87.87,0,0,0-1.2,0,45.44,45.44,0,0,1-9.5,5.76c-2.08,1-2.27,1.55-2.77-.83a.85.85,0,0,0-1.67.22v.11l1.67-.22c.42,1.23,5.15-1.33,5.53-2.21,1-2.17-.92-2.7,1.43-5,.8-.79,1.41.24,2.08-1.09,1.12-2.26-2.35-5.17-1.35-7.83l-1.42.38,3.6,3.29a.85.85,0,0,0,1.44-.6c0-.28.82-7.84,2.36-7,1.85,1,1.7,6.41,1.66,7.93a.86.86,0,0,0,1.45.6l3.63-3.33-1.42-.38c1,2.66-2.47,5.57-1.34,7.82.62,1.26,1.33.36,2.07,1.1,2.38,2.37.47,2.86,1.43,5,.38.88,5.11,3.43,5.54,2.2l1.66.23v-.11a.85.85,0,0,0-1.66-.22c-.1.45-.24,1.49-.57,1.76s-3.93-1.64-4.63-2a.86.86,0,0,0-1.16,1.16,12.25,12.25,0,0,1,1,7.9c-.11.66.58,1.41,1.25,1,2.32-1.55,6.23-4.47,5.35-7.81-.17-.65-1.25-.9-1.55-.2l-.15.34,1.55.65a18.86,18.86,0,0,1,.49-2.23l-1.66-.23v0a.85.85,0,0,0,1.66.22,17.19,17.19,0,0,1,6.26-8.4l-1.28-.73c.19,3.28.17,6.65.57,9.91.11.91,0,2.15.7,2.84a.86.86,0,0,0,1.42-.37,14.5,14.5,0,0,0,.84-4c.21-1.43-.66-4.74,1.27-2.21.93,1.22,1.28,4.34,3.43,4.21,4.28-.25,1.07-9.9,1.52-11.88l-1.25.51c3.78,2.15,6.86,12.46,3,15.38-.52.39-.58,1.38.21,1.55,2.13.44,4.89,1.75,6.35-.34,1.22-1.73,1.08-7.59.35-9.27s-4.09-2.94-5.25-4.89c-1.52-2.54-1.68-6.59-1-9.53-.15-1.93.49-2.78,1.91-2.56,1-.37,1.28-.08.86.87.46,1.13-.64,3.41-.35,4.62.21.88.11,1.11.81,1.73a.86.86,0,0,0,1,.13c1.74-.85,3.14-2.55,4.56-3.84l-1.42-.38c1,2.66-2.47,5.57-1.35,7.82.63,1.26,1.34.36,2.08,1.1,2.38,2.37.47,2.86,1.43,5,.38.88,5.11,3.43,5.53,2.2l1.67.23v-.11a.85.85,0,0,0-1.67-.22c-.58,2.76-.84,1.59-3.22.68-.76-.29-1.24.65-1,1.24a12.17,12.17,0,0,1,.79,5.79.86.86,0,0,0,1.45.6c1.6-1.44,3.87-3.89,3.23-6.31-.17-.65-1.25-.9-1.55-.2l-.14.34,1.54.65a17.1,17.1,0,0,1,.5-2.23l-1.67-.23v0a.85.85,0,0,0,1.67.22,17.23,17.23,0,0,1,6.25-8.4l-1.27-.73c.27,4.75.14,8.82,2.68,12.87a.85.85,0,0,0,1.46,0,12.72,12.72,0,0,0,1.07-4.53c0-.2-.31-3.42.69-3.4.23,0,1.62,3.43,1.78,3.67,1,1.48,2.33,2.52,3.82.9.94-1,.52-3.09.44-4.28-.21-3.17-.93-6.17-.88-9.38,0-1.55-.08-6,2.18-5.63,1.78.28.71,1.93.62,3.61-.08,1.44-.39,2.58.71,3.58a.89.89,0,0,0,1,.13c1.74-.85,3.14-2.55,4.56-3.85l-1.42-.37c1,2.66-2.47,5.56-1.35,7.82.63,1.26,1.34.36,2.08,1.1,2.59,2.58.56,2.47,1.31,4.76.4,1.2,5.22,3.76,5.65,2.49l1.67.23V124a.85.85,0,0,0-1.67-.23c-.46,2.2-.26,1.77-1.87,1.22-.65-.23-1.17.45-1,1a11.65,11.65,0,0,1,.35,4.73.86.86,0,0,0,1.45.6c1.28-1.42,2.94-3.53,2.4-5.58-.17-.65-1.25-.9-1.55-.21l-.15.35,1.55.65a17.62,17.62,0,0,1,.5-2.24l-1.67-.22v0a.85.85,0,0,0,1.67.22,17.23,17.23,0,0,1,6.25-8.4l-1.27-.73c.13,2.37.27,4.74.4,7.12a.87.87,0,0,0,.85.84c.8,0,1.78,3.25,2.28,4.06a.85.85,0,0,0,1.46,0c.52-1.12,1.19-7.83,1.76-7.93s1.83,4.88,3.51,5.26c4.8,1.09,1.65-10,2-11.71l-1.25.51c2.48,1.41,4.1,6.09,4.57,8.87.61,3.67,0,5.47-3,7.58-.54.38-.57,1.39.2,1.55,2,.4,4,1.25,5.29-.56,2-2.7.48-9.29-.17-12.22l-1.24,1c6.13,2.78,8.62,8.81,6.28,15.19a.86.86,0,0,0,.59,1l.44.11a.87.87,0,0,0,1-.39c1.19-2.71,5.48-1.78,7.41-4.56a12.38,12.38,0,0,0,1.09-2.81c.26-.64.23-3.14,2.18-2.22-.11,0,1,2.26,1,2.18a.85.85,0,0,0,1.46,0c.52-1.12,1.19-7.83,1.76-7.93s1.83,4.88,3.51,5.26c4.8,1.09,1.65-10,2-11.71l-1.25.51c3.19,1.82,4.16,7.31,5,10.61A.85.85,0,0,0,261,124.38Z" fill="#7f664b"/><path d="M194.24,122.61a27.29,27.29,0,0,1-.06,4.24c-.12,1.23.07,2.31-1.62,2.45a7.45,7.45,0,0,1-1.81-.36l.2,1.55c1.34-1,2.83-2.15,3.28-3.85.52-2-.42-4.21-1-6.09l-1.24,1c.86.65,1.73,1.25,2.64,1.83s1.77-.87.85-1.46-1.78-1.19-2.63-1.83c-.61-.46-1.44.29-1.25,1a18.68,18.68,0,0,1,1,4.06c.11,1.89-1.17,2.93-2.54,4-.52.4-.58,1.39.2,1.55,1.58.32,4,1.3,5-.52,1.07-2,.79-5.29.67-7.44C195.87,121.53,194.18,121.52,194.24,122.61Z" fill="#7f664b"/><path d="M242.39,189a4.31,4.31,0,0,0,3.84-.31,9.49,9.49,0,0,0,2.85-2.76c2.17-3,3.64-6.66,3.15-10.31Z" fill="#7f664b"/><path d="M242.16,189.86c7.16,2.33,11.41-8.81,10.92-14.2a.86.86,0,0,0-1.58-.43l-9.84,13.39c-.65.88.82,1.72,1.46.85L253,176.09l-1.58-.43c.38,4.13-2.81,14.5-8.77,12.57C241.58,187.89,241.13,189.52,242.16,189.86Z" fill="#7f664b"/><path d="M213.78,135.79l1-2.21c.3-.69.32-1.25,1-1.28a9.34,9.34,0,0,0,3.15-.22,5.67,5.67,0,0,0,3.77-4.58,20.39,20.39,0,0,1,.16-3.13c.25-1,1.22-2,2.23-1.71,1.69.47,1.07,3.24,2.31,4.48a7.17,7.17,0,0,0,.76-5.36,8.29,8.29,0,0,1-.5-2.43c0-.82.72-1.7,1.54-1.58s1.11.81,1.42,1.44l1.77,3.67c.36.72,1,1.58,1.75,1.37.52-.13.8-.71.93-1.24.79-3.3-1.66-6.87-.46-10.05,1.76.6,2.66,2.5,3.3,4.23a64.31,64.31,0,0,1,2.1,6.89,5.61,5.61,0,0,1,.23,2.4,5.5,5.5,0,0,1-2.25,3.06,30.38,30.38,0,0,1-24.19,6.15" fill="#e2d1bf"/><path d="M214.32,136.11c.93-2.08,1-2.43,3.22-3.17,1.86-.61,3-.57,4.37-2.2.88-1,.89-2,1.44-3.16a7.07,7.07,0,0,0,0-1.66l2.56-.59c-.09,0,1,2.21.93,2.13a.64.64,0,0,0,1.1,0,14.53,14.53,0,0,0,1-4.48c1.13-6.89,1.24-.46,3.58,1.25,1.59,1.18,2.51.47,3.13-1.13a7.46,7.46,0,0,0,0-3c-.14-1.59-1.57-3,.49-2.85s2,2.83,2.48,4.44c.83,2.85.94,5.16-1.25,7.45-5.59,5.85-16,7.15-23.48,6-.8-.12-1.14,1.1-.34,1.22,8.53,1.31,18.15-.46,24.81-6.31,2.43-2.14,2.73-3.86,2-7-.94-3.76-1.85-8.56-5.47-10.62a.63.63,0,0,0-.93.38,8.69,8.69,0,0,0-.3,3.14c.06,1.27,1.48,4.51.89,5.64-1.76,3.43-3.15-3.17-4.21-3.84-4.1-2.6-2.84,4.05-3,5.73-.36,3-.26-.82-2-1.39a2.38,2.38,0,0,0-2.5,1c-.38.42-.38.92-.61,1.34a12.87,12.87,0,0,1-1.63,5.95,18.74,18.74,0,0,1-4.89,1.36c-1.44,1.13-1.63,1.83-2.49,3.79-.33.74.76,1.38,1.09.64Z" fill="#d1bdaa"/><path d="M181.81,183a6.24,6.24,0,0,1-2.83,2.57,2.18,2.18,0,0,1-1.09.24,1.78,1.78,0,0,1-1.42-1.62,5,5,0,0,1,.44-2.27,82.81,82.81,0,0,1,5.19-11.38" fill="#af9471"/><path d="M181.27,182.69c-.86,2-2.2,2-4,.15l.25-.74c0-1.33,1.36-3.47,1.85-4.6,1-2.26,2.1-4.46,3.28-6.63.39-.72-.7-1.36-1.1-.64a89.76,89.76,0,0,0-4,8.27c-.68,1.65-2.08,4-1.71,5.87.8,4.12,5.17.89,6.5-1,.47-.67-.63-1.31-1.09-.64Z" fill="#9b7f61"/><path d="M183.49,126a34,34,0,0,1-13.89-8,6.79,6.79,0,0,1-1.44-1.77,7.2,7.2,0,0,1-.57-2.3c-.52-4-.72-8.42,1.88-11.46.51-.6,1.32-1.15,2-.81s.76,1.48.65,2.34a51.31,51.31,0,0,0-.47,5.54c0,.46.1,1.07.56,1.13a1,1,0,0,0,.71-.35l3.68-3.37a3.82,3.82,0,0,1,0,3.53,23.07,23.07,0,0,0-1.42,3.38,1.3,1.3,0,0,0,.25,1.3c.76.63,1.73-.62,2.71-.69s1.62,1.08,1.52,2a11.88,11.88,0,0,1-1,2.72,1.82,1.82,0,0,0,.06,1.69,2,2,0,0,0,.71.51,28,28,0,0,0,4.88,2m-.54,2.39a4.66,4.66,0,0,0,.49-2.35" fill="#e2d1bf"/><path d="M183.66,125.34a35.93,35.93,0,0,1-10-4.83c-3.95-2.79-5.73-5.44-5.75-10.39,0-1.06,0-5.32,1.25-6.14,3.46-2.19,2,2.58,2,3.7-.08,1.34-.38,2.49.65,3.43a.67.67,0,0,0,.77.1c.73-.36,3-2.8,3.29-2.7,1,.39-1.2,4.27-1.23,5.26-.06,1.91.5,1.21,1.53,2.11a6.27,6.27,0,0,1,2,3c.09.38-.43.95-.24,1.37,1.08,2.36,3.88,3,6.27,3.76.78.27,1.11-1,.34-1.22-3.27-1.11-4.93-.79-4.66-4.68,0-.55.55-1.13.46-1.71-.13-.89-.25-1.82-1.13-2.29-1.68-.9-3,1.17-2.51-2.22.33-2.09,1.4-2.85.54-5.14a.64.64,0,0,0-1.06-.28c-6.42,5.89-1-3.5-4.36-5.39-2.82-1.59-4.68,4.32-4.94,5.84-.61,3.5-.59,8.3,1.88,11.08,3.73,4.21,9.31,6.88,14.57,8.54.78.25,1.12-1,.34-1.22Z" fill="#d1bdaa"/><path d="M184.36,126.13a5.61,5.61,0,0,0,.59-2.67c0-.82-1.3-.82-1.27,0a4.33,4.33,0,0,1-.41,2c-.36.73.74,1.37,1.09.64Z" fill="#d1bdaa"/><path d="M231.5,174.73a6.81,6.81,0,0,1-1.11-4.27,5.55,5.55,0,0,1,2.72,2.61,11.27,11.27,0,0,1,1.66-5.16,5.08,5.08,0,0,1,0,3.18c-.26.77-.59,1.84.13,2.2.41.2.89,0,1.34,0s1,.37.81.76a.74.74,0,0,1-.32.26,8.16,8.16,0,0,1-4.57.94" fill="#af9471"/><path d="M232.05,174.41a6.71,6.71,0,0,1-1-3.95l-.81.61a5.25,5.25,0,0,1,2.34,2.32.64.64,0,0,0,1.18-.32,11.39,11.39,0,0,1,1.58-4.84l-1.16-.15c.42,1.49-.11,2.49-.29,3.92a1.84,1.84,0,0,0,.33,1.54,1.47,1.47,0,0,0,1,.45c.24,0,.6-.15.79-.06,0,0-1.36.48-1.61.53a8.39,8.39,0,0,1-2.18.12c-.82-.05-.81,1.22,0,1.27,1.14.06,6.37-.29,5.47-2.45-.45-1.08-2.23-.47-2.41-1.61-.08-.48.37-1.29.41-1.83a6,6,0,0,0-.25-2.22.64.64,0,0,0-1.16-.15,12.8,12.8,0,0,0-1.75,5.48l1.19-.32a6.62,6.62,0,0,0-3.1-2.91.64.64,0,0,0-.8.62,7.91,7.91,0,0,0,1.19,4.59c.43.69,1.53,0,1.1-.64Z" fill="#9b7f61"/><path d="M182.56,169.57c-2.54,11.73.94,23.82,4.39,35.31.59,2,1.25,4.07,2.75,5.49s4.15,1.87,5.59.38a42.3,42.3,0,0,1-.33-8.49,4.35,4.35,0,0,1,.54-2.2,4.44,4.44,0,0,1,2.89-1.56,33.4,33.4,0,0,1,11.19-.58l1.19,14.87a18.49,18.49,0,0,0,5.44-.62l.22-.65c.43-4.67,2.27-9.08,3.4-13.63a67.22,67.22,0,0,0,1.52-9.35,120.63,120.63,0,0,0-7-54l-.5-.12a12,12,0,0,0-6.68-16.15,25.13,25.13,0,0,1,.4,11,1.64,1.64,0,0,1-.61,1.2,1.7,1.7,0,0,1-1.18.08A102.79,102.79,0,0,1,193,127.4a2.26,2.26,0,0,1-1.1-.61,2.24,2.24,0,0,1-.34-1.28L191,114.7a16.72,16.72,0,0,0-7,10.51l.14.52c-.23,4.12-4.61,6.48-8.26,8.38a30.1,30.1,0,0,0-9.5,7.08c-2.53,3.06-4.09,7.11-3.44,11,.72,4.31,3.93,7.78,7.44,10.37,6.08,4.49,14.11,7.11,21.29,4.77,6.93-2.27,11.71-8.57,15.25-14.94" fill="#af9471"/><path d="M222.05,189.14c7,2.27,11.12-8.75,10.64-14-.07-.81-1.34-.81-1.27,0,.39,4.28-2.92,14.76-9,12.77-.78-.25-1.11,1-.34,1.23Z" fill="#9b7f61"/><path d="M197.61,145.72a1.47,1.47,0,0,0,0-2.94,1.47,1.47,0,0,0,0,2.94Z"/><path d="M177.92,139.58a1.47,1.47,0,0,0,0-2.94,1.47,1.47,0,0,0,0,2.94Z"/><path d="M176.78,151.71a.59.59,0,0,0,0-1.18.59.59,0,0,0,0,1.18Z"/><path d="M179.29,152.24a.59.59,0,0,0,0-1.18.59.59,0,0,0,0,1.18Z"/><rect x="178.02" y="132.74" width="4.76" height="1.9" rx="0.28" ry="0.28" transform="translate(11.41 -14.16) rotate(4.64)" fill="#6d563d"/><rect x="197.69" y="138.74" width="4.76" height="1.9" rx="0.28" ry="0.28" transform="translate(380.45 304.04) rotate(-172.59)" fill="#6d563d"/><path d="M216.18,170.82l2.84,4.81a6.42,6.42,0,0,0,1.62,2.06,2.23,2.23,0,0,0,2.46.24,22.29,22.29,0,0,0-1.73-7.72" fill="#af9471"/><path d="M215.63,171.14a56.93,56.93,0,0,0,3.65,6.06c1,1.34,2.53,2.05,4.14,1.28a.62.62,0,0,0,.32-.55A24.11,24.11,0,0,0,222,170c-.3-.74-1.53-.42-1.22.34a23.36,23.36,0,0,1,1.71,7.55l.31-.55c-1.89.91-3.06-1.81-3.78-3l-2.27-3.85a.64.64,0,0,0-1.1.64Z" fill="#9b7f61"/><path d="M184.28,167.89a22.37,22.37,0,0,0,12.21-3.4A39.23,39.23,0,0,0,203,159a14.79,14.79,0,0,0,1.85-2.1c.52-.75.63-1.22,1.43-1.68a33.14,33.14,0,0,0,4.33-3,29.87,29.87,0,0,0,3.74-3.72c.57-.67,1.11-1.37,1.61-2.09.23-.32,1.36-1.61,1.28-2l.23,1.1c.69,7.19-3.94,13.72-8.71,19.13s-10.16,10.92-11.49,18a10.76,10.76,0,0,0-1.66-1.29c-.57-.45-1.14-.9-1.7-1.37q-1.68-1.38-3.32-2.84c-2.17-1.94-4.26-4-6.26-6.09l-1-1a8.13,8.13,0,0,1-.83-.83C181.85,168.12,183.66,167.88,184.28,167.89Z" fill="#665ecc"/><path d="M184.28,169.14c8.07-.13,14.7-3.87,20.11-9.74,4.39-4.76,11.53-8.34,14.07-14.63h-2.4c1.81,8.56-5.65,16.11-10.75,21.93-4.1,4.67-7.8,9.49-9.22,15.64l2.08-.55c-1.88-1.81-4.16-3.27-6.13-5-1.13-1-6.69-7.72-7.76-7.64,1.59-.12,1.61-2.61,0-2.49-3.28.24-3.52,2.06-1.77,4.3,3.9,5,9.42,8.28,13.9,12.61a1.26,1.26,0,0,0,2.08-.55c3.23-14,23.34-23,20-38.91-.28-1.33-2-1-2.4,0-2.25,5.56-8.64,7.91-12.3,12.14-5.17,6-11.29,10.27-19.48,10.41A1.25,1.25,0,0,0,184.28,169.14Z" fill="#3d3ba3"/><path d="M217.87,147.64a6.52,6.52,0,0,1,5.14-5.33c1.2-.22,2.78.21,2.92,1.42a2.42,2.42,0,0,1-1.27,2,9.27,9.27,0,0,1-5.43,1.7c3.22,0,7.28.53,8.24,3.61a1.19,1.19,0,0,1-.05,1c-.37.52-1.18.28-1.75,0l-7.78-3.94" fill="#665ecc"/><path d="M218.47,147.8a6,6,0,0,1,4.19-4.77,2.73,2.73,0,0,1,1.6-.08c2.28,1-.11,2.44-.73,2.8a8.87,8.87,0,0,1-4.3,1.09.63.63,0,0,0,0,1.25c2.05,0,6.38.06,7.32,2.45.54,1.38-.38.91-1.21.68a16.72,16.72,0,0,1-2.6-1.32l-4.53-2.3c-.72-.36-1.35.72-.63,1.08,2.67,1.35,5.41,3.16,8.24,4.14,1.17.4,2.37,0,2.34-1.38-.11-4-6.08-4.59-8.93-4.6v1.25c2.27-.05,5.11-.72,6.64-2.56a2.2,2.2,0,0,0-.3-3.38c-3.48-2.39-7.71,2.2-8.3,5.32-.15.78,1,1.12,1.2.33Z" fill="#3d3ba3"/><path d="M174.62,157.54H181c.9,0,2.64-.2,3.35.4a8.63,8.63,0,0,1,1.34,3.75c.23.62,0,.87-.74.75a5.89,5.89,0,0,1-2.83,0,9,9,0,0,1-2.47-1.31,34.49,34.49,0,0,1-4.93-4.1.4.4,0,0,0-.56.57c2,2,4.43,4.29,7.07,5.35,1.15.47,4.73,1.06,5.49-.37.5-.94-1.29-5-2.16-5.63s-2.68-.18-3.56-.18h-6.41a.4.4,0,0,0,0,.79Z"/><path d="M107.65,135.53l-1-2.22c-.31-.69-.33-1.24-1.05-1.27a9.34,9.34,0,0,1-3.15-.22,5.67,5.67,0,0,1-3.77-4.58,20.33,20.33,0,0,0-.16-3.13c-.25-1-1.22-2-2.23-1.71-1.69.47-1.07,3.24-2.31,4.48a7.2,7.2,0,0,1-.76-5.37,7.86,7.86,0,0,0,.5-2.42c0-.83-.72-1.7-1.54-1.59s-1.11.82-1.42,1.45L89,122.61c-.35.73-1,1.59-1.75,1.38a1.57,1.57,0,0,1-.93-1.24c-.78-3.3,1.66-6.87.46-10-1.75.59-2.66,2.49-3.3,4.23a64.31,64.31,0,0,0-2.1,6.89,5.77,5.77,0,0,0-.23,2.4,5.55,5.55,0,0,0,2.25,3.06,30.38,30.38,0,0,0,24.19,6.15" fill="#e2d1bf"/><path d="M108.2,135.21c-.81-1.84-1-2.67-2.4-3.78a19,19,0,0,1-5-1.37,13,13,0,0,1-1.63-6,7.6,7.6,0,0,0-.55-1.28,2.47,2.47,0,0,0-2.49-1c-1.83.5-1.73,4.47-2.09,1.42-.21-1.85,1.31-7.44-2.6-6-.7.25-.8.83-1.22,1.41-1.08,1.49-.75,3.69-2.6,3.18-1.23-.34.24-7.23-.23-9.28a.65.65,0,0,0-.93-.38c-3.41,1.95-4.29,6.19-5.24,9.76s-1,5.36,1.73,7.82c6.6,5.88,16.33,7.61,24.81,6.31.8-.12.46-1.35-.34-1.22A30.17,30.17,0,0,1,85,129.7c-2.85-2.08-3.11-4.21-2.56-7.45.15-.85.83-4.57,1.65-5.15,3.38-2.39,1,4.22,1.61,5.74s1.47,2.23,3.08,1.2,2.76-8.41,3.73-2c.31,2,0,3.2.94,5.17a.64.64,0,0,0,1.09,0c-.25.42,1.57-2.47.93-2.13,2-1.08,2.23,1.35,2.58,2.17.51,1.2.55,2.18,1.45,3.24a6.81,6.81,0,0,0,3.58,2.08c2.63.82,2.86.69,4,3.29.33.74,1.42.1,1.09-.64Z" fill="#d1bdaa"/><path d="M139.62,182.75a6.3,6.3,0,0,0,2.83,2.57,2.18,2.18,0,0,0,1.09.24,1.78,1.78,0,0,0,1.42-1.62,5,5,0,0,0-.44-2.27,82.81,82.81,0,0,0-5.19-11.38" fill="#af9471"/><path d="M139.07,183.07c1.33,1.93,5.69,5.17,6.5,1,.36-1.85-1-4.15-1.68-5.78a88.88,88.88,0,0,0-4-8.35c-.39-.72-1.49-.08-1.1.64,1.18,2.17,2.28,4.37,3.28,6.63.58,1.34,1.14,2.69,1.65,4.06.16.42.31.85.45,1.28q-2.7,2.79-4-.15c-.46-.67-1.56,0-1.09.64Z" fill="#9b7f61"/><path d="M137.94,125.69a34,34,0,0,0,13.89-8,6.79,6.79,0,0,0,1.44-1.77,6.94,6.94,0,0,0,.57-2.3c.52-4,.72-8.43-1.88-11.46-.5-.6-1.31-1.15-2-.81s-.76,1.48-.65,2.34a51.09,51.09,0,0,1,.47,5.54c0,.46-.1,1.07-.56,1.13a1,1,0,0,1-.71-.35l-3.68-3.37a3.82,3.82,0,0,0,0,3.53,23.07,23.07,0,0,1,1.42,3.38,1.3,1.3,0,0,1-.25,1.3c-.76.63-1.73-.62-2.71-.69s-1.62,1.08-1.52,2a11.88,11.88,0,0,0,1,2.72,1.83,1.83,0,0,1-.06,1.69,2,2,0,0,1-.71.51,28,28,0,0,1-4.88,2m.54,2.38a4.62,4.62,0,0,1-.49-2.34" fill="#e2d1bf"/><path d="M138.11,126.3c5.13-1.62,10.41-4.16,14.17-8.13,2.77-2.92,2.95-7.66,2.28-11.49-.3-1.72-2-7.2-4.87-5.87-3.47,1.6,2.2,11.5-4.43,5.42a.64.64,0,0,0-1.06.28c-.74,2-.11,2.71.29,4.58.94,4.47-.3,1.66-2.26,2.78a2.53,2.53,0,0,0-1.12,2.2c0,.62.36,1.12.41,1.72.38,3.95-1.31,3.64-4.62,4.76-.77.26-.44,1.49.34,1.22,2.16-.73,4.93-1.39,6.15-3.36.38-.61-.22-1.1-.09-1.69a6.22,6.22,0,0,1,2-3.1c1-.85,1.59-.19,1.54-2,0-1.41-1.11-2.46-1.12-4,0-2.46.49-.63,1.72.31,1,.74.37.47,1.45,1a.67.67,0,0,0,.77-.1c1-.95.73-2.06.65-3.44-.1-1.82-1.23-3.34.8-3.69,2.67-.45,2.42,4.45,2.41,6.14,0,4.85-1.84,7.62-5.75,10.39a35.25,35.25,0,0,1-10,4.83c-.77.24-.44,1.47.34,1.22Z" fill="#d1bdaa"/><path d="M138.16,125.22a4.26,4.26,0,0,1-.41-2c0-.82-1.23-.82-1.26,0a5.51,5.51,0,0,0,.58,2.67c.36.73,1.45.09,1.09-.65Z" fill="#d1bdaa"/><path d="M89.93,174.46A6.77,6.77,0,0,0,91,170.19a5.61,5.61,0,0,0-2.72,2.62,11.15,11.15,0,0,0-1.66-5.16,5,5,0,0,0,0,3.18c.25.77.59,1.84-.14,2.2-.4.2-.89,0-1.34-.05s-1,.37-.81.77a.74.74,0,0,0,.32.26,8.16,8.16,0,0,0,4.57.94" fill="#af9471"/><path d="M90.48,174.79a7.92,7.92,0,0,0,1.19-4.6.64.64,0,0,0-.8-.61,6.62,6.62,0,0,0-3.1,2.91l1.19.32a12.8,12.8,0,0,0-1.75-5.48.64.64,0,0,0-1.16.15,6.42,6.42,0,0,0-.27,2c0,.64.38,1.27.39,1.87s.15.73-.9,1c-.18,0-.41,0-.6.06a1.48,1.48,0,0,0-.87.72c-.91,2.16,4.33,2.51,5.47,2.45.81-.05.82-1.32,0-1.27a8.39,8.39,0,0,1-2.18-.12c-.25,0-1.62-.53-1.61-.53s.6.08.79.06a1.45,1.45,0,0,0,1-.45,1.85,1.85,0,0,0,.33-1.55c-.19-1.41-.7-2.43-.29-3.91l-1.16.15a11.39,11.39,0,0,1,1.58,4.84.64.64,0,0,0,1.18.32,5.2,5.2,0,0,1,2.34-2.32l-.81-.62a6.55,6.55,0,0,1-1,3.95c-.43.7.67,1.34,1.1.65Z" fill="#9b7f61"/><path d="M138.87,169.31c2.54,11.72-.94,23.82-4.39,35.31-.59,2-1.25,4.06-2.75,5.49s-4.15,1.87-5.59.38a41.57,41.57,0,0,0,.33-8.49,4.35,4.35,0,0,0-.54-2.2,4.44,4.44,0,0,0-2.89-1.56,33.4,33.4,0,0,0-11.19-.58l-1.19,14.87a18.5,18.5,0,0,1-5.44-.63l-.22-.64c-.43-4.67-2.27-9.08-3.4-13.64a66.74,66.74,0,0,1-1.52-9.35,120.61,120.61,0,0,1,7-54l.5-.13A12,12,0,0,1,114.22,118a25.13,25.13,0,0,0-.4,11,1.66,1.66,0,0,0,.61,1.2,1.7,1.7,0,0,0,1.18.07,99,99,0,0,0,12.81-3.16,2.17,2.17,0,0,0,1.1-.6,2.24,2.24,0,0,0,.34-1.28l.62-10.81A16.66,16.66,0,0,1,137.53,125l-.14.52c.23,4.11,4.61,6.48,8.26,8.38a30,30,0,0,1,9.5,7.08c2.54,3.06,4.09,7.11,3.44,11-.72,4.3-3.92,7.78-7.44,10.37-6.08,4.49-14.11,7.11-21.29,4.76-6.93-2.26-11.7-8.56-15.25-14.93" fill="#af9471"/><path d="M99,187.65c-6.11,2-9.42-8.5-9-12.77.07-.81-1.2-.81-1.27,0-.48,5.26,3.63,16.27,10.64,14,.77-.25.44-1.47-.34-1.22Z" fill="#9b7f61"/><path d="M123.82,145.46a1.47,1.47,0,0,0,0-2.94,1.47,1.47,0,0,0,0,2.94Z"/><path d="M143.51,139.31a1.47,1.47,0,0,0,0-2.93,1.47,1.47,0,0,0,0,2.93Z"/><path d="M144.65,151.45a.59.59,0,0,0,0-1.18.59.59,0,0,0,0,1.18Z"/><path d="M142.14,152a.59.59,0,0,0,0-1.17.59.59,0,0,0,0,1.17Z"/><path d="M144.29,159.48a4.62,4.62,0,0,1-8-.5c-.24-.46-.92-.06-.68.4a5.42,5.42,0,0,0,9.41.5c.29-.42-.4-.82-.69-.4Z"/><rect x="138.65" y="132.48" width="4.76" height="1.9" rx="0.28" ry="0.28" transform="translate(308.61 231.48) rotate(166.92)" fill="#6d563d"/><rect x="118.98" y="138.48" width="4.76" height="1.9" rx="0.28" ry="0.28" transform="translate(-16.98 16.83) rotate(-7.41)" fill="#6d563d"/><path d="M105.25,170.56l-2.84,4.81a6.42,6.42,0,0,1-1.62,2.06,2.23,2.23,0,0,1-2.46.24,22.29,22.29,0,0,1,1.73-7.72" fill="#af9471"/><path d="M104.7,170.24l-2.27,3.85c-.72,1.22-1.88,3.93-3.78,3l.31.55a23.36,23.36,0,0,1,1.71-7.55c.31-.76-.92-1.09-1.22-.34a24.37,24.37,0,0,0-1.76,7.89.62.62,0,0,0,.32.55,3.29,3.29,0,0,0,4.14-1.28,58,58,0,0,0,3.65-6.06.64.64,0,0,0-1.1-.64Z" fill="#9b7f61"/><path d="M137.15,167.63a22.4,22.4,0,0,1-12.2-3.4,38.9,38.9,0,0,1-6.54-5.47,15.37,15.37,0,0,1-1.85-2.1c-.52-.75-.63-1.22-1.43-1.69a32.13,32.13,0,0,1-4.33-3,29.87,29.87,0,0,1-3.74-3.72c-.57-.67-1.1-1.37-1.61-2.09-.23-.32-1.36-1.62-1.28-2l-.23,1.1c-.69,7.19,3.94,13.72,8.72,19.13s10.15,10.92,11.48,18a11.41,11.41,0,0,1,1.66-1.28l1.7-1.37c1.13-.92,2.23-1.87,3.32-2.84q3.26-2.92,6.26-6.09l1-1a7.31,7.31,0,0,0,.83-.84C139.58,167.86,137.78,167.62,137.15,167.63Z" fill="#00bf8c"/><path d="M137.15,167c-8.39-.14-14.65-4.52-20-10.65-3.73-4.31-10.11-6.67-12.41-12.35-.21-.52-1.08-.67-1.22,0-3.29,15.54,16.8,24.86,20,38.58a.64.64,0,0,0,1.06.28c4.44-4.28,10.24-7.49,13.9-12.6,1.31-1.84,1.52-3-1.34-3.26-.82-.06-.81,1.21,0,1.27,1.59.11-3.92,5.54-4.21,5.83-1.9,1.8-3.86,3.56-5.89,5.21-.31.26-2.45,2.29-2.85,2.19s.45-.38.21-.75c-1.21-1.8-1.7-4.45-2.89-6.37-5.66-9.12-19.32-17.84-16.74-30h-1.22c2.49,6.15,9.62,9.72,13.91,14.37,5.3,5.74,11.76,9.43,19.68,9.56A.64.64,0,0,0,137.15,167Z" fill="#0a9970"/><path d="M103.56,147.37a6.52,6.52,0,0,0-5.14-5.32c-1.19-.22-2.78.21-2.92,1.42a2.43,2.43,0,0,0,1.27,2,9.2,9.2,0,0,0,5.44,1.69c-3.23,0-7.29.54-8.25,3.62a1.16,1.16,0,0,0,.05,1c.37.53,1.18.29,1.75,0l7.78-3.94" fill="#00bf8c"/><path d="M104.17,147.21c-.6-3.17-4.81-7.68-8.32-5.33a2.2,2.2,0,0,0-.3,3.39c1.54,1.85,4.38,2.52,6.66,2.57v-1.27c-2.86,0-8.84.56-8.95,4.6,0,1.43,1.17,1.79,2.36,1.39,2.82-.94,5.59-2.79,8.24-4.13.73-.37.09-1.47-.64-1.1l-4.54,2.3-2.27,1.15c-.83.42-2.1,1-1.52-.49.93-2.39,5.28-2.44,7.32-2.45a.64.64,0,0,0,0-1.27,9,9,0,0,1-4-.94c-1-.54-1.43-.61-1.19-1.91s.53-1.28,1.77-.94a6,6,0,0,1,4.18,4.76c.15.81,1.37.47,1.22-.33Z" fill="#0a9970"/><g opacity="0.15" style="mix-blend-mode:multiply"><image width="150" height="185" transform="translate(44.83 64.47)" xlink:href="community1.png"/></g><g opacity="0.15" style="mix-blend-mode:multiply"><image width="161" height="185" transform="translate(125.83 64.47)" xlink:href="community2.png"/></g></g></g></g></svg>