<svg xmlns="http://www.w3.org/2000/svg" xmlns:xlink="http://www.w3.org/1999/xlink" viewBox="0 0 313.69 313.69"><defs><linearGradient id="linear-gradient" x1="45.94" y1="45.94" x2="267.75" y2="267.75" gradientUnits="userSpaceOnUse"><stop offset="0" stop-color="#2ab689"/><stop offset="1" stop-color="#465faa"/></linearGradient></defs><title>light</title><g style="isolation:isolate"><g id="Layer_2" data-name="Layer 2"><g id="Layer_1-2" data-name="Layer 1"><circle cx="156.85" cy="156.85" r="153.32" fill="#fff" stroke-linecap="round" stroke-miterlimit="10" stroke-width="7.05" stroke="url(#linear-gradient)"/><path d="M227.76,134a65,65,0,1,0-94.09,58c1.91,2.54,3.68,6.93,3.68,14.5v9.22a8.13,8.13,0,0,0,8.13,8.13h34.66a8.13,8.13,0,0,0,8.13-8.13v-17.1a15.57,15.57,0,0,1,3.23-6.38A65,65,0,0,0,227.76,134Z" fill="#eac975"/><path d="M178.94,246.76h-33.3c-5.13,0-9.33-4.53-9.33-10.07V197.92h52v38.77C188.27,242.23,184.07,246.76,178.94,246.76Z"/><rect x="144.62" y="241.62" width="35.33" height="13.4" rx="4.71" ry="4.71"/><rect x="137.9" y="200" width="48.78" height="7.27" rx="2.56" ry="2.56" fill="#494949"/><rect x="137.9" y="210.39" width="48.78" height="7.27" rx="2.56" ry="2.56" fill="#494949"/><rect x="137.9" y="220.78" width="48.78" height="7.27" rx="2.56" ry="2.56" fill="#494949"/><rect x="137.9" y="231.18" width="48.78" height="7.27" rx="2.56" ry="2.56" fill="#494949"/><path d="M153.36,197.09c0-13.36.65-26.91-.1-40.25-.42-7.39-2.55-17.56-10.88-19.91-7.55-2.12-11.52,5.75-9.3,12.12,1.71,4.92,6.1,9,9.4,12.82l14.16,16.48a1.06,1.06,0,0,0,1.5,0l13.07-15.84c3.12-3.78,7-7.69,8.63-12.39,2.41-6.78-1.75-14.41-9.45-14.26-10.35.19-7.66,14-7.75,20.79l-.53,41.15a1.06,1.06,0,0,0,2.12,0c.23-17.31.36-34.62.67-51.93.07-3.69,1.76-8.19,6.13-7.9a8.56,8.56,0,0,1,6.51,4c2.9,4.91-.85,10.34-3.8,14.13-5.49,7.08-11.4,13.88-17.1,20.79h1.5c-6-7-12.11-13.91-18-21-3-3.56-7-8.19-5.25-13.26,3.2-9.36,12.52-.58,14.41,4.24,2.76,7,2,15.36,2,22.76l0,27.48a1.07,1.07,0,0,0,2.13,0Z"/><g opacity="0.13" style="mix-blend-mode:multiply"><image width="206" height="206" transform="translate(55.83 30.02)" xlink:href="light1.png"/></g><g opacity="0.35" style="mix-blend-mode:multiply"><image width="202" height="259" transform="translate(61.83 31.02)" xlink:href="light2.png"/></g></g></g></g></svg>