<svg xmlns="http://www.w3.org/2000/svg" xmlns:xlink="http://www.w3.org/1999/xlink" viewBox="0 0 313.69 313.69"><defs><linearGradient id="linear-gradient" x1="45.94" y1="45.94" x2="267.75" y2="267.75" gradientUnits="userSpaceOnUse"><stop offset="0" stop-color="#2ab689"/><stop offset="1" stop-color="#465faa"/></linearGradient></defs><title>tools</title><g style="isolation:isolate"><g id="Layer_2" data-name="Layer 2"><g id="Layer_1-2" data-name="Layer 1"><circle cx="156.85" cy="156.85" r="153.32" fill="#fff" stroke-linecap="round" stroke-miterlimit="10" stroke-width="7.05" stroke="url(#linear-gradient)"/><rect x="96.38" y="174.01" width="150.68" height="18.4" transform="translate(179.85 -67.76) rotate(45)" fill="#a88a5d"/><path d="M141.71,90.5c-6.59-1-19.6-.87-32.72,12.17L94.47,117.1a5.31,5.31,0,0,0,0,7.53.91.91,0,0,1,.27.64,1,1,0,0,1-.27.65l-1.16,1.14a.9.9,0,0,1-1.28,0,5.26,5.26,0,0,0-3.76-1.57h0A5.25,5.25,0,0,0,84.47,127l-6.33,6.29a7,7,0,0,0-1,8.81,38.65,38.65,0,0,0,11.9,12,7,7,0,0,0,8.82-.92l6.32-6.29a5.31,5.31,0,0,0,0-7.53.92.92,0,0,1,0-1.29l1.16-1.15a.9.9,0,0,1,1.28,0,5.33,5.33,0,0,0,7.53,0l.26-.25.28.32c1.65-1.77,3.45-3.43,5.28-5a9.66,9.66,0,0,1,3-3.18c1.47-1.11,3.37-2.16,4-4a.88.88,0,0,1,.1-.22l-.38-.33a16.22,16.22,0,0,0,3-7.37c1.19-8.77,5.66-14.65,12-15.72,2.56-.43,24.4.65,24.46-2S144.32,90.92,141.71,90.5Z" fill="#7a7a7a" stroke="#7a7a7a" stroke-miterlimit="10" stroke-width="0.8"/><path d="M239.78,109a2.13,2.13,0,0,0-1.57-1.29,2.16,2.16,0,0,0-2,.59L225,119.54l-7-1.87-1.87-7L227.4,99.46a2.17,2.17,0,0,0-.7-3.53,24.24,24.24,0,0,0-32.09,30.65L91.21,230l13,13L200,147.2c.21.23-.68-.43-.47-.19l7.74-6.65A24.23,24.23,0,0,0,239.78,109Z" fill="#7a7a7a" stroke="#7a7a7a" stroke-miterlimit="10" stroke-width="0.8"/><g opacity="0.33" style="mix-blend-mode:multiply"><image width="228" height="226" transform="translate(39.83 52.99)" xlink:href="tools1.png"/></g><g opacity="0.33" style="mix-blend-mode:multiply"><image width="225" height="223" transform="translate(53.83 56.99)" xlink:href="tools2.png"/></g></g></g></g></svg>