<svg xmlns="http://www.w3.org/2000/svg" xmlns:xlink="http://www.w3.org/1999/xlink" viewBox="0 0 1549 1008"><title>landing mountain</title><g style="isolation:isolate"><g id="Layer_2" data-name="Layer 2"><g id="Layer_1-2" data-name="Layer 1"><path d="M99,194.05l394-81s326,45.42,378,20.87,110-20.87,148-6.14,183-24.55,183-24.55,102-14.73,159,0S1500,145,1500,145L1522,442,69,401.49Z" fill="#234647" opacity="0.83" style="mix-blend-mode:multiply"/><g opacity="0.65" style="mix-blend-mode:multiply"><image width="1525" height="418" transform="translate(24 60)" xlink:href="landing mountain1.png"/></g><path d="M99,176S278,87,303,87s120,68,164,75,194,56,194,56v50L40,273Z" fill="#2b5e59"/><g opacity="0.04"><image width="693" height="258" transform="translate(0 51)" xlink:href="landing mountain2.png"/></g><g opacity="0.67" style="mix-blend-mode:multiply"><image width="818" height="284" transform="translate(710 170)" xlink:href="landing mountain3.png"/></g><path d="M777.5,275.87,891.5,206s28,19.16,62,19.16h104l230-19.16s26,24.79,85,24.79,119,20.29,119,20.29L1491,459H746.13Z" fill="#4a594a" opacity="0.67" style="mix-blend-mode:multiply"/><path d="M422.93,193.5l-16.32,1a21.66,21.66,0,0,1-3.11-1,23.32,23.32,0,0,1-13-13l-16-6s-11-7-18,0-53,20-53,20-16-5-21,0c-1.58,1.58-7.73,4.25-15.41,7.17L214.5,183.5l-16,7-26-7-39,14L127,310l312-6,6.62-110.5Z" fill="#0b5138"/><g opacity="0.13"><image width="391" height="212" transform="translate(91 134)" xlink:href="landing mountain4.png"/></g><path d="M1260,391.53c-58.49,0-231-45.26-255.87-45.26S908.55,306.87,872,276s-60-46.54-60-46.54L767,167l-31-40.86s-74.45-82.79-92-93.08-46.3,89.25-58,85.13-22.15-11.63-28-3.4-47-9.08-47-9.08-54.77,71.08-65,67-4.81,2.73-9,9.08c-6,9.08,1.31,9.08-6,9.08s-16.11,21.66-16.11,21.66-10.23,6.17-17.55,10.29-16.08-4.12-17.54-4.12-43.86,18.52-52.64,16.46-11.69,2.06-11.69,2.06-17.55,14.4-26.32,14.4-11.7,2.06-11.7,2.06l-29.24,26.75L172,301.83V833H1452V409.38Z" fill="#18966f"/><g opacity="0.32" style="mix-blend-mode:multiply"><image width="1353" height="861" transform="translate(135)" xlink:href="landing mountain5.png"/></g><g opacity="0.19"><image width="717" height="1007" transform="translate(135 1)" xlink:href="landing mountain6.png"/></g><path d="M593.47,69.12s5.33-8.07,11.15-6.31,3.57-.46,15.66,3.06,17.48,7.07,26.42,7,19.69,2.59,26.4,2.55,9.4,2.2,6.73,4.89-6.7,2.72-13.4,2.75l-35.33.17c-9.84,0-24.61-2.57-37.58-2.51a84.69,84.69,0,0,1-24.61-3.91s-1.38-6.7,6.67-6.74S593.47,69.12,593.47,69.12Z" fill="#f9f2f6"/><path d="M421,206s-165-2-174,6,7,7,5,7,91,11,91,11H482s54-6,48-12-16-6-40-6S421,206,421,206Z" fill="#f9f2f6" opacity="0.68"/><path d="M721.38,148c-17,0-21.94,1.5-18,5.48S722.37,159,733.84,159s21.94-4,27.92-2,27.92,2,29.42,2,12,.5,9.47-2.49-10-5.49-10-5.49a68.08,68.08,0,0,0-15-1.49H751.29C740.32,149.5,721.38,148,721.38,148Z" fill="#f9f2f6" opacity="0.78"/><path d="M482,221.19s-165-2.73-174,8.2,7,9.57,5,9.57,91,15,91,15H543s54-8.2,48-16.4-16-8.21-40-8.21S482,221.19,482,221.19Z" fill="#f9f2f6" opacity="0.68"/><g opacity="0.11" style="mix-blend-mode:multiply"><image width="685" height="266" transform="translate(762 353)" xlink:href="landing mountain7.png"/></g></g></g></g></svg>