<svg xmlns="http://www.w3.org/2000/svg" viewBox="0 0 125.97 164.56"><title>business moose</title><g id="Layer_2" data-name="Layer 2"><g id="Layer_1-2" data-name="Layer 1"><path d="M80.92,50.2c.15-1.19.29-2.39.43-3.59s-.08-1.92.93-2.28c1.6-.58,3-.59,4.42-1.7a8.52,8.52,0,0,0,3.38-8.2c-.32-1.53-1.08-3-1.16-4.54s.88-3.38,2.44-3.42c2.62-.07,3,4.16,5.27,5.39a10.8,10.8,0,0,0-1.26-8,11.7,11.7,0,0,1-1.78-3.24c-.29-1.21.28-2.75,1.51-2.95,1-.16,1.94.68,2.65,1.45l4.15,4.46c.82.88,2.07,1.84,3.1,1.2a2.31,2.31,0,0,0,.78-2.18c-.32-5.06-5.39-9.1-5.06-14.16,2.77.07,4.9,2.39,6.58,4.6a97.41,97.41,0,0,1,6,8.92,8.68,8.68,0,0,1,1.38,3.33c.22,1.92-.8,3.75-1.88,5.36A45.38,45.38,0,0,1,80.94,50" fill="#e2d1bf"/><path d="M81.87,50.2c.41-3.43.67-4.12,3.65-5.85a16.9,16.9,0,0,0,1.85-1.05A9.71,9.71,0,0,0,90.87,38,9.22,9.22,0,0,0,91,34.43c-.08-.59-1.08-2.76-.93-3.26,1.68-5.33,4.55.38,6.05,1.51a1,1,0,0,0,1.39-.57,13.7,13.7,0,0,0,0-5.45c-.26-1.05-3.86-7-.46-6.88,1.19,0,3.62,4.08,4.62,4.88a4.21,4.21,0,0,0,2.35,1.21c2.15.06,2.62-1.75,2.65-3.53.06-5.05-4.89-8.79-5-13.91l-1.2.91c5.45.88,9,8,11.57,12.32,3.53,5.86-1.76,11.44-5.83,15.35A45.45,45.45,0,0,1,80.69,49.13c-1.2.16-.69,2,.51,1.83a46.71,46.71,0,0,0,31.56-18.58c3.36-4.66,3.41-7.65.45-12.44-2.82-4.56-6.4-11.49-12.24-12.43a1,1,0,0,0-1.2.92c.11,4.09,2.4,7,4,10.58.43,1,2.36,4.41-1.18,3.89-.5-.08-1.7-1.84-2.07-2.23-1.08-1.17-2.33-3.12-3.93-3.7a2.8,2.8,0,0,0-3.81,1.9A4.32,4.32,0,0,0,93.12,22c1.44,3.69,3.33,4.91,2.59,9.61l1.4-.57c-2-1.49-2.61-5.47-5.62-5.5-1.85,0-3,1.53-3.39,3.16-.48,2,.64,3.85.91,5.77a7.62,7.62,0,0,1-2,6.61c-1.34,1.26-3.66,1.29-5,2.33-2.17,1.7-1.73,4-2.06,6.79-.14,1.21,1.76,1.2,1.9,0Z" fill="#d1bdaa"/><path d="M34.56,119.05a9.45,9.45,0,0,1-4.24,3.84,3.2,3.2,0,0,1-1.62.36,2.66,2.66,0,0,1-2.13-2.43,7.43,7.43,0,0,1,.65-3.39,123.08,123.08,0,0,1,7.77-17" fill="#af9471"/><path d="M33.74,118.57q-1.93,4.4-6,.22l.38-1.11c0-2,2-5.18,2.77-6.87,1.48-3.38,3.14-6.67,4.9-9.92.58-1.07-1.06-2-1.64-1a132.54,132.54,0,0,0-6,12.37c-1,2.46-3.11,6-2.57,8.77,1.21,6.16,7.74,1.34,9.73-1.55.69-1-1-2-1.64-1Z" fill="#9b7f61"/><path d="M38.12,39.9A50.69,50.69,0,0,1,19.35,25a10.15,10.15,0,0,1-1.74-2.93,11,11,0,0,1-.33-3.52c.12-6,.82-12.63,5.33-16.54.88-.77,2.2-1.41,3.17-.74s.8,2.35.43,3.6A77.68,77.68,0,0,0,24.3,13c-.12.69-.1,1.62.57,1.8A1.43,1.43,0,0,0,26,14.43l6.18-4.16c.8,1.66.2,3.65-.73,5.23s-2.19,3-2.85,4.68a1.94,1.94,0,0,0,.08,2c1,1.09,2.69-.53,4.16-.42s2.15,2,1.79,3.36-1.39,2.52-2.08,3.8a2.7,2.7,0,0,0-.29,2.51,3.23,3.23,0,0,0,.93.91,42.57,42.57,0,0,0,6.78,4m-1.34,3.41a6.86,6.86,0,0,0,1.25-3.36" fill="#e2d1bf"/><path d="M38.59,39.08A51.5,51.5,0,0,1,22.08,26.85c-3.14-3.58-4.06-7.14-3.69-11.76.21-2.68.75-8.63,3.2-10.44,5.45-4,2.49,4.22,2.11,6.46-.19,1.1-.75,2.6-.08,3.64,2,3.12,7.5-2.62,9-3.66l-1.39-.56c1.23,4.52-4.41,6.9-3.83,10.82.32,2.16,1.41,1.56,2.87,2,2,.59,1.35-2.93,1.92,1.66.4,3.33-.19,1.4-.55,3.53-.2,1.19-.86,1.86-.33,3.13,1.08,2.58,5.83,4.37,8.14,5.52,1.09.55,2-1.09.95-1.64C39,34.83,35.86,33.76,35,32.41c-2-2.94.08-4.54.58-7.06.29-1.45,0-3.29-1.4-4.11-1-.58-1.24-.17-2.12-.33-1.49-.27-1.22,1.4-1.85-.49-.39-1.18.36-1.8,1-2.72,1.67-2.54,2.8-4.64,2-7.68a1,1,0,0,0-1.4-.57c-.5.34-6,4.31-6.18,4.16-.94-.94.88-5.74,1.16-6.85.44-1.75,1.7-4.68-.23-6.13C22.78-2.11,19,4.78,18,7.33c-2.12,5.65-2.94,13.34.69,18.38,4.71,6.55,11.76,11.57,19,15,1.09.53,2.06-1.11,1-1.64Z" fill="#d1bdaa"/><path d="M39.45,40.25a8.18,8.18,0,0,0,1.38-3.84.94.94,0,0,0-.95-.95,1,1,0,0,0-.94.95,6.32,6.32,0,0,1-1.13,2.88c-.7,1,.95,2,1.64,1Z" fill="#d1bdaa"/><path d="M116.47,118.05a10.11,10.11,0,0,1,1-6.52c1.46,1.25,1.86,3.31,2.16,5.21a16.61,16.61,0,0,1,5.36-6.08,7.59,7.59,0,0,1-1.91,4.35c-.81.9-1.9,2.17-1.12,3.09.43.53,1.22.52,1.86.75s1.2,1.12.65,1.53a1.16,1.16,0,0,1-.59.17,12.39,12.39,0,0,1-6.83-1.44" fill="#af9471"/><path d="M117.39,117.8a9.66,9.66,0,0,1,.92-5.79l-1.49.19c1.33,1.3,1.63,3,1.93,4.79a1,1,0,0,0,1.73.23,16.8,16.8,0,0,1,5-5.75l-1.42-.81c-.27,2-1.37,3.14-2.49,4.72a2.88,2.88,0,0,0-.64,2.79,2.27,2.27,0,0,0,1,1.06,7.17,7.17,0,0,0,1.38.4c0,.61-5.34-1.15-5.71-1.34-1.09-.55-2,1.09-1,1.64,1.37.69,10,3.55,9-.46a2.34,2.34,0,0,0-1.09-1.34c-.28-.17-.66-.17-.92-.34-.59,0-.82-.31-.69-1l.52-.7a10.2,10.2,0,0,0,2.53-5.43.94.94,0,0,0-1.42-.82,18.8,18.8,0,0,0-5.7,6.42l1.74.22c-.35-2.1-.84-4.09-2.41-5.62a1,1,0,0,0-1.49.19,11.88,11.88,0,0,0-1.12,7.25c.17,1.21,2,.7,1.83-.5Z" fill="#9b7f61"/><path d="M94.84,132.11c8.35,7.39,20.55-5.22,23.06-12.91.38-1.16-1.45-1.66-1.83-.5-2,6.1-12.83,18.3-19.88,12.06-.92-.8-2.26.53-1.35,1.35Z" fill="#9b7f61"/><path d="M35.67,99c-3.79,17.53,1.41,35.61,6.57,52.79.89,3,1.86,6.08,4.11,8.21s6.21,2.8,8.36.57a63.44,63.44,0,0,1-.5-12.7,6.74,6.74,0,0,1,.81-3.29c.92-1.41,2.68-2,4.32-2.32a49.85,49.85,0,0,1,16.74-.88l1.77,22.24a27.57,27.57,0,0,0,8.14-.93l.33-1c.65-7,3.39-13.58,5.08-20.39a98.38,98.38,0,0,0,2.27-14,180.42,180.42,0,0,0-10.4-80.7l-.75-.18a18,18,0,0,0-10-24.14,37.88,37.88,0,0,1,.6,16.41,1.91,1.91,0,0,1-2.68,1.91A150.07,150.07,0,0,1,51.3,35.89,3.25,3.25,0,0,1,49.66,35a3.29,3.29,0,0,1-.51-1.91l-.93-16.16A25,25,0,0,0,37.67,32.63l.21.77c-.33,6.15-6.88,9.69-12.35,12.53-5.27,2.74-10.4,6-14.2,10.58S5.21,67.15,6.19,73c1.07,6.44,5.87,11.64,11.11,15.51,9.1,6.71,21.11,10.63,31.85,7.12C59.51,92.26,66.65,82.83,72,73.31" fill="#af9471"/><path d="M34.75,98.7c-2.34,11.8-1.11,23.64,1.59,35.27,1.41,6.07,3.12,12.09,5,18,1.17,3.74,2.49,8,6.21,9.91,2,1.06,6.18,1.69,7.75-.64.79-1.16.08-3,0-4.36-.2-2.45-.92-6.68-.09-9.08,1.81-5.21,6.9-5.42,11.58-5.75,2.2-.16,7.23-1,8.54,1.12.52.84.36,4.55.44,5.55l.37,4.64.82,10.19a1,1,0,0,0,.94.95c1.66,0,7.15.32,8.62-1.06,1.16-1.09,1-3.86,1.25-5,1.33-7.51,4.35-14.6,5.69-22.12,2.76-15.48,2.72-31.69,1-47.27a184.92,184.92,0,0,0-3.81-21.79Q89.07,61.08,87.15,55c-.93-2.94-2.53-6.08-3.21-9,0-.2-.8-.29-.79-.33a1.64,1.64,0,0,0,1.33-2L84.79,42A18.82,18.82,0,0,0,73,21.47a1,1,0,0,0-1.4,1.07,40,40,0,0,1,1.19,8.84c0,1.39.12,6.25-.59,7.07C70,41,61.16,37.7,58.44,37a29.64,29.64,0,0,1-5.17-1.47c-3.16-1.52-3.19-2.66-3.38-6l-.72-12.57c0-.66-.8-1.27-1.43-.82-5,3.57-9.19,8.7-10.64,14.83-.88,3.7-.93,6.54-4.14,9.31-2.77,2.4-6.17,3.9-9.34,5.64C12.23,52.12.09,64.42,7,78.41c5.92,12,22.09,20.09,35.12,19.45,14.54-.72,24-12.33,30.66-24.08a1,1,0,0,0-1.64-1C64.55,84.45,55.1,96.07,40.53,96,27.57,95.93,8,86,7,71.41c-.59-8.08,4.73-15,10.87-19.63,4.78-3.58,10.49-5.63,15.24-9.22,3.12-2.36,5.31-5.21,5.77-9.16.75-6.48,4.53-11.88,9.87-15.68l-1.43-.81.67,11.67c.11,2-.28,4.63.7,6.43.86,1.57,2.49,1.81,4.12,2.33,3.42,1.08,6.91,2,10.41,2.76,2.72.62,8.52,3.25,10.5.1,1.07-1.68,1-5.1,1-7A41.78,41.78,0,0,0,73.45,22l-1.39,1.08c9.27,4,13.26,13.64,9.54,23.07a1,1,0,0,0,.66,1.17c1.17.28,2.13,5.28,2.5,6.4.94,2.89,1.81,5.81,2.61,8.74A181.1,181.1,0,0,1,91.24,80.3a179.65,179.65,0,0,1,2.16,37.92,132.43,132.43,0,0,1-2.15,19.36c-1.09,5.48-3,10.73-4.39,16.12-.53,2-.45,5.4-1.45,7.23-.75,1.37-2.34,1.69-4.27,1.62-2.15-.07-2,.09-2.56-1.75-.81-2.66-.52-6.49-.74-9.27L77,141.34a1,1,0,0,0-1-1c-5.47-.53-16.33-1.55-20.9,2.57-1.94,1.76-1.92,4.25-2,6.69s.5,5,.18,7.26q1,2.79-2.14,4.05a5.76,5.76,0,0,1-5.06-2.78c-3-3.39-3.9-9.57-5.12-13.84-1.29-4.5-2.5-9-3.48-13.62-2.22-10.44-3.07-21-1-31.51.24-1.2-1.59-1.71-1.83-.51Z" fill="#9b7f61"/><path d="M58.17,63.29c2.83,0,2.84-4.4,0-4.4s-2.83,4.4,0,4.4Z"/><path d="M28.74,54.1c2.83,0,2.83-4.39,0-4.39s-2.83,4.39,0,4.39Z"/><path d="M27,72.24a.88.88,0,0,0,0-1.76.88.88,0,0,0,0,1.76Z"/><path d="M30.78,73a.88.88,0,0,0,0-1.76.88.88,0,0,0,0,1.76Z"/><path d="M77.68,116.4l-.22-5a1.9,1.9,0,0,1,.21-1.16,1.82,1.82,0,0,1,.82-.54,64.46,64.46,0,0,1,8.21-2.78A4.33,4.33,0,0,1,90,107a3,3,0,0,1,1.1,1.31,9.52,9.52,0,0,1,.68,3.6l.26,4.49-2.19,0a1,1,0,0,1-.49-.08,1,1,0,0,1-.34-.83,10.32,10.32,0,0,0-1-3.66,1.63,1.63,0,0,0-.57-.74,1.67,1.67,0,0,0-1-.17,12.73,12.73,0,0,0-4.34.93,3.36,3.36,0,0,0-.85.47c-1,.86-.75,2.45-.73,3.79a1.43,1.43,0,0,1-.1.68c-.35.74-1.43.6-2.2.34" fill="#63411c"/><path d="M78.33,116.4c-.06-1.38-.65-3.71-.22-5,.62-1.86,4.55-2.6,6.16-3.1,2.7-.84,5.62-2.09,6.71,1.84.52,1.89.34,4.3.45,6.24l.65-.65c-4.06.09-1.9-5.79-6.44-5.36-1.46.13-3.61.47-4.75,1.52-1,.89-.89,5-2.41,4.65a.65.65,0,0,0-.34,1.25c1,.25,2.16.46,2.83-.51a2.47,2.47,0,0,0,.29-1.14c0-.55,0-1.11-.05-1.66a3.61,3.61,0,0,1,2.85-2.53c2.16-.81,3.44-.38,4,1.87a11.2,11.2,0,0,0,.47,2.5c.9,1.11,2.09.74,3.5.71a.65.65,0,0,0,.64-.65c-.15-2.69.37-6.88-1.48-9.16-1.36-1.67-3.39-1.27-5.24-.78s-3.46,1-5.15,1.65a11.05,11.05,0,0,0-3.27,1.36c-1.63,1.43-.63,5.09-.55,7,0,.83,1.33.83,1.3,0Z" fill="#492909"/><rect x="28.88" y="43.88" width="7.12" height="2.85" rx="1.42" ry="1.42" transform="translate(29.73 -10.35) rotate(32.81)" fill="#6d563d"/><rect x="58.3" y="52.85" width="7.12" height="2.85" rx="1.42" ry="1.42" transform="translate(123.72 108.56) rotate(-180)" fill="#6d563d"/><path d="M78.49,97.93l2.05,8.1A9.89,9.89,0,0,0,82,109.66,3.35,3.35,0,0,0,85.45,111a33.3,33.3,0,0,0,.74-11.81" fill="#af9471"/><path d="M77.57,98.19c.87,3.43,1.38,7.35,2.85,10.59,1,2.23,2.82,3.51,5.28,3.17a.92.92,0,0,0,.67-.66,36.77,36.77,0,0,0,.77-12.06c-.12-1.2-2-1.22-1.9,0a36.82,36.82,0,0,1,.16,5.94,31.15,31.15,0,0,1-.37,3.19c-.27,1.67-.62,1.94-2,.85s-1.67-3.79-2.09-5.46L79.4,97.68a1,1,0,0,0-1.83.51Z" fill="#9b7f61"/><path d="M61.23,88.67A56,56,0,0,1,64.7,94.4a10,10,0,0,0-4.62,2.7c-.45.47-1.11,1-1.71.74a1.1,1.1,0,0,1-.28-.2L53.58,93.8" fill="#00bf8c"/><path d="M60.61,89a64,64,0,0,1,3.47,5.72l.43-1.06a11.76,11.76,0,0,0-4.21,2.22c-1.19,1-2.15.83-3.31-.16l-2.9-2.47c-.7-.6-1.72.41-1,1,1.29,1.1,2.58,2.21,3.87,3.3.58.49,1,.93,1.73,1s1.29-.48,1.91-1a12.9,12.9,0,0,1,4.31-2.52A.74.74,0,0,0,65.32,94a66.34,66.34,0,0,0-3.46-5.72c-.52-.76-1.77,0-1.25.73Z" fill="#0a9970"/><path d="M59,97.87q4.56,8.84,8.83,17.82a2.92,2.92,0,0,1,.41,1.48c-.07.9-.91,1.51-1.64,2a20.24,20.24,0,0,0-5.91,7,15.14,15.14,0,0,0-7.07-6.37l2.49-7.53c1.57-4.74,3.15-9.67,2.52-14.62" fill="#00bf8c"/><path d="M58.15,98.35c2.43,4.72,5.43,9.57,7.27,14.56.61,1.67,1.36,3.84.48,5.64-.32.67-1.76,1.46-2.32,2a23.78,23.78,0,0,0-3.74,5.16h1.64a18.11,18.11,0,0,0-3.69-4.4c-2.7-2.26-3-2.21-1.73-5.94,1.93-5.84,3.95-11.48,3.49-17.7-.09-1.21-2-1.22-1.9,0,.56,7.57-2.64,14.84-5,21.9a.94.94,0,0,0,.43,1.07,16,16,0,0,1,6.73,6,1,1,0,0,0,1.64,0c1.9-3.38,4.64-4.83,6.83-7.69,1-1.32.92-2,.41-3.56-2.06-6.17-6-12.27-8.93-18-.56-1.09-2.2-.13-1.64,1Z" fill="#0a9970"/><rect x="60.67" y="115.97" width="51.27" height="34.18" rx="2.4" ry="2.4" transform="translate(-9.35 6.55) rotate(-4.13)" fill="#63411c" stroke="#492909" stroke-miterlimit="10" stroke-width="1.15"/><path d="M60.85,134.23c16.67,1.73,34.42,6.85,50-1.95a.87.87,0,0,0-.88-1.49c-15.26,8.61-32.83,3.4-49.14,1.71-1.11-.11-1.1,1.61,0,1.73Z" fill="#492909"/><rect x="84.86" y="133.64" width="3.46" height="6.91" rx="1.73" ry="1.73" fill="#fff28b"/><path d="M33.23,91.16A14.84,14.84,0,0,0,45.94,83.5c.37-.67-.66-1.27-1-.6A13.62,13.62,0,0,1,33.23,90a.59.59,0,0,0,0,1.18Z"/><path d="M1,35.73a13.41,13.41,0,0,0,5.21-9c1.16,4,2.45,8.15,5.5,10.93A15,15,0,0,0,4.53,48.88C4.34,46.94,5,45,4.89,43A8,8,0,0,0,.63,36.46" fill="#efdb7b"/><path d="M1.41,36.19a14.89,14.89,0,0,0,5.38-9.33H5.54a40.68,40.68,0,0,0,2.39,6.69c.57,1.13,2.48,3.18,2.23,4.3-.15.63-2.29,2-2.73,2.58a15.17,15.17,0,0,0-1.53,2.2,16.5,16.5,0,0,0-2,6.08l1.27.17c0-5.48,1.12-9.7-4.22-13C.25,35.47-.4,36.59.31,37c4.89,3,3.53,7.19,3.57,11.86,0,.7,1.17.92,1.28.17A15,15,0,0,1,12,38.18a.65.65,0,0,0,.13-1c-2.93-3-4.17-6.71-5.33-10.64-.17-.57-1.14-.66-1.25,0a14.13,14.13,0,0,1-5,8.75c-.64.54.28,1.45.92.92Z" fill="#f7db34"/><path d="M82.65,51.47A9.07,9.07,0,0,1,77.93,47a18.83,18.83,0,0,1-1.66,6.89c2.11,1.09,3.15,3.48,4,5.68a13.73,13.73,0,0,1,2.83-8.27" fill="#efdb7b"/><path d="M82.88,51.08a9.32,9.32,0,0,1-4.56-4.35c-.22-.43-.82-.19-.85.23a20.42,20.42,0,0,1-1.6,6.66.48.48,0,0,0,.16.63c2,1.24,3,3.28,3.83,5.4a.46.46,0,0,0,.9-.12,14.21,14.21,0,0,1,2.77-8c.35-.48-.45-.94-.8-.47a15.07,15.07,0,0,0-2.89,8.51l.91-.12a23,23,0,0,0-1.43-3.06c-.54-.92-1.65-1.61-2.13-2.46s.22-1.62.45-2.42A21.47,21.47,0,0,0,78.39,47l-.86.24a10.09,10.09,0,0,0,4.89,4.67c.53.25,1-.55.46-.79Z" fill="#f7db34"/><path d="M70.13,67.62a5.4,5.4,0,0,0,2.14-4.68,12,12,0,0,0,2.8,5,2.89,2.89,0,0,0-2,1.79,8.55,8.55,0,0,0-.5,2.71,9.6,9.6,0,0,0-2.45-5" fill="#efdb7b"/><path d="M70.45,68a6.11,6.11,0,0,0,2.28-5l-.9.12a13.54,13.54,0,0,0,2.92,5.15l.2-.76c-2.22.75-2.63,2.83-2.81,4.94l.9-.12a10.82,10.82,0,0,0-2.57-5.2c-.39-.44-1,.21-.64.65a10,10,0,0,1,2.33,4.79c.1.54.86.36.9-.12.13-1.6.28-3.43,2.13-4.06a.46.46,0,0,0,.2-.76,12.39,12.39,0,0,1-2.68-4.75.46.46,0,0,0-.9.12,5.21,5.21,0,0,1-2,4.36c-.45.38.2,1,.65.65Z" fill="#f7db34"/></g></g></svg>