<?xml version="1.0" encoding="utf-8"?>
<!-- Generator: Adobe Illustrator 22.1.0, SVG Export Plug-In . SVG Version: 6.00 Build 0)  -->
<svg version="1.1" id="svg5728" xmlns:svg="http://www.w3.org/2000/svg"
	 xmlns="http://www.w3.org/2000/svg" xmlns:xlink="http://www.w3.org/1999/xlink" x="0px" y="0px" viewBox="0 0 1024 326"
	 style="enable-background:new 0 0 1024 326;" xml:space="preserve">
<style type="text/css">
	.st0{fill:#FFFFFF;}
</style>
<path id="Fill-1" class="st0" d="M204.6,169.5l30.2,40.1c2.5,3.3,2.6,8.9,0.3,12.3l-1.5,2.3c-2.3,3.4-7,8.2-10.4,10.7l-3.6,2.6
	c-3.4,2.4-8.8,2.3-12.1-0.2l-39.9-30.4c-3.3-2.5-8.7-2.5-12,0l-39.8,30.4c-3.3,2.5-8.8,2.6-12.2,0.3l-2.6-1.8
	c-3.4-2.4-8.1-7.1-10.5-10.5l-2.3-3.3c-2.4-3.4-2.3-8.9,0.2-12.3l30.2-40.2c2.5-3.3,2.5-8.8,0-12.1l-30.2-40.2
	c-2.5-3.3-2.6-8.8-0.2-12.2l2.6-3.7c2.4-3.4,7.1-8.1,10.6-10.5l2.2-1.5c3.4-2.3,8.9-2.2,12.2,0.3l39.8,30.4c3.3,2.5,8.7,2.5,12,0
	l39.9-30.4c3.3-2.5,8.9-2.8,12.5-0.7l4.2,2.5c3.6,2.1,8.1,6.8,10.1,10.5l1.5,2.7c2,3.6,1.6,9.3-0.9,12.7l-30.2,40.2
	C202.1,160.7,202.1,166.1,204.6,169.5L204.6,169.5L204.6,169.5z M162.1,9.2C77.8,9.2,9.5,78.1,9.5,163
	c0,84.9,68.3,153.8,152.6,153.8c84.3,0,152.6-68.9,152.6-153.8C314.7,78.1,246.4,9.2,162.1,9.2L162.1,9.2z"/>
<path id="Fill-9" class="st0" d="M753.2,166l45.7-46.1c6.4-6.4,6.4-16.9,0-23.3c-6.4-6.4-16.7-6.4-23.1,0l-45.7,46.1l-45.7-46.1
	c-6.4-6.4-16.7-6.4-23.1,0c-6.4,6.4-6.4,16.9,0,23.3l45.7,46.1l-45.7,46.1c-6.4,6.4-6.4,16.9,0,23.3c3.2,3.2,7.4,4.8,11.6,4.8
	c4.2,0,8.4-1.6,11.6-4.8l45.7-46.1l45.7,46.1c3.2,3.2,7.4,4.8,11.6,4.8c4.2,0,8.4-1.6,11.6-4.8c6.4-6.4,6.4-16.9,0-23.3L753.2,166
	 M936.8,121.5h-30.9c-8.1,0-14.8-6.7-14.8-14.9c0-8.2,6.7-14.9,14.8-14.9h93.8c8.1,0,14.8,6.7,14.8,14.9c0,8.2-6.7,14.9-14.8,14.9
	h-30.9v102.3c0,9-7.1,16.2-16.1,16.2c-9,0-16.1-7.1-16.1-16.2L936.8,121.5 M834.2,106.6c0-9,7.1-16.2,16.1-16.2s16.1,7.1,16.1,16.2
	v117.2c0,9-7.1,16.2-16.1,16.2s-16.1-7.1-16.1-16.2V106.6 M593.8,106.6c0-9,7.1-16.2,16.1-16.2c9,0,16.1,7.1,16.1,16.2v117.2
	c0,9-7.1,16.2-16.1,16.2c-9,0-16.1-7.1-16.1-16.2V106.6 M455.6,107.8c0-9,7.1-16.2,16.1-16.2h81.7c8.1,0,14.6,6.5,14.6,14.7
	c0,8.2-6.5,14.7-14.6,14.7h-65.7v31.3H544c8.1,0,14.6,6.5,14.6,14.7c0,8.2-6.5,14.7-14.6,14.7h-56.3v42c0,9-7.1,16.2-16.1,16.2
	c-9,0-16.1-7.1-16.1-16.2V107.8 M387,106.6c0-9,7.1-16.2,16.1-16.2c9,0,16.1,7.1,16.1,16.2v117.2c0,9-7.1,16.2-16.1,16.2
	c-9,0-16.1-7.1-16.1-16.2V106.6"/>
</svg>
