<?xml version="1.0" encoding="utf-8"?>
<!-- Generator: Adobe Illustrator 22.1.0, SVG Export Plug-In . SVG Version: 6.00 Build 0)  -->
<svg version="1.1" id="Layer_1" xmlns="http://www.w3.org/2000/svg" xmlns:xlink="http://www.w3.org/1999/xlink" x="0px" y="0px"
	 viewBox="0 0 1276.7 1008.6" style="enable-background:new 0 0 1276.7 1008.6;" xml:space="preserve">
<style type="text/css">
	.st0{opacity:0.91;fill:#041826;enable-background:new    ;}
	.st1{opacity:0.65;}
	.st2{fill:#141E3D;}
	.st3{opacity:4.000000e-02;}
	.st4{opacity:0.67;}
	.st5{opacity:0.67;fill:#43225E;enable-background:new    ;}
	.st6{fill:#0C1A47;}
	.st7{opacity:0.13;}
	.st8{fill:#3C6284;}
	.st9{opacity:0.32;}
	.st10{opacity:0.19;}
	.st11{opacity:0.11;}
	.st12{fill:#FFFBD0;}
</style>
<title>night mountain</title>
<g>
	<g id="Layer_2_1_">
		<g id="Layer_1-2">
			<path class="st0" d="M0.5,470.3l320-70c0,0,326,45.4,378,20.9s110-20.9,148-6.1s183-24.5,183-24.5s102-14.7,159,0
				s92,41.8,92,41.8l-1,301l-1281-38L0.5,470.3z"/>
			<g class="st1">
			</g>
			<path class="st2" d="M-1.5,428.3c0,0,107-54,132-54s120,68,164,75s194,56,194,56v50l-489-3L-1.5,428.3z"/>
			<g class="st3">
			</g>
			<g class="st4">
			</g>
			<path class="st5" d="M605,563.2l114-69.9c0,0,28,19.2,62,19.2h104l230-19.2c0,0,26,24.8,85,24.8s80.5,13.2,80.5,13.2l-1,215
				H573.6L605,563.2z"/>
			<path class="st6" d="M250.4,480.8l-16.3,1c-1.1-0.2-2.1-0.6-3.1-1c-5.9-2.4-10.6-7.1-13-13l-16-6c0,0-11-7-18,0s-53,20-53,20
				s-16-5-21,0c-1.6,1.6-7.7,4.2-15.4,7.2L42,470.8l-16,7l-26-7l-0.5,78.5v47l267-5l6.6-110.5L250.4,480.8z"/>
			<g class="st7">
			</g>
			<path class="st8" d="M1095.1,632.9c-58.9,0-232.6-39.1-257.7-39.1s-96.2-34-133.1-60.7S644,492.9,644,492.9L598.7,439l-31.2-35.3
				c0,0-75-71.5-92.6-80.4s-46.6,77.1-58.4,73.6s-22.3-10.1-28.2-3s-47.4-7.9-47.4-7.9s-55.1,61.4-65.5,57.9s-4.9,2.4-9.1,7.9
				c-6,7.8,1.3,7.8-6,7.8c-7.3,0-16.2,18.7-16.2,18.7s-10.3,5.3-17.7,8.9s-16.2-3.5-17.7-3.5s-44.2,16-53,14.2s-11.8,1.8-11.8,1.8
				S126.3,512,117.5,512s-11.8,1.8-11.8,1.8L76.2,537l-76.7,18.4v458.9l1281-3l-1-363L1095.1,632.9z"/>
			<g class="st9">
			</g>
			<g class="st10">
			</g>
			<g class="st11">
			</g>
			<path class="st12" d="M235.4,102.5c0.8,0,1.5-0.7,1.5-1.5s-0.7-1.5-1.5-1.5s-1.5,0.7-1.5,1.5S234.6,102.5,235.4,102.5z"/>
			<path class="st12" d="M125.8,200.2c0.8,0,1.5-0.7,1.5-1.5s-0.7-1.5-1.5-1.5s-1.5,0.7-1.5,1.5S124.9,200.2,125.8,200.2z"/>
			<path class="st12" d="M294.3,239.7c0.8,0,1.5-0.7,1.5-1.5s-0.7-1.5-1.5-1.5s-1.5,0.7-1.5,1.5S293.5,239.7,294.3,239.7z"/>
			<path class="st12" d="M546.2,54.5c0.8,0,1.5-0.7,1.5-1.5s-0.7-1.5-1.5-1.5s-1.5,0.7-1.5,1.5S545.3,54.5,546.2,54.5z"/>
			<path class="st12" d="M625.2,206.4c0.8,0,1.5-0.7,1.5-1.5s-0.7-1.5-1.5-1.5s-1.5,0.7-1.5,1.5S624.4,206.4,625.2,206.4z"/>
			<path class="st12" d="M477.5,133.6c0.8,0,1.5-0.7,1.5-1.5s-0.7-1.5-1.5-1.5s-1.5,0.7-1.5,1.5S476.7,133.6,477.5,133.6z"/>
			<path class="st12" d="M922.6,157.5c0.8,0,1.5-0.7,1.5-1.5s-0.7-1.5-1.5-1.5s-1.5,0.7-1.5,1.5S921.8,157.5,922.6,157.5z"/>
			<path class="st12" d="M755.1,3c0.8,0,1.5-0.7,1.5-1.5S755.9,0,755.1,0s-1.5,0.7-1.5,1.5S754.2,3,755.1,3z"/>
			<path class="st12" d="M1145.2,110.4c0.8,0,1.5-0.7,1.5-1.5s-0.7-1.5-1.5-1.5s-1.5,0.7-1.5,1.5S1144.4,110.4,1145.2,110.4z"/>
			<path class="st12" d="M1213.3,346c0.8,0,1.5-0.7,1.5-1.5s-0.7-1.5-1.5-1.5s-1.5,0.7-1.5,1.5S1212.5,346,1213.3,346z"/>
			<path class="st12" d="M1077.1,270.1c0.8,0,1.5-0.7,1.5-1.5s-0.7-1.5-1.5-1.5s-1.5,0.7-1.5,1.5S1076.3,270.1,1077.1,270.1z"/>
			<path class="st12" d="M501.1,141.8c0.8,0,1.5-0.7,1.5-1.5s-0.7-1.5-1.5-1.5s-1.5,0.7-1.5,1.5S500.2,141.8,501.1,141.8z"/>
			<path class="st12" d="M946.2,144.4c0.8,0,1.5-0.7,1.5-1.5s-0.7-1.5-1.5-1.5s-1.5,0.7-1.5,1.5S945.4,144.4,946.2,144.4z"/>
		</g>
	</g>
</g>
</svg>
