<svg xmlns="http://www.w3.org/2000/svg" xmlns:xlink="http://www.w3.org/1999/xlink" viewBox="0 0 1354 1050.29"><title>night mountain</title><g style="isolation:isolate"><g id="Layer_2" data-name="Layer 2"><g id="Layer_1-2" data-name="Layer 1"><path d="M38,470.29l320-70s326,45.42,378,20.87,110-20.87,148-6.14,183-24.55,183-24.55,102-14.73,159,0,92,41.78,92,41.78l-1,301-1281-38Z" fill="#041826" opacity="0.91" style="mix-blend-mode:multiply"/><g opacity="0.65" style="mix-blend-mode:multiply"><image width="1353" height="418" transform="translate(0 351.29)" xlink:href="night mountain1.png"/></g><path d="M36,428.29s107-54,132-54,120,68,164,75,194,56,194,56v50l-489-3Z" fill="#141e3d"/><g opacity="0.04"><image width="562" height="253" transform="translate(0 338.29)" xlink:href="night mountain2.png"/></g><g opacity="0.67" style="mix-blend-mode:multiply"><image width="779" height="284" transform="translate(575 457.29)" xlink:href="night mountain3.png"/></g><path d="M642.5,563.17l114-69.88s28,19.16,62,19.16h104l230-19.16s26,24.8,85,24.8,80.5,13.2,80.5,13.2l-1,215H611.13Z" fill="#43225e" opacity="0.67" style="mix-blend-mode:multiply"/><path d="M287.93,480.79l-16.32,1a20.46,20.46,0,0,1-3.11-1,23.32,23.32,0,0,1-13-13l-16-6s-11-7-18,0-53,20-53,20-16-5-21,0c-1.58,1.58-7.73,4.25-15.41,7.17L79.5,470.79l-16,7-26-7-.5,78.5v47l267-5,6.62-110.5Z" fill="#0c1a47"/><g opacity="0.13"><image width="346" height="211" transform="translate(1 421.29)" xlink:href="night mountain4.png"/></g><path d="M1132.65,632.93c-58.9,0-232.64-39.1-257.67-39.1s-96.25-34-133.06-60.7-60.42-40.21-60.42-40.21L636.18,439,605,403.69s-75-71.52-92.65-80.41-46.63,77.1-58.41,73.55-22.31-10.06-28.2-2.95S378.38,386,378.38,386s-55.15,61.41-65.45,57.85-4.85,2.37-9.07,7.85c-6,7.84,1.32,7.84-6,7.84s-16.22,18.71-16.22,18.71-10.31,5.34-17.67,8.89-16.2-3.55-17.67-3.55-44.17,16-53,14.22-11.78,1.77-11.78,1.77-17.66,12.44-26.5,12.44-11.78,1.78-11.78,1.78L113.74,537,37,555.44v458.85l1281-3-1-363Z" fill="#3c6284"/><g opacity="0.32" style="mix-blend-mode:multiply"><image width="1353" height="767" transform="translate(1 280.29)" xlink:href="night mountain5.png"/></g><g opacity="0.19"><image width="738" height="774" transform="translate(1 276.29)" xlink:href="night mountain6.png"/></g><g opacity="0.11" style="mix-blend-mode:multiply"><image width="685" height="266" transform="translate(627 640.29)" xlink:href="night mountain7.png"/></g><path d="M272.9,102.48a1.5,1.5,0,0,0,0-3,1.5,1.5,0,0,0,0,3Z" fill="#fffbd0"/><path d="M163.28,200.17a1.5,1.5,0,0,0,0-3,1.5,1.5,0,0,0,0,3Z" fill="#fffbd0"/><path d="M331.85,239.71a1.5,1.5,0,0,0,0-3,1.5,1.5,0,0,0,0,3Z" fill="#fffbd0"/><path d="M583.67,54.49a1.5,1.5,0,0,0,0-3,1.5,1.5,0,0,0,0,3Z" fill="#fffbd0"/><path d="M662.76,206.41a1.5,1.5,0,0,0,0-3,1.5,1.5,0,0,0,0,3Z" fill="#fffbd0"/><path d="M515,133.57a1.5,1.5,0,0,0,0-3,1.5,1.5,0,0,0,0,3Z" fill="#fffbd0"/><path d="M960.16,157.49a1.5,1.5,0,0,0,0-3,1.5,1.5,0,0,0,0,3Z" fill="#fffbd0"/><path d="M792.58,3a1.5,1.5,0,0,0,0-3,1.5,1.5,0,0,0,0,3Z" fill="#fffbd0"/><path d="M1182.74,110.36a1.5,1.5,0,0,0,0-3,1.5,1.5,0,0,0,0,3Z" fill="#fffbd0"/><path d="M1250.82,346a1.5,1.5,0,0,0,0-3,1.5,1.5,0,0,0,0,3Z" fill="#fffbd0"/><path d="M1114.66,270.09a1.5,1.5,0,0,0,0-3,1.5,1.5,0,0,0,0,3Z" fill="#fffbd0"/><path d="M538.59,141.78a1.5,1.5,0,0,0,0-3,1.5,1.5,0,0,0,0,3Z" fill="#fffbd0"/><path d="M983.73,144.4a1.5,1.5,0,0,0,0-3,1.5,1.5,0,0,0,0,3Z" fill="#fffbd0"/></g></g></g></svg>