<?xml version="1.0" encoding="utf-8"?>
<!-- Generator: Adobe Illustrator 22.1.0, SVG Export Plug-In . SVG Version: 6.00 Build 0)  -->
<svg version="1.1" id="Layer_1" xmlns="http://www.w3.org/2000/svg" xmlns:xlink="http://www.w3.org/1999/xlink" x="0px" y="0px"
	 viewBox="0 0 1273.2 1007" style="enable-background:new 0 0 1273.2 1007;" xml:space="preserve">
<style type="text/css">
	.st0{opacity:0.83;fill:#234647;enable-background:new    ;}
	.st1{opacity:0.65;}
	.st2{fill:#2B5E59;}
	.st3{opacity:4.000000e-02;}
	.st4{opacity:0.67;}
	.st5{opacity:0.67;fill:#4A594A;enable-background:new    ;}
	.st6{fill:#0B5138;}
	.st7{opacity:0.13;}
	.st8{fill:#18966F;}
	.st9{opacity:0.19;}
	.st10{fill:#F9F2F6;}
	.st11{opacity:0.68;fill:#F9F2F6;enable-background:new    ;}
	.st12{opacity:0.78;fill:#F9F2F6;enable-background:new    ;}
	.st13{opacity:0.11;}
</style>
<title>mountains</title>
<g>
	<g id="Layer_2_1_">
		<g id="Layer_1-2">
			<path class="st0" d="M-1.9,176l320-64c0,0,326,45.4,378,20.9s110-20.9,148-6.1s183-24.5,183-24.5s102-14.7,159,0s92,26.8,92,26.8
				v310l-1280-39V176z"/>
			<g class="st1">
			</g>
			<path class="st2" d="M-1.9,139c0,0,105-53,130-53s120,68,164,75s194,56,194,56v50l-488,4V139z"/>
			<g class="st3">
			</g>
			<g class="st4">
			</g>
			<path class="st5" d="M602.6,274.9l114-69.9c0,0,28,19.2,62,19.2h104l230-19.2c0,0,26,24.8,85,24.8s80.5,9.2,80.5,9.2v219H571.2
				L602.6,274.9z"/>
			<path class="st6" d="M248,192.5l-16.3,1c-1.1-0.3-2.1-0.6-3.1-1c-5.9-2.4-10.6-7.1-13-13l-16-6c0,0-11-7-18,0s-53,20-53,20
				s-16-5-21,0c-1.6,1.6-7.7,4.2-15.4,7.2l-52.6-18.2l-16,7L-1.9,183v127l266-7l6.6-110.5H248z"/>
			<g class="st7">
			</g>
			<path class="st8" d="M1085.1,390.5c-58.5,0-231-45.3-255.9-45.3s-95.6-39.4-132.1-70.3s-60-46.5-60-46.5l-45-62.5l-31-40.9
				c0,0-74.5-82.8-92-93.1s-46.3,89.2-58,85.1s-22.1-11.6-28-3.4s-47-9.1-47-9.1s-54.8,71.1-65,67s-4.8,2.7-9,9.1
				c-6,9.1,1.3,9.1-6,9.1c-7.3,0-16.1,21.7-16.1,21.7s-10.2,6.2-17.5,10.3s-16.1-4.1-17.5-4.1s-43.9,18.5-52.6,16.5
				s-11.7,2.1-11.7,2.1s-17.6,14.4-26.3,14.4s-11.7,2.1-11.7,2.1l-29.2,26.8l-76.2,21.4V832h1280V408.4L1085.1,390.5z"/>
			<g class="st9">
			</g>
			<path class="st10" d="M418.5,68.1c0,0,5.3-8.1,11.1-6.3s3.6-0.5,15.7,3.1c12.1,3.5,17.5,7.1,26.4,7s19.7,2.6,26.4,2.6
				s9.4,2.2,6.7,4.9s-6.7,2.7-13.4,2.8l-35.3,0.2c-9.8,0-24.6-2.6-37.6-2.5c-8.4-0.1-16.6-1.4-24.6-3.9c0,0-1.4-6.7,6.7-6.7
				S418.5,68.1,418.5,68.1z"/>
			<path class="st11" d="M246.1,205c0,0-165-2-174,6s7,7,5,7s91,11,91,11h139c0,0,54-6,48-12s-16-6-40-6S246.1,205,246.1,205z"/>
			<path class="st12" d="M546.4,147c-17,0-21.9,1.5-18,5.5s19,5.5,30.5,5.5s21.9-4,27.9-2s27.9,2,29.4,2s12,0.5,9.5-2.5
				s-10-5.5-10-5.5c-4.9-1.1-10-1.6-15-1.5h-24.4C565.4,148.5,546.4,147,546.4,147z"/>
			<path class="st11" d="M307.1,220.2c0,0-165-2.7-174,8.2s7,9.6,5,9.6s91,15,91,15h139c0,0,54-8.2,48-16.4s-16-8.2-40-8.2
				S307.1,220.2,307.1,220.2z"/>
			<g class="st13">
			</g>
		</g>
	</g>
</g>
</svg>
