<?xml version="1.0" encoding="utf-8"?>
<!-- Generator: Adobe Illustrator 22.1.0, SVG Export Plug-In . SVG Version: 6.00 Build 0)  -->
<svg version="1.1"
	 id="svg3004" inkscape:version="0.91 r13725" sodipodi:docname="Cal_Poly_San_Luis_Obispo_wordmark.svg" xmlns:cc="http://creativecommons.org/ns#" xmlns:dc="http://purl.org/dc/elements/1.1/" xmlns:inkscape="http://www.inkscape.org/namespaces/inkscape" xmlns:rdf="http://www.w3.org/1999/02/22-rdf-syntax-ns#" xmlns:sodipodi="http://sodipodi.sourceforge.net/DTD/sodipodi-0.dtd" xmlns:svg="http://www.w3.org/2000/svg"
	 xmlns="http://www.w3.org/2000/svg" xmlns:xlink="http://www.w3.org/1999/xlink" x="0px" y="0px" viewBox="0 0 205.2 84.8"
	 style="enable-background:new 0 0 205.2 84.8;" xml:space="preserve">
<style type="text/css">
	.st0{clip-path:url(#SVGID_2_);}
	.st1{fill:#FFFFFF;}
</style>
<sodipodi:namedview  bordercolor="#666666" borderopacity="1" fit-margin-bottom="0" fit-margin-left="0" fit-margin-right="0" fit-margin-top="0" gridtolerance="10" guidetolerance="10" id="namedview52" inkscape:current-layer="svg3004" inkscape:cx="35.456698" inkscape:cy="5.1784675" inkscape:pageopacity="0" inkscape:pageshadow="2" inkscape:window-height="706" inkscape:window-maximized="1" inkscape:window-width="1366" inkscape:window-x="-8" inkscape:window-y="-8" inkscape:zoom="1.4475357" objecttolerance="10" pagecolor="#ffffff" showgrid="false">
	</sodipodi:namedview>
<g id="g3012" transform="matrix(1.25,0,0,-1.25,-172.64292,833.88165)">
	<g>
		<defs>
			<rect id="SVGID_1_" x="117.6" y="611.3" width="205.2" height="62"/>
		</defs>
		<use xlink:href="#SVGID_1_"  style="overflow:visible;fill:#FFFFFF;"/>
		<clipPath id="SVGID_2_">
			<use xlink:href="#SVGID_1_"  style="overflow:visible;"/>
		</clipPath>
		<g id="g3496" transform="translate(17.692039,178.97432)" class="st0">
			<path id="path3552" inkscape:connector-curvature="0" class="st1" d="M125.7,484.7c3,2.2,5.9,3.4,10.4,3.4c2.2,0,4.8-0.7,6.6-1.4
				c0.5-0.1,0.8-0.3,1.2-0.2c0-0.9,0.3-3.5,0.4-5.9c-0.2-0.3-0.9-0.3-1.2,0c-0.4,2.8-1.8,6-7.6,6c-6.1,0-10.6-5-10.6-12
				c0-7.1,5.1-12.7,10.9-12.7c5.2,0,7.1,2.9,8.1,5.2c0.3,0.2,1,0.1,1.2-0.2c-0.3-2.1-1.5-4.9-2.1-5.6c-0.6-0.1-1.1-0.3-1.6-0.4
				c-1.1-0.3-3.4-0.6-5.9-0.6c-3.9,0-6.7,0.6-9.7,2.6c-3.5,2.3-5.4,6.7-5.4,11.1C120.4,478.5,122.5,482.3,125.7,484.7"/>
			<path id="path3556" inkscape:connector-curvature="0" class="st1" d="M173.3,476.7c0,3.3-0.2,3.5-2.2,3.8l-0.9,0.1
				c-0.3,0.2-0.3,1.1,0.1,1.2c1.8-0.1,3.3-0.1,4.8-0.1c1.5,0,3,0,4.6,0.1c0.4-0.1,0.4-1,0.1-1.2l-0.6-0.1c-2-0.5-2.2-0.5-2.2-3.8
				l0-10.3c0-1.5,0.1-2.8,0.5-3.3c0.4-0.4,0.8-0.8,3.3-0.8c2.9,0,4.6,0.1,6,4c0.3,0.3,1.1,0.2,1.2-0.2c-0.2-2-0.9-4.4-1.4-5.3
				c-1.5,0-2.8,0.1-4.2,0.1c-1.3,0.1-2.5,0.1-3.7,0.1h-3.5c-1.5,0-3,0-4.8-0.1c-0.4,0.1-0.4,1-0.1,1.2l0.9,0.1
				c2,0.3,2.2,0.5,2.2,3.8L173.3,476.7L173.3,476.7z"/>
			<path id="path3560" inkscape:connector-curvature="0" class="st1" d="M157.9,469.9l-3.1,0c-1,0-1.5,0.2-1,1.5l1.6,4.2
				c0.4,1.1,0.7,1.6,0.7,1.7c0.1,0.1,0,0,0,0c0.1,0.1,0.1,0.2,0.2,0.2c0.1,0,0.3-0.2,0.4-0.4c0.2-0.3,0.3-0.8,0.6-1.6l1.5-4.1
				C159.2,470,159.1,469.9,157.9,469.9 M168.2,462l-0.8,0.1c-1.7,0.3-2.1,1-2.7,2.5l-4.3,11.4c-0.7,1.8-1.2,3.8-1.6,4.9
				c-0.1,0.2-0.2,0.4-0.3,0.6c-0.1,0.2-0.2,0.2-0.4,0.2l0,0c-0.8-0.1-1.5-0.1-2.1-0.1c-1,0.1-2,0.2-2.9,0.1
				c-0.3-0.1-0.4-0.4-0.4-0.7c0-0.3,0.1-0.5,0.3-0.7c0.1-0.1,1.1,0,2.1-0.9c-0.2-0.8-0.5-1.7-1.1-3.1l-4.2-11.1
				c-0.9-2.3-1.5-2.8-2.9-3.2l-1.1-0.2c-0.3-0.2-0.3-1,0.1-1.2c0.9,0,2,0.1,3.3,0.1c1.3,0,2.6,0,3.7-0.1c0.5,0.1,0.5,1,0.1,1.2
				l-1.3,0.2c-0.9,0.2-1,0.4-0.5,1.9l1.1,3.1c0.4,1.1,0.5,1.1,1.6,1.1l4.5,0c1.1,0,1.2,0,1.6-1.1l1.1-3.1c0.6-1.5,0.6-1.8-0.6-2
				l-0.9-0.1c-0.4-0.2-0.4-1.1,0.1-1.2c1.2,0.1,2.6,0.1,4.3,0.1c1.6,0,2.7,0,3.9-0.1C168.6,460.9,168.7,461.7,168.2,462"/>
			<path id="path3564" inkscape:connector-curvature="0" class="st1" d="M248.5,476.7c0,3.3,0.1,3.5-2,3.8l-0.9,0.1
				c-0.3,0.2-0.3,1.1,0.1,1.2c1.8-0.1,3.1-0.1,4.6-0.1c1.5,0,3,0,4.6,0.1c0.4-0.1,0.4-1,0.1-1.2l-0.6-0.1c-2-0.5-2.2-0.5-2.2-3.8
				l0-10.3c0-1.5,0.1-2.8,0.5-3.3c0.4-0.4,1.3-0.8,3.8-0.8c2.9,0,4.6,0.1,6,4c0.3,0.3,1.1,0.2,1.2-0.2c-0.2-2-0.9-4.4-1.4-5.3
				c-1.5,0-2.8,0.1-4.2,0.1c-1.3,0.1-2.5,0.1-3.7,0.1h-4c-1.5,0-2.6,0-4.4-0.1c-0.4,0.1-0.4,1-0.1,1.2l0.9,0.1
				c2,0.3,1.8,0.5,1.8,3.8L248.5,476.7L248.5,476.7z"/>
			<path id="path3568" inkscape:connector-curvature="0" class="st1" d="M223.6,471.9c0-4.9,2.4-10.2,7.9-10.2c3.6,0,7.3,2.5,7.3,9
				c0,5.1-2.6,10.3-7.8,10.3C227.5,480.9,223.6,478.6,223.6,471.9 M242.8,471.4c0-6.5-4.8-11.1-11.5-11.1c-7.3,0-11.7,4.8-11.7,10.9
				c0,6.4,4.8,11.2,11.7,11.2C238.9,482.3,242.8,477.2,242.8,471.4"/>
			<path id="path3572" inkscape:connector-curvature="0" class="st1" d="M271.7,467.3c0,1.5-0.1,1.9-1.3,4.1l-3.5,6.5
				c-1,1.9-1.5,2.3-2.7,2.6l-1.2,0.2c-0.3,0.3-0.2,1.1,0.1,1.2c1.6-0.1,2.7-0.1,4.4-0.1c1.4,0,2.5,0,4,0.1c0.4-0.2,0.5-1,0-1.2
				l-0.7-0.1c-1-0.2-1.2-0.5-0.4-2l1.8-3.4c0.7-1.4,1.4-2.7,2.1-4c0.8,1.3,1.5,2.4,2.3,4l1.9,3.5c0.7,1.3,0.8,1.8-0.3,1.9l-1,0.1
				c-0.4,0.2-0.4,1,0.1,1.2c1.4-0.1,2.5-0.1,3.6-0.1c1,0,2,0,3.4,0.1c0.4-0.1,0.5-1,0.1-1.2l-1.1-0.2c-1.5-0.3-1.7-0.6-3.2-3
				l-2.9-4.8c-1.7-2.7-1.8-3.2-1.8-4.6l0-2.6c0-2.8,0.2-3.1,2.2-3.3l1.2-0.1c0.3-0.2,0.3-1-0.1-1.2c-2.1,0.1-3.6,0.1-5.1,0.1
				c-1.5,0-3,0-5.1-0.1c-0.4,0.1-0.4,1-0.1,1.2l1.2,0.1c2,0.2,2.2,0.5,2.2,3.3L271.7,467.3L271.7,467.3z"/>
			<path id="path3576" inkscape:connector-curvature="0" class="st1" d="M204,467.1c0-4,0.2-4.9,3.5-5l1.2-0.1
				c0.2-0.2,0.2-1-0.1-1.1c-2.3,0.1-4.8,0.1-6.4,0.1c-1.7,0-3.9,0-5.6-0.1c-0.2,0.1-0.3,0.9-0.1,1.1l0.9,0.1c2.4,0.3,2.9,0.4,2.9,5
				l0,14.7c0,3.4-0.1,4.1-1.9,4.3l-1.4,0.2c-0.3,0.2-0.2,0.8,0.1,1c2.1,0.3,5,0.3,8.3,0.3c3.3,0,6.5-0.6,8.4-1.6
				c3.1-1.7,4.3-4.2,4.3-6.8c0-3.9-3.2-6.2-5.6-6.9c-1.9-0.6-5-0.6-6.6-0.4c-0.3,0-0.1,0.8,0.2,0.8c5.3,0,7.7,2.2,7.9,6.5
				c0.2,5.1-3.1,7.2-7.2,7.2c-2.1,0-2.8-0.2-2.8-1.5L204,467.1L204,467.1z"/>
			<path id="path3578" inkscape:connector-curvature="0" class="st1" d="M122.4,452.2h160.5v0.7H122.4
				C122.4,452.9,122.4,452.2,122.4,452.2z"/>
		</g>
	</g>
</g>
<g>
	<path class="st1" d="M26,57.1c0,0.9-0.2,1.8-0.5,2.5c-0.3,0.8-0.8,1.4-1.3,2c-0.6,0.6-1.2,1-2,1.3s-1.6,0.5-2.5,0.5
		s-1.7-0.2-2.5-0.5c-0.8-0.3-1.4-0.8-2-1.3c-0.6-0.6-1-1.2-1.3-2c-0.3-0.8-0.5-1.6-0.5-2.5s0.2-1.8,0.5-2.5s0.8-1.4,1.3-2
		c0.6-0.6,1.2-1,2-1.3c0.8-0.3,1.6-0.5,2.5-0.5s1.7,0.2,2.5,0.5s1.4,0.8,2,1.3c0.6,0.6,1,1.2,1.3,2C25.8,55.3,26,56.2,26,57.1z
		 M24.6,57.1c0-0.7-0.1-1.4-0.3-2c-0.2-0.6-0.6-1.2-1-1.7c-0.4-0.5-0.9-0.9-1.6-1.1c-0.6-0.3-1.3-0.4-2.1-0.4s-1.5,0.1-2.1,0.4
		c-0.6,0.3-1.1,0.7-1.6,1.1c-0.4,0.5-0.8,1-1,1.7c-0.2,0.6-0.3,1.3-0.3,2s0.1,1.4,0.3,2s0.6,1.2,1,1.7c0.4,0.5,0.9,0.9,1.6,1.1
		c0.6,0.3,1.3,0.4,2.1,0.4s1.5-0.1,2.1-0.4c0.6-0.3,1.1-0.7,1.6-1.1c0.4-0.5,0.8-1,1-1.7S24.6,57.8,24.6,57.1z"/>
	<path class="st1" d="M31.4,63.1h-1.2v-12h3.7c1.2,0,2.2,0.3,2.9,0.8c0.7,0.5,1.1,1.3,1.1,2.4c0,0.8-0.3,1.5-0.8,2.1
		c-0.5,0.6-1.3,0.9-2.3,1l3.5,5.7h-1.5l-3.3-5.6h-2V63.1z M31.4,56.4h2.2c0.5,0,1-0.1,1.4-0.2c0.4-0.1,0.7-0.3,0.9-0.5
		c0.2-0.2,0.4-0.4,0.5-0.7c0.1-0.3,0.2-0.5,0.2-0.8c0-0.3-0.1-0.6-0.2-0.8s-0.3-0.5-0.5-0.7c-0.2-0.2-0.5-0.3-0.9-0.5
		c-0.4-0.1-0.8-0.2-1.4-0.2h-2.2V56.4z"/>
	<path class="st1" d="M43.2,63.1h-1.2v-12h7.3v1.1h-6v4.1h5.6v1.1h-5.6V63.1z"/>
	<path class="st1" d="M52,63.1h-1.4l5.2-12H57l5.2,12h-1.4L59.4,60h-6.2L52,63.1z M53.7,58.8H59l-2.6-6.3L53.7,58.8z"/>
	<path class="st1" d="M66.8,62h5.6v1.1h-6.8v-12h1.2V62z"/>
	<path class="st1" d="M77,62h6.4v1.1h-7.7v-12h7.5v1.1H77v4.1h5.8v1.1H77V62z"/>
	<path class="st1" d="M87.4,63.1h-1.4l5.2-12h1.2l5.2,12h-1.4L94.8,60h-6.2L87.4,63.1z M89.1,58.8h5.2l-2.6-6.3L89.1,58.8z"/>
	<path class="st1" d="M117.3,61.2c-0.2,0.3-0.5,0.6-0.8,0.9c-0.3,0.3-0.6,0.5-1,0.7c-0.4,0.2-0.8,0.4-1.2,0.5
		c-0.4,0.1-0.9,0.2-1.4,0.2c-0.9,0-1.7-0.2-2.5-0.5s-1.4-0.8-2-1.3c-0.6-0.6-1-1.2-1.3-2c-0.3-0.8-0.5-1.6-0.5-2.5s0.2-1.8,0.5-2.5
		s0.8-1.4,1.3-2c0.6-0.6,1.2-1,2-1.3s1.6-0.5,2.5-0.5c0.7,0,1.5,0.1,2.2,0.4c0.7,0.3,1.4,0.8,1.9,1.5l-1.1,0.8
		c-0.1-0.2-0.3-0.4-0.5-0.6s-0.5-0.4-0.7-0.5c-0.3-0.1-0.6-0.3-0.9-0.4s-0.6-0.1-1-0.1c-0.8,0-1.5,0.1-2.1,0.4
		c-0.6,0.3-1.1,0.7-1.6,1.1c-0.4,0.5-0.8,1-1,1.7c-0.2,0.6-0.3,1.3-0.3,2s0.1,1.4,0.3,2c0.2,0.6,0.6,1.2,1,1.7
		c0.4,0.5,0.9,0.9,1.6,1.1c0.6,0.3,1.3,0.4,2.1,0.4c0.3,0,0.6,0,0.9-0.1c0.3-0.1,0.6-0.2,0.9-0.3c0.3-0.1,0.6-0.3,0.9-0.6
		c0.3-0.2,0.5-0.5,0.7-0.9L117.3,61.2z"/>
	<path class="st1" d="M132.8,57.1c0,0.9-0.2,1.8-0.5,2.5c-0.3,0.8-0.8,1.4-1.3,2c-0.6,0.6-1.2,1-2,1.3c-0.8,0.3-1.6,0.5-2.5,0.5
		s-1.7-0.2-2.5-0.5s-1.4-0.8-2-1.3c-0.6-0.6-1-1.2-1.3-2c-0.3-0.8-0.5-1.6-0.5-2.5s0.2-1.8,0.5-2.5s0.8-1.4,1.3-2
		c0.6-0.6,1.2-1,2-1.3s1.6-0.5,2.5-0.5s1.7,0.2,2.5,0.5c0.8,0.3,1.4,0.8,2,1.3c0.6,0.6,1,1.2,1.3,2S132.8,56.2,132.8,57.1z
		 M131.5,57.1c0-0.7-0.1-1.4-0.3-2c-0.2-0.6-0.6-1.2-1-1.7c-0.4-0.5-0.9-0.9-1.6-1.1s-1.3-0.4-2.1-0.4s-1.5,0.1-2.1,0.4
		c-0.6,0.3-1.1,0.7-1.6,1.1c-0.4,0.5-0.8,1-1,1.7c-0.2,0.6-0.3,1.3-0.3,2s0.1,1.4,0.3,2c0.2,0.6,0.6,1.2,1,1.7
		c0.4,0.5,0.9,0.9,1.6,1.1c0.6,0.3,1.3,0.4,2.1,0.4s1.5-0.1,2.1-0.4s1.1-0.7,1.6-1.1c0.4-0.5,0.8-1,1-1.7
		C131.4,58.4,131.5,57.8,131.5,57.1z"/>
	<path class="st1" d="M138.2,62h5.6v1.1H137v-12h1.2V62z"/>
	<path class="st1" d="M148.4,62h5.6v1.1h-6.8v-12h1.2V62z"/>
	<path class="st1" d="M158.6,62h6.4v1.1h-7.7v-12h7.5v1.1h-6.2v4.1h5.8v1.1h-5.8V62z"/>
	<path class="st1" d="M178.1,53.3c-0.4-0.4-0.9-0.8-1.5-1c-0.6-0.2-1.2-0.4-2-0.4c-0.8,0-1.5,0.1-2.1,0.4c-0.6,0.3-1.1,0.7-1.6,1.1
		c-0.4,0.5-0.8,1-1,1.7c-0.2,0.6-0.3,1.3-0.3,2s0.1,1.4,0.3,2c0.2,0.6,0.6,1.2,1,1.7c0.4,0.5,0.9,0.9,1.6,1.1
		c0.6,0.3,1.3,0.4,2.1,0.4c0.6,0,1.2-0.1,1.8-0.2c0.6-0.2,1.1-0.4,1.5-0.6v-4h-2.9v-1.1h4.1v5.9c-0.7,0.4-1.4,0.7-2.2,0.9
		c-0.8,0.2-1.6,0.3-2.3,0.3c-0.9,0-1.7-0.2-2.5-0.5s-1.4-0.8-2-1.3c-0.6-0.6-1-1.2-1.3-2c-0.3-0.8-0.5-1.6-0.5-2.5s0.2-1.8,0.5-2.5
		s0.8-1.4,1.3-2c0.6-0.6,1.2-1,2-1.3s1.6-0.5,2.5-0.5c1,0,1.8,0.1,2.5,0.4c0.7,0.3,1.3,0.7,1.9,1.2L178.1,53.3z"/>
	<path class="st1" d="M185.4,62h6.4v1.1h-7.7v-12h7.5v1.1h-6.2v4.1h5.8v1.1h-5.8V62z"/>
	<path class="st1" d="M53.9,77.5c0,0.9-0.2,1.8-0.5,2.5c-0.3,0.8-0.8,1.4-1.3,2c-0.6,0.6-1.2,1-2,1.3s-1.6,0.5-2.5,0.5
		s-1.7-0.2-2.5-0.5c-0.8-0.3-1.4-0.8-2-1.3c-0.6-0.6-1-1.2-1.3-2c-0.3-0.8-0.5-1.6-0.5-2.5s0.2-1.8,0.5-2.5s0.8-1.4,1.3-2
		c0.6-0.6,1.2-1,2-1.3c0.8-0.3,1.6-0.5,2.5-0.5s1.7,0.2,2.5,0.5s1.4,0.8,2,1.3c0.6,0.6,1,1.2,1.3,2C53.8,75.7,53.9,76.6,53.9,77.5z
		 M52.6,77.5c0-0.7-0.1-1.4-0.3-2c-0.2-0.6-0.6-1.2-1-1.7c-0.4-0.5-0.9-0.9-1.6-1.1c-0.6-0.3-1.3-0.4-2.1-0.4s-1.5,0.1-2.1,0.4
		C45,73,44.5,73.4,44,73.9c-0.4,0.5-0.8,1-1,1.7c-0.2,0.6-0.3,1.3-0.3,2s0.1,1.4,0.3,2s0.6,1.2,1,1.7c0.4,0.5,0.9,0.9,1.6,1.1
		c0.6,0.3,1.3,0.4,2.1,0.4s1.5-0.1,2.1-0.4c0.6-0.3,1.1-0.7,1.6-1.1c0.4-0.5,0.8-1,1-1.7S52.6,78.2,52.6,77.5z"/>
	<path class="st1" d="M59.3,83.5h-1.2v-12h7.3v1.1h-6v4.1h5.6v1.1h-5.6V83.5z"/>
	<path class="st1" d="M75.7,71.5h3.6c0.5,0,1,0.1,1.4,0.2c0.5,0.1,0.9,0.3,1.2,0.5s0.7,0.5,0.9,0.9c0.2,0.4,0.3,0.9,0.3,1.4
		c0,0.7-0.2,1.2-0.6,1.7s-0.9,0.8-1.6,0.9v0c0.8,0.1,1.5,0.4,2,0.9c0.5,0.5,0.7,1.2,0.7,2.1c0,0.2,0,0.5-0.1,0.8s-0.3,0.7-0.6,1.1
		c-0.3,0.4-0.7,0.7-1.3,1c-0.6,0.3-1.3,0.4-2.3,0.4h-3.7V71.5z M76.9,76.7h2.5c0.3,0,0.6,0,0.9-0.1c0.3-0.1,0.5-0.2,0.8-0.4
		c0.2-0.2,0.4-0.4,0.6-0.7s0.2-0.6,0.2-1c0-0.1,0-0.3-0.1-0.5c-0.1-0.2-0.2-0.5-0.3-0.7S81,73,80.7,72.8c-0.3-0.2-0.8-0.2-1.4-0.2
		h-2.3V76.7z M76.9,82.4h2.3c0.4,0,0.9,0,1.2-0.1s0.7-0.2,1-0.4c0.3-0.2,0.5-0.4,0.7-0.7c0.2-0.3,0.2-0.6,0.2-1
		c0-0.8-0.3-1.4-0.8-1.8c-0.5-0.4-1.3-0.6-2.2-0.6h-2.5V82.4z"/>
	<path class="st1" d="M96.7,79c0,0.5-0.1,1-0.2,1.6c-0.1,0.6-0.3,1.1-0.7,1.6c-0.3,0.5-0.8,0.9-1.4,1.2c-0.6,0.3-1.3,0.5-2.2,0.5
		c-0.9,0-1.6-0.2-2.2-0.5c-0.6-0.3-1-0.7-1.3-1.2c-0.3-0.5-0.6-1-0.7-1.6c-0.1-0.6-0.2-1.1-0.2-1.6v-7.5h1.2v7.4
		c0,0.6,0.1,1.1,0.2,1.5c0.1,0.4,0.3,0.8,0.5,1s0.4,0.5,0.6,0.7c0.2,0.2,0.5,0.3,0.7,0.4c0.2,0.1,0.5,0.2,0.7,0.2s0.4,0,0.6,0
		c0.1,0,0.3,0,0.6,0c0.2,0,0.4-0.1,0.7-0.2s0.5-0.2,0.7-0.4c0.2-0.2,0.4-0.4,0.6-0.7s0.3-0.6,0.5-1c0.1-0.4,0.2-0.9,0.2-1.5v-7.4
		h1.2V79z"/>
	<path class="st1" d="M107.2,73.5c-0.5-0.8-1.3-1.2-2.3-1.2c-0.3,0-0.6,0-0.9,0.1c-0.3,0.1-0.6,0.2-0.8,0.4
		c-0.2,0.2-0.4,0.4-0.6,0.7s-0.2,0.6-0.2,1c0,0.5,0.2,1,0.5,1.3c0.3,0.3,0.7,0.5,1.1,0.7c0.5,0.2,0.9,0.4,1.5,0.5
		c0.5,0.2,1,0.4,1.5,0.6s0.8,0.6,1.1,1c0.3,0.4,0.5,1,0.5,1.7c0,0.5-0.1,1-0.3,1.5c-0.2,0.4-0.5,0.8-0.9,1.1
		c-0.4,0.3-0.8,0.5-1.3,0.7c-0.5,0.2-0.9,0.2-1.4,0.2c-0.7,0-1.4-0.1-2.1-0.4s-1.2-0.7-1.7-1.4l1.1-0.8c0.3,0.4,0.6,0.8,1.1,1.1
		c0.5,0.3,1,0.4,1.6,0.4c0.3,0,0.6,0,0.9-0.1c0.3-0.1,0.6-0.2,0.8-0.4c0.2-0.2,0.4-0.4,0.6-0.7c0.2-0.3,0.2-0.6,0.2-0.9
		c0-0.4-0.1-0.8-0.3-1c-0.2-0.3-0.4-0.5-0.7-0.7c-0.3-0.2-0.6-0.3-1-0.5c-0.4-0.1-0.7-0.2-1.1-0.4s-0.8-0.3-1.1-0.4
		c-0.4-0.2-0.7-0.4-1-0.6c-0.3-0.2-0.5-0.5-0.7-0.9c-0.2-0.4-0.3-0.8-0.3-1.4c0-0.6,0.1-1.1,0.3-1.5c0.2-0.4,0.5-0.8,0.9-1.1
		s0.8-0.5,1.2-0.6c0.5-0.1,0.9-0.2,1.4-0.2c0.7,0,1.3,0.1,1.9,0.3c0.6,0.2,1.1,0.6,1.5,1.1L107.2,73.5z"/>
	<path class="st1" d="M113.9,83.5h-1.2v-12h1.2V83.5z"/>
	<path class="st1" d="M127.6,81.7L127.6,81.7l0-10.2h1.2v12h-1.5l-7.2-10.3h0v10.3h-1.2v-12h1.5L127.6,81.7z"/>
	<path class="st1" d="M135.1,82.4h6.4v1.1h-7.7v-12h7.5v1.1h-6.2v4.1h5.8v1.1h-5.8V82.4z"/>
	<path class="st1" d="M151.3,73.5c-0.5-0.8-1.3-1.2-2.3-1.2c-0.3,0-0.6,0-0.9,0.1c-0.3,0.1-0.6,0.2-0.8,0.4
		c-0.2,0.2-0.4,0.4-0.6,0.7c-0.1,0.3-0.2,0.6-0.2,1c0,0.5,0.2,1,0.5,1.3c0.3,0.3,0.7,0.5,1.1,0.7c0.5,0.2,0.9,0.4,1.5,0.5
		s1,0.4,1.5,0.6s0.8,0.6,1.1,1c0.3,0.4,0.5,1,0.5,1.7c0,0.5-0.1,1-0.3,1.5c-0.2,0.4-0.5,0.8-0.9,1.1c-0.4,0.3-0.8,0.5-1.3,0.7
		c-0.5,0.2-0.9,0.2-1.4,0.2c-0.7,0-1.4-0.1-2.1-0.4c-0.7-0.3-1.2-0.7-1.7-1.4l1.1-0.8c0.3,0.4,0.6,0.8,1.1,1.1
		c0.5,0.3,1,0.4,1.6,0.4c0.3,0,0.6,0,0.9-0.1c0.3-0.1,0.6-0.2,0.8-0.4c0.2-0.2,0.4-0.4,0.6-0.7c0.2-0.3,0.2-0.6,0.2-0.9
		c0-0.4-0.1-0.8-0.3-1c-0.2-0.3-0.4-0.5-0.7-0.7c-0.3-0.2-0.6-0.3-1-0.5s-0.7-0.2-1.1-0.4s-0.8-0.3-1.1-0.4c-0.4-0.2-0.7-0.4-1-0.6
		c-0.3-0.2-0.5-0.5-0.7-0.9s-0.3-0.8-0.3-1.4c0-0.6,0.1-1.1,0.3-1.5c0.2-0.4,0.5-0.8,0.9-1.1s0.8-0.5,1.2-0.6
		c0.5-0.1,0.9-0.2,1.4-0.2c0.7,0,1.3,0.1,1.9,0.3c0.6,0.2,1.1,0.6,1.5,1.1L151.3,73.5z"/>
	<path class="st1" d="M162.5,73.5c-0.5-0.8-1.3-1.2-2.3-1.2c-0.3,0-0.6,0-0.9,0.1c-0.3,0.1-0.6,0.2-0.8,0.4
		c-0.2,0.2-0.4,0.4-0.6,0.7c-0.1,0.3-0.2,0.6-0.2,1c0,0.5,0.2,1,0.5,1.3c0.3,0.3,0.7,0.5,1.1,0.7c0.5,0.2,0.9,0.4,1.5,0.5
		s1,0.4,1.5,0.6s0.8,0.6,1.1,1c0.3,0.4,0.5,1,0.5,1.7c0,0.5-0.1,1-0.3,1.5c-0.2,0.4-0.5,0.8-0.9,1.1c-0.4,0.3-0.8,0.5-1.3,0.7
		c-0.5,0.2-0.9,0.2-1.4,0.2c-0.7,0-1.4-0.1-2.1-0.4c-0.7-0.3-1.2-0.7-1.7-1.4l1.1-0.8c0.3,0.4,0.6,0.8,1.1,1.1
		c0.5,0.3,1,0.4,1.6,0.4c0.3,0,0.6,0,0.9-0.1c0.3-0.1,0.6-0.2,0.8-0.4c0.2-0.2,0.4-0.4,0.6-0.7c0.2-0.3,0.2-0.6,0.2-0.9
		c0-0.4-0.1-0.8-0.3-1c-0.2-0.3-0.4-0.5-0.7-0.7c-0.3-0.2-0.6-0.3-1-0.5s-0.7-0.2-1.1-0.4s-0.8-0.3-1.1-0.4c-0.4-0.2-0.7-0.4-1-0.6
		c-0.3-0.2-0.5-0.5-0.7-0.9s-0.3-0.8-0.3-1.4c0-0.6,0.1-1.1,0.3-1.5c0.2-0.4,0.5-0.8,0.9-1.1s0.8-0.5,1.2-0.6
		c0.5-0.1,0.9-0.2,1.4-0.2c0.7,0,1.3,0.1,1.9,0.3c0.6,0.2,1.1,0.6,1.5,1.1L162.5,73.5z"/>
</g>
</svg>
