<?xml version="1.0" encoding="utf-8"?>
<!-- Generator: Adobe Illustrator 22.1.0, SVG Export Plug-In . SVG Version: 6.00 Build 0)  -->
<svg version="1.1"
	 id="svg3004" inkscape:version="0.91 r13725" sodipodi:docname="Cal_Poly_San_Luis_Obispo_wordmark.svg" xmlns:cc="http://creativecommons.org/ns#" xmlns:dc="http://purl.org/dc/elements/1.1/" xmlns:inkscape="http://www.inkscape.org/namespaces/inkscape" xmlns:rdf="http://www.w3.org/1999/02/22-rdf-syntax-ns#" xmlns:sodipodi="http://sodipodi.sourceforge.net/DTD/sodipodi-0.dtd" xmlns:svg="http://www.w3.org/2000/svg"
	 xmlns="http://www.w3.org/2000/svg" xmlns:xlink="http://www.w3.org/1999/xlink" x="0px" y="0px" viewBox="0 0 205.2 84.8"
	 style="enable-background:new 0 0 205.2 84.8;" xml:space="preserve">
<style type="text/css">
	.st0{fill:#FFFFFF;}
</style>
<sodipodi:namedview  bordercolor="#666666" borderopacity="1" fit-margin-bottom="0" fit-margin-left="0" fit-margin-right="0" fit-margin-top="0" gridtolerance="10" guidetolerance="10" id="namedview52" inkscape:current-layer="svg3004" inkscape:cx="35.456698" inkscape:cy="5.1784675" inkscape:pageopacity="0" inkscape:pageshadow="2" inkscape:window-height="706" inkscape:window-maximized="1" inkscape:window-width="1366" inkscape:window-x="-8" inkscape:window-y="-8" inkscape:zoom="1.4475357" objecttolerance="10" pagecolor="#ffffff" showgrid="false">
	</sodipodi:namedview>
<g>
	<path class="st0" d="M26,57.1c0,0.9-0.2,1.8-0.5,2.5c-0.3,0.8-0.8,1.4-1.3,2c-0.6,0.6-1.2,1-2,1.3s-1.6,0.5-2.5,0.5
		s-1.7-0.2-2.5-0.5s-1.4-0.8-2-1.3c-0.6-0.6-1-1.2-1.3-2s-0.5-1.6-0.5-2.5s0.2-1.8,0.5-2.5s0.8-1.4,1.3-2c0.6-0.6,1.2-1,2-1.3
		s1.6-0.5,2.5-0.5s1.7,0.2,2.5,0.5s1.4,0.8,2,1.3c0.6,0.6,1,1.2,1.3,2C25.8,55.3,26,56.2,26,57.1z M24.6,57.1c0-0.7-0.1-1.4-0.3-2
		c-0.2-0.6-0.6-1.2-1-1.7s-0.9-0.9-1.6-1.1c-0.6-0.3-1.3-0.4-2.1-0.4s-1.5,0.1-2.1,0.4c-0.6,0.3-1.1,0.7-1.6,1.1
		c-0.4,0.5-0.8,1-1,1.7c-0.2,0.6-0.3,1.3-0.3,2s0.1,1.4,0.3,2s0.6,1.2,1,1.7s0.9,0.9,1.6,1.1c0.6,0.3,1.3,0.4,2.1,0.4
		s1.5-0.1,2.1-0.4c0.6-0.3,1.1-0.7,1.6-1.1c0.4-0.5,0.8-1,1-1.7S24.6,57.8,24.6,57.1z"/>
	<path class="st0" d="M31.4,63.1h-1.2v-12h3.7c1.2,0,2.2,0.3,2.9,0.8s1.1,1.3,1.1,2.4c0,0.8-0.3,1.5-0.8,2.1s-1.3,0.9-2.3,1l3.5,5.7
		h-1.5l-3.3-5.6h-2v5.6H31.4z M31.4,56.4h2.2c0.5,0,1-0.1,1.4-0.2c0.4-0.1,0.7-0.3,0.9-0.5s0.4-0.4,0.5-0.7s0.2-0.5,0.2-0.8
		s-0.1-0.6-0.2-0.8s-0.3-0.5-0.5-0.7s-0.5-0.3-0.9-0.5c-0.4-0.1-0.8-0.2-1.4-0.2h-2.2C31.4,52,31.4,56.4,31.4,56.4z"/>
	<path class="st0" d="M43.2,63.1H42v-12h7.3v1.1h-6v4.1h5.6v1.1h-5.6L43.2,63.1L43.2,63.1z"/>
	<path class="st0" d="M52,63.1h-1.4l5.2-12H57l5.2,12h-1.4L59.4,60h-6.2L52,63.1z M53.7,58.8H59l-2.6-6.3L53.7,58.8z"/>
	<path class="st0" d="M66.8,62h5.6v1.1h-6.8v-12h1.2C66.8,51.1,66.8,62,66.8,62z"/>
	<path class="st0" d="M77,62h6.4v1.1h-7.7v-12h7.5v1.1H77v4.1h5.8v1.1H77V62z"/>
	<path class="st0" d="M87.4,63.1H86l5.2-12h1.2l5.2,12h-1.4L94.8,60h-6.2L87.4,63.1z M89.1,58.8h5.2l-2.6-6.3L89.1,58.8z"/>
	<path class="st0" d="M117.3,61.2c-0.2,0.3-0.5,0.6-0.8,0.9c-0.3,0.3-0.6,0.5-1,0.7s-0.8,0.4-1.2,0.5c-0.4,0.1-0.9,0.2-1.4,0.2
		c-0.9,0-1.7-0.2-2.5-0.5s-1.4-0.8-2-1.3c-0.6-0.6-1-1.2-1.3-2s-0.5-1.6-0.5-2.5s0.2-1.8,0.5-2.5s0.8-1.4,1.3-2c0.6-0.6,1.2-1,2-1.3
		s1.6-0.5,2.5-0.5c0.7,0,1.5,0.1,2.2,0.4c0.7,0.3,1.4,0.8,1.9,1.5l-1.1,0.8c-0.1-0.2-0.3-0.4-0.5-0.6s-0.5-0.4-0.7-0.5
		c-0.3-0.1-0.6-0.3-0.9-0.4s-0.6-0.1-1-0.1c-0.8,0-1.5,0.1-2.1,0.4c-0.6,0.3-1.1,0.7-1.6,1.1c-0.4,0.5-0.8,1-1,1.7
		c-0.2,0.6-0.3,1.3-0.3,2s0.1,1.4,0.3,2c0.2,0.6,0.6,1.2,1,1.7s0.9,0.9,1.6,1.1c0.6,0.3,1.3,0.4,2.1,0.4c0.3,0,0.6,0,0.9-0.1
		s0.6-0.2,0.9-0.3s0.6-0.3,0.9-0.6c0.3-0.2,0.5-0.5,0.7-0.9L117.3,61.2z"/>
	<path class="st0" d="M132.8,57.1c0,0.9-0.2,1.8-0.5,2.5c-0.3,0.8-0.8,1.4-1.3,2c-0.6,0.6-1.2,1-2,1.3s-1.6,0.5-2.5,0.5
		s-1.7-0.2-2.5-0.5s-1.4-0.8-2-1.3c-0.6-0.6-1-1.2-1.3-2s-0.5-1.6-0.5-2.5s0.2-1.8,0.5-2.5s0.8-1.4,1.3-2c0.6-0.6,1.2-1,2-1.3
		s1.6-0.5,2.5-0.5s1.7,0.2,2.5,0.5s1.4,0.8,2,1.3c0.6,0.6,1,1.2,1.3,2S132.8,56.2,132.8,57.1z M131.5,57.1c0-0.7-0.1-1.4-0.3-2
		s-0.6-1.2-1-1.7s-0.9-0.9-1.6-1.1s-1.3-0.4-2.1-0.4s-1.5,0.1-2.1,0.4c-0.6,0.3-1.1,0.7-1.6,1.1c-0.4,0.5-0.8,1-1,1.7
		c-0.2,0.6-0.3,1.3-0.3,2s0.1,1.4,0.3,2c0.2,0.6,0.6,1.2,1,1.7s0.9,0.9,1.6,1.1c0.6,0.3,1.3,0.4,2.1,0.4s1.5-0.1,2.1-0.4
		c0.6-0.3,1.1-0.7,1.6-1.1c0.4-0.5,0.8-1,1-1.7C131.4,58.4,131.5,57.8,131.5,57.1z"/>
	<path class="st0" d="M138.2,62h5.6v1.1H137v-12h1.2V62z"/>
	<path class="st0" d="M148.4,62h5.6v1.1h-6.8v-12h1.2V62z"/>
	<path class="st0" d="M158.6,62h6.4v1.1h-7.7v-12h7.5v1.1h-6.2v4.1h5.8v1.1h-5.8V62z"/>
	<path class="st0" d="M178.1,53.3c-0.4-0.4-0.9-0.8-1.5-1s-1.2-0.4-2-0.4s-1.5,0.1-2.1,0.4c-0.6,0.3-1.1,0.7-1.6,1.1
		c-0.4,0.5-0.8,1-1,1.7c-0.2,0.6-0.3,1.3-0.3,2s0.1,1.4,0.3,2s0.6,1.2,1,1.7s0.9,0.9,1.6,1.1c0.6,0.3,1.3,0.4,2.1,0.4
		c0.6,0,1.2-0.1,1.8-0.2c0.6-0.2,1.1-0.4,1.5-0.6v-4H175v-1.1h4.1v5.9c-0.7,0.4-1.4,0.7-2.2,0.9s-1.6,0.3-2.3,0.3
		c-0.9,0-1.7-0.2-2.5-0.5s-1.4-0.8-2-1.3c-0.6-0.6-1-1.2-1.3-2s-0.5-1.6-0.5-2.5s0.2-1.8,0.5-2.5s0.8-1.4,1.3-2c0.6-0.6,1.2-1,2-1.3
		s1.6-0.5,2.5-0.5c1,0,1.8,0.1,2.5,0.4c0.7,0.3,1.3,0.7,1.9,1.2L178.1,53.3z"/>
	<path class="st0" d="M185.4,62h6.4v1.1h-7.7v-12h7.5v1.1h-6.2v4.1h5.8v1.1h-5.8V62z"/>
	<path class="st0" d="M53.9,77.5c0,0.9-0.2,1.8-0.5,2.5c-0.3,0.8-0.8,1.4-1.3,2c-0.6,0.6-1.2,1-2,1.3s-1.6,0.5-2.5,0.5
		s-1.7-0.2-2.5-0.5s-1.4-0.8-2-1.3c-0.6-0.6-1-1.2-1.3-2s-0.5-1.6-0.5-2.5s0.2-1.8,0.5-2.5s0.8-1.4,1.3-2c0.6-0.6,1.2-1,2-1.3
		s1.6-0.5,2.5-0.5s1.7,0.2,2.5,0.5s1.4,0.8,2,1.3c0.6,0.6,1,1.2,1.3,2C53.8,75.7,53.9,76.6,53.9,77.5z M52.6,77.5
		c0-0.7-0.1-1.4-0.3-2s-0.6-1.2-1-1.7s-0.9-0.9-1.6-1.1c-0.6-0.3-1.3-0.4-2.1-0.4s-1.5,0.1-2.1,0.4c-0.5,0.3-1,0.7-1.5,1.2
		c-0.4,0.5-0.8,1-1,1.7c-0.2,0.6-0.3,1.3-0.3,2s0.1,1.4,0.3,2s0.6,1.2,1,1.7s0.9,0.9,1.6,1.1c0.6,0.3,1.3,0.4,2.1,0.4
		s1.5-0.1,2.1-0.4s1.1-0.7,1.6-1.1c0.4-0.5,0.8-1,1-1.7S52.6,78.2,52.6,77.5z"/>
	<path class="st0" d="M59.3,83.5h-1.2v-12h7.3v1.1h-6v4.1H65v1.1h-5.6v5.7H59.3z"/>
	<path class="st0" d="M75.7,71.5h3.6c0.5,0,1,0.1,1.4,0.2c0.5,0.1,0.9,0.3,1.2,0.5s0.7,0.5,0.9,0.9c0.2,0.4,0.3,0.9,0.3,1.4
		c0,0.7-0.2,1.2-0.6,1.7s-0.9,0.8-1.6,0.9l0,0c0.8,0.1,1.5,0.4,2,0.9s0.7,1.2,0.7,2.1c0,0.2,0,0.5-0.1,0.8s-0.3,0.7-0.6,1.1
		c-0.3,0.4-0.7,0.7-1.3,1c-0.6,0.3-1.3,0.4-2.3,0.4h-3.7L75.7,71.5L75.7,71.5z M76.9,76.7h2.5c0.3,0,0.6,0,0.9-0.1s0.5-0.2,0.8-0.4
		c0.2-0.2,0.4-0.4,0.6-0.7s0.2-0.6,0.2-1c0-0.1,0-0.3-0.1-0.5s-0.2-0.5-0.3-0.7S81,73,80.7,72.8s-0.8-0.2-1.4-0.2H77L76.9,76.7
		L76.9,76.7z M76.9,82.4h2.3c0.4,0,0.9,0,1.2-0.1s0.7-0.2,1-0.4c0.3-0.2,0.5-0.4,0.7-0.7c0.2-0.3,0.2-0.6,0.2-1
		c0-0.8-0.3-1.4-0.8-1.8s-1.3-0.6-2.2-0.6h-2.5v4.6H76.9z"/>
	<path class="st0" d="M96.7,79c0,0.5-0.1,1-0.2,1.6s-0.3,1.1-0.7,1.6c-0.3,0.5-0.8,0.9-1.4,1.2c-0.6,0.3-1.3,0.5-2.2,0.5
		c-0.9,0-1.6-0.2-2.2-0.5s-1-0.7-1.3-1.2s-0.6-1-0.7-1.6s-0.2-1.1-0.2-1.6v-7.5H89v7.4c0,0.6,0.1,1.1,0.2,1.5s0.3,0.8,0.5,1
		s0.4,0.5,0.6,0.7s0.5,0.3,0.7,0.4s0.5,0.2,0.7,0.2s0.4,0,0.6,0c0.1,0,0.3,0,0.6,0c0.2,0,0.4-0.1,0.7-0.2s0.5-0.2,0.7-0.4
		c0.2-0.2,0.4-0.4,0.6-0.7s0.3-0.6,0.5-1c0.1-0.4,0.2-0.9,0.2-1.5v-7.4h1.2L96.7,79L96.7,79z"/>
	<path class="st0" d="M107.2,73.5c-0.5-0.8-1.3-1.2-2.3-1.2c-0.3,0-0.6,0-0.9,0.1s-0.6,0.2-0.8,0.4c-0.2,0.2-0.4,0.4-0.6,0.7
		s-0.2,0.6-0.2,1c0,0.5,0.2,1,0.5,1.3s0.7,0.5,1.1,0.7c0.5,0.2,0.9,0.4,1.5,0.5c0.5,0.2,1,0.4,1.5,0.6s0.8,0.6,1.1,1
		c0.3,0.4,0.5,1,0.5,1.7c0,0.5-0.1,1-0.3,1.5c-0.2,0.4-0.5,0.8-0.9,1.1c-0.4,0.3-0.8,0.5-1.3,0.7s-0.9,0.2-1.4,0.2
		c-0.7,0-1.4-0.1-2.1-0.4s-1.2-0.7-1.7-1.4l1.1-0.8c0.3,0.4,0.6,0.8,1.1,1.1c0.5,0.3,1,0.4,1.6,0.4c0.3,0,0.6,0,0.9-0.1
		s0.6-0.2,0.8-0.4c0.2-0.2,0.4-0.4,0.6-0.7c0.2-0.3,0.2-0.6,0.2-0.9c0-0.4-0.1-0.8-0.3-1c-0.2-0.3-0.4-0.5-0.7-0.7
		c-0.3-0.2-0.6-0.3-1-0.5c-0.4-0.1-0.7-0.2-1.1-0.4s-0.8-0.3-1.1-0.4c-0.4-0.2-0.7-0.4-1-0.6s-0.5-0.5-0.7-0.9s-0.3-0.8-0.3-1.4
		s0.1-1.1,0.3-1.5c0.2-0.4,0.5-0.8,0.9-1.1s0.8-0.5,1.2-0.6c0.5-0.1,0.9-0.2,1.4-0.2c0.7,0,1.3,0.1,1.9,0.3c0.6,0.2,1.1,0.6,1.5,1.1
		L107.2,73.5z"/>
	<path class="st0" d="M113.9,83.5h-1.2v-12h1.2V83.5z"/>
	<path class="st0" d="M127.6,81.7L127.6,81.7V71.5h1.2v12h-1.5l-7.2-10.3l0,0v10.3h-1.2v-12h1.5L127.6,81.7z"/>
	<path class="st0" d="M135.1,82.4h6.4v1.1h-7.7v-12h7.5v1.1h-6.2v4.1h5.8v1.1h-5.8V82.4z"/>
	<path class="st0" d="M151.3,73.5c-0.5-0.8-1.3-1.2-2.3-1.2c-0.3,0-0.6,0-0.9,0.1c-0.3,0.1-0.6,0.2-0.8,0.4
		c-0.2,0.2-0.4,0.4-0.6,0.7c-0.1,0.3-0.2,0.6-0.2,1c0,0.5,0.2,1,0.5,1.3s0.7,0.5,1.1,0.7c0.5,0.2,0.9,0.4,1.5,0.5s1,0.4,1.5,0.6
		s0.8,0.6,1.1,1s0.5,1,0.5,1.7c0,0.5-0.1,1-0.3,1.5c-0.2,0.4-0.5,0.8-0.9,1.1c-0.4,0.3-0.8,0.5-1.3,0.7s-0.9,0.2-1.4,0.2
		c-0.7,0-1.4-0.1-2.1-0.4c-0.7-0.3-1.2-0.7-1.7-1.4l1.1-0.8c0.3,0.4,0.6,0.8,1.1,1.1c0.5,0.3,1,0.4,1.6,0.4c0.3,0,0.6,0,0.9-0.1
		c0.3-0.1,0.6-0.2,0.8-0.4c0.2-0.2,0.4-0.4,0.6-0.7c0.2-0.3,0.2-0.6,0.2-0.9c0-0.4-0.1-0.8-0.3-1c-0.2-0.3-0.4-0.5-0.7-0.7
		s-0.6-0.3-1-0.5s-0.7-0.2-1.1-0.4s-0.8-0.3-1.1-0.4c-0.4-0.2-0.7-0.4-1-0.6s-0.5-0.5-0.7-0.9s-0.3-0.8-0.3-1.4s0.1-1.1,0.3-1.5
		s0.5-0.8,0.9-1.1s0.8-0.5,1.2-0.6c0.5-0.1,0.9-0.2,1.4-0.2c0.7,0,1.3,0.1,1.9,0.3c0.6,0.2,1.1,0.6,1.5,1.1L151.3,73.5z"/>
	<path class="st0" d="M162.5,73.5c-0.5-0.8-1.3-1.2-2.3-1.2c-0.3,0-0.6,0-0.9,0.1c-0.3,0.1-0.6,0.2-0.8,0.4
		c-0.2,0.2-0.4,0.4-0.6,0.7c-0.1,0.3-0.2,0.6-0.2,1c0,0.5,0.2,1,0.5,1.3s0.7,0.5,1.1,0.7c0.5,0.2,0.9,0.4,1.5,0.5s1,0.4,1.5,0.6
		s0.8,0.6,1.1,1s0.5,1,0.5,1.7c0,0.5-0.1,1-0.3,1.5c-0.2,0.4-0.5,0.8-0.9,1.1c-0.4,0.3-0.8,0.5-1.3,0.7s-0.9,0.2-1.4,0.2
		c-0.7,0-1.4-0.1-2.1-0.4c-0.7-0.3-1.2-0.7-1.7-1.4l1.1-0.8c0.3,0.4,0.6,0.8,1.1,1.1c0.5,0.3,1,0.4,1.6,0.4c0.3,0,0.6,0,0.9-0.1
		c0.3-0.1,0.6-0.2,0.8-0.4c0.2-0.2,0.4-0.4,0.6-0.7c0.2-0.3,0.2-0.6,0.2-0.9c0-0.4-0.1-0.8-0.3-1c-0.2-0.3-0.4-0.5-0.7-0.7
		s-0.6-0.3-1-0.5s-0.7-0.2-1.1-0.4s-0.8-0.3-1.1-0.4c-0.4-0.2-0.7-0.4-1-0.6s-0.5-0.5-0.7-0.9s-0.3-0.8-0.3-1.4s0.1-1.1,0.3-1.5
		s0.5-0.8,0.9-1.1s0.8-0.5,1.2-0.6c0.5-0.1,0.9-0.2,1.4-0.2c0.7,0,1.3,0.1,1.9,0.3c0.6,0.2,1.1,0.6,1.5,1.1L162.5,73.5z"/>
</g>
<g id="g3496" transform="translate(17.692039,178.97432)">
	<path id="path3552" inkscape:connector-curvature="0" class="st0" d="M-11.1-174.7c3.7-2.8,7.4-4.2,13-4.2c2.7,0,6,0.9,8.3,1.8
		c0.6,0.1,1,0.4,1.5,0.3c0,1.1,0.4,4.4,0.5,7.4c-0.2,0.4-1.1,0.4-1.5,0c-0.5-3.5-2.3-7.5-9.5-7.5c-7.6,0-13.2,6.2-13.2,15
		c0,8.9,6.4,15.9,13.6,15.9c6.5,0,8.9-3.6,10.1-6.5c0.4-0.3,1.2-0.1,1.5,0.3c-0.4,2.6-1.9,6.1-2.6,7c-0.8,0.1-1.4,0.4-2,0.5
		c-1.4,0.4-4.2,0.8-7.4,0.8c-4.9,0-8.4-0.8-12.1-3.3c-4.4-2.9-6.8-8.4-6.8-13.9C-17.7-166.9-15.1-171.7-11.1-174.7"/>
	<path id="path3556" inkscape:connector-curvature="0" class="st0" d="M48.4-164.7c0-4.1-0.2-4.4-2.7-4.7l-1.1-0.1
		c-0.4-0.3-0.4-1.4,0.1-1.5c2.3,0.1,4.1,0.1,6,0.1s3.8,0,5.8-0.1c0.5,0.1,0.5,1.2,0.1,1.5l-0.8,0.1c-2.5,0.6-2.7,0.6-2.7,4.7v12.9
		c0,1.9,0.1,3.5,0.6,4.1c0.5,0.5,1,1,4.1,1c3.6,0,5.8-0.1,7.5-5c0.4-0.4,1.4-0.3,1.5,0.3c-0.2,2.5-1.1,5.5-1.7,6.6
		c-1.9,0-3.5-0.1-5.2-0.1c-1.6-0.1-3.1-0.1-4.6-0.1h-4.4c-1.9,0-3.8,0-6,0.1c-0.5-0.1-0.5-1.2-0.1-1.5l1.1-0.1
		c2.5-0.4,2.7-0.6,2.7-4.7L48.4-164.7L48.4-164.7z"/>
	<path id="path3560" inkscape:connector-curvature="0" class="st0" d="M29.2-156.2h-3.9c-1.2,0-1.9-0.3-1.2-1.9l2-5.3
		c0.5-1.4,0.9-2,0.9-2.1c0.1-0.1,0,0,0,0c0.1-0.1,0.1-0.3,0.2-0.3c0.1,0,0.4,0.3,0.5,0.5c0.2,0.4,0.4,1,0.8,2l1.9,5.1
		C30.8-156.3,30.7-156.2,29.2-156.2 M42-146.3l-1-0.1c-2.1-0.4-2.6-1.2-3.4-3.1l-5.4-14.2c-0.9-2.2-1.5-4.7-2-6.1
		c-0.1-0.3-0.2-0.5-0.4-0.8s-0.2-0.3-0.5-0.3l0,0c-1,0.1-1.9,0.1-2.6,0.1c-1.2-0.1-2.5-0.3-3.6-0.1c-0.4,0.1-0.5,0.5-0.5,0.9
		c0,0.4,0.1,0.6,0.4,0.9c0.1,0.1,1.4,0,2.6,1.1c-0.2,1-0.6,2.1-1.4,3.9L19-150.3c-1.1,2.9-1.9,3.5-3.6,4l-1.4,0.3
		c-0.4,0.3-0.4,1.2,0.1,1.5c1.1,0,2.5-0.1,4.1-0.1s3.3,0,4.6,0.1c0.6-0.1,0.6-1.2,0.1-1.5l-1.6-0.3c-1.1-0.3-1.2-0.5-0.6-2.4
		l1.4-3.9c0.5-1.4,0.6-1.4,2-1.4h5.6c1.4,0,1.5,0,2,1.4l1.4,3.9c0.8,1.9,0.8,2.2-0.8,2.5l-1.1,0.1c-0.5,0.3-0.5,1.4,0.1,1.5
		c1.5-0.1,3.3-0.1,5.4-0.1c2,0,3.4,0,4.9,0.1C42.5-144.9,42.7-145.9,42-146.3"/>
	<path id="path3564" inkscape:connector-curvature="0" class="st0" d="M142.4-164.7c0-4.1,0.1-4.4-2.5-4.7l-1.1-0.1
		c-0.4-0.3-0.4-1.4,0.1-1.5c2.3,0.1,3.9,0.1,5.8,0.1s3.8,0,5.8-0.1c0.5,0.1,0.5,1.2,0.1,1.5l-0.8,0.1c-2.5,0.6-2.7,0.6-2.7,4.7v12.9
		c0,1.9,0.1,3.5,0.6,4.1c0.5,0.5,1.6,1,4.8,1c3.6,0,5.8-0.1,7.5-5c0.4-0.4,1.4-0.3,1.5,0.3c-0.3,2.5-1.1,5.5-1.8,6.6
		c-1.9,0-3.5-0.1-5.3-0.1c-1.6-0.1-3.1-0.1-4.6-0.1h-5c-1.9,0-3.3,0-5.5,0.1c-0.5-0.1-0.5-1.2-0.1-1.5l1.1-0.1
		c2.5-0.4,2.2-0.6,2.2-4.7L142.4-164.7L142.4-164.7z"/>
	<path id="path3568" inkscape:connector-curvature="0" class="st0" d="M111.3-158.7c0,6.1,3,12.8,9.9,12.8c4.5,0,9.1-3.1,9.1-11.2
		c0-6.4-3.3-12.9-9.8-12.9C116.2-169.9,111.3-167.1,111.3-158.7 M135.3-158.1c0,8.1-6,13.9-14.4,13.9c-9.1,0-14.6-6-14.6-13.6
		c0-8,6-14,14.6-14C130.4-171.7,135.3-165.3,135.3-158.1"/>
	<path id="path3572" inkscape:connector-curvature="0" class="st0" d="M171.4-152.9c0-1.9-0.1-2.4-1.6-5.1l-4.4-8.1
		c-1.2-2.4-1.9-2.9-3.4-3.2l-1.5-0.3c-0.4-0.4-0.3-1.4,0.1-1.5c2,0.1,3.4,0.1,5.5,0.1c1.8,0,3.1,0,5-0.1c0.5,0.3,0.6,1.2,0,1.5
		l-0.9,0.1c-1.2,0.3-1.5,0.6-0.5,2.5l2.2,4.2c0.9,1.7,1.7,3.4,2.6,5c1-1.6,1.9-3,2.9-5l2.4-4.4c0.9-1.6,1-2.2-0.4-2.4l-1.2-0.1
		c-0.5-0.3-0.5-1.2,0.1-1.5c1.8,0.1,3.1,0.1,4.5,0.1c1.2,0,2.5,0,4.2-0.1c0.5,0.1,0.6,1.2,0.1,1.5l-1.4,0.3c-1.9,0.4-2.1,0.8-4,3.8
		l-3.6,6c-2.1,3.4-2.2,4-2.2,5.8v3.3c0,3.5,0.3,3.9,2.8,4.1l1.5,0.1c0.4,0.3,0.4,1.2-0.1,1.5c-2.6-0.1-4.5-0.1-6.4-0.1
		s-3.8,0-6.4,0.1c-0.5-0.1-0.5-1.2-0.1-1.5l1.5-0.1c2.5-0.3,2.8-0.6,2.8-4.1L171.4-152.9L171.4-152.9z"/>
	<path id="path3576" inkscape:connector-curvature="0" class="st0" d="M86.8-152.7c0,5,0.2,6.1,4.4,6.2l1.5,0.1
		c0.2,0.3,0.2,1.2-0.1,1.4c-2.9-0.1-6-0.1-8-0.1c-2.1,0-4.9,0-7,0.1c-0.2-0.1-0.4-1.1-0.1-1.4l1.1-0.1c3-0.4,3.6-0.5,3.6-6.2v-18.4
		c0-4.2-0.1-5.1-2.4-5.4l-1.7-0.3c-0.4-0.3-0.2-1,0.1-1.2c2.6-0.4,6.2-0.4,10.4-0.4c4.1,0,8.1,0.8,10.5,2c3.9,2.1,5.4,5.3,5.4,8.5
		c0,4.9-4,7.8-7,8.6c-2.4,0.8-6.2,0.8-8.3,0.5c-0.4,0-0.1-1,0.2-1c6.6,0,9.6-2.8,9.9-8.1c0.2-6.4-3.9-9-9-9c-2.6,0-3.5,0.3-3.5,1.9
		L86.8-152.7L86.8-152.7z"/>
	<path id="path3578" inkscape:connector-curvature="0" class="st0" d="M-15.2-134.1h200.6v-0.9H-15.2
		C-15.2-134.9-15.2-134.1-15.2-134.1z"/>
</g>
</svg>
