<svg xmlns="http://www.w3.org/2000/svg" viewBox="0 0 311.55 304.18"><defs><style>.cls-1{fill:#fff;}.cls-2{fill:none;stroke:#fff;stroke-linecap:round;stroke-miterlimit:10;stroke-width:12.78px;}</style></defs><title>Asset 1</title><g id="Layer_2" data-name="Layer 2"><g id="Layer_1-2" data-name="Layer 1"><path class="cls-1" d="M196.71,261.34l-29.63,16.37,29.63,16.37a5.3,5.3,0,0,1,2.07,7.4,5.81,5.81,0,0,1-7.72,2L155.77,284l-35.28,19.5a5.81,5.81,0,0,1-7.72-2,5.3,5.3,0,0,1,2.07-7.4l29.62-16.37-29.62-16.37a5.3,5.3,0,0,1-2.07-7.4,5.8,5.8,0,0,1,7.72-2l35.28,19.5L191.06,252a5.8,5.8,0,0,1,7.72,2A5.3,5.3,0,0,1,196.71,261.34Zm20.93-121.75c-1.7,4.63-3,9.11-5.76,13.33a41,41,0,0,1-4.63,5.88c-.89.94-4.42,3.15-4.71,4.25,3.17-12-.64-24.8-6.41-35.78s-13.47-20.88-18.95-32a91.47,91.47,0,0,1-6.92-60.78,152.42,152.42,0,0,0-51.82,77,72,72,0,0,0-32.1-14.92c15.16,22.73,7,49.67,6.78,74.9-.13,18,6.28,34.8,20.51,46.36a62,62,0,0,0,7.28,5.08,69.51,69.51,0,0,0,18.36,7.63c21.77,5.58,45.78.66,63.17-14.47C222.85,198.27,233.34,163.8,217.64,139.59Z"/><path class="cls-2" d="M72.25,279.65a149.39,149.39,0,1,1,170.18-2.18"/></g></g></svg>