<svg xmlns="http://www.w3.org/2000/svg" viewBox="0 0 260.41 80.93"><title>CIE</title><g id="Layer_2" data-name="Layer 2"><g id="Layer_1-2" data-name="Layer 1"><ellipse cx="186.09" cy="30.64" rx="104.7" ry="0.22" fill="#fff"/><path d="M181.31.86A24.58,24.58,0,0,1,184,.64a73.55,73.55,0,0,1,9.65.52,9.57,9.57,0,0,1,4.9,2.67c3.41,3.51,1.53,9.3-3.37,10.59a32.09,32.09,0,0,1-5.4.54l-.11-.68,2.11-.39c3.76-.67,5.56-3.79,4.53-7.85A6.18,6.18,0,0,0,188.61,2a2.38,2.38,0,0,0-1.16,1.83c-.07,5.44.06,10.88,0,16.32,0,3,1.86,3.46,4.26,3.55l-.13.54H180.94c0-.16,0-.4.07-.41,2.91-.35,3.23-2.27,3.15-4.72-.13-4.41,0-8.83,0-13.24C184.12,2.5,184.12,2.5,181.31.86Z" fill="#fff"/><path d="M134.07,19.22c-.06,3.82-1.28,5.34-4.82,5.54a33.4,33.4,0,0,1-7.68-.15,10.62,10.62,0,0,1-8.94-8.12c-1.24-4.63-.56-8.94,3-12.42,5-4.8,11.15-4.84,16.84-2.76.31.11.74.42.76.67.15,1.54.21,3.1.32,5.24-.73-.66-1-.8-1.1-1-2.6-5.41-8.75-6.5-13.12-2.33C114,9,115.58,19.38,122.13,22.67A7.92,7.92,0,0,0,132.75,20a6.87,6.87,0,0,0,.57-1.39Z" fill="#fff"/><path d="M212.1,5.27c6.28,0,10.36,3.92,10.32,9.87s-4.5,10.11-10.58,10-10.39-4.12-10.33-9.95S205.9,5.25,212.1,5.27Zm7.1,10.35a47.81,47.81,0,0,0-2.08-5.93,5.68,5.68,0,0,0-6.06-3.13,5.92,5.92,0,0,0-5.31,4.31A11.33,11.33,0,0,0,206.91,21a6.09,6.09,0,0,0,6.69,2.69C216.9,23,218.81,20.06,219.2,15.62Z" fill="#fff"/><path d="M141.59,5.86a37.18,37.18,0,0,1,4.48.07c.4,0,.82.9,1,1.47,1.37,3.71,2.66,7.45,4,11.17,1.14,3.14,1.16,3.13,4.16,5.79h-8.2L149.22,23c-1.05-4.77-1.33-5.12-4-5.14-4.2,0-4.2,0-5.39,5l2.2,1.49h-6.68c3.44-1.44,3.59-4.84,4.77-7.55.85-1.95,1.5-4,2.26-6C143,9.1,144.2,7.35,141,6.4Zm.19,10.4H147L144.65,10h-.52Z" fill="#fff"/><path d="M248.59,6.11l-1.72,1.55,4,7.75,4.35-7.81-2-1.52h7.23c-4.42,1.83-5.34,5.77-7.52,8.72C251.25,17,251.58,19.61,252,22c.12.81,1.69,1.4,2.57,2.06-.76.73-7.6.84-9,0,.93-.62,2.6-1.15,2.7-1.91a12.29,12.29,0,0,0-.41-5.79,43,43,0,0,0-4-7.58c-.64-1-1.87-1.67-3.06-2.69Z" fill="#fff"/><path d="M172.52,19.56c.5,4-.36,5.06-3.8,5s-6.75,0-10.12,0a4.82,4.82,0,0,1-1.82-.5c3.84-.79,2.83-3.61,2.88-5.94s0-4.4,0-6.61c0-3.38,0-3.38-2.94-5.54h8.67c-3.16,1.3-2.36,3.94-2.38,6.24,0,2.72,0,5.43,0,8.15,0,1.9.72,2.81,2.71,2.88,2.6.09,4.87-.23,5.93-3.06C171.72,20,172.06,19.88,172.52,19.56Z" fill="#fff"/><path d="M225.11,6h8.09c-3.19,1.39-2.31,4.13-2.35,6.48,0,2.79,0,5.59.06,8.38,0,1.56.84,2.18,2.33,2.31,3.12.27,6,.1,7.06-4l.86.62a19.9,19.9,0,0,1-.86,3.81c-.2.49-1.26.86-1.93.87-4,.08-7.94.05-11.91,0A3.61,3.61,0,0,1,225,24c3.38-.71,2.61-3.16,2.64-5.24q0-3.75,0-7.5c0-2.06.66-4.5-3.09-4.68Z" fill="#fff"/><text transform="translate(112.06 44.35)" font-size="12.69" fill="#fff" font-family="Palatino-Roman, Palatino">Center for Innovation<tspan x="0" y="15.23">&amp; Ent</tspan><tspan x="32.33" y="15.23" letter-spacing="-0.02em">r</tspan><tspan x="37.12" y="15.23">ep</tspan><tspan x="50.83" y="15.23" letter-spacing="-0.02em">r</tspan><tspan x="55.62" y="15.23">eneurship</tspan></text><path d="M0,7.48V58.61H95.32V7.48Zm39.7,31a8.2,8.2,0,0,1-1.64,2.9,13,13,0,0,1-6.66,4.48l-.68.19a18.18,18.18,0,0,1-2.08.4,16.22,16.22,0,0,1-7-.64A12.64,12.64,0,0,1,18,43.87a12.78,12.78,0,0,1-4.42-6.41c-.14-.43-.25-.85-.35-1.29S13,35.3,13,34.85a16.65,16.65,0,0,1-.12-2c0-.44,0-.89.07-1.33,0-.22,0-.45.08-.67a13.05,13.05,0,0,1,2.52-6.1,11.55,11.55,0,0,1,2.57-2.41,15.78,15.78,0,0,1,12-2.18,14.87,14.87,0,0,1,3.66,1.28l1.61.84c0-.19,0-.36.08-.53,0-.34.09-.66.14-1l.06-.47H39v8.25a8,8,0,0,1-1.7.16A3.38,3.38,0,0,1,35,27.79a5.34,5.34,0,0,1-.8-.92,7,7,0,0,0-1.56-1.61,8.76,8.76,0,0,0-2.73-1.37,10.44,10.44,0,0,0-3.1-.46,9.64,9.64,0,0,0-3.81.76,7.32,7.32,0,0,0-.69.33A8.11,8.11,0,0,0,20,26.37a8.57,8.57,0,0,0-.89,1.19,9.68,9.68,0,0,0-.95,2.09,11.7,11.7,0,0,0-.43,5A9.26,9.26,0,0,0,18,36.09a5.88,5.88,0,0,0,.23.71,9.68,9.68,0,0,0,.63,1.34,9.47,9.47,0,0,0,3,3.19,8.5,8.5,0,0,0,3.35,1.34,12.46,12.46,0,0,0,1.59.13l.78,0a10,10,0,0,0,2.26-.45,10.07,10.07,0,0,0,1.4-.58A9.77,9.77,0,0,0,33.65,40a9.65,9.65,0,0,0,1.8-2.54l.19-.42c.13-.29.25-.6.38-.91.06-.16.13-.33.2-.49h0A12.26,12.26,0,0,1,39,36.94,1.48,1.48,0,0,1,39.7,38.43ZM54.21,23.57l-2,.18-.73.06V42.6l1.33.09,1.39.09V46l-4.58,0c-1.52,0-3,0-4.55,0-.68,0-1-.3-1-1.12a3.7,3.7,0,0,1,0-.56c0-.21.06-.44.1-.7s.09-.54.16-.85l1.2-.08,1.32-.08V23.81l-1.94-.16-.69-.06V20.33h10Zm11.37.26c0,2.1-.07,4.17.07,6.22a.3.3,0,0,0,0,.15,2.13,2.13,0,0,0,1.15.78l.2,0c1.39,0,2.78.06,4.18.06h4.28v3.42H65.68v8.11H77v-4.4h3.55c0,2.39,0,4.65,0,6.92a.73.73,0,0,1-.11.27,1.3,1.3,0,0,1-.8.61l-5.41,0H57.81V42.78l2.38-.11.88,0V23.93c-.53-.09-1.11-.11-1.66-.18a4.93,4.93,0,0,1-.8-.15,2.5,2.5,0,0,1-.68-.32c-.49-.36-.21-1.77-.29-2.88H80.52c0,2.28,0,4.54-.06,6.8a.33.33,0,0,1,0,.13.61.61,0,0,1-.1.14,2.4,2.4,0,0,1-.73.5,2.75,2.75,0,0,1-.4.14,9.84,9.84,0,0,1-2.2,0V23.83Z" fill="#fff"/></g></g></svg>