<svg xmlns="http://www.w3.org/2000/svg" viewBox="0 0 270.18 94.9"><title>CLA</title><g id="Layer_2" data-name="Layer 2"><g id="Layer_1-2" data-name="Layer 1"><path d="M270.18,12.19c-.83.22-1.65.51-2.49.66a4.42,4.42,0,0,0-3.14,2.09c-2.9,4.67-5.81,9.33-8.61,14.06a7,7,0,0,0-.9,3.2c-.1,2.68,0,5.36.06,8a2.31,2.31,0,0,0,2.16,2.37,21.37,21.37,0,0,1,2.68.41,1.64,1.64,0,0,1,.91,1.09c.14.69-.35.9-1.06.9Q252,45,244.21,45c-.65,0-1.09-.09-1.15-.85a1,1,0,0,1,1-1.19c.86-.08,1.72-.2,2.57-.33a2.37,2.37,0,0,0,2.22-2.32c.38-4.56.42-9-2.24-13.14-2.21-3.44-4-7.19-5.86-10.84-1.08-2.11-2.56-3.55-5-3.75a1.88,1.88,0,0,1-1.29-.63c-.47-.7.15-1.53,1-1.53,4.19,0,8.39,0,12.59.05.4,0,.8.52,1.21.8-.29.4-.53,1.1-.88,1.16-2.75.47-2.44,1.42-1.42,3.4l6.36,12.26c.82-1.38,1.51-2.49,2.14-3.63,1.73-3.14,3.47-6.28,5.15-9.46.89-1.69.66-2.06-1.2-2.39a6.71,6.71,0,0,0-.76-.13.94.94,0,0,1-1-1.18c.08-.78.59-.9,1.3-.88,2.73.1,5.45.14,8.18.19,1,0,2,0,3.06,0Z" fill="#fff"/><path d="M74.06,94.9a13.41,13.41,0,0,1-1.76-1.05,2.51,2.51,0,0,1,.38-4.36l.65-.41c-1.37-1.39-1.28-1.79.82-3.76a1.37,1.37,0,0,0-.35-.3c-2.6-.92-2.69-4.38-.75-6a5.9,5.9,0,0,1,5.21-1.32l4.89,1.09c0,1.37-1.35.78-2.3,1a3.78,3.78,0,0,1-.93,4,5.56,5.56,0,0,1-3.9,1.5,1.74,1.74,0,0,0-1,.42,1.1,1.1,0,0,0-.38.87c0,.2.52.41.81.42,1.29,0,2.59,0,3.89,0a3,3,0,0,1,3.08,1.5,3.07,3.07,0,0,1-.29,3.55,25.29,25.29,0,0,1-3.62,2.74Zm3.08-6c-.57,0-1.13.06-1.69.13A2.3,2.3,0,0,0,73.31,91a2.58,2.58,0,0,0,1.48,2.77c1.42.68,3.87.42,4.85-.76a3.53,3.53,0,0,0,.8-2.54c-.11-.58-1.18-1-1.89-1.42A3.81,3.81,0,0,0,77.14,88.91ZM74,81.52a3,3,0,0,0,.36,1.38,3.68,3.68,0,0,0,1.88,1.5,2.29,2.29,0,0,0,2-1,5.74,5.74,0,0,0,0-3.08,2,2,0,0,0-2.39-1.69C74.67,78.8,74,79.71,74,81.52Z" fill="#fff"/><path d="M140.8,26.87c-.15-1,.32-1.15,1.1-1.2a28.21,28.21,0,0,0,4.12-.44c5-1,7.75-4.11,8.1-9.25a17.62,17.62,0,0,0-.35-5c-1.05-4.52-4.71-7.29-9.81-7.6a28.2,28.2,0,0,0-3.9,0c-1.84.15-2.42.81-2.44,2.67,0,3.16,0,6.33,0,9.49,0,6.8,0,13.61,0,20.41a21.33,21.33,0,0,0,.25,3.49,3.38,3.38,0,0,0,3.36,3.2c1.07.14,2.15.2,3.23.27.7.05,1.15.27,1.1,1.09s-.51.91-1.21.91q-9,0-18.05,0c-.71,0-1.18-.11-1.24-.9s.39-1.06,1.1-1.11c.52,0,1-.12,1.54-.2,2.85-.44,3.43-1,3.76-3.87a15.91,15.91,0,0,0,.09-1.95v-29c-.11-3.72-.55-4.2-4.21-4.61a1,1,0,0,1-.51-.08c-.35-.28-.67-.6-1-.91.34-.31.67-.85,1-.88,2.19-.2,4.4-.39,6.61-.39,5,0,10-.34,14.88.75,3.55.77,6.8,2.11,9.29,4.84,6.27,6.87,3.17,17.13-6,19.75a26.58,26.58,0,0,1-10,.7A8,8,0,0,1,140.8,26.87Z" fill="#fff"/><path d="M38.59,2.73c.22,3,.47,5.9.64,8.83a1.37,1.37,0,0,1-.61,1.1,1,1,0,0,1-1.42-.85,12.86,12.86,0,0,0-.34-1.52c-1.34-4.73-5-7.38-10.35-7.76-10-.71-17.1,5.8-18.71,15.17-1.36,7.91.49,15,6.34,20.72A16.21,16.21,0,0,0,32.51,41.6a13,13,0,0,0,5.82-6.25,1.93,1.93,0,0,1,.77-1,1,1,0,0,1,1.38,1.21c-.84,2.58-1.76,5.13-2.72,7.67a1.65,1.65,0,0,1-1,.88c-6.94,1.74-13.95,2.24-20.94.49A20.8,20.8,0,0,1,.2,26.84C-1.48,13.07,7.76,1.65,21.61.17A33.1,33.1,0,0,1,35.79,1.91C36.68,2.21,37.6,2.45,38.59,2.73Z" fill="#fff"/><path d="M183.81,45.91c-7-.11-11.95-1.57-15.94-5.63-8.14-8.27-6.23-26.16,9.19-30.11a21.76,21.76,0,0,1,13.66.81c7.22,2.85,11,9.46,10.69,17.36C201,38.88,193.16,45.79,183.81,45.91Zm11-16.74A21.83,21.83,0,0,0,192.65,19c-2.29-4.5-5.74-7.33-11.07-7.18-4.8.14-8.36,2.43-10.16,6.81a20.34,20.34,0,0,0,1.65,19.62,11.48,11.48,0,0,0,19,.55A16.91,16.91,0,0,0,194.78,29.17Z" fill="#fff"/><path d="M59,32.57H54.86A1.78,1.78,0,0,0,53,33.85c-.76,2.16-1.57,4.3-2.28,6.48-.52,1.61-.24,2,1.4,2.32a3.67,3.67,0,0,1,1.37.3,2,2,0,0,1,.76,1.22c0,.21-.57.75-.89.75-3.63.06-7.26,0-10.9,0-.3,0-.84-.45-.84-.68A2.53,2.53,0,0,1,42.16,43c.11-.15.48-.14.74-.17,2.67-.3,4.25-1.89,5.17-4.31q3.48-9.22,7-18.44c.6-1.57,1.12-3.18,1.78-4.73.47-1.12,0-1.72-.94-2.11a7.1,7.1,0,0,1-1.7-.58,2,2,0,0,1-.84-1.34c0-.3.69-.88,1.08-.89,2.59-.06,5.19-.06,7.77.09.42,0,1,.79,1.14,1.31,1.1,3.15,2,6.35,3.17,9.47C68.64,27.12,70.9,32.92,73,38.78c.85,2.37,2.3,3.81,4.82,4.08.8.09,1.34.35,1.24,1.28s-.81.81-1.46.81c-4,0-8,0-11.94,0-.76,0-1.33-.12-1.38-1s.53-1,1.26-1.13c2.7-.37,2.79-.55,1.86-3.1C66.7,37.87,66,36,65.31,34.05a2,2,0,0,0-2.13-1.49C61.79,32.59,60.41,32.57,59,32.57ZM59,17.34c-.37.75-.61,1.16-.78,1.59-1.15,3-2.3,6-3.41,9-.57,1.54-.21,2.07,1.47,2.12,1.91.06,3.82.05,5.72,0,1.45,0,1.7-.39,1.21-1.77-1.14-3.18-2.31-6.34-3.48-9.5A15.26,15.26,0,0,0,59,17.34Z" fill="#fff"/><path d="M3.2,58H267.25c.27.75.19,1.21-.72,1.17-.22,0-.43,0-.65,0H4.63C4,59.19,2.88,59.6,3.2,58Z" fill="#fff"/><path d="M219.86,44.94H207.53c-.69,0-1.45.17-1.54-.87s.5-1.1,1.28-1.23c3.45-.56,3.59-.75,3.59-4.24V16.77c0-.39,0-.78,0-1.17-.15-2-.6-2.55-2.6-2.92a5.62,5.62,0,0,1-1.52-.29,1.9,1.9,0,0,1-.92-1.12c-.1-.65.37-.93,1.09-.91,3.42.09,6.83.14,10.25.16,1.21,0,2.43-.15,3.63-.1.36,0,1,.53,1,.78,0,.43-.47.83-.75,1.24,0,0-.08,0-.12,0-3.88,1.09-4,1.29-4,5.36q0,9.62,0,19.24c0,4.26.85,5.15,5.13,5.31,1.47.06,2.95,0,4.42,0a6.84,6.84,0,0,0,6.33-4,14.53,14.53,0,0,1,1-2.1,1.69,1.69,0,0,1,1.36-.55c.28,0,.74.78.66,1.11-.54,2.44-1.19,4.86-1.81,7.29-.18.69-.63.86-1.35.86C228.34,44.92,224.1,44.94,219.86,44.94Z" fill="#fff"/><path d="M95.28,44.94c-4.11,0-8.23,0-12.34,0-.72,0-1.45.07-1.51-.93S82,43,82.78,42.84c3.61-.58,4.07-.87,4.12-4.24.1-7.54,0-15.07-.06-22.61,0-2.45-.62-2.9-3.09-3.33a11.46,11.46,0,0,0-1.28-.23c-.79,0-1.06-.5-1-1.2s.47-.89,1.16-.87q5.33.13,10.64.16c1.17,0,2.34-.07,3.51-.15.65,0,1.22.12,1.13.84,0,.44-.45,1.11-.8,1.18-3.41.73-4.17,1-4.15,5.3,0,7,0,13.94.09,20.91,0,2.58,1.11,3.61,3.68,3.74a47.21,47.21,0,0,0,5.32,0,6.44,6.44,0,0,0,5.59-3.47,18.46,18.46,0,0,0,1.12-2.33c.3-.82.89-1.18,1.58-.83a1.64,1.64,0,0,1,.58,1.43c-.47,2.24-1.09,4.45-1.64,6.67-.22.87-.69,1.18-1.66,1.16C103.5,44.9,99.39,44.94,95.28,44.94Z" fill="#fff"/><path d="M153.21,88.27l-1.22.85a3.17,3.17,0,0,1-.23-.77c0-4.29.06-8.58.09-12.87,0-1.93,0-1.93-2.14-2.49,1.51-1.07,3.14-.78,4.55-1.68v8.58c.6-.53,1-.83,1.33-1.16a4.14,4.14,0,0,1,6.84,1.69,6.56,6.56,0,0,1-2.26,7C157.9,89,155.79,89.89,153.21,88.27Zm4.39-8.78c-2.19,0-3.32,1.07-3.34,3.08,0,.9,0,1.81,0,2.72a2.29,2.29,0,0,0,1.92,2.38c1.89.46,3.4-.54,3.95-2.59.68-2.59-.1-5-1.85-5.48A3.83,3.83,0,0,0,157.6,79.49Z" fill="#fff"/><path d="M223.2,87.82c-.56-1.44-1-2.73-1.59-4-.11-.23-.63-.39-1-.39-1.51,0-3-.07-4.55,0a1.64,1.64,0,0,0-1.13.72,21.14,21.14,0,0,0-1,2.39c-.39.89-.08,1.27.86,1.36.31,0,.6.31.9.47a4.21,4.21,0,0,1-1,.34c-1.25,0-2.51.06-3.76,0a2,2,0,0,1-.73-.31l.57-.54c.54-.49,1.3-.87,1.58-1.48,2-4.36,3.89-8.78,5.86-13.16.18-.4.63-.67,1-1a4.29,4.29,0,0,1,.85,1c1.84,4.24,3.63,8.51,5.49,12.75.37.87.61,2,1.94,2,.11,0,.31.32.29.46a.55.55,0,0,1-.41.37c-1.85,0-3.71,0-5.57,0-.15,0-.3-.22-.45-.34.14-.18.25-.45.42-.5A9.82,9.82,0,0,1,223.2,87.82Zm-7.38-5.71h5.11L218.36,76Z" fill="#fff"/><path d="M29.72,72.91l-.48,3.43-.3.18c-.2-.29-.56-.59-.55-.88.06-1.16-.68-1.61-1.58-1.92-2.6-.91-5.16-1-7.27,1.09C17.16,77.12,17,80,18,83c1.36,4.12,6.09,5.89,10.42,4,.38-.16.74-.34,1.25-.58a1.9,1.9,0,0,1-1.38,2,12.51,12.51,0,0,1-7.77.26,7.94,7.94,0,0,1-5.85-8c0-4.1,2.13-7.08,5.88-8.19A15.68,15.68,0,0,1,29.72,72.91Z" fill="#fff"/><path d="M141.93,88.75H130c2.2-2,1.19-4.35,1.33-6.5.16-2.41,0-4.84,0-7.27,0-1-.18-1.78-1.42-1.83-.27,0-.52-.3-.65-.75h6.9l.14.27c-.28.17-.56.47-.85.49-1.05.06-1.39.58-1.39,1.58,0,4,0,8-.07,12,0,.65.24.94.92.9,1.64-.09,3.28-.17,4.93-.22,1.11,0,1.08-.92,1.33-1.62.16-.44.36-.86.54-1.29l.54.16C142.13,86,142,87.32,141.93,88.75Z" fill="#fff"/><path d="M113.79,83.34A5.68,5.68,0,0,1,108,89.16a5.15,5.15,0,0,1-5.46-5.59c.06-3.69,2.27-6,5.72-6S113.8,79.82,113.79,83.34Zm-8.81.23A17.22,17.22,0,0,0,106,86.85a2.51,2.51,0,0,0,4.57-.14,7.38,7.38,0,0,0-.57-7.09,2.43,2.43,0,0,0-4.37.46A20.16,20.16,0,0,0,105,83.57Z" fill="#fff"/><path d="M196.51,88.74h-3.93V86.91c-.81.63-1.4,1.07-2,1.54a3,3,0,0,1-3.41.39c-1.2-.54-1.39-1.65-1.4-2.84a2.4,2.4,0,0,1,1.85-2.5c1.6-.51,3.22-.93,4.86-1.39,0-1.18-.25-2.17-1.4-2.57-1.61-.56-3.06-.44-3.76,1.69l-.46-.35c.08-.59,0-1.54.28-1.7a9.7,9.7,0,0,1,4-1.54C194,77.6,195,79,195,81.87c0,1.56,0,3.12,0,4.68,0,.72,0,1.42,1,1.44C196.09,88,196.24,88.36,196.51,88.74ZM192.43,83c-1.11.37-2.15.63-3.11,1.06a1.67,1.67,0,0,0-.82,2.48,1.63,1.63,0,0,0,2.35.6C192.49,86.44,192.77,85.75,192.43,83Z" fill="#fff"/><path d="M32.09,83.46c.1-3.72,2.32-6,5.78-5.92s5.57,2.43,5.47,6a5.69,5.69,0,0,1-6.06,5.59C34,89.07,32,86.85,32.09,83.46Zm2.46-.1a32.84,32.84,0,0,0,1,3.45,2.57,2.57,0,0,0,4.59,0,7.35,7.35,0,0,0-.56-7.07,3,3,0,0,0-2.39-1.07,3.39,3.39,0,0,0-2,1.66A10.93,10.93,0,0,0,34.55,83.36Z" fill="#fff"/><path d="M87.12,83.06c.16,2.06.64,3.56,2.39,4.31s3.17.16,4.66-.7l.26.42c-.47.47-.85,1.1-1.4,1.37a6.37,6.37,0,0,1-7-.69C84.46,86.23,84,83,85,80.61c1.14-2.67,5.77-4,8.06-2.19,1.42,1.09,1.63,2.65,1.46,4.64ZM92,82.21c.08-1.37,0-2.67-1.16-3.31a3,3,0,0,0-2.41,0c-1.2.63-1.38,1.94-1.39,3.31Z" fill="#fff"/><path d="M166.81,83.21A4,4,0,0,0,169,87.37c1.67.72,3.18.11,4.69-.64l.28.38c-.5.47-.91,1.17-1.5,1.37a10.19,10.19,0,0,1-3.4.64,4.68,4.68,0,0,1-4.87-4c-.53-2.93-.07-5.42,2.29-6.4a9.14,9.14,0,0,1,3.76-1c2.57.11,3.85,1.68,3.84,4.27a1.31,1.31,0,0,1-.76,1,12.75,12.75,0,0,1-2.7.26C169.38,83.24,168.09,83.21,166.81,83.21Zm4.84-1c0-1.46-.05-2.82-1.36-3.41a3,3,0,0,0-2.38.16c-1.1.66-1.33,1.89-1.2,3.25Z" fill="#fff"/><path d="M69.28,87c-.38.45-.67,1.08-1.16,1.32a6.59,6.59,0,0,1-5.4.44,5.56,5.56,0,0,1-2.11-1.44C59.19,85.8,59,82.08,60,80.22c1-1.71,4.09-2.94,6.28-2.5a4,4,0,0,1,3.11,4.57,1,1,0,0,1-.63.64,14.24,14.24,0,0,1-2.44.27c-1.38,0-2.76,0-4.27,0a4,4,0,0,0,1.43,3.63c1.81,1.44,3.65.89,5.46-.13ZM61.89,82.3c1.58,0,3,0,4.39,0A1,1,0,0,0,67,81.6a2.79,2.79,0,0,0-2.13-3.09c-1.33-.18-2.4.72-2.75,2.32C62,81.21,62,81.59,61.89,82.3Z" fill="#fff"/><path d="M117,79.7h-1.73c0-.17,0-.32,0-.33,1.54-.62,1.78-1.83,1.87-3.36.09-1.75,2.89-4.41,4.36-4.53s1.66,0,1.5,1.49c0,.28-.08.57-.12.86-3.07-1.14-3.53-.8-3.53,2.51v2h3v1.23h-3v3.13c0,1.3,0,2.6,0,3.9,0,.92.3,1.47,1.36,1.4.27,0,.57.3.85.47a3,3,0,0,1-.92.37c-1.6,0-3.19,0-4.79,0-.25,0-.5-.26-.75-.4.22-.15.44-.43.64-.42,1,0,1.23-.5,1.21-1.39,0-1.86,0-3.72,0-5.58C117,80.62,117,80.23,117,79.7Z" fill="#fff"/><path d="M44.71,73.11C46,71.9,47.6,72.19,49,71.32v15c0,.85-.08,1.72,1.21,1.65.14,0,.3.31.46.47-.19.12-.38.35-.57.35-1.56,0-3.11,0-4.66,0-.2,0-.39-.22-.58-.35.2-.17.4-.48.59-.48,1,0,1.09-.57,1.09-1.36q0-5.65,0-11.31C46.56,74.15,46.8,72.87,44.71,73.11Z" fill="#fff"/><path d="M254.47,81c-.21-.26-.59-.51-.61-.77-.05-1.18-1-1.47-1.77-1.55a3.81,3.81,0,0,0-2.39.48,1.4,1.4,0,0,0,.54,2.52c1,.33,2,.47,3,.74,2.53.71,3.31,3.42,1.37,5.21A5.85,5.85,0,0,1,251.55,89a24.44,24.44,0,0,1-4.54-.25c.08-1.14.11-2,.22-2.84,0-.23.3-.42.47-.63a1.94,1.94,0,0,1,.38.55,2.94,2.94,0,0,0,3.64,2.29,2,2,0,0,0,1.83-2c0-1.13-.72-1.48-1.62-1.68s-1.62-.31-2.42-.49a2.73,2.73,0,0,1-2.39-2.24,3.24,3.24,0,0,1,1.25-3.22,6.75,6.75,0,0,1,6.1-.47,1,1,0,0,1,.37.72c0,.64,0,1.29,0,1.94Z" fill="#fff"/><path d="M242.78,73.74l-.22,4.73h3.14c-.16,2.42-2.16.67-3.09,1.75,0,1.76-.05,3.78,0,5.8,0,1,.69,1.45,1.68,1.37.42,0,.83-.12,1.26-.19a2.73,2.73,0,0,1-3.26,1.92,2.33,2.33,0,0,1-2.21-2.58c0-1.73.08-3.46.12-5.19,0-.47,0-.93,0-1.47l-1.87-.12c.22-.3.32-.6.49-.65,1.25-.33,1.48-1.16,1.43-2.34C240.18,74.58,240.24,74.58,242.78,73.74Z" fill="#fff"/><path d="M51.69,72.67,56,71.46v2.43c0,4.28,0,8.56,0,12.84,0,.75.17,1.25,1.07,1.24.2,0,.41.29.62.45-.22.13-.44.38-.67.38-1.5,0-3,0-4.52,0-.25,0-.49-.21-.73-.32.23-.18.46-.51.69-.51.89,0,1.09-.49,1.09-1.24,0-4.11,0-8.22,0-12.32,0-1.5-1.17-.89-1.79-1.27Z" fill="#fff"/><path d="M197.79,73c1.16-1.08,2.76-.88,4.17-1.68V74q0,6.1,0,12.2c0,.91-.12,1.91,1.32,1.8.14,0,.31.31.46.47-.19.13-.38.36-.57.37-1.6,0-3.19,0-4.79,0-.19,0-.37-.24-.56-.36.15-.17.32-.48.46-.47,1.48.09,1.28-1,1.29-1.86,0-3.68,0-7.35,0-11C199.62,73.9,199.44,73,197.79,73Z" fill="#fff"/><path d="M180.09,77.62c0,.83-.07,1.46-.11,2.34,1.4-1.25,2.38-3.06,4.64-2.13l-.28,3.09a7.81,7.81,0,0,0-1.19-.87,2.16,2.16,0,0,0-3,2c0,1.51,0,3,0,4.54,0,1,.32,1.42,1.33,1.39.27,0,.55.32.83.49a2.71,2.71,0,0,1-.83.33c-1.64,0-3.28,0-4.92,0-.25,0-.49-.27-.74-.42.22-.15.44-.42.65-.41,1.12.07,1.25-.58,1.24-1.48,0-1.94,0-3.89,0-5.84,0-.84-.19-1.31-1.13-1.29-.25,0-.51-.28-.76-.44a2.63,2.63,0,0,1,.67-.41C177.59,78.21,178.76,77.94,180.09,77.62Z" fill="#fff"/><path d="M232.71,77.68V80c1.41-1.28,2.4-3.1,4.65-2.14-.1,1-.19,2-.3,3A6.91,6.91,0,0,0,235.7,80a2.09,2.09,0,0,0-2.84,1.82,49.69,49.69,0,0,0,0,5.32c0,.9.77.71,1.35.82a2.55,2.55,0,0,1,.82.5,2.93,2.93,0,0,1-.84.33c-1.64,0-3.28,0-4.92,0a2.34,2.34,0,0,1-.74-.31c.22-.19.45-.53.66-.53,1,0,1.23-.52,1.22-1.4,0-1.95,0-3.9,0-5.84,0-.91-.21-1.41-1.21-1.37-.22,0-.46-.25-.68-.38.2-.16.39-.4.62-.46C230.3,78.22,231.47,78,232.71,77.68Z" fill="#fff"/><path d="M147.65,77.66V86c0,1-.26,2.13,1.37,2,.12,0,.25.27.37.42-.17.14-.35.4-.52.4-1.6,0-3.2,0-4.79,0-.19,0-.38-.23-.57-.36.2-.17.39-.48.58-.48.95,0,1.16-.51,1.15-1.32,0-2,0-3.9,0-5.84,0-.85-.19-1.43-1.19-1.43-.19,0-.38-.23-.57-.36.14-.17.26-.44.44-.49C145.12,78.23,146.29,78,147.65,77.66Z" fill="#fff"/><path d="M145.94,75.38c-.29-.4-.94-.9-1.05-1.51-.17-.92.47-1.54,1.45-1.56a1.38,1.38,0,0,1,1.51,1.42C147.9,74.68,147.31,75.21,145.94,75.38Z" fill="#fff"/></g></g></svg>