<svg xmlns="http://www.w3.org/2000/svg" viewBox="0 0 96.39 96.91"><title>GE</title><g id="Layer_2" data-name="Layer 2"><g id="Layer_1-2" data-name="Layer 1"><g id="_7KQ4mh.tif" data-name="7KQ4mh.tif"><path d="M46.78,0h2.9a1.06,1.06,0,0,0,.19,0,39.2,39.2,0,0,1,4.46.34c1.4.18,2.8.42,4.18.72A47.75,47.75,0,0,1,70.42,5.42C71.71,6.1,73,6.84,74.2,7.63a46.37,46.37,0,0,1,4.7,3.44c1,.84,2,1.74,2.93,2.66s1.9,1.94,2.79,3a42.91,42.91,0,0,1,4,5.31c.7,1.12,1.4,2.24,2,3.4a48.62,48.62,0,0,1,2.53,5.49,42.66,42.66,0,0,1,1.74,5.49,52.76,52.76,0,0,1,1.13,6,32.09,32.09,0,0,1,.31,3.79c0,.43,0,.85.06,1.28v2c0,.13,0,.25,0,.38a32.16,32.16,0,0,1-.18,3.54c-.13,1.13-.32,2.25-.49,3.38-.21,1.33-.5,2.66-.84,4a43.89,43.89,0,0,1-1.9,5.78,50.38,50.38,0,0,1-2.87,6,48.6,48.6,0,0,1-2.88,4.47c-.91,1.22-1.82,2.44-2.85,3.58a39.85,39.85,0,0,1-3.06,3.17c-.92.82-1.83,1.64-2.76,2.43a30.26,30.26,0,0,1-2.8,2.12c-1,.67-2.06,1.36-3.12,2-.87.53-1.77,1-2.68,1.48a43.35,43.35,0,0,1-5.82,2.49A46,46,0,0,1,58,95.88a35,35,0,0,1-3.55.58c-1.05.1-2.09.22-3.14.31-.72.06-1.44.07-2.16.1a.83.83,0,0,0-.15,0H47.49c-.12,0-.24,0-.35,0-.46,0-.93,0-1.39-.05-1.24-.11-2.48-.16-3.71-.36s-2.32-.33-3.46-.56a47.92,47.92,0,0,1-5.89-1.61A48.92,48.92,0,0,1,27.13,92a47.26,47.26,0,0,1-5.84-3.4c-1-.65-1.91-1.36-2.82-2.08s-1.91-1.55-2.8-2.39c-1.07-1-2.12-2.05-3.1-3.13s-1.84-2.17-2.72-3.28A47.3,47.3,0,0,1,7,73.52a45.31,45.31,0,0,1-2.81-5.4,43.68,43.68,0,0,1-2.12-5.8C1.68,60.91,1.28,59.5,1,58.05.78,56.82.57,55.6.43,54.36.27,53,.15,51.54.11,50.12c0-.51-.07-1-.11-1.54v-.32c0-.07,0-.14,0-.22.07-1.31.13-2.62.23-3.92.08-1,.19-2.06.35-3.07a36,36,0,0,1,.92-4.48c.29-1,.55-2,.85-3A44.67,44.67,0,0,1,5,27.06a47.46,47.46,0,0,1,2.84-5c.75-1.13,1.5-2.25,2.35-3.31A42.45,42.45,0,0,1,13.4,15c.77-.77,1.5-1.58,2.31-2.3A35.42,35.42,0,0,1,19,10c.9-.65,1.78-1.31,2.69-1.93A39,39,0,0,1,25,6a42,42,0,0,1,4.77-2.32c1.18-.48,2.39-.91,3.59-1.32A40.53,40.53,0,0,1,38.54,1C39.76.72,41,.52,42.22.37s2.27-.23,3.4-.3ZM94.69,48.74c-.06-1.3-.08-2.46-.18-3.62s-.21-2.42-.4-3.62a41.59,41.59,0,0,0-1.2-5.37,44.08,44.08,0,0,0-2.85-7.44,42,42,0,0,0-2.85-5,48.13,48.13,0,0,0-2.88-3.92c-.92-1.09-1.83-2.17-2.84-3.16a37.8,37.8,0,0,0-3-2.79c-1-.75-1.88-1.52-2.86-2.24s-1.84-1.28-2.79-1.86-2-1.18-3-1.72c-.88-.47-1.79-.89-2.7-1.3A42.4,42.4,0,0,0,58.67,3.9c-1.13-.25-2.27-.48-3.41-.66S53.06,3,52,2.88a33.65,33.65,0,0,0-3.89-.16,33.43,33.43,0,0,0-3.61.17c-1.1.12-2.2.19-3.29.36s-2.2.39-3.29.62A45.79,45.79,0,0,0,31.6,5.75a46.48,46.48,0,0,0-7.38,3.57c-1,.62-2,1.31-3,2s-1.76,1.27-2.59,2q-1.66,1.41-3.23,2.92c-.9.88-1.74,1.84-2.59,2.78a46.17,46.17,0,0,0-3,3.94,42.59,42.59,0,0,0-2.63,4.35,45.86,45.86,0,0,0-2.93,6.8A33.56,33.56,0,0,0,3,38.36c-.24,1.09-.47,2.18-.63,3.29S2.1,43.82,2,44.91a36.57,36.57,0,0,0-.16,3.77,46.66,46.66,0,0,0,.3,5.15c.16,1.34.36,2.68.64,4a42.63,42.63,0,0,0,1.67,5.94,45.49,45.49,0,0,0,5.94,11.35c.89,1.18,1.76,2.36,2.75,3.45s1.91,2.12,3,3.09a36.5,36.5,0,0,0,3,2.65c.85.64,1.7,1.27,2.56,1.89a29,29,0,0,0,3.16,2c.85.46,1.69.93,2.55,1.37a45.07,45.07,0,0,0,11.34,3.91c1.1.22,2.22.39,3.33.57.57.09,1.15.15,1.73.2.93.07,1.86.11,2.8.17a37.21,37.21,0,0,0,4.48-.06c1.2-.07,2.39-.21,3.58-.36,1-.13,2-.29,3-.48a41.81,41.81,0,0,0,4.14-1,48.16,48.16,0,0,0,5.08-1.85c1.31-.57,2.59-1.2,3.84-1.88.77-.41,1.52-.86,2.25-1.33,1.07-.69,2.15-1.38,3.18-2.14s2-1.52,2.88-2.33,1.88-1.71,2.75-2.62c1-1.06,2-2.17,2.91-3.29a42.31,42.31,0,0,0,2.84-3.94A45.62,45.62,0,0,0,90.3,68a43.69,43.69,0,0,0,2.86-7.83,38.8,38.8,0,0,0,1.3-7.57C94.56,51.29,94.62,50,94.69,48.74Z" fill="#fff"/><path d="M47.59,84.6c-.84.31-1.62.61-2.41.88a33.57,33.57,0,0,1-5.34,1.31,26.71,26.71,0,0,1-5.65.29,24,24,0,0,1-6.49-1.27,26.39,26.39,0,0,1-6.05-3,30.85,30.85,0,0,1-5.57-4.92,35.34,35.34,0,0,1-2.92-3.76,43.92,43.92,0,0,1-2.71-4.57,46.8,46.8,0,0,1-3.09-7.64,48,48,0,0,1-1.69-7.2A49.62,49.62,0,0,1,5,46.07a43.06,43.06,0,0,1,.3-4.53,37.9,37.9,0,0,1,1.43-6.93l.11-.34c0,.46,0,.84,0,1.22-.1,2.22-.26,4.45-.23,6.67a21.16,21.16,0,0,0,.51,5A10.4,10.4,0,0,0,8.29,50a5.81,5.81,0,0,0,3.59,2.65,6.26,6.26,0,0,0,1.48.24,4.72,4.72,0,0,0,2.15-.47A3.22,3.22,0,0,0,17.28,50a6.86,6.86,0,0,0-.36-3.83,3.93,3.93,0,0,0-.5-.86,1.48,1.48,0,0,0-1.11-.58c-.4,0-.81,0-1.22-.06H14c-.92.26-1.83.73-2,1.79a.43.43,0,0,1-.47-.12,3.29,3.29,0,0,1-.47-.59,6.18,6.18,0,0,1-.64-2,22,22,0,0,1-.35-5,26,26,0,0,1,.71-5.49c.08-.34.08-.7.13-1.06a21.48,21.48,0,0,1,1.21-4.73,31.88,31.88,0,0,1,3.48-6.74,28.82,28.82,0,0,1,2.83-3.59,27,27,0,0,1,2.86-2.7c.74-.57,1.51-1.1,2.28-1.63.54-.38,1.09-.73,1.63-1.1A35.53,35.53,0,0,1,32,8.26a48.82,48.82,0,0,1,6.81-2.12c1.59-.37,3.19-.67,4.81-.89.9-.12,1.81-.21,2.72-.28,1.13-.08,2.27-.15,3.41-.17.89,0,1.78,0,2.67.09.73.05,1.46.13,2.18.21a24.36,24.36,0,0,1,3.6.7,19.22,19.22,0,0,1,3.45,1.33l.07.08h-.28c-.68,0-1.35-.13-2-.16a36.61,36.61,0,0,0-4.19,0,22,22,0,0,0-5.63,1,9,9,0,0,0-3,1.53,5.06,5.06,0,0,0-.86.87,3.52,3.52,0,0,0-.7,3.09,5.28,5.28,0,0,0,1.82,3,4.38,4.38,0,0,0,2.88,1.06,4,4,0,0,0,3.15-1.42,2.3,2.3,0,0,0,.19-2.81,4,4,0,0,0-1-1c-.31-.21-.64-.39-1-.58l-.26-.15c.16-.13.29-.26.43-.36A6.21,6.21,0,0,1,53,10.44a19.8,19.8,0,0,1,3.9-.77A25.14,25.14,0,0,1,61,9.58a25.83,25.83,0,0,1,7.75,1.62,23.9,23.9,0,0,1,4.07,2,33.75,33.75,0,0,1,2.89,2,35.29,35.29,0,0,1,2.78,2.41,40,40,0,0,1,2.82,3,41.68,41.68,0,0,1,3,3.91,46.23,46.23,0,0,1,3,5.15,45.35,45.35,0,0,1,2.86,7.27,37.69,37.69,0,0,1,1,4,39.84,39.84,0,0,1,.67,4.49,46.15,46.15,0,0,1,.14,7.15,48.91,48.91,0,0,1-1.66,10.13c-.15.53-.32,1-.49,1.57a.71.71,0,0,1-.09.17,3.67,3.67,0,0,1,0-1.23c.1-1.3.23-2.61.34-3.91.07-.81.12-1.61.16-2.42s.09-1.78.06-2.67a17.29,17.29,0,0,0-1-5.47A7.8,7.8,0,0,0,88.31,47a6.43,6.43,0,0,0-4.18-2.67,2.88,2.88,0,0,0-1.27.12A3.62,3.62,0,0,0,80,47.21a4.48,4.48,0,0,0,.26,2.84,3.36,3.36,0,0,0,1,1.34,2.14,2.14,0,0,0,2.35.31,4.44,4.44,0,0,0,1.77-1.47l.38-.49c0,.12.08.2.11.28a21.74,21.74,0,0,1,1.43,7.17,28.78,28.78,0,0,1-2,11.5,33.35,33.35,0,0,1-3.49,6.67A29.42,29.42,0,0,1,79,79c-.91,1-1.82,2-2.81,2.89a36.36,36.36,0,0,1-5.12,4,39.44,39.44,0,0,1-5.74,3,38.87,38.87,0,0,1-8,2.44c-1.15.22-2.31.41-3.46.56-.84.11-1.69.17-2.54.22s-1.95.12-2.93.1c-1.35,0-2.7-.08-4.06-.16-1-.06-1.92-.16-2.88-.28s-1.63-.24-2.45-.38-1.72-.34-2.59-.51c0,0-.07,0-.12-.09a1.61,1.61,0,0,1,.36-.15c.46-.1.92-.2,1.39-.26,2.07-.28,4.15-.54,6.2-1a25.7,25.7,0,0,0,4.47-1.3,11,11,0,0,0,3.1-1.76,5.49,5.49,0,0,0,2-2.95,4.55,4.55,0,0,0,.12-1.76,4.23,4.23,0,0,0-.28-.85,4,4,0,0,0-1.77-2.07,4.92,4.92,0,0,0-1.7-.55,7.38,7.38,0,0,0-2-.08,4.3,4.3,0,0,0-2.13.77,2.55,2.55,0,0,0-1,2.83,4.17,4.17,0,0,0,1.25,2c.34.31.73.56,1.09.84ZM39.92,51.66h0a31.21,31.21,0,0,0,.22-3.34.53.53,0,0,0,0-.12H40a27.68,27.68,0,0,0-4.44,1.52c-1,.42-1.89.88-2.8,1.38a28.7,28.7,0,0,0-5.72,4.21,29,29,0,0,0-2.79,3.08,24.24,24.24,0,0,0-2.88,4.68,17.09,17.09,0,0,0-1.36,4,12.24,12.24,0,0,0-.15,4.71,6.45,6.45,0,0,0,1.85,3.61,6.22,6.22,0,0,0,2.72,1.52,10.25,10.25,0,0,0,1.64.29,11.17,11.17,0,0,0,2.77,0,10.14,10.14,0,0,0,4.3-1.61A13.6,13.6,0,0,0,36,73.1a22.74,22.74,0,0,0,3.11-4.77,38.12,38.12,0,0,0,2.5-6.79c.18-.64.32-1.29.46-1.94a39.22,39.22,0,0,0,.73-4.94,23.81,23.81,0,0,0,.06-4,1.61,1.61,0,0,1,0-.22s.06,0,.09-.06A10.46,10.46,0,0,0,45,49.59c.9-.45,1.8-.91,2.67-1.42,1.86-1.09,3.71-2.21,5.55-3.34,1.68-1,3.33-2.09,5-3.13l.25-.15a2.53,2.53,0,0,1,1,2.12l-.33.14A13.56,13.56,0,0,0,55.6,46a15.9,15.9,0,0,0-2.89,3.24A20.8,20.8,0,0,0,50,55.1a18,18,0,0,0-.61,2.83,21.38,21.38,0,0,0-.15,5.24,17.34,17.34,0,0,0,1.07,4.66,14.11,14.11,0,0,0,2.92,4.82,13,13,0,0,0,2.49,2.08,20.55,20.55,0,0,0,3.48,1.66,15.39,15.39,0,0,0,4.22,1A12.26,12.26,0,0,0,67.56,77,11.85,11.85,0,0,0,71,75.44a13.51,13.51,0,0,0,2.47-2.11,15.16,15.16,0,0,0,2.59-4.06,15,15,0,0,0,1.22-4.75,13.37,13.37,0,0,0-.12-3.63,10.51,10.51,0,0,0-1.61-4.21,10,10,0,0,0-1.43-1.74,10.56,10.56,0,0,0-4.73-2.49,3.19,3.19,0,0,0-.6-.12,14,14,0,0,0-3.88.25,9.32,9.32,0,0,0-3.68,1.7,7.9,7.9,0,0,0-2.58,3.49,8.42,8.42,0,0,0,.27,7.14,6.17,6.17,0,0,0,5.92,3.6,5.72,5.72,0,0,1,.58,0,4.79,4.79,0,0,0,2.12-.31,5.12,5.12,0,0,0,2.76-2.71A4.8,4.8,0,0,0,70.72,63a2.86,2.86,0,0,0-2.48-2.62,8.23,8.23,0,0,0-1.57,0,2.33,2.33,0,0,0-1.36.51,1.65,1.65,0,0,0-.68,1.46,3.12,3.12,0,0,0,.48,1.39c.07.12.14.23.21.36A2.15,2.15,0,0,1,63.23,64a4,4,0,0,1-1.75-2.36,4.17,4.17,0,0,1,.92-4.23,5.4,5.4,0,0,1,2.1-1.45,9,9,0,0,1,2.64-.69,5.16,5.16,0,0,1,3.4,1,7.92,7.92,0,0,1,2.63,3.24,9,9,0,0,1,.88,3.64,9.53,9.53,0,0,1-1.29,5.44,10,10,0,0,1-2.5,2.88,13.5,13.5,0,0,1-4.33,2.23,2.54,2.54,0,0,1-.71.17,12.81,12.81,0,0,1-1.86-.09,10.4,10.4,0,0,1-4.85-2,13.16,13.16,0,0,1-2.88-3,14.55,14.55,0,0,1-1.72-3.38,17.47,17.47,0,0,1-1-4.29A13.8,13.8,0,0,1,53,57.36a14.61,14.61,0,0,1,3-7.16,14.43,14.43,0,0,1,2.86-2.77,17.92,17.92,0,0,1,3.26-1.88.66.66,0,0,1,.65,0,5.46,5.46,0,0,0,3.62.75,3,3,0,0,0,1.8-.92,2,2,0,0,0,.39-2.1,2.77,2.77,0,0,0-1.91-1.76,5.32,5.32,0,0,0-3.11.05,2.34,2.34,0,0,0-1.45.95,7.1,7.1,0,0,1-1.55-3l.18.15c.35-.3.7-.59,1-.9.94-.91,1.9-1.81,2.81-2.75a24.86,24.86,0,0,0,2.85-3.61,14.33,14.33,0,0,0,1.82-3.83A7.42,7.42,0,0,0,69.62,25a6.38,6.38,0,0,0-.68-2,2.58,2.58,0,0,0-1.79-1.35,3.47,3.47,0,0,0-1.47,0,6.6,6.6,0,0,0-2.05.81,13.11,13.11,0,0,0-2.75,2.23,14.78,14.78,0,0,0-2.6,3.63c-.27.53-.49,1.09-.73,1.65a11.39,11.39,0,0,0-.71,2.44,11.23,11.23,0,0,0,.24,4.79c.1.4.22.8.34,1.22l-1.76,1.14-2.93,1.88q-2.94,1.89-6,3.62c-1.13.65-2.27,1.28-3.45,1.81l-.4.17,0-.25c.08-.69.16-1.38.22-2.08a.78.78,0,0,1,.18-.46c.42-.45.83-.9,1.21-1.38a13.44,13.44,0,0,0,2.73-5.14,3,3,0,0,0-.11-2.14,2,2,0,0,0-1.86-1.2,3.08,3.08,0,0,0-2,.7A7.72,7.72,0,0,0,40.64,39a5,5,0,0,0-.25,2.19c0,.3.14.58.21.88l-1.27.87a5.84,5.84,0,0,1-1.85.88c-.71.17-1.43.3-2.15.4a2.43,2.43,0,0,1-.93,0,3,3,0,0,1-2.15-2.21,1.93,1.93,0,0,0,.31-.09,21.47,21.47,0,0,0,6.31-4.17,20.23,20.23,0,0,0,2.85-3.41,18,18,0,0,0,2.72-6.67A10.49,10.49,0,0,0,44.59,25a6.86,6.86,0,0,0-.78-2.9,3.51,3.51,0,0,0-2.11-1.83,2,2,0,0,0-1-.13,14.51,14.51,0,0,0-8,4.89,17.35,17.35,0,0,0-3.06,5.45,21,21,0,0,0-1.16,8.31c0,.09,0,.18,0,.34-.52-.24-1-.43-1.48-.66a6.46,6.46,0,0,1-3.33-3.84c-.16-.49-.35-1-.54-1.45a2.79,2.79,0,0,0-.72-1,.64.64,0,0,0-.52-.19,1,1,0,0,0-.76.37,3.39,3.39,0,0,0-.33.66,3.86,3.86,0,0,0-.09,1.69,7.33,7.33,0,0,0,.9,2.73A8.77,8.77,0,0,0,23.85,40a9.14,9.14,0,0,0,3.78,1.77.5.5,0,0,1,.41.34c.24.51.48,1,.73,1.51a10.31,10.31,0,0,0,1.8,2.58,7.67,7.67,0,0,0,.81.7,4.7,4.7,0,0,0,3.59.73A17.57,17.57,0,0,0,37.75,47L40,46.32c0,.13.07.24.09.35.1.6.09,1.21.15,1.81a10.84,10.84,0,0,1-.06,1.8c0,.39-.08.77-.12,1.16C40.05,51.54,40,51.63,39.92,51.66Z" fill="#fff"/><path d="M39.92,51.66c0,.29,0,.58-.06.86a53.09,53.09,0,0,1-1.08,6.15A38.08,38.08,0,0,1,36.3,66a17.74,17.74,0,0,1-2.89,4.47,9.22,9.22,0,0,1-3,2.25,7.57,7.57,0,0,1-2.35.63,5.71,5.71,0,0,1-1.89-.08,3,3,0,0,1-1.66-1.1,3.75,3.75,0,0,1-.76-1.92,8.78,8.78,0,0,1,.43-3.94,18.75,18.75,0,0,1,2.38-4.91,24.74,24.74,0,0,1,6.18-6.29,24.43,24.43,0,0,1,5.78-3c.47-.17.94-.31,1.41-.46Z" fill="#fff"/><path d="M31.8,37.91c0-.4.05-.75.08-1.09a20.63,20.63,0,0,1,1-4.46A19.16,19.16,0,0,1,35.5,27a9.89,9.89,0,0,1,2.77-2.62,7.23,7.23,0,0,1,1.56-.68A3.12,3.12,0,0,1,41.1,26a6.24,6.24,0,0,1-.51,2.89A13.39,13.39,0,0,1,38.83,32a21.86,21.86,0,0,1-2.66,3,16.85,16.85,0,0,1-2.94,2.25A9,9,0,0,1,31.8,37.91Z" fill="#fff"/><path d="M60.18,37.2a14.1,14.1,0,0,1,.73-6.27,10.93,10.93,0,0,1,3.19-4.84A8.57,8.57,0,0,1,65.74,25a.24.24,0,0,1,.33.06,1.93,1.93,0,0,1,.58,1.16A4.15,4.15,0,0,1,66.43,28,11.24,11.24,0,0,1,64.86,31a23.41,23.41,0,0,1-3.07,3.52,17,17,0,0,1-1.43,1.1.36.36,0,0,0-.18.33C60.19,36.34,60.18,36.77,60.18,37.2Z" fill="#fff"/><path d="M31.77,38l.13,2.75A9.13,9.13,0,0,1,31.7,38Z" fill="#fff"/></g></g></g></svg>