<?xml version="1.0" encoding="utf-8"?>
<!-- Generator: Adobe Illustrator 22.1.0, SVG Export Plug-In . SVG Version: 6.00 Build 0)  -->
<svg version="1.1" id="Layer_1" xmlns="http://www.w3.org/2000/svg" xmlns:xlink="http://www.w3.org/1999/xlink" x="0px" y="0px"
	 viewBox="0 0 486.6 79.4" style="enable-background:new 0 0 486.6 79.4;" xml:space="preserve">
<style type="text/css">
	.st0{fill:#FFFFFF;}
</style>
<title>MINDBODY_Logo_H_B2C_GrayRadiance</title>
<path class="st0" d="M77.6,51.3c-0.1,1-0.3,2-0.5,2.9c-0.7,2.5-1.7,5-2.8,7.3L74,62c0.2-0.7,0.3-1.2,0.4-1.6c0.7-1.5,1.2-3,1.7-4.6
	C76.7,54.4,77.2,52.9,77.6,51.3z M74.1,43.3c0,0.4,0,0.9,0,1.3v-0.3C74.1,44,74.1,43.6,74.1,43.3z M39.6,12.6c1.6,0,3.2,0.1,4.7,0.4
	c4.1,0.6,8.1,2.1,11.7,4.3c-2.5-1.7-5.2-3.1-8.1-4C45.2,12.5,42.4,12.3,39.6,12.6z M32,13.7c2.5-0.5,5.1-0.9,7.7-1.1
	c-2.4,0-4.7,0.3-7,0.8C32.4,13.5,32.2,13.6,32,13.7z M49.3,13.3c-2.2-0.7-4.5-1.1-6.8-1.1c4.3,0.4,8.6,1.7,12.4,3.8
	C53.2,14.9,51.3,14,49.3,13.3z M58.3,75.6c-0.9,0.5-1.8,1-2.8,1.5C56.5,76.6,57.5,76.1,58.3,75.6L58.3,75.6z M74.4,60.4
	C75.1,57.1,72.9,63.4,74.4,60.4z M43.3,0.9c2.1-0.1,4.3-0.1,6.4,0.2c-1.6-0.4-3.2-0.7-4.9-0.9c-3.1-0.3-6.2-0.2-9.3,0.2
	C38.1,0.3,40.7,0.5,43.3,0.9z M77,25.5c-0.3-1-0.8-1.9-1.2-2.8C72.8,16.6,68,11.5,62.2,8.1c0.4,0.3,0.7,0.5,1,0.8
	c1.3,1,2.6,2,3.8,3.2c-1.1-1.1-2.3-2.1-3.6-3l0.7,0.6c1.9,1.6,3.7,3.4,5.3,5.4c-0.5-0.4-1.2-1.1-1.8-1.8c0.4,0.5,0.9,1.1,1.3,1.7
	c3.1,3.4,5.7,7.3,7.6,11.4c1.5,3.4,1.8,4.2,2,3.6c0.1-1.3-0.2-2.6-0.7-3.8c-0.7-1.6-1.4-3.2-2.2-4.7C76.1,22.9,76.6,24.2,77,25.5z
	 M45.8,1.6H46C50.5,1.9,54.9,3,59,5c-4.8-2.4-10.1-3.6-15.4-3.8C44.3,1.3,45,1.5,45.8,1.6z M42.7,0.9c0.2,0,0.3,0,0.5,0
	c-0.4,0-0.8-0.1-1.2-0.1L42.7,0.9z M50.9,70.5c3.7-1.5,6.9-3.8,9.5-6.9c-1.5,1.5-3.1,2.9-4.9,4.1c0,0,0,0.1-0.4,0.2l0.4-0.2
	c0,0-0.1-0.1,0.1-0.2c-1.3,1-2.7,1.8-4.2,2.5L50.9,70.5z M66.1,28c-1.8-3.4-4.3-6.4-7.3-8.8c-0.9-0.7-1.8-1.3-2.7-1.9
	c3.7,2.5,6.7,5.9,9,9.7c3.9,6.4,5.3,14.1,3.9,21.5c-0.2,0.8-0.3,1.7-0.6,2.5c0.3-1,0.6-2,0.8-3c0.5-3.8,0.5-7.6,0-11.3
	c-0.1-1-0.2-2.1-0.4-3.1c-0.3-1-0.6-2-1-3c-2.3-6-6.7-11-12.3-14.3c-0.2-0.1-0.4-0.2-0.6-0.3C59.7,18.9,63.5,23.1,66.1,28z M68.4,28
	c-0.3-0.6-0.7-1.2-1-1.8c0.2,0.4,0.4,0.8,0.5,1.2c0.4,0.9,0.8,1.8,1.2,2.7C68.9,29.4,68.6,28.7,68.4,28z M70.3,35.8
	c-0.2-1.8-0.6-3.5-1.1-5.3c-0.2-0.7-0.5-1.3-0.8-1.9c0.8,2.2,1.4,4.4,1.8,6.7C70.2,35.5,70.2,35.7,70.3,35.8z M56.9,64.9
	c-0.6,0.3-1.1,0.6-1.7,0.9c4.7-2,8.7-5.2,11.5-9.3c-1.9,3.6-4.4,6.8-7.5,9.5c-0.9,0.9-2,1.6-2.7,2.3c-0.4,0.5-0.9,1-1.3,1.4
	c1.5-0.9,2.8-1.9,4.1-3.1c-0.1,0.2-0.1,0.2-0.1,0.2c1.7-1.4,3.3-3,4.6-4.8c-2.3,3.4-5.5,6.2-9.1,8.2c-0.2,0.2-0.3,0.3-0.4,0.5
	c3.9-2,7.3-4.8,10-8.2c0.1-0.2,0.2-0.4,0.3-0.6c1.9-3.4,3.2-7,4-10.8C66.5,56.9,62.3,61.8,56.9,64.9z M70.2,35.5
	c0.1,0.9,0.2,1.8,0.3,2.7c-0.1-0.7-0.1-1.4-0.2-2.2C70.2,35.9,70.2,35.7,70.2,35.5z M50.8,71l-0.4,0.2C50.8,71.1,50.8,71,50.8,71z
	 M25.9,5.2c1.5-0.5,2.8-0.9,4.1-1.3c-0.8,0.2-1.5,0.4-2.3,0.6S26.5,4.9,25.9,5.2z M42.6,12.2c-2.5-0.2-5-0.1-7.4,0.5
	C37.6,12.3,40.1,12.2,42.6,12.2z M46.1,3.5L46.1,3.5L46.1,3.5C46.1,3.5,46.1,3.5,46.1,3.5L46.1,3.5z M78.8,50.7
	c-0.7,3.4-1.9,6.6-3.4,9.6c2-4.5,3.2-9.3,3.6-14.2c0.6-4.4,0.3-8.9-1-13.1c-0.3-0.8-0.6-1.7-0.8-2.5c1.6,5,2.3,10.3,1.9,15.6
	c-0.4,2.9-1,5.7-2,8.4v-0.2c0.6-2.2,1.1-4.4,1.3-6.6c0.2-1.5,0.4-2.9,0.5-4.4c-0.1,0.4-0.2,0.8-0.2,1.2c0,1.1-0.1,2.1-0.2,3.2
	c-0.2,1.2-0.5,2.5-0.8,3.7c0-0.1,0-0.3,0-0.4c0-0.3,0.1-0.6,0.1-0.9c-1.4,6.8-4.6,13.1-9.2,18.3c2-2.2,3.7-4.6,5.2-7.1
	c-2,3.7-4.8,6.9-8,9.6c0.9-1,3-3,3.2-3.8c4.4-5.1,7.5-11.2,9-17.7c-0.1-1.1-0.4-2-0.7-1c-0.7,4.2-2.2,8.3-4.2,12.1
	c-1,2-2.3,4-3.7,5.7c-0.3,0.1,1.8-2.6,3.2-5.7c1-1.9,1.8-3.9,2.4-6l-0.9,2.2c0.2-0.7,0.4-1.4,0.6-2c0.5-1.5,0.9-3,1.2-4.5
	c0.4-2.8,0.6-5.6,0.5-8.5c0,1-0.1,2-0.2,3.1c0,0.1,0,0.2,0,0.2c0,5.2-2.3,11.6-4.1,15.4l-0.1,0.2C66.9,69,58.9,75.2,49.5,77.7
	c-0.4-0.2-0.8,0.1-0.6-0.2c8.5-2.4,16.7-8.6,20.7-15.7c0.8-1.5,1.6-3,2.2-4.6c0.9-2,1.5-4.1,2-6.2v-0.1V51l0,0
	c-0.1,0.3-0.2,0.6-0.3,0.9s-0.2,0.6-0.2,0.9l0,0c-0.4,1.5-0.9,3-1.5,4.4C67.6,66.8,59.4,74,49.3,76.8c0.2-0.1,0.4-0.1,0.7-0.3
	c4.4-1.4,8.5-3.8,11.8-7c-1.9,1.6-4,3.1-6.2,4.2c0,0-0.1-0.1,0.1-0.2c-1.6,1-3.4,1.8-5.2,2.5c0.5-0.4,0.9-0.4,1.5-0.8
	c0.8-0.5,2.5-1.5,3.7-2.3l0.3-0.2c-2.4,1.2-4.9,2-7.5,2.5l0.6-0.4c1.8-0.4,3.5-1,5.2-1.8c-0.2,0.1-0.2,0.2-0.1,0.2l-0.5,0.2
	c0.4-0.1,0.5-0.1,0.5-0.2c1.5-0.6,2.9-1.3,4.3-2.1c4.2-2.8,7.7-6.5,10.3-10.9c2.9-4.7,4.7-10,5.2-15.5c-0.1,2.1-0.4,4.2-0.8,6.2
	c0,0,0,0,0,0.1c0.5-2.2,0.8-4.4,0.8-6.7c0.1-0.9,0.1-1.8,0.1-2.6c-0.1-0.5-0.3-0.9-0.6-1.4c0.2,6.3-1.3,12.6-4.4,18.2
	c0.1-0.3,0.3-0.5,0.4-0.8c-0.1,0,1.1-2.7,1.9-5.5c0.5-1.8,0.8-3.7,1-5.6l-0.4,2c0-0.2,0-0.4,0-0.6c-0.3,1-0.6,2.1-0.9,3.2
	c-0.1,0.3-0.2,0.7-0.2,1v0.2c-1.1,3.1-2.6,6.1-4.4,8.8c-0.7,1.1-1.4,2.2-2.1,3.2c0.4-0.6,0.8-1.2,1.1-1.8c-2.9,3.9-6.7,7-11.1,9.1
	c-0.4-0.1-0.4-0.3-0.3-0.6c3.7-1.9,7-4.6,9.7-7.7c-0.2,0.3-0.4,0.6-0.6,1c0.3-0.4,0.6-0.9,0.9-1.3c1.9-2.3,3.5-4.8,4.7-7.6
	c0.2-0.6,0.4-1.3,0.6-1.9c-1,2.7-2.3,5.3-4,7.6c3.7-6,6.4-13.2,6.5-19.9c0.1-1.7,0-3.4-0.3-5.1c-0.1-0.6-0.2-1.2-0.2-1.8
	c-0.1-0.3-0.2-0.6-0.2-0.9c0.1,0.4,0.2,0.7,0.2,1.1c-1-4.8-3.1-9.3-6-13.2c-0.1-0.2-0.3-0.4-0.4-0.6c1.4,2.1,2.5,4.3,3.4,6.6
	c-0.3-0.5-0.6-0.9-0.9-1.4c0-0.1-0.1-0.2-0.1-0.3c-0.6-1.1-1.2-2.1-1.8-3.1c0.5,0.8,0.9,1.6,1.3,2.5c-0.2-0.3-0.5-0.7-0.4-0.4
	C64.9,22.7,63,20.4,62,20l-0.1-0.1c-0.2-0.2-0.3-0.3-0.5-0.5c-2.5-2.5-5.5-4.5-8.8-5.7c-1.2-0.5-2.3-1-3.6-1.4
	c0.8,0.3,2,0.8,2.8,1.1l0.8,0.3c2.9,1.3,5.6,3,8,5c0.2,0.2,0.6,0.4,0.8,0.6s0.3,0.3,0.5,0.5l0.2,0.1c0.9,0.8,1.7,1.8,2.5,2.7v-0.1
	l0.2,0.4c0.8,1,1.6,2.1,2.2,3.1c0.5,1.4,0.9,2.8,1.3,4.2C66,24.7,62,20,57,16.7c-3.5-2.3-7.5-3.8-11.6-4.6
	c-4.1-0.8-8.3-0.5-12.2,0.8l2-0.3c-0.9,0.2-1.7,0.5-2.5,0.8c-7.5,1.8-13.9,6.5-17.9,13.1c-1,2-1.7,4.1-2.2,6.3
	c1-3.2,2.6-6.2,4.7-8.8c-0.5,0.7-0.9,1.4-1.3,2.1c-0.6,1-1,2.1-1.4,3.2c2.3-5,6-9.2,10.8-11.9c-0.6,0.4-1.2,0.8-1.8,1.3
	c-6.9,5.5-10.8,14-10.4,22.9c0.2,1.8,0.6,3.5,1.2,5.2c1.4,4.3,3.7,8.3,6.8,11.6c-0.8-0.8-1.6-1.7-2.4-2.6c-2.4-3-4.3-6.5-5.3-10.2
	c1.5,5.4,4.4,10.4,8.5,14.3c-0.2-0.2-1.2-0.6-1.4-0.8c-2.3-2.1-4.3-4.5-5.9-7.2c1,2.1,2.2,4.1,3.7,5.9c-0.7-0.8-1.3-1.6-2-2.5
	c-1.7-2.4-3-5.1-3.8-8c0-0.2-0.1-0.4-0.2-0.6c1.2,4.6,3.4,8.9,6.6,12.5l-0.5-0.5c-4.2-4.4-6.8-10.1-7.3-16.1
	c-0.4-4.8,0.4-9.6,2.3-14c-0.9,1.8-1.6,3.7-2.1,5.6c-0.3,1.4-0.5,2.8-0.6,4.3c-0.2,1.5-0.2,3.1-0.1,4.7c0,0,0,0,0-0.1
	c0.4,6.4,3.1,12.5,7.6,17.1c2.1,2.2,4.5,4.1,7.1,5.6c1,0.6,0.9,0.8,1.6,1.2c0.4,0.2,0.8,0.4,1.1,0.7c0.2-0.1,0.4-0.3,0.4-0.6h1.2
	c-0.3-0.5-3.2-1.6-3.3-2.1c0.9-0.1,3.6,1.6,4.4,1.9c0.8,0.4,1.7,0.6,2.7,0.7c0-0.2,0.1-0.4,0-0.5c0.6,0,1,0.4,1.5,0.4
	c0-0.1,0-0.1,0-0.2c1.7,0.4,3.4,0.9,5,1.6c1.3,0.6,2.4,1.7,3.1,3c0,0,0.1-0.1,0.1-0.2c0.5,0.5,0.7,1.1,0.6,1.8
	c-0.3,1.2,0.5,1.3,0,2.3c-0.1,0.2-0.2,0.5-0.2,0.7h0.1h-0.1c-0.1,0.5-0.3,1-0.7,1.3c-0.2,0.2-0.5,0.4-0.7,0.5l0.1,0.1
	c0.3,0.2-0.1,0.4-0.9,0.5c-0.3,0.2-0.7,0.2-1,0.3c-0.8,0.1-3.4,0-4.3,0.1S34.2,79,33.4,79c-1-0.1-2-0.3-3-0.6
	c-1.1-0.3-2.2-0.7-3.3-1.2c-0.6-0.3-1.1-0.6-1.5-1h0l-10.8-4.7C5.6,64.3-0.3,52.3,0,40.7c-0.1-10,3.4-19.8,9.8-27.5
	c-1.8,2.6-3.3,5.4-4.4,8.4c-0.1,0.2-0.2,0.5-0.3,0.8c2.7-6,6.9-11.2,12.2-15c-3.7,2.7-6.8,6.1-9.1,10.1c-0.7,1.1-1.3,2.3-1.8,3.5
	c2.4-4.7,6-8.1,10.2-11.4l0.1-0.1c0.4-0.2,0.8-0.5,1.2-0.8c-5.7,4.1-10,9.9-12.1,16.6c-0.1,0.2-0.2,0.5-0.2,0.8
	c2.3-6.2,6.2-11.6,11.2-15.8c-3.5,3-6.3,6.6-8.4,10.6c-0.6,1.2-1.1,2.4-1.6,3.6c2.1-4.9,5.2-9.2,9.1-12.8c2.5-2.4,5.4-4.4,8.6-5.9
	c0.9-0.3,2-0.6,3-0.9c3.6-1.2,7.3-1.9,11.1-2c-2.9,0-5.8,0.3-8.6,0.9c0.6-0.2,1.2-0.4,1.8-0.5c-0.5,0.1-0.9,0.1-1.4,0.2
	c3-0.9,6.2-1.4,9.4-1.4c1,0,2,0,3,0.1c-8.2-0.9-16.6,1.1-23.5,5.6C19,8,18.7,8.2,18.4,8.4c-0.5,0.3-1.1,0.7-1.6,1
	C22.5,4.6,29.6,1.6,37,0.8c1.6,0,3.2,0.1,4.8,0.2c-0.3,0-0.6,0.1-0.9,0.1s-0.5,0.1-0.8,0.1c0.8-0.1,1.7-0.1,2.6-0.1s2,0.3,3,0.5
	c-1.2,0-2.4,0-3.7,0.1c3.3,0,6.6,0.6,9.7,1.7c-3.9-0.9-7.9-1.1-11.9-0.7H39h0.4l-0.6,0.1L38,2.8c0.7-0.1,1.4-0.1,2.1-0.1
	s1.4,0.1,2.1,0.2c2.4,0.1,4.7,0.4,7,1c-1.7-0.4-3.4-0.8-5.1-1c4.5,0.4,8.9,1.7,12.9,3.6c-3.4-1.6-7-2.7-10.8-3.2c0,0-0.1,0-0.1,0
	h-0.2c-0.9-0.1-1.8-0.2-2.7-0.3l1.4,0.2h-0.8l-1.1-0.2C41.4,3,40,3,38.7,3c-3.1,0.2-6.1,0.7-9.1,1.5c1.9-0.5,3.8-0.8,5.7-0.9
	c1.7-0.2,3.4-0.2,5-0.2h-0.4c1.8,0,3.5,0.1,5.3,0.5c-2.1-0.1-4.3-0.1-6.4,0.1c0.4-0.1,0.4-0.3,0-0.5c-4.4,0.3-8.8,1.2-13,2.8L25,6.4
	c3.8-1.3,7.8-2.1,11.9-2.2c0.4,0,0.8-0.1,1.1-0.1c6.1-0.2,12.2,1.1,17.7,3.8c-4.1-2-8.6-3.1-13.2-3.4c-1.3-0.1-2.7,0-4,0.1
	c5.3-0.1,10,1.5,14.8,3.7c6.2,2.5,11.6,6.6,15.8,11.8l-0.4-0.4c1.1,1.4,2.1,2.9,3,4.5c0.2,0.4,0.5,0.9,0.7,1.3
	c0.4,0.9,0.9,1.8,1.2,2.8c-0.2-0.6-0.4-1.2-0.6-1.8c2,4.2,2.8,9.2,3.5,13.3h0.2l-0.1-0.5c0-1.6-0.2-3.2-0.4-4.8l0.1,0.3l-0.1-0.5
	c-0.2-1.1-0.4-2.2-0.8-3.2l-0.4-1.1c0,0.2,0.1,0.3,0.1,0.5c0.4,1.3,0.8,2.6,1.1,3.9v0.2c-0.2-0.7-0.4-1.5-0.7-2.3
	c0.1,0.5,0.2,1,0.3,1.6c-0.2-0.6-0.4-1.2-0.6-1.8c-0.3-1.1-0.6-2.2-1-3.2c-0.8-2-1.7-3.9-2.8-5.7l0,0c0.7,1.2,1.4,2.4,2,3.6
	c-0.3-0.7-0.6-1.4-0.9-2.1c-0.6-1-1.2-2-1.8-3c-1.4-2.7-3.1-5.3-5-7.6c3.3,2.9,6.1,6.5,8,10.4c0.4,0.9,0.9,1.8,1.2,2.8
	c-1.3-4.2-3.3-8.2-5.8-11.8c1.9,2.2,3.6,4.7,5,7.2c-0.6-1-1.3-2-1.8-3l-0.1-0.1c0.3,0.5,0.6,1,0.8,1.5
	C78.7,29.7,80.8,40.4,78.8,50.7z M1.4,43.7L1.4,43.7c0-0.3-0.1-0.4-0.1-0.6C1.3,43.3,1.3,43.5,1.4,43.7z M4,27.5
	c-0.9,2.4-1.7,4.8-2.3,7.3c-0.4,1.9-0.6,3.8-0.6,5.7c0,0.2,0.1,0.4,0.2,0.6c0-0.2,0-0.3,0-0.5c0,0.1,0.1,0.2,0.1,0.3
	c0.1-2.7,0.4-5.3,1-7.9c0.1-0.3,0.1-0.7,0.2-1C2.9,30.5,3.4,29,4,27.5z M18.6,64.1c1.8,1.7,3.8,3.1,6,4.2h0.3
	C22.6,67.1,20.5,65.7,18.6,64.1z M17.5,68.1c0.8,0.4,1.5,0.8,2.2,1.2l0,0l-1.3-0.9C18.4,68.4,17.5,68.1,17.5,68.1L17.5,68.1z
	 M13,54.4L13,54.4L13,54.4L13,54.4z M12.9,36.5c0.1-1,0.3-1.9,0.5-2.9c-0.2,0.7-0.3,1.3-0.4,2C12.9,35.9,12.9,36.2,12.9,36.5z
	 M12.8,15.1c1.3-1.2,2.6-2.3,4-3.3c0.2-0.2,0.4-0.3,0.6-0.5c2.9-2.2,6.2-3.9,9.7-5.1c1.2-0.4,2.5-0.8,3.8-1.1c-4.6,0.9-9,2.7-13,5.3
	l0.5-0.4c-0.4,0.2-0.7,0.5-1,0.7s-0.9,0.6-1.3,0.9s-0.8,0.7-1.1,1c-0.7,0.7-1.4,1.4-2,2.2L12.8,15.1z M28,12.5
	c-3.6,1.6-6.9,3.9-9.8,6.6c-0.9,1-1.8,2.1-2.6,3.2c-1,1.3-1.9,2.7-2.6,4.2c0.2-0.3,0.5-0.7,0.8-1c-1.6,2.4-1.9,4.1-3,6.7
	c0.1,0.3,0.1,0.6,0,0.8c-1.1,3.6-1.4,7.5-0.9,11.2c0,0.4,0.3,1.2,0.5,2c0.2,0.9,0.4,1.9,0.7,2.8v-0.1c-0.2-0.8-0.4-1.5-0.5-2.3
	c-0.6-2.5-0.8-5-0.6-7.5c0.4-5.8,2.4-11.5,5.8-16.2c0.7-1,1.5-2,2.3-2.9c2.5-2.9,6.5-5.2,8.6-6.6C26.9,13,27.7,12.7,28,12.5L28,12.5
	z M12.2,21.8C12.2,21.8,12.2,21.8,12.2,21.8l-0.1,0.1L12.2,21.8z M41.8,4.8c-7.4-0.8-14.9,0.9-21.1,5c-5.7,3.7-10,9.3-12.1,15.8
	c-0.1,0.2-0.1,0.5-0.2,0.7c2-5.5,5.5-10.4,10-14.1c-3.1,2.7-5.7,5.9-7.6,9.6c-0.5,1.1-1,2.1-1.4,3.3c1.8-4.4,4.6-8.3,8.1-11.5
	C23.4,8,31.1,4.9,39,4.8C39.9,4.8,40.9,4.7,41.8,4.8z M63.4,18.7c1.1,1.1,2.2,2.2,3.2,3.4c0.9,1,1.7,2.1,2.4,3.2
	c-1.3-2-2.7-3.9-4.3-5.6c1.7,1.8,3.2,3.7,4.6,5.7L69.1,25c-3.5-5.5-8.4-10.1-14.2-13.2c0,0,0.1,0,0.1,0.1c3.6,2,6.9,4.6,9.7,7.7
	c-1.6-1.6-3.2-3.2-5-4.6c-0.9-0.7-1.9-1.4-2.9-1.9C59.1,14.7,61.4,16.6,63.4,18.7c-2.6-2.4-5.4-4.4-8.4-6.1l0,0
	c4.1,2.4,7.8,5.5,10.9,9.2c0.9,1.1,1.7,2.2,2.4,3.3l-0.2-0.5C66.7,22.5,65.1,20.5,63.4,18.7z M70.3,30.2c-0.2-0.5-0.3-1.1-0.5-1.6
	c-0.6-1.4-1.3-2.7-2.1-4c0.2,0.4,0.5,0.8,0.7,1.3s0.5,1,0.7,1.5C69.5,28.2,69.9,29.2,70.3,30.2z M72.9,52.3c0-0.1,0-0.3,0-0.4
	c-0.6,2.6-1.6,5.1-2.8,7.5C71.3,57.1,72.3,54.7,72.9,52.3L72.9,52.3z M73.2,52.7L73.1,53c-0.1,0.5-0.3,1.1-0.6,1.6
	c0.3-0.5,0.5-1.1,0.7-1.7C73.2,52.8,73.2,52.8,73.2,52.7L73.2,52.7z M73.6,51.7L73.6,51.7C73.6,51.8,73.6,51.8,73.6,51.7
	C73.6,51.8,73.6,51.7,73.6,51.7L73.6,51.7z M73.2,30.9c-0.3-0.9-0.7-1.8-1.1-2.7C72.5,29.1,72.9,30,73.2,30.9L73.2,30.9z M74.6,44.6
	c0,0.3-0.1,0.6-0.1,0.9c-0.1,1.2-0.2,2.3-0.4,3.4c0.1-0.4,0.2-0.8,0.2-1.1C74.5,46.7,74.6,45.6,74.6,44.6L74.6,44.6z M76.1,40.9
	c0-0.9-0.1-1.7-0.3-2.6c-0.5-2.8-1.4-5.6-2.6-8.2c-0.1,0-0.1-0.1-0.2-0.3c0.3,0.9,0.7,1.9,0.9,2.9c-0.2-0.9-0.5-1.7-0.8-2.6
	c1.8,4.5,2.7,9.3,2.7,14.1C76,43.1,76.1,42,76.1,40.9L76.1,40.9z M77.9,34.7c0.2,1,0.3,2.1,0.4,3.1c0.2,1.3,0.3,2.6,0.3,3.9
	c0,0.1,0,0.2,0,0.3c0.1-1.3,0.1-2.7,0-4c-0.1-0.7-0.2-1.4-0.4-2.1C78.1,35.5,78,35,77.9,34.7L77.9,34.7z"/>
<path class="st0" d="M281.8,15.3h20.8c8,0,16.3,3.7,16.3,13.4c0,6-3.8,10-9.2,11.7v0.2c6.6,0.6,11.7,6.2,11.6,12.9
	c0,11.6-10.1,15.2-20.2,15.2h-19.2V15.3z M291.3,37h8.7c6.3,0,9.5-2.7,9.5-6.7c0-4.6-3.2-6.9-10.3-6.9h-7.8V37z M291.3,60.4h8.7
	c4.9,0,11.7-0.8,11.7-7.8c0-5.6-3.6-7.5-11.3-7.5h-9.1L291.3,60.4z"/>
<path class="st0" d="M352.9,13.9c16.6-0.3,28.4,10.8,28.4,27.9c0,16.6-11.7,27.8-28.4,28.1c-16.4,0-28.1-11.2-28.1-27.8
	C324.7,25.1,336.5,13.9,352.9,13.9z M352.9,61.4c11.1,0,18.4-8.4,18.4-19.8c0-10.6-7.3-19-18.4-19s-18.3,8.4-18.3,19
	C334.6,52.9,342,61.4,352.9,61.4L352.9,61.4z"/>
<path class="st0" d="M387.2,15.3h21c14,0,27.1,8.6,27.1,26.6c0,18.2-15.4,26.6-28.2,26.6h-19.9V15.3z M403.8,60
	c11.9,0,21.6-5.1,21.6-18.1s-8.4-18.1-20-18.1h-8.6V60H403.8z"/>
<path class="st0" d="M452.9,45.8l-20-30.5h11.9l13.1,21.2l13.2-21.2h11.3l-20,30.5v22.8h-9.5L452.9,45.8z"/>
<path class="st0" d="M95.4,15.3h9.4l18,41.8h0.2l18.2-41.8h9.2v53.3H144V23.9h-0.1l-19.1,44.7h-3.8l-19-44.7h-0.1v44.7h-6.3
	L95.4,15.3z"/>
<path class="st0" d="M159.1,15.3h6.3v53.3h-6.3V15.3z"/>
<path class="st0" d="M174.2,15.3h8l30.9,44.2h0.1V15.3h6.3v53.3h-8l-30.9-44.2h-0.1v44.2h-6.3L174.2,15.3z"/>
<path class="st0" d="M228.8,15.3h20.5c10.5,0,26.1,7,26.1,26.6s-15.7,26.6-26.1,26.6h-20.5V15.3z M235.1,62.7h12
	c12.2,0,21.5-6.2,21.5-20.8s-9.2-20.7-21.4-20.7h-12L235.1,62.7z"/>
<path class="st0" d="M471.5,61.7c0.4-0.9,1-1.8,1.7-2.5c3.1-3,7.9-3,11,0c0.7,0.7,1.3,1.5,1.7,2.5c0.4,1,0.6,2,0.6,3.1
	c0,1.1-0.2,2.1-0.6,3.1c-0.4,0.9-1,1.8-1.7,2.5c-0.7,0.7-1.5,1.3-2.4,1.6c-1.9,0.8-4.1,0.8-6.1,0c-0.9-0.4-1.8-0.9-2.5-1.6
	c-0.7-0.7-1.3-1.6-1.7-2.5c-0.4-1-0.6-2-0.6-3.1C470.9,63.7,471.1,62.6,471.5,61.7z M472.8,67.4c0.3,0.8,0.8,1.5,1.4,2.1
	c0.6,0.6,1.2,1.1,2,1.4c0.8,0.3,1.7,0.5,2.5,0.5c0.9,0,1.7-0.2,2.5-0.5c0.8-0.3,1.4-0.8,2-1.4c0.6-0.6,1-1.3,1.4-2.1
	c0.3-0.8,0.5-1.7,0.5-2.7c0-0.9-0.2-1.8-0.5-2.6c-0.3-0.8-0.8-1.5-1.4-2.1c-0.6-0.6-1.3-1.1-2-1.4c-0.8-0.3-1.7-0.5-2.5-0.5
	c-2.6,0-5,1.6-5.9,4.1c-0.3,0.8-0.5,1.7-0.5,2.6C472.3,65.7,472.5,66.6,472.8,67.4z M479.2,60.2c0.9-0.1,1.7,0.2,2.4,0.6
	c0.6,0.5,0.8,1.2,0.8,2c0.1,0.7-0.2,1.3-0.7,1.8c-0.5,0.4-1.1,0.6-1.7,0.7l2.6,4h-1.5l-2.5-3.9h-1.5v3.9h-1.4v-9.1H479.2z
	 M478.6,64.2c0.3,0,0.6,0,0.9,0c0.3,0,0.5-0.1,0.8-0.2c0.2-0.1,0.4-0.2,0.5-0.4c0.1-0.3,0.2-0.6,0.2-0.8c0-0.3,0-0.5-0.2-0.7
	c-0.1-0.2-0.3-0.3-0.5-0.4c-0.2-0.1-0.4-0.2-0.6-0.2c-0.2,0-0.5-0.1-0.7-0.1h-1.9v2.9L478.6,64.2z"/>
</svg>
