<svg xmlns="http://www.w3.org/2000/svg" viewBox="0 0 220.52 77.16"><title>OCOB</title><g id="Layer_2" data-name="Layer 2"><g id="Layer_1-2" data-name="Layer 1"><path d="M23.19,0l8,2.16c.21,2.48.43,4.89.59,7.29,0,.27-.34.8-.51.79a3,3,0,0,1-1.17-.45c-.06,0,0-.22-.07-.33-1.13-4.86-4-7.21-9-7.37C13.4,1.85,7.74,6.46,6.37,14.25c-1.11,6.34.33,12.06,5,16.65a12.82,12.82,0,0,0,13.5,3.21,9.68,9.68,0,0,0,6-5.56c.32-.67.67-1,1.42-.8s.53.88.36,1.36q-1,2.87-2.08,5.69a1.46,1.46,0,0,1-.85.84c-6.35,1.5-12.74,2.09-19-.29A16.83,16.83,0,0,1,0,19.61C-.06,9.42,6.69,1.64,16.81.24A5.56,5.56,0,0,0,17.57,0Z" fill="#fff"/><path d="M220.52,9.84a5.05,5.05,0,0,1-1.21.4,5,5,0,0,0-4.12,2.86c-1.87,3.15-3.81,6.26-5.74,9.37a8.24,8.24,0,0,0-1.31,4.88c.08,1.64,0,3.28.14,4.91s.61,2,2.1,2.19a9.29,9.29,0,0,1,1.84.28,1.31,1.31,0,0,1,.7.91c0,.19-.52.67-.81.67q-6.37.06-12.75,0c-.29,0-.82-.47-.8-.66a1.31,1.31,0,0,1,.68-.92,19.61,19.61,0,0,1,2.41-.43,1.75,1.75,0,0,0,1.54-1.79c.21-3.75.32-7.42-1.92-10.81a87.59,87.59,0,0,1-4.57-8.42c-.88-1.71-2-2.92-4.07-3.06-.62,0-1.29-.2-1.14-1.11s.82-.65,1.37-.65c3.16,0,6.32,0,9.48,0,.56,0,1.13-.09,1.25.67s-.38.91-1,1.06c-1.68.45-1.84.73-1.08,2.23,1.68,3.34,3.42,6.64,5.21,10.09a5.8,5.8,0,0,0,.58-.73c1.76-3.17,3.53-6.33,5.26-9.51.81-1.5.66-1.74-1-2.05-.31-.06-.68,0-.9-.2a1.17,1.17,0,0,1-.43-.84c0-.26.39-.69.6-.69,3.11,0,6.22,0,9.33.06.1,0,.21.09.31.14Z" fill="#fff"/><path d="M113.42,21.3a4,4,0,0,1,1.1-.57c1.45-.26,3-.27,4.37-.67,3.48-1,5.31-3.66,5.5-7.69.27-5.83-2.86-9.3-8.7-9.61a20.14,20.14,0,0,0-2.8.05,1.7,1.7,0,0,0-1.82,2q0,12.48,0,25a9.43,9.43,0,0,0,.07,1.06c.32,2.88,1.11,3.6,4,3.7.46,0,.92.13,1.39.14.62,0,.92.23.88.91s-.48.75-1,.75c-3.78-.06-7.57-.12-11.35-.15-1,0-2,.06-3,.12-.54,0-1,.07-1.07-.68s.33-.93,1-1,1.38-.21,2.08-.31a2.21,2.21,0,0,0,1.93-2.05,20.28,20.28,0,0,0,.24-2.91q0-10.89,0-21.79A19.77,19.77,0,0,0,106,5c-.2-1.53-.72-2-2.26-2.16a5.76,5.76,0,0,1-1.39-.2c-.32-.12-.55-.48-.82-.74.29-.24.57-.67.88-.69,2-.19,4.12-.35,6.18-.4,4.37-.12,8.76-.18,13,1.15,3.85,1.21,6.83,3.47,8,7.53a9.47,9.47,0,0,1-7.06,11.78c-2.54.62-5.25.51-7.88.7a3.55,3.55,0,0,1-1-.2Z" fill="#fff"/><path d="M148.43,7.53c5.12.21,9.6,1.69,12.65,6,5.49,7.82,2.6,21.25-9.81,23.23-4.79.76-9.39.09-13.28-3-4.73-3.79-6-8.93-4.78-14.63s4.95-9.25,10.51-10.83A40.9,40.9,0,0,1,148.43,7.53Zm9.84,15.71a16.43,16.43,0,0,0-3-9.91,9.2,9.2,0,0,0-15.9,1.86,16.12,16.12,0,0,0-1.15,7.91,14.71,14.71,0,0,0,3.63,9.17,9.25,9.25,0,0,0,14.53-1.4A14.09,14.09,0,0,0,158.27,23.24Z" fill="#fff"/><path d="M47.57,26.29c-.89,0-1.8.06-2.69,0A2.09,2.09,0,0,0,42.39,28c-.44,1.53-1.07,3-1.56,4.52-.42,1.3-.16,1.65,1.17,1.94.73.16,1.91-.09,1.71,1.18s-1.25.61-1.94.63c-2.41,0-4.83,0-7.24.06-.59,0-1.24,0-1.15-.73a1.44,1.44,0,0,1,.95-1,5.08,5.08,0,0,0,4.38-3.69c2.27-6.05,4.58-12.09,6.84-18.15.56-1.48.4-1.7-1.15-2.23-.25-.09-.62-.07-.76-.24A2.4,2.4,0,0,1,43,9c0-.21.62-.68,1-.68,1.95,0,3.89.1,5.84.1.89,0,1.09.56,1.32,1.21q2.79,7.93,5.59,15.86c.69,1.94,1.48,3.85,2.14,5.81a4.15,4.15,0,0,0,3.73,3.2.79.79,0,0,1,.44.13c.27.32.63.65.66,1s-.55.63-.87.64c-1.2,0-2.41-.14-3.62-.13-2.1,0-4.21.09-6.31.15-.54,0-1,0-1.09-.7s.26-.86.85-1c2.34-.53,2.34-.55,1.49-2.87-.5-1.39-1.07-2.76-1.52-4.17a1.68,1.68,0,0,0-1.83-1.27C49.68,26.31,48.63,26.29,47.57,26.29Zm.07-12-.46,0C46.11,17.22,45,20.15,44,23.11c-.29.84.37,1.06,1.08,1.06h4.79c1.2,0,1.38-.24,1-1.4-.6-1.72-1.25-3.43-1.89-5.14C48.5,16.52,48.07,15.41,47.64,14.3Z" fill="#fff"/><path d="M186.33,36.31H169.71c-.51,0-1.13.2-1.25-.65s.53-1,1.14-1.11c3-.61,3.2-.6,3.25-3.66.09-6,0-12-.08-18,0-1.8-.61-2.27-2.4-2.57a3.16,3.16,0,0,1-1.13-.23c-.33-.19-.52-.6-.77-.92.31-.24.62-.68.94-.69,1.44,0,2.89.07,4.33.07,2.34,0,4.69-.08,7,0,.35,0,.69.39,1,.6-.26.35-.47.95-.79,1-2.71.61-3.25.63-3.23,4.5,0,5,0,10.08,0,15.11,0,3.88.66,4.53,4.58,4.54l2.11,0A5.76,5.76,0,0,0,190,30.72a5.22,5.22,0,0,1,.63-1.37,1.84,1.84,0,0,1,1.24-.47c.18,0,.54.66.48.95-.39,1.82-.87,3.63-1.33,5.44a1.21,1.21,0,0,1-1.49,1.07A30.07,30.07,0,0,0,186.33,36.31Z" fill="#fff"/><path d="M72.73,8.4c1.83,0,3.67,0,5.5,0a1.5,1.5,0,0,1,1.14.6c.27.7-.25,1-.92,1.14-2.87.76-3,1-3,4,0,5.35,0,10.7,0,16.05a14.66,14.66,0,0,0,.19,1.86A2,2,0,0,0,77.56,34a39.88,39.88,0,0,0,6.28-.06c1.89-.22,3-1.7,3.79-3.35a7.45,7.45,0,0,1,.63-1.37,1.31,1.31,0,0,1,1.06-.42,1.08,1.08,0,0,1,.6.89c-.46,2-1,4.08-1.58,6.09-.09.27-.79.52-1.21.52-5.31,0-10.62-.1-15.93-.13-1.36,0-2.72.08-4.09.15-.58,0-1.12-.08-1-.76a1.68,1.68,0,0,1,.86-1,6.4,6.4,0,0,1,1.6-.32,1.89,1.89,0,0,0,1.76-1.86c.07-.82.18-1.63.18-2.45,0-5.16,0-10.31,0-15.47V14c-.08-3-.37-3.33-3.31-3.91a1.81,1.81,0,0,1-1-.4c-.46-.57,0-1.31.78-1.31h5.74Z" fill="#fff"/><path d="M216.56,48.08c-.37.4-.53.7-.76.78a2.61,2.61,0,0,1-.93,0q-105.43,0-210.87,0c-.5,0-1.42.47-1.41-.79Z" fill="#fff"/><path d="M150.05,72.3c.15-1.44.36-2.61.39-3.79.06-2.19,0-4.37,0-6.56,0-.7,0-1.36-1-1.32-.16,0-.34-.31-.51-.47.2-.12.4-.35.6-.36,2.07,0,4.14-.06,6.21,0a2.41,2.41,0,0,1,2.4,1.72A2.76,2.76,0,0,1,157,64.63c-.21.16-.43.3-.67.47,2.11,1,2.74,2,2.49,3.62a4.36,4.36,0,0,1-3.8,3.45,9.28,9.28,0,0,1-1.17.12C152.52,72.31,151.16,72.3,150.05,72.3Zm2.32-6.46c0,1.67,0,3.19,0,4.69,0,.26.46.6.77.71a2.83,2.83,0,0,0,1.16,0,2.65,2.65,0,0,0,2.46-2.87,2.38,2.38,0,0,0-2.48-2.53C153.7,65.81,153.08,65.84,152.37,65.84Zm-.06-.93a10.77,10.77,0,0,0,1.41,0,5.32,5.32,0,0,0,1.45-.36,1.94,1.94,0,0,0,1.07-2.13,1.63,1.63,0,0,0-1.37-1.52c-2-.53-2.49-.22-2.55,1.8C152.29,63.39,152.31,64.08,152.31,64.91Z" fill="#fff"/><path d="M10.19,59.54c4,0,6.45,2.41,6.42,6.26a6.79,6.79,0,0,1-7,6.76c-3.82,0-6.33-2.62-6.3-6.58S6.09,59.52,10.19,59.54Zm-5.09,6a26.8,26.8,0,0,0,1.39,3.89,4,4,0,0,0,4.39,2,3.82,3.82,0,0,0,3.32-3,9.58,9.58,0,0,0,.3-2.77c-.16-3.21-2.11-5.21-4.89-5.13S5.35,62.46,5.1,65.56Z" fill="#fff"/><path d="M108.29,72.3c-1-1.32-.93-1.56.26-2.63a13.24,13.24,0,0,1-1.38-2.54,2.73,2.73,0,0,1,.47-1.85c.74-1.21,3-1.88,4.54-1.48,1.21.33,2.43.63,3.72,1,0,.92-.91.8-1.65.84-.58,3-.86,3.3-4,4-.34.08-.6.5-.89.76.29.2.56.54.86.57a20,20,0,0,0,2.45,0c2.32-.1,3.5,1.56,2.48,3.65a5.08,5.08,0,0,1-1.6,1.79A5.9,5.9,0,0,1,109,77a2.6,2.6,0,0,1-2.23-2.26A2.09,2.09,0,0,1,108.29,72.3Zm3.06.1c-.35,0-.7,0-1,0a1.89,1.89,0,0,0-.56,3.72,5.9,5.9,0,0,0,2.7-.21,2.17,2.17,0,0,0,1.41-2.42c-.3-1.17-1.22-1.13-2.15-1.09Zm-.79-7.77c-1,0-1.63.63-1.65,1.8,0,1.38.7,2.28,1.8,2.25a1.73,1.73,0,0,0,1.71-1.83A2,2,0,0,0,110.56,64.63Z" fill="#fff"/><path d="M77.69,70.64c-.42.44-.7,1-1.14,1.16a8.61,8.61,0,0,1-7.13,0,6.26,6.26,0,0,1-3.54-6.65,6.36,6.36,0,0,1,5-5.38,11.73,11.73,0,0,1,6.57.56c-.12.76-.22,1.51-.38,2.25,0,.21-.26.39-.39.58-.16-.18-.45-.38-.44-.54.13-1.57-1-1.89-2.12-2.1-3.33-.6-5.64,1.11-6.08,4.48A5.29,5.29,0,0,0,73,71.24,31.89,31.89,0,0,0,77.69,70.64Z" fill="#fff"/><path d="M165.27,64.64l3.26-.9v2.08c0,1.48,0,3,0,4.44,0,.72,0,1.36,1,1.28.12,0,.27.32.51.64h-3.31l-.18-.94c-.14.06-.28.09-.41.16a6.88,6.88,0,0,1-1.9,1c-2.22.34-3.3-.73-3.21-3,0-.81.05-1.63.05-2.44,0-1,.12-2.06-1.61-1.84l.13-.44,3.23-.93V68c0,.39,0,.78,0,1.17,0,1.33.51,1.92,1.51,2a2.19,2.19,0,0,0,2.3-1.88,13.62,13.62,0,0,0,.09-2.21C166.65,65.47,166.62,65.48,165.27,64.64Z" fill="#fff"/><path d="M187.56,71.44c-.42.86-1.59,1-4.73.69.26-.28.43-.6.58-.59.94.06,1-.53,1-1.21,0-1.2,0-2.41.05-3.62,0-.94,0-1.79-1.35-1.54.1-.62.1-.62,2.9-1.4l.13,1a13.28,13.28,0,0,1,2.95-.93,2.33,2.33,0,0,1,2.62,2.47c.06,1.29,0,2.57.05,3.86,0,.7-.06,1.47,1,1.41.13,0,.28.31.55.63H190c0-1.64,0-3.23,0-4.81s-.61-2.24-1.9-2.23-2,.74-2.05,2.27c0,.9.05,1.79,0,2.69S186.1,71.83,187.56,71.44Z" fill="#fff"/><path d="M82.85,63.71A4,4,0,0,1,87.08,68a4.67,4.67,0,0,1-4.73,4.62c-2.36,0-4.08-1.88-4-4.47A4.31,4.31,0,0,1,82.85,63.71Zm2.44,4.74a20.35,20.35,0,0,0-.92-2.83,2,2,0,0,0-2.27-1.05,2,2,0,0,0-1.72,1.81,9.89,9.89,0,0,0,0,2.55c.26,1.71,1.45,2.88,2.67,2.78S85.11,70.46,85.29,68.45Z" fill="#fff"/><path d="M35.43,72.2l-.07-1a.9.9,0,0,0-.31.06,8.93,8.93,0,0,1-2,1.14,2.07,2.07,0,0,1-2.66-1.46,2.6,2.6,0,0,1,1.53-3.15,11.93,11.93,0,0,1,1.68-.47c.56-.13,1.13-.23,1.73-.35A1.56,1.56,0,0,0,34.09,65c-.8-.21-1.62-.25-2.12.7-.13.25-.52.37-.8.55,0-.47-.17-1.06,0-1.37.69-1,2.93-1.39,4.22-.91s1.77,1.32,1.72,3.08c0,.9-.08,1.79-.09,2.68s-.25,1.78,1,1.92c0,0,.07.27.1.39s-.16.16-.22.16Zm-.13-4.45a15,15,0,0,0-2.37.73,1.4,1.4,0,0,0-.72,2c.4.9,1.19.75,1.9.49C35.32,70.46,35.52,69.9,35.3,67.75Z" fill="#fff"/><path d="M133.87,63.71a3.92,3.92,0,0,1,4.2,4.24,4.57,4.57,0,0,1-4.67,4.64c-2.38,0-4-1.82-4-4.46A4.24,4.24,0,0,1,133.87,63.71Zm2.29,4.82.19,0a27.36,27.36,0,0,0-.88-2.74,2,2,0,0,0-2.21-1.19,1.85,1.85,0,0,0-1.8,1.7,10.8,10.8,0,0,0,.08,3.11,2.6,2.6,0,0,0,2.64,2.33c1.21-.18,1.95-1.28,2-2.92A1.92,1.92,0,0,0,136.16,68.53Z" fill="#fff"/><path d="M60.61,72.14H57.92L57.73,71c-.46.32-.84.56-1.2.84a2.44,2.44,0,0,1-2.83.22,2,2,0,0,1-1-2.21,2.34,2.34,0,0,1,1.69-2.16c1.07-.32,2.16-.56,3.25-.84.11-1.29-.49-2.12-1.73-1.93a8.21,8.21,0,0,0-2.37,1.25c-.29-1.31.57-2.23,2.34-2.44,2.11-.24,3.86.7,3.6,3.18a18.21,18.21,0,0,0,0,2.45c0,.94-.34,2.06,1.1,2.33A2.43,2.43,0,0,1,60.61,72.14Zm-2.94-4.39a22.32,22.32,0,0,0-2.29.69,1.58,1.58,0,0,0-.73,2.08c.46.77,1.19.66,1.86.4C57.78,70.43,58,69.76,57.67,67.75Z" fill="#fff"/><path d="M200.93,70.82a4.36,4.36,0,0,1-.78,1,4.92,4.92,0,0,1-5.38-.22c-1.36-1.16-1.75-3.71-.86-5.64a4.45,4.45,0,0,1,4.55-2.16c1.89.27,2.86,1.8,2.51,4.19l-5.49.28a2.48,2.48,0,0,0,.93,2.44c1.4,1.11,2.85.64,4.25-.14Zm-1.76-3.65c.12-1.74-.56-2.71-1.83-2.66s-2,1.07-1.82,2.66Z" fill="#fff"/><path d="M123.81,68.07h-5.35c-.3,2.81,1.52,3.65,5.38,2.74a4.29,4.29,0,0,1-.83,1,4.88,4.88,0,0,1-5.37-.29c-1.32-1.16-1.69-3.8-.79-5.65a4.47,4.47,0,0,1,4.59-2.1C123.31,64.06,124.28,65.68,123.81,68.07Zm-1.72-.89c.11-1.73-.57-2.71-1.83-2.67s-2,1.08-1.84,2.67Z" fill="#fff"/><path d="M51.47,70.81a4.6,4.6,0,0,1-.83,1,4.84,4.84,0,0,1-5.37-.31,5.1,5.1,0,0,1-.76-5.66,4.5,4.5,0,0,1,4.61-2.07,3.17,3.17,0,0,1,2.55,3.52,1.19,1.19,0,0,1-.85.66c-1.58.14-3.18.19-4.77.28C45.83,70.89,47.64,71.73,51.47,70.81ZM49.81,67.2c0-1,0-2-.93-2.36a2.72,2.72,0,0,0-2,.09A2,2,0,0,0,46,67.2Z" fill="#fff"/><path d="M105.56,70.8a4.27,4.27,0,0,1-.81,1,4.83,4.83,0,0,1-5.36-.28c-1.32-1.14-1.69-3.79-.8-5.65a4.48,4.48,0,0,1,4.58-2.11c1.87.31,2.81,1.87,2.4,4.2l-5.39.26C99.86,70.85,101.79,71.75,105.56,70.8Zm-5.43-3.6h3.73c0-1.85-.6-2.73-1.86-2.69S100.05,65.54,100.13,67.2Z" fill="#fff"/><path d="M29,71.84c-.07.06-.25.37-.43.37-1.44,0-2.87,0-4.61,0,.31-.39.45-.7.57-.69,1,.06,1.06-.5,1-1.26,0-1.52,0-3,0-4.64l-1.09-.16c0-.15-.06-.28,0-.29,1-.54,1.1-1.42,1.23-2.45a4.13,4.13,0,0,1,4.23-3.37v1.43c-.75.06-1.94-.11-2.08.2a13.74,13.74,0,0,0-.61,3.23H29.6l-.11,1.13-2.09.13c0,1.84-.07,3.63.06,5.4C27.49,71.22,28.36,71.47,29,71.84Z" fill="#fff"/><path d="M144.54,59.36V61c-2.39-.64-2.82-.06-2.44,3.27h2.13c0,.95,0,.95-2.21,1.32,0,1.68-.05,3.38,0,5.08,0,.29.62.58,1,.83a5.62,5.62,0,0,0,.78.38l-.11.29H138.9l-.11-.34,1.34-.52V65.65l-1-.17c0-.15-.06-.28,0-.29,1.09-.55,1.14-1.56,1.27-2.61A4.17,4.17,0,0,1,144.54,59.36Z" fill="#fff"/><path d="M170.87,72.08c0-.77,0-1.43,0-2.09,0-.2.27-.38.42-.57.14.19.37.36.42.57.37,1.56,1.5,2.25,2.9,1.58a2.08,2.08,0,0,0,1.05-1.35c0-.35-.6-.9-1.05-1.15a7,7,0,0,0-1.68-.44c-1.51-.38-2.14-1.09-2.1-2.38a2.52,2.52,0,0,1,2.25-2.45,7.77,7.77,0,0,1,2.1,0c1.42.16,1.64.48,1.43,1.9a2.39,2.39,0,0,1-.34.65c-.17-.2-.43-.37-.5-.59a1.85,1.85,0,0,0-2.5-1.17,1.82,1.82,0,0,0-.88,1.21c0,.33.49.84.89,1a9.42,9.42,0,0,0,2,.58c1,.25,1.87.67,2,1.85a2.74,2.74,0,0,1-1.38,2.66c-1.36.88-2.85.58-4.31.38A5.5,5.5,0,0,1,170.87,72.08Z" fill="#fff"/><path d="M202.13,72.05l.19-2.61.3-.12a4.71,4.71,0,0,1,.47.92,2.16,2.16,0,0,0,3.51,1,1.2,1.2,0,0,0-.31-2.09,15.12,15.12,0,0,0-2-.53c-1.51-.39-2.11-1.1-2.06-2.41a2.54,2.54,0,0,1,2.28-2.42,8.18,8.18,0,0,1,2.21,0,1.44,1.44,0,0,1,1.18,2.26.67.67,0,0,1-.3.26,1.2,1.2,0,0,1-.4-.44c-.44-1.1-1.36-1.75-2.3-1.39a2.23,2.23,0,0,0-1.15,1.26c-.08.25.54.88,1,1.09a14.45,14.45,0,0,0,2.12.63,2.26,2.26,0,0,1,.94,4c-1.36,1.33-3,1-4.64.82A5.27,5.27,0,0,1,202.13,72.05Z" fill="#fff"/><path d="M210.18,69.34a4.42,4.42,0,0,0,.43,1c.37.49.79,1.25,1.24,1.29a3.76,3.76,0,0,0,2.34-.58c.71-.49.35-1.6-.54-1.92-.72-.27-1.49-.42-2.24-.62a2,2,0,0,1-1.69-1.7,2.34,2.34,0,0,1,1.16-2.59,5,5,0,0,1,4.18-.16c.37.12.54,2,.19,2.19-.11.05-.52-.25-.61-.47a1.88,1.88,0,0,0-2.72-1.09,1.68,1.68,0,0,0-.7,1.19c0,.33.46.8.83.95a22.51,22.51,0,0,0,2.34.68,2.21,2.21,0,0,1,1.08,3.74c-1.38,1.64-3.21,1.28-5,1.07a6.12,6.12,0,0,1-.89-.29l.23-2.57Z" fill="#fff"/><path d="M97.53,71.9a2.15,2.15,0,0,1-.7.31c-1,0-2,0-3,0A2.65,2.65,0,0,1,93,72c.25-.15.49-.31.74-.45a2.31,2.31,0,0,1,.49-.1V61l-1.32-.78a14,14,0,0,1,1.4-.54c.52-.16,1.05-.26,1.79-.43,0,.61,0,1.13,0,1.65,0,3.07,0,6.15,0,9.22,0,.93.14,1.67,1.42,1.43Z" fill="#fff"/><path d="M41.93,59.28c0,1.69,0,3.28,0,4.86,0,2,.06,4,0,6,0,.94.14,1.65,1.36,1.43,0,1.16-.8.67-1.21.67-3,0-3,0-3.16-.66,1.23.22,1.32-.53,1.31-1.46,0-2.76,0-5.53,0-8.29,0-.62,0-1.19-.9-1.15-.15,0-.32-.24-.48-.37.12-.16.23-.42.39-.46C40.13,59.61,41,59.46,41.93,59.28Z" fill="#fff"/><path d="M91,59.27c0,3.74,0,7.32,0,10.9,0,1,.2,1.53,1.42,1.58-.19.16-.38.45-.57.46-1.13,0-2.26,0-3.39,0-.19,0-.37-.16-.55-.26l.5-.44c.27-.21.78-.39.79-.59,0-3.38,0-6.75,0-10.15a5.11,5.11,0,0,1-1-.15c-.15,0-.37-.27-.35-.35a.71.71,0,0,1,.38-.46C89.11,59.6,90,59.46,91,59.27Z" fill="#fff"/><path d="M20.43,65.3c.89-1.06,1.73-2,2.87-1.36.4.24.18,1.51.25,2.3-.32,0-.43.06-.47,0-.53-.44-1.15-1.13-1.78-.56a3.59,3.59,0,0,0-.9,2,20,20,0,0,0,0,2.68c0,.76.26,1.17,1.09,1.15.23,0,.47.23.71.36l-.1.27H17.18l-.11-.26c.2-.13.42-.38.61-.36.91.07,1-.48,1-1.17,0-1.17,0-2.33,0-3.5,0-1,0-1.9-1.52-1.75l0-.41,3.1-1Z" fill="#fff"/><path d="M181.19,63.74v6.41c0,.71-.08,1.48,1,1.38.11,0,.23.22.35.34-.16.12-.31.34-.47.34-1.34,0-2.69,0-4,0l-.13-.42,1.47-.56c0-1.57,0-3.3,0-5,0-.57-.07-1.11-.89-1-.16,0-.34-.2-.52-.32.15-.14.27-.36.45-.4C179.28,64.2,180.14,64,181.19,63.74Z" fill="#fff"/><path d="M180.42,59.77c.3.4.9.85.85,1.19a1.61,1.61,0,0,1-1.07,1c-.29.06-1-.56-1-.94s.45-.85.71-1.28Z" fill="#fff"/></g></g></svg>