<svg xmlns="http://www.w3.org/2000/svg" viewBox="0 0 250.94 68.83"><title>PARIVEDA</title><g id="Layer_2" data-name="Layer 2"><g id="Layer_1-2" data-name="Layer 1"><path d="M30,0c.5.12,1,.27,1.5.34a9.77,9.77,0,0,1,6.35,3.27A23.85,23.85,0,0,0,40,5.49a4.28,4.28,0,0,1,.55.87c-.35.16-.69.45-1,.45-1.32,0-2.65-.18-4-.1-2.1.14-4.17.1-5.74,2.17-1,1.29-2.81,1.8-5,1.53l2.3-2.13C20.35,9.69,15.31,12.88,12.45,19a4.3,4.3,0,0,0-.16,1.66c0,1.29,0,2.59,0,4-1.95-1.36-1.94-1.35-3.6.41-.37.4-.81.75-1.22,1.13L7,25.94c.5-1.28,1-2.54,1.5-3.83A9.94,9.94,0,0,0,9.32,19c-.1-4.5,1.53-8.39,3.94-12,.5-.75,1.08-1.45,1.52-2.23,1-1.7.79-2.28-.72-3.5C13.81,1,13.86.4,13.77,0H17.6C21,2.12,24.4.32,27.8,0Z" fill="#fff"/><path d="M41.59,23.6l1-.54c-8.81-.25-17.4-.1-24.47,5.86-.53-1-.83-2.11-1.57-2.72s-1.89-.66-2.86-1l-.05-.42a6.43,6.43,0,0,1,1-.51,1.26,1.26,0,0,1,.79,0c3.23,1.14,5.67-.34,8.27-2.08,3.42-2.3,7.14-4.16,10.73-6.19,2-1.12,2.11-1.41,1.48-3.62-.07-.21,0-.67.07-.69.37-.09.93-.25,1.15-.06a16.69,16.69,0,0,1,2.32,2.36,2.38,2.38,0,0,0,2.13,1A26.32,26.32,0,0,1,52.32,17a46.9,46.9,0,0,1,5.88,3.62c.15.1.26.61.18.68a1.87,1.87,0,0,1-1,.55c-1.7,0-3.39-.11-5.08-.26a4.44,4.44,0,0,0-3.61,1.07A5.72,5.72,0,0,1,41.59,23.6Z" fill="#fff"/><path d="M201,19.09V.5c.15-.08.29-.2.42-.2,5.47,0,10.94-.09,16.4.07,3.74.11,5.81,2.16,6,5.87a38.63,38.63,0,0,1-.28,8A5.18,5.18,0,0,1,218.16,19C212.5,19.21,206.83,19.09,201,19.09Zm4.05-3.46c4.2,0,8.33,0,12.45,0a2.14,2.14,0,0,0,2.2-2,71.2,71.2,0,0,0,.08-7.73,2.2,2.2,0,0,0-2.27-2.07c-4.13-.08-8.25,0-12.46,0Z" fill="#fff"/><path d="M121.34.35c5.72,0,11.35-.08,17,0a3.88,3.88,0,0,1,4.06,3.74c.31,2.28.73,4.68-1.18,6.64,1.93,2.52.83,5.42,1.2,8.29h-3.9V14.3c0-1.12-.44-1.88-1.65-1.89-3.82,0-7.64,0-11.65,0v6.66h-3.84Zm3.77,3.44c0,1.41,0,2.57,0,3.73s.31,1.39,1.35,1.37c2.71-.06,5.41,0,8.11,0a14.05,14.05,0,0,0,2.68-.21c1.87-.39,1.23-1.94,1.3-3.11a1.5,1.5,0,0,0-1.63-1.73C133,3.77,129.18,3.79,125.11,3.79Z" fill="#fff"/><path d="M197.05,7.68v3.51h-14v4.45h14.62V19.1H179.1V.4h18.47V3.77H183.05V7.68Z" fill="#fff"/><path d="M75.86.35c5.74,0,11.36-.08,17,0,2.15,0,3.48,1.48,3.72,3.67a17.82,17.82,0,0,1,0,4.13c-.37,2.92-2,4.13-5.38,4.19-3.24,0-6.48,0-9.72,0H79.73v6.7H75.86Zm4,8.52H90.27a4.65,4.65,0,0,0,1.4-.2c1.53-.55,1.07-1.89,1.07-3,0-.93-.27-1.87-1.47-1.88-3.79,0-7.59,0-11.46,0Z" fill="#fff"/><path d="M119.56,19.18a29,29,0,0,1-3.89-.05A2,2,0,0,1,114.39,18c-.79-2.05-2.2-2.58-4.31-2.45-3,.19-6,0-9.07.09a2,2,0,0,0-1.59.87c-1.06,3.05-3.36,3-6,2.55.31-.58.57-1.14.88-1.67l9.42-15.85a3.36,3.36,0,0,1,5.44,0q4.78,8.06,9.57,16.12C119,18,119.16,18.46,119.56,19.18Zm-17.49-7.26h8.71c-1.49-2.53-2.87-4.86-4.37-7.39Z" fill="#fff"/><path d="M224.36,19l6.78-11.45c1.28-2.14,2.54-4.28,3.83-6.41.78-1.28,4.16-1.33,4.92-.07q5.19,8.65,10.32,17.34a5,5,0,0,1,.27.76,20.83,20.83,0,0,1-3.73-.06,2.5,2.5,0,0,1-1.45-1.39c-.75-1.76-1.92-2.32-3.83-2.2-3.12.18-6.26,0-9.39.09-.56,0-1.45.41-1.6.84C229.41,19.45,227.15,19.53,224.36,19ZM237.45,4.53l-4.35,7.38h8.71Z" fill="#fff"/><path d="M164.37,14.58c2.38-4.3,4.7-8.29,6.79-12.39C172,.61,172.92,0,174.61.24a14.9,14.9,0,0,0,2.15,0c-1.13,2.05-2.13,3.9-3.15,5.73-2.26,4.08-4.51,8.17-6.79,12.24-.75,1.34-4.13,1.46-4.86.15Q157.09,9.64,152.25.85a3.06,3.06,0,0,1-.06-.56,35.41,35.41,0,0,1,3.86.05c.37,0,.75.66,1,1.08,2.12,3.8,4.2,7.61,6.31,11.42C163.62,13.34,163.93,13.83,164.37,14.58Z" fill="#fff"/><path d="M247.84,32.07c.29-1.83-.78-2.18-2.27-2.14-1.75,0-3.5,0-5.25,0-.94,0-1.85.24-1.78,1.52s1,1.13,1.86,1.16c2.38.06,4.77,0,7.14.23s3.44,1.49,3.4,4.08c0,2.4-1.11,3.68-3.53,3.82a66.14,66.14,0,0,1-7.45.08c-3.49-.19-4.4-1.35-4.19-5h2.59c.42,2.46.42,2.47,3,2.47,1.7,0,3.4,0,5.1,0,1.11,0,1.71-.56,1.67-1.65s-.85-1.19-1.71-1.2c-2.22,0-4.45,0-6.68-.09-2.67-.12-4-1.45-4-3.93s1.08-3.85,3.86-4a55.42,55.42,0,0,1,7.29,0c3,.2,3.91,1.49,3.69,4.65Z" fill="#fff"/><path d="M90.52,32.13H88.06c-.66-2.18-.66-2.19-3.13-2.2-1.48,0-3,0-4.45,0-.92,0-1.89.13-1.9,1.4s.94,1.28,1.88,1.29c2.34,0,4.68,0,7,.21,2.64.23,3.51,1.42,3.46,4.3,0,2.32-1.14,3.52-3.68,3.65s-5,.16-7.46,0c-3.26-.16-4.33-1.61-3.88-5h2.45c.54,2.48.54,2.48,3.16,2.48h4.93c1.1,0,1.7-.5,1.67-1.64s-.85-1.19-1.68-1.21c-2.23,0-4.46,0-6.68-.09-2.62-.11-4-1.49-4.06-3.93s1.15-3.85,3.9-4a54.87,54.87,0,0,1,7.14,0C89.88,27.63,90.73,28.77,90.52,32.13Z" fill="#fff"/><path d="M105.66,41.1c-1.64-.1-3.29-.13-4.91-.3a3.4,3.4,0,0,1-3.4-3.35,43.42,43.42,0,0,1,0-6.65,3.26,3.26,0,0,1,3.36-3.36c3.27-.16,6.56-.15,9.83,0a3.24,3.24,0,0,1,3.31,3.25,41.48,41.48,0,0,1,0,7c-.17,1.92-1.45,2.91-3.41,3.17-.53.07-1,.16-1.58.18-1.06,0-2.12,0-3.18,0Zm.06-11.17c-1.27,0-2.55,0-3.82,0a1.59,1.59,0,0,0-1.77,1.78c0,1.59,0,3.19,0,4.78a1.55,1.55,0,0,0,1.63,1.76c2.54.06,5.09.05,7.64,0a1.55,1.55,0,0,0,1.68-1.71c0-1.64,0-3.29,0-4.93,0-1.21-.73-1.69-1.85-1.7Z" fill="#fff"/><path d="M198,27.13c1.69.09,3.33.1,5,.3a3.48,3.48,0,0,1,3.37,3.4,48.77,48.77,0,0,1,0,6.51,3.42,3.42,0,0,1-3.48,3.45c-3.22.13-6.45.12-9.67,0a3.2,3.2,0,0,1-3.36-3.17,41.18,41.18,0,0,1,0-7.11,3.19,3.19,0,0,1,3.13-3.06C194.61,27.23,196.31,27.22,198,27.13ZM197.9,38.3h0c1.28,0,2.55,0,3.82,0a1.65,1.65,0,0,0,1.79-1.8c0-1.54,0-3.08,0-4.62a1.73,1.73,0,0,0-2-1.93h-7.16a1.66,1.66,0,0,0-1.85,1.88c0,1.54,0,3.08,0,4.62a1.66,1.66,0,0,0,1.87,1.86C195.57,38.31,196.73,38.3,197.9,38.3Z" fill="#fff"/><path d="M226.36,37.13V27.54h2.83V40.66c-1.69.23-3.21.39-4.67-1.16-2.64-2.8-5.55-5.37-8.64-8.31V40.7h-2.94V27.55c1.81-.2,3.38-.3,4.87,1.29C220.4,31.63,223.26,34.16,226.36,37.13Z" fill="#fff"/><path d="M138.34,27.48h2.92v8.41c0,2.4,0,2.41,2.37,2.42,1.86,0,3.71,0,5.57,0,1.21,0,1.73-.52,1.7-1.73-.05-1.49,0-3,0-4.46V27.56h2.77c0,3.61.11,7.24,0,10.87A2.55,2.55,0,0,1,151,40.74c-3.23.11-6.47.13-9.7,0a2.73,2.73,0,0,1-2.87-2.83C138.24,34.49,138.34,31.05,138.34,27.48Z" fill="#fff"/><path d="M57.19,38.59c-2.28,2.29-5.13,3.17-8.11,3.79a25.23,25.23,0,0,1-16.27-2c-3-1.42-6.09-2.74-9.07-4.24-5.2-2.6-10.67-3-16.29-2.21-2.45.33-4.88.85-7.45,1a55,55,0,0,1,5.46-2,27.21,27.21,0,0,1,19.06,1.72C28.21,36.37,32,38,35.79,39.37,42.92,41.9,50,40.81,57.19,38.59Z" fill="#fff"/><path d="M150,19.09h-3.78V.39H150Z" fill="#fff"/><path d="M159.35,30v-2.5h15V30h-5.9V40.67h-3c0-2.88-.11-5.78,0-8.67.08-1.64-.43-2.16-2-2A40.17,40.17,0,0,1,159.35,30Z" fill="#fff"/><path d="M132.81,38.16v2.53H120.68V27.55h2.76V38.16Z" fill="#fff"/><path d="M126.06,57.76h3.33c1.43,0,2.89.09,3.47,1.65s-.11,2.67-1.44,3.56a2.44,2.44,0,0,1,1.19,3.18,3.23,3.23,0,0,1-3.07,2.36c-1.85.08-3.7,0-5.73,0C124.57,64.91,125.3,61.42,126.06,57.76Zm.3,6c-.25,1.24-.47,2.34-.74,3.71a20.37,20.37,0,0,0,4.25-.53c.6-.2,1.07-1.3,1.2-2.06,0-.27-1.06-.93-1.71-1.07A15.49,15.49,0,0,0,126.36,63.72Zm.35-1.52a14.81,14.81,0,0,0,3.35-.07,2.44,2.44,0,0,0,1.4-1.55c.27-1-.54-1.39-1.41-1.45s-1.76,0-2.71,0C127.13,60.15,126.93,61.11,126.71,62.2Z" fill="#fff"/><path d="M180.1,27.5h2.83V40.67H180.1Z" fill="#fff"/><path d="M107.89,68.25c.32-1.66.69-3.32,1-5,.21-1.3-.46-1.91-1.6-1.32a4.39,4.39,0,0,0-1.82,2c-.48,1.1-.52,2.38-.89,3.53-.15.47-.66.83-1,1.23L103,68.4c.48-2.42,1-4.83,1.44-7.24a13.39,13.39,0,0,1,.6-2.46c.18-.45.71-.75,1.08-1.12l.4.35-.61,3.5c.52-.25.88-.45,1.25-.61,2-.82,3.46.19,3.18,2.32a33.86,33.86,0,0,1-1,4.66c-.1.38-.77.6-1.17.9Z" fill="#fff"/><path d="M168.6,65h-6.15c.72,1,1.06,2.11,1.67,2.29s1.55-.43,2.32-.74c.53-.22,1-.52,1.88-1-1,2.67-2.78,3.54-5,2.85-1.3-.4-2.09-2.21-1.71-4,.31-1.5.9-3,2.45-3.45a5.36,5.36,0,0,1,3.56.25C169,62,168.9,63.49,168.6,65Zm-1.19-1.25c0-1.18-.37-2-1.58-2-1.37-.07-2.09.7-2.45,2Z" fill="#fff"/><path d="M118.54,65h-6c.62,1,.91,2.07,1.49,2.26s1.58-.34,2.35-.64A10.09,10.09,0,0,1,118,66c-.9,2.4-2.92,3.3-4.94,2.45-1.38-.58-2-2.58-1.39-4.62a4.1,4.1,0,0,1,4.81-3.15C118.19,61,118.93,62.51,118.54,65Zm-5.29-1.27h4.08l.32-.45c-.58-.52-1.1-1.34-1.76-1.49C114.57,61.51,113.8,62.42,113.25,63.76Z" fill="#fff"/><path d="M192,68.53c-2.35,0-3.23-.83-3.24-3.08,0-2.88,1.64-4.83,4.1-4.85,2.14,0,3.29,1.17,3.28,3.37C196.11,66.79,194.53,68.53,192,68.53Zm2.68-4.68c0-1-.23-2-1.75-2.1s-2.84,1.61-2.82,3.62c0,1.15.41,2.15,1.77,2.22S194.6,66,194.67,63.85Z" fill="#fff"/><path d="M183.65,63.29c-.44-.29-.87-.61-1.33-.86a3.82,3.82,0,0,0-1.52-.63c-.41,0-.83.44-1.25.69a4.08,4.08,0,0,0,.79,1c.56.38,1.36.49,1.81,1a3.53,3.53,0,0,1,1.15,2c0,1.26-.89,2-2.2,2-2.49.13-3.78-.36-4-1.65-.06-.33.2-.72.32-1.08a8.43,8.43,0,0,1,1.06.59c.44.35.82,1.08,1.23,1.09a6.26,6.26,0,0,0,2.06-.69,8,8,0,0,0-1.08-1.47,12.47,12.47,0,0,0-1.55-.78,2,2,0,0,1-.09-3.53A2.92,2.92,0,0,1,183.65,63.29Z" fill="#fff"/><path d="M157.81,68.83c.42-2.09.79-3.68,1-5.29.08-.52-.09-1.51-.28-1.55a2.6,2.6,0,0,0-1.9.27,4.8,4.8,0,0,0-1.34,2.06c-.36,1-.41,2.19-.75,3.24-.15.45-.71.76-1.09,1.13l-.47-.34c.48-2.37.94-4.74,1.48-7.09.05-.23.51-.48.81-.52a3.09,3.09,0,0,1,1.05.22l-.55.45a15.26,15.26,0,0,1,2.64-.78,1.6,1.6,0,0,1,1.94,1.9,45.52,45.52,0,0,1-1,5.45C159.29,68.29,158.55,68.44,157.81,68.83Z" fill="#fff"/><path d="M141.67,61c-.47,2.32-.93,4.65-1.43,7-.06.24-.42.59-.6.57a4.83,4.83,0,0,1-1.22-.56,1.53,1.53,0,0,1-.74.42c-.92.05-2.05.28-2.71-.15-.51-.33-.65-1.59-.57-2.4a22.5,22.5,0,0,1,.89-4.19c.13-.42.72-.7,1.11-1l.38.34c-.32,1.65-.7,3.3-.94,5-.07.5.06,1.32.39,1.51a1.69,1.69,0,0,0,1.58-.2,6.4,6.4,0,0,0,1.56-2.29c.4-1,.43-2.18.76-3.24.14-.43.66-.75,1-1.11Z" fill="#fff"/><path d="M176.35,63.36l-1.44-.83c-.43-.26-.85-.71-1.29-.73a4,4,0,0,0-1.49.56A5,5,0,0,0,173,63.6c.54.4,1.25.57,1.83.93,1.38.88,1.52,3,.06,3.51a10.4,10.4,0,0,1-4.54-.06c-.37,0-.64-1.1-.81-1.74,0-.11.67-.41,1.12-.68.42,1.45,1.15,2.31,2.56,2a1.78,1.78,0,0,0,1.08-1c.09-.24-.36-.83-.7-1.06-.61-.41-1.35-.62-2-1a1.86,1.86,0,0,1-.76-2.73c.78-1.43,2.21-1.35,3.53-1.13S176.44,61.58,176.35,63.36Z" fill="#fff"/><path d="M148.94,63.37l-1.44-.85A4.23,4.23,0,0,0,146,61.8c-.41,0-.87.37-1.3.58a4.08,4.08,0,0,0,.79,1.17c.59.42,1.34.61,2,1a2,2,0,0,1,.6,3c-1,1.39-4.65,1.42-5.52,0-.27-.45-.38-1.44-.13-1.65.67-.56.89.22,1.33.66a4.39,4.39,0,0,0,2.29.92c.25,0,.77-.56.88-.94s-.3-.77-.6-1c-.61-.4-1.34-.62-2-1a2,2,0,0,1,0-3.68A2.94,2.94,0,0,1,148.94,63.37Z" fill="#fff"/><path d="M219.41,57.76c-.8,2.23-2.55.69-3.9,1.8-.45,2.19-1,4.85-1.56,7.52-.19.88-.32,1.86-1.82,1.28L214,59.14,210.73,59l-.24-.34c.35-.29.68-.83,1-.84C214.06,57.72,216.59,57.76,219.41,57.76Z" fill="#fff"/><path d="M96.66,68.37c.63-3.07,1.25-6.06,1.9-9.24L95.25,59,95,58.6c.36-.28.72-.79,1.08-.8,2.48-.08,5,0,7.45,0l.28.44a4.08,4.08,0,0,1-1.08.81,3.34,3.34,0,0,1-1.41,0c-1-.13-1.31.34-1.48,1.2-.46,2.38-1,4.75-1.44,7.14C98.24,68.36,97.84,68.78,96.66,68.37Z" fill="#fff"/><path d="M198.26,62l-1.34-.49c.47-.38.77-.61,1-.86s.65-.49.75-.8c.75-2.28,1.13-2.52,4.1-1.92-.63.46-1,.73-1.33,1L199.89,60l1.42,1.31-1.49.77c-.53,2-1.08,4.2-1.69,6.36a4.55,4.55,0,0,1-1.14,0C197.41,66.34,197.82,64.25,198.26,62Z" fill="#fff"/><path d="M205.48,68.23c.64-3.1,1.29-6.2,1.92-9.3.18-.91.51-1.5,1.75-1-.69,3.29-1.36,6.64-2.14,10-.08.34-.85.51-1.3.76Z" fill="#fff"/><path d="M152.54,61c-.48,2.31-.91,4.64-1.46,6.93-.09.34-.73.55-1.11.82l-.37-.32c.47-2.35.92-4.71,1.47-7,.07-.32.68-.51,1.05-.76Z" fill="#fff"/><path d="M222,61.52a2.38,2.38,0,1,1,.05-4.75,2.38,2.38,0,1,1-.05,4.75Zm-1-3.74c-1.07,1.94-.68,2.48,2,2.75a1.45,1.45,0,0,0,.5-2.44C222.77,57.23,221.94,56.86,221,57.78Z" fill="#fff"/></g></g></svg>