<svg xmlns="http://www.w3.org/2000/svg" viewBox="0 0 341.96 89.44"><title>TRANSUNION</title><g id="Layer_2" data-name="Layer 2"><g id="Layer_1-2" data-name="Layer 1"><g id="hKUZ28.tif"><path d="M0,46.53c9.54,0,19.09.12,28.63,0,2.1,0,2.67.58,2.58,2.63-.16,3.67-.05,3.68-3.72,3.68-1.88,0-3.77.14-5.63,0-2.19-.21-2.94.37-2.9,2.77.16,10.15,0,20.29.12,30.44,0,2-.56,2.54-2.53,2.47-4.32-.14-4.33,0-4.33-4.43,0-9.7,0-19.39,0-29.09,0-1.66-.38-2.23-2.12-2.16-3.37.13-6.76,0-10.14,0Z" fill="#fff"/><path d="M129.63,89.44c-1-.87-2.4-.56-3.59-.92-3.35-1-6-2.85-7.1-6.32-.47-1.41-.4-2.56,1.64-2.31a12.09,12.09,0,0,0,2.48,0,2.13,2.13,0,0,1,2.38,1.4c1.77,3.32,9.31,3.92,11.87,1.09A3.22,3.22,0,0,0,136,77c-2.56-1-5.3-1-8-1.5a17.34,17.34,0,0,1-4.75-1.35,6.91,6.91,0,0,1-2.33-11,9.32,9.32,0,0,1,3.77-2.8,18.41,18.41,0,0,1,13.86.07,7.71,7.71,0,0,1,5,5.44c.28,1.18.19,2.11-1.45,1.94a22.28,22.28,0,0,0-2.71,0c-.77,0-1.37,0-1.7-1-1.17-3.52-9.34-3.47-11.37-.87a2.69,2.69,0,0,0,1.33,4.48c2.49.89,5.16.92,7.74,1.44a25.73,25.73,0,0,1,3.71.9c2.62,1,4.55,2.58,5,5.53a8,8,0,0,1-2.88,8A13.44,13.44,0,0,1,134.63,89c-.49.08-1.09-.15-1.38.49Z" fill="#fff"/><path d="M311.85,60.12a30,30,0,0,1-29.1-22.32c-.28-1.11-.81-2.38,1.05-2.4,1.33,0,3-1.78,3.85,1.12,2.86,10,9.5,16.19,19.74,18.22a25.1,25.1,0,1,0-15.85-39.42c-1.32,1.82-2.93,3.93-1.8,6.18s3.61,1.24,5.57,1.46c2.15.25,3.45-.48,3.76-2.74a13.11,13.11,0,0,1,.69-2.15c1.14-3.45,1.33-3.53,4.91-3.19,1.11.1,1.26.54,1,1.43-.56,1.72-1.07,3.46-1.71,5.14-.49,1.28-.05,1.63,1.16,1.5a2.58,2.58,0,0,1,.68,0c1.05.2,2.58-.63,3.07.51s-.44,2.43-.86,3.63-1.33.77-2.12.79c-4,.09-4,.08-5.26,3.92-.12.36-.23.71-.34,1.07-1.09,3.54.23,5.08,3.85,4.52.62-.09,1.43-.76,1.84,0a24.64,24.64,0,0,1,1.36,3.78c0,.08-.41.39-.67.47-3.21,1.05-6.37,1.27-9.26-.85-2.36-1.73-3.16-5.12-2.15-8.65,1.15-4,1.15-4-3.12-4.31-7-.46-10-5.53-6.78-11.87A28.17,28.17,0,0,1,305.89.58c17.68-3.37,33.77,8.21,35.85,26A29.84,29.84,0,0,1,311.85,60.12Z" fill="#fff"/><path d="M181.61,62.14c0,3.77-.14,7.54,0,11.29.39,8.45-5,14.72-14.69,15.48a17.55,17.55,0,0,1-13.27-4,12.59,12.59,0,0,1-4.54-9.72c-.1-9,0-17.91-.08-26.87,0-1.45.53-1.73,1.85-1.75,5.26-.09,5.26-.13,5.26,5.09,0,7.37,0,14.75,0,22.13,0,5.54,3.43,8.81,9.15,8.86s9.38-3.35,9.42-8.9c0-8.35.06-16.71,0-25.07,0-1.72.51-2.15,2.17-2.13,4.72.06,4.72,0,4.72,4.73Z" fill="#fff"/><path d="M73.93,83.8c-5.11,5.65-11.47,6.89-17,3.12-4.68-3.17-6-8-5.61-13.27.7-10.29,8.52-15.89,20.08-14.3a31.76,31.76,0,0,1,6.53,1.72,2.07,2.07,0,0,1,1.57,2.32c-.06,5.71,0,11.43,0,17.15,0,1.71.17,3,2.28,3.5,1.72.38.57,2,.81,3.07.2.83-.14,1.33-1.1,1.58C77.91,89.61,75.4,88,73.93,83.8Zm-.8-12.54c0-1.65-.09-2.78,0-3.9.16-1.49-.52-2.07-1.9-2.47C63.17,62.56,56.78,68,57.88,76.3c.54,4.11,3.13,6.59,7.11,6.79s6.76-2,7.7-6.09A22.45,22.45,0,0,0,73.13,71.26Z" fill="#fff"/><path d="M274,63.21c2.39-3,5.55-4,9.18-4.06,7.2,0,11.54,4.12,11.72,11.38.1,3.68.05,7.37,0,11.06,0,1.45.37,2.66,2,2.7,1.85.06,1.42,1.28,1.52,2.35s-.2,1.91-1.57,2.18c-5.31,1.08-8.51-1.39-8.61-6.85-.07-3.54,0-7.08,0-10.61,0-4.26-2.4-6.8-6.37-6.91a6.77,6.77,0,0,0-7.3,6.68c-.17,5-.15,10.09,0,15.12,0,1.83-.53,2.29-2.29,2.26-4.44-.09-4.44,0-4.44-4.56V67.25c0-1.57-.07-2.93-2.22-3.24-1.66-.23-.63-1.84-.83-2.81-.17-.8-.15-1.77,1-1.88C269.86,59,272.47,58.69,274,63.21Z" fill="#fff"/><path d="M232.52,73.86c0-8.86,6-14.71,15-14.7,9.2,0,15.3,5.86,15.31,14.7S256.46,89,247.51,89,232.52,82.76,232.52,73.86Zm23.66,0c0-5.4-3.44-8.92-8.63-8.88s-8.61,3.57-8.61,8.93,3.56,9.2,8.68,9.22S256.2,79.35,256.18,73.85Z" fill="#fff"/><path d="M195.14,63.06c3.2-3.63,7.22-4.25,11.48-3.83,5.2.52,9,4.7,9.24,10.3.2,5.79,0,11.58.09,17.37,0,1.15-.33,1.61-1.54,1.58-6.29-.14-5,.85-5.1-4.82-.08-4.14,0-8.28,0-12.41s-2.5-6.73-6.48-6.8a6.87,6.87,0,0,0-7.23,6.77c-.13,5-.11,10.08,0,15.12,0,1.67-.42,2.19-2.13,2.17-4.61-.07-4.61,0-4.61-4.61,0-5.56,0-11.13,0-16.69,0-1.6-.08-2.9-2.23-3.2-1.62-.23-.62-1.86-.81-2.84a1.38,1.38,0,0,1,1.06-1.88C190.54,58.26,193.4,59.46,195.14,63.06Z" fill="#fff"/><path d="M93.38,63.29c3.55-4.11,8-4.75,12.69-3.83A9.78,9.78,0,0,1,114.21,69c.27,6,.1,12,.16,18,0,1.1-.44,1.37-1.47,1.44-5,.33-5,.36-5-4.64,0-3.91,0-7.82,0-11.73,0-5-2.48-7.68-6.86-7.67-4.16,0-7,3.1-7.07,7.68,0,4.82-.07,9.63,0,14.44,0,1.48-.42,1.92-1.91,1.93-4.83,0-4.83.09-4.83-4.84,0-5.64,0-11.28,0-16.92,0-1.42-.27-2.6-2-2.63-1,0-1.14-.64-1-1.36.18-1.11-.68-2.51.71-3.28C87.92,57.79,92.24,59.62,93.38,63.29Z" fill="#fff"/><path d="M37.25,63.07a11.28,11.28,0,0,1,13.38-2.94c1.3.63,1.72,1.33.83,2.58a5.21,5.21,0,0,0-.78,1.37c-.57,1.71-1.49,1.93-3.23,1.4-5.69-1.71-9.88,1.51-9.88,7.42,0,4.59,0,9.18,0,13.76,0,1.34-.36,1.82-1.77,1.84-4.67.08-4.67.14-4.67-4.53,0-5.49,0-11,0-16.47,0-1.7,0-3.18-2.39-3.61-1.56-.29-.52-2-.75-3.13a1.15,1.15,0,0,1,.9-1.53A7,7,0,0,1,37.25,63.07Z" fill="#fff"/><path d="M332.61,38.08c-1,5.5-4.38,5.24-8.47,3-1.44-.79-2.23-.88-3.5-.05a9.05,9.05,0,0,1-4.93,1.39,6.69,6.69,0,0,1-6.87-8.58c.85-3.26,2-6.46,3-9.68.35-1.08,4.43-1.85,5.13-1,.43.53.05,1.14-.12,1.7-1,3-1.92,6-2.91,9-.35,1-.57,2.07.33,2.93a2.74,2.74,0,0,0,3.16.32,7.52,7.52,0,0,0,4.55-5c.86-2.65,1.65-5.31,2.52-8,.36-1.09,4.64-1.92,5.32-1,.38.49,0,1-.18,1.47-.86,2.72-1.77,5.43-2.64,8.14-1.28,4-.34,5.23,3.88,5.3Z" fill="#fff"/><path d="M221.34,74c0-4.21,0-8.42,0-12.63,0-1.39.41-1.77,1.79-1.79,4.87-.06,4.87-.11,4.87,4.79,0,7.37,0,14.74,0,22.1,0,1.59-.48,2-2,2-4.62,0-4.62,0-4.62-4.57Z" fill="#fff"/><path d="M224.75,47a3.63,3.63,0,0,1,3.78,3.86,3.7,3.7,0,0,1-4.06,3.83,3.78,3.78,0,0,1-3.85-3.86A3.85,3.85,0,0,1,224.75,47Z" fill="#fff"/><path d="M304.84,88.43a3.24,3.24,0,0,1-3.41-3.66A3.94,3.94,0,0,1,305.65,81a4,4,0,0,1,3.71,4.49c-.2,2-1.32,3-3.61,2.83,2.23-.8,3.13-2.23,2.62-4.27a2.9,2.9,0,0,0-2.8-2.22,2.82,2.82,0,0,0-3,2C301.74,86,303,87.27,304.84,88.43Z" fill="#fff"/><path d="M307.41,87c-1.44-.54-2.2-2.17-3,0-.6-1.51-.76-2.75-.08-3.72s2.76,0,2.67,1.18C307,85.19,306.23,85.79,307.41,87Z" fill="#fff"/></g></g></g></svg>