<svg xmlns="http://www.w3.org/2000/svg" viewBox="0 0 159.66 63.91"><title>WORKDAY</title><g id="Layer_2" data-name="Layer 2"><g id="Layer_1-2" data-name="Layer 1"><path d="M81.69,0a45.52,45.52,0,0,1,43.29,27,2.94,2.94,0,0,1,.34,1.86,2.55,2.55,0,0,1-4.88.47A40.44,40.44,0,0,0,92.54,6,40.85,40.85,0,0,0,74.07,6,40.38,40.38,0,0,0,51.94,19.83a39.93,39.93,0,0,0-5.79,9.57A2.55,2.55,0,0,1,44.24,31a2.54,2.54,0,0,1-2.84-3.39A45.49,45.49,0,0,1,81.69,0Z" fill="#fff"/><path d="M74.14,29.53a.89.89,0,0,1,.9-.88c.61,0,1.22,0,1.83,0,.42,0,.91.29.91.76,0,5.57,0,11.14,0,16.71,2.25-2.51,4.53-5,6.79-7.5.45-.44.8-1.11,1.49-1.16.94,0,1.88,0,2.81,0,.36,0,.76.3.64.68a3.48,3.48,0,0,1-.64.74c-2.45,2.45-4.91,4.88-7.34,7.34,2.35,2.69,4.67,5.4,7,8.1a10.16,10.16,0,0,1,.93,1.13.54.54,0,0,1-.47.75c-.78,0-1.56,0-2.34,0A2.6,2.6,0,0,1,85.47,56a3.73,3.73,0,0,1-.9-1c-2.26-2.84-4.51-5.7-6.77-8.54,0,2.8,0,5.6,0,8.4,0,.32,0,.71-.23,1-.44.43-1.11.28-1.67.3s-1.08.1-1.48-.27a.87.87,0,0,1-.27-.74q0-12.82,0-25.65Z" fill="#fff"/><path d="M63.85,37.39a5.07,5.07,0,0,1,3.52,0c.39.18.84.57.67,1.05s-.33,1.22-.55,1.81a.91.91,0,0,1-1.06.5,14.17,14.17,0,0,0-2.81-.44,2.42,2.42,0,0,0-1.74.81,4.9,4.9,0,0,0-1.29,2.73,12.39,12.39,0,0,0-.11,2.2v9.21c0,.51-.48.85-.93.87-.63,0-1.25,0-1.88,0-.45,0-1-.35-.9-.86q0-8.54,0-17.06c0-.57.59-.88,1.08-.82s1.46-.19,1.86.43.45,1.49.73,2.22a7.17,7.17,0,0,1,3.41-2.69Z" fill="#fff"/><path d="M0,37.83a.86.86,0,0,1,.67-.4c.85,0,1.7,0,2.55,0a.87.87,0,0,1,.79.79q1.25,5.09,2.48,10.19c.25,1,.55,2.09.71,3.16s.19,1.93.35,2.89a35.5,35.5,0,0,1,.77-4.09l3.27-12.16a1,1,0,0,1,1-.79c.94,0,1.89,0,2.84,0a1.13,1.13,0,0,1,1.17.79c.81,3,1.61,5.92,2.42,8.88a54.34,54.34,0,0,1,1.41,5.76c.08.54.15,1.09.27,1.62a78.28,78.28,0,0,1,1.75-9.11C23,43,23.5,40.55,24,38.14a1,1,0,0,1,1-.71c.77,0,1.53,0,2.3,0a.67.67,0,0,1,.55.92q-2.3,8.49-4.6,17a1,1,0,0,1-.94.82c-1.18,0-2.37,0-3.55,0a.85.85,0,0,1-.95-.65c-1.06-3.89-2.1-7.79-3.15-11.69a26.45,26.45,0,0,1-.7-4.15,33.56,33.56,0,0,1-.62,3.72l-3.24,12c-.12.65-.86.78-1.41.74-1.11,0-2.21,0-3.31,0a.82.82,0,0,1-.77-.68Q2.38,47,.06,38.57A3.64,3.64,0,0,1,0,37.83Z" fill="#fff"/><path d="M139,37.44h2.42a1.21,1.21,0,0,1,1.1.81l4.16,10.91a11.14,11.14,0,0,1,.62,2.28c.57-2.15,1.34-4.25,2-6.38q1.11-3.45,2.24-6.9a1,1,0,0,1,.9-.7c.66-.05,1.32,0,2,0,.39,0,.85,0,1.14.27a.56.56,0,0,1,.07.64q-3.33,9.49-6.65,19a14.92,14.92,0,0,1-1.3,3.11,7.47,7.47,0,0,1-3.92,3c-.55.18-1.13.56-1.72.34-.42-.11-.59-.55-.81-.87s-.46-.56-.4-.93a.9.9,0,0,1,.66-.75,5.54,5.54,0,0,0,1.89-1,7.6,7.6,0,0,0,2.44-4.43c-.21-.75-.6-1.43-.88-2.15q-3.18-7.38-6.36-14.76a4,4,0,0,1-.35-1c0-.39.44-.55.77-.57Z" fill="#fff"/><path d="M40.74,37.12a9.39,9.39,0,0,1,6,1.55,8.26,8.26,0,0,1,3.08,4.6,13.49,13.49,0,0,1,.05,6.65,8.39,8.39,0,0,1-3.41,5A9.53,9.53,0,0,1,40,56.26a8.29,8.29,0,0,1-5-2.43,9.72,9.72,0,0,1-2.45-6,11.34,11.34,0,0,1,1.53-7.07,7.83,7.83,0,0,1,4.35-3.22,11,11,0,0,1,2.28-.41Zm-.49,2.7a4.15,4.15,0,0,0-2.79,2,10.39,10.39,0,0,0-1.05,5.55,8.31,8.31,0,0,0,1.43,4.9,4.29,4.29,0,0,0,3.44,1.54,4.35,4.35,0,0,0,3.4-1.33,7.38,7.38,0,0,0,1.58-4.36,15.43,15.43,0,0,0-.3-4.55,5,5,0,0,0-2.12-3.18,5.37,5.37,0,0,0-3.59-.53Z" fill="#fff"/><path d="M107.32,29.29c0-.44.42-.71.81-.75.62,0,1.24,0,1.86,0s1,.35.94.88V55.18a.85.85,0,0,1-.82.81,10.44,10.44,0,0,1-1.48,0,.91.91,0,0,1-.8-.57c-.19-.56-.28-1.14-.43-1.71a6,6,0,0,1-2.67,2.16,8.5,8.5,0,0,1-4.92.2,6,6,0,0,1-3.81-3,14.27,14.27,0,0,1-1.29-7.36,9.68,9.68,0,0,1,1.84-6.06A6.47,6.47,0,0,1,101,37.2a6.4,6.4,0,0,1,4.7,1,6.93,6.93,0,0,1,1.58,1.66q0-5.28,0-10.58Zm-4.93,10.44a3.32,3.32,0,0,0-2.76,1.77,13,13,0,0,0-1,6.32,10,10,0,0,0,.88,4.08,3.26,3.26,0,0,0,2.17,1.71,4.27,4.27,0,0,0,4.16-1.08,7.31,7.31,0,0,0,1.46-4.09,16.06,16.06,0,0,0-.3-4.94,5.69,5.69,0,0,0-1.61-2.9,3.91,3.91,0,0,0-3-.87Z" fill="#fff"/><path d="M123.07,37.48a10.48,10.48,0,0,1,5.1-.1,6.84,6.84,0,0,1,4,2.52,9.51,9.51,0,0,1,1.73,4.6,25.5,25.5,0,0,1,.13,3.81v6.88a.76.76,0,0,1-.38.67,2.68,2.68,0,0,1-1.29.16c-.48,0-1.12,0-1.38-.46a13.12,13.12,0,0,1-.47-1.87,7,7,0,0,1-2.25,2.05A7.84,7.84,0,0,1,119,53.05a11.15,11.15,0,0,1-1.7-6.34,11.22,11.22,0,0,1,1.6-6.2,7.35,7.35,0,0,1,4.19-3Zm1.6,2.35a3.92,3.92,0,0,0-1.6.71,5,5,0,0,0-1.63,3,17.72,17.72,0,0,0-.17,5.39,6.24,6.24,0,0,0,1.47,3.7,4.71,4.71,0,0,0,6.28-.27,7.52,7.52,0,0,0,1.37-4.17,15.53,15.53,0,0,0-.39-5.13,4.54,4.54,0,0,0-1.8-2.66,5,5,0,0,0-3.53-.56Z" fill="#fff"/><path d="M156.53,51.07a2.84,2.84,0,0,1,1.7.17,2.4,2.4,0,0,1,1.42,2.34A2.45,2.45,0,0,1,157.6,56a2.53,2.53,0,0,1-1.07-4.94Zm-.13.5a2.09,2.09,0,0,0,1.42,3.94A2.09,2.09,0,0,0,159.18,53a2.11,2.11,0,0,0-2.78-1.4Z" fill="#fff"/><path d="M156.09,52.07a4.17,4.17,0,0,1,2,.23.8.8,0,0,1-.3,1.35c.16.42.38.81.58,1.22h-.76l-.54-1.13h-.32v1.13h-.72c0-.93,0-1.86,0-2.8Zm.71.44c0,.27,0,.54,0,.81a3.49,3.49,0,0,0,.71-.07c.21-.09.19-.36.13-.55-.22-.22-.56-.16-.84-.19Z" fill="#fff"/></g></g></svg>